<?xml version="1.0"?>
<!DOCTYPE svg PUBLIC "-//W3C//DTD SVG 1.1//EN" "http://www.w3.org/Graphics/SVG/1.1/DTD/svg11.dtd">
<!--Phoronix Test Suite v6.8.0m1 [ http://www.phoronix-test-suite.com/ ]-->
<svg xmlns="http://www.w3.org/2000/svg" xmlns:xlink="http://www.w3.org/1999/xlink" version="1.1" font-family="sans-serif, droid-sans, helvetica, verdana, tahoma" viewbox="0 0 600 552" width="600" height="552" preserveAspectRatio="xMinYMin meet">
  <rect x="0" y="0" width="600" height="552" fill="#FEFEFE" stroke="#757575" stroke-width="2"/>
  <g stroke="#757575" stroke-width="1">
    <line x1="93.5" y1="64" x2="93.5" y2="479"/>
    <line x1="93" y1="478.5" x2="586" y2="478.5"/>
  </g>
  <a xlink:href="http://www.phoronix-test-suite.com/" xlink:show="new">
    <text x="585" y="59" font-size="7" fill="#065695" text-anchor="end" xlink:show="new">PHORONIX-TEST-SUITE.COM</text>
  </a>
  <polygon points="102.5,56 93.5,60.5 93.5,51.5" fill="#065695" stroke="#949494" stroke-width="1"/>
  <text x="105" y="59" font-size="7" fill="#065695" text-anchor="start">MB/s, More Is Better</text>
  <rect x="0" y="0" width="600" height="48" fill="#231f20"/>
  <a xlink:href="http://openbenchmarking.org/test/pts/dbench-1.0.0" xlink:show="new">
    <text x="6" y="19" font-size="17" fill="#FEFEFE" text-anchor="start" xlink:show="new">Dbench v4.0</text>
  </a>
  <text x="6" y="36" font-size="11" fill="#FEFEFE" text-anchor="start">Client Count: 6</text>
  <path d="m74 22v9m-5-16v16m-5-28v28m-23-2h12.5c2.485281 0 4.5-2.014719 4.5-4.5s-2.014719-4.5-4.5-4.5h-8c-2.485281 0-4.5-2.014719-4.5-4.5s2.014719-4.5 4.5-4.5h12.5m-21 5h-11m11 13h-2c-4.970563 0-9-4.029437-9-9v-20m-24 40v-20c0-4.970563 4.0294373-9 9-9 4.970563 0 9 4.029437 9 9s-4.029437 9-9 9h-9" stroke="#ffffff" stroke-width="4" fill="none" transform="translate(508,4)"/>
  <line x1="93.5" y1="110" x2="93.5" y2="478" stroke="#757575" stroke-width="11" stroke-dasharray="1,45"/>
  <g font-size="10" fill="#231f20">
    <text x="88" y="85" text-anchor="end">F2FS-RAMDISK</text>
    <text x="88" y="131" text-anchor="end">EXT4-RAMDISK</text>
    <text x="88" y="177" text-anchor="end">BTRFS-RAMDISK</text>
    <text x="88" y="223" text-anchor="end">F2FS-NVME</text>
    <text x="88" y="269" text-anchor="end">EXT4-NVME</text>
    <text x="88" y="315" text-anchor="end">BTRFS-NVME</text>
    <text x="88" y="361" text-anchor="end">F2FS-SSD</text>
    <text x="88" y="407" text-anchor="end">EXT4-SSD</text>
    <text x="88" y="453" text-anchor="end">BTRFS-SSD</text>
  </g>
  <g font-size="10" fill="#065695" text-anchor="middle">
    <text x="177.5" y="493">900</text>
    <text x="259.5" y="493">1800</text>
    <text x="341.5" y="493">2700</text>
    <text x="423.5" y="493">3600</text>
    <text x="505.5" y="493">4500</text>
  </g>
  <g stroke="#BABABA" stroke-width="1">
    <line x1="177.5" y1="64" x2="177.5" y2="473" stroke-dasharray="5,5"/>
    <line x1="177.5" y1="474" x2="177.5" y2="483"/>
    <line x1="259.5" y1="64" x2="259.5" y2="473" stroke-dasharray="5,5"/>
    <line x1="259.5" y1="474" x2="259.5" y2="483"/>
    <line x1="341.5" y1="64" x2="341.5" y2="473" stroke-dasharray="5,5"/>
    <line x1="341.5" y1="474" x2="341.5" y2="483"/>
    <line x1="423.5" y1="64" x2="423.5" y2="473" stroke-dasharray="5,5"/>
    <line x1="423.5" y1="474" x2="423.5" y2="483"/>
    <line x1="505.5" y1="64" x2="505.5" y2="473" stroke-dasharray="5,5"/>
    <line x1="505.5" y1="474" x2="505.5" y2="483"/>
  </g>
  <g stroke="#949494" stroke-width="1">
    <rect x="93.5" y="70.5" height="34" width="390" fill="#2196f3" xlink:title="F2FS-RAMDISK: 4283.82"/>
    <rect x="93.5" y="116.5" height="34" width="356" fill="#2196f3" xlink:title="EXT4-RAMDISK: 3906.89"/>
    <rect x="93.5" y="162.5" height="34" width="14" fill="#2196f3" xlink:title="BTRFS-RAMDISK: 155.01"/>
    <rect x="93.5" y="208.5" height="34" width="364" fill="#2196f3" xlink:title="F2FS-NVME: 3996.98"/>
    <rect x="93.5" y="254.5" height="34" width="262" fill="#2196f3" xlink:title="EXT4-NVME: 2879.48"/>
    <rect x="93.5" y="300.5" height="34" width="118" fill="#2196f3" xlink:title="BTRFS-NVME: 1290.90"/>
    <rect x="93.5" y="346.5" height="34" width="69" fill="#2196f3" xlink:title="F2FS-SSD: 762.29"/>
    <rect x="93.5" y="392.5" height="34" width="41" fill="#2196f3" xlink:title="EXT4-SSD: 452.62"/>
    <rect x="93.5" y="438.5" height="34" width="43" fill="#2196f3" xlink:title="BTRFS-SSD: 474.73"/>
  </g>
  <g font-size="8" fill="#065695" text-anchor="end">
    <text y="101" x="88">SE +/- 75.53</text>
    <text y="147" x="88">SE +/- 33.36</text>
    <text y="193" x="88">SE +/- 0.43</text>
    <text y="239" x="88">SE +/- 26.50</text>
    <text y="285" x="88">SE +/- 16.75</text>
    <text y="331" x="88">SE +/- 20.03</text>
    <text y="377" x="88">SE +/- 0.17</text>
    <text y="423" x="88">SE +/- 2.88</text>
    <text y="469" x="88">SE +/- 2.64</text>
  </g>
  <g font-size="10" fill="#FFFFFF">
    <text x="478" y="93" text-anchor="end">4283.82</text>
    <text x="444" y="139" text-anchor="end">3906.89</text>
    <text x="113" y="185" fill="#065695" text-anchor="start">155.01</text>
    <text x="452" y="231" text-anchor="end">3996.98</text>
    <text x="350" y="277" text-anchor="end">2879.48</text>
    <text x="206" y="323" text-anchor="end">1290.90</text>
    <text x="157" y="369" text-anchor="end">762.29</text>
    <text x="140" y="415" fill="#065695" text-anchor="start">452.62</text>
    <text x="131" y="461" text-anchor="end">474.73</text>
  </g>
  <line x1="476.5" y1="70" x2="476.5" y2="78" stroke="#757575" stroke-width="1"/>
  <line x1="490.5" y1="70" x2="490.5" y2="78" stroke="#757575" stroke-width="1"/>
  <line x1="476.5" y1="70.5" x2="490.5" y2="70.5" stroke="#757575" stroke-width="1"/>
  <rect x="0" y="500" width="600" height="52" fill="#231f20"/>
  <a xlink:href="http://www.phoronix-test-suite.com/" xlink:show="new">
    <text x="585" y="512" font-size="9" fill="#FEFEFE" text-anchor="end" xlink:show="new">Phoronix Test Suite 6.8.0m1</text>
  </a>
  <text x="5" y="526" font-size="8" fill="#FEFEFE" text-anchor="start" xlink:title="-lpopt -O2" width="595">1. (CC) gcc options: -lpopt -O2</text>
</svg>
