<?xml version="1.0"?>
<!DOCTYPE svg PUBLIC "-//W3C//DTD SVG 1.1//EN" "http://www.w3.org/Graphics/SVG/1.1/DTD/svg11.dtd">
<!--Phoronix Test Suite v6.8.0m1 [ http://www.phoronix-test-suite.com/ ]-->
<svg xmlns="http://www.w3.org/2000/svg" xmlns:xlink="http://www.w3.org/1999/xlink" version="1.1" font-family="sans-serif, droid-sans, helvetica, verdana, tahoma" viewbox="0 0 600 517" width="600" height="517" preserveAspectRatio="xMinYMin meet">
  <rect x="0" y="0" width="600" height="517" fill="#FEFEFE" stroke="#757575" stroke-width="2"/>
  <g stroke="#757575" stroke-width="1">
    <line x1="93.5" y1="64" x2="93.5" y2="479"/>
    <line x1="93" y1="478.5" x2="586" y2="478.5"/>
  </g>
  <a xlink:href="http://www.phoronix-test-suite.com/" xlink:show="new">
    <text x="585" y="59" font-size="7" fill="#065695" text-anchor="end" xlink:show="new">PHORONIX-TEST-SUITE.COM</text>
  </a>
  <polygon points="102.5,56 93.5,60.5 93.5,51.5" fill="#065695" stroke="#949494" stroke-width="1"/>
  <text x="105" y="59" font-size="7" fill="#065695" text-anchor="start">MB/s, More Is Better</text>
  <rect x="0" y="0" width="600" height="48" fill="#231f20"/>
  <a xlink:href="http://openbenchmarking.org/test/pts/compilebench-1.0.1" xlink:show="new">
    <text x="6" y="19" font-size="17" fill="#FEFEFE" text-anchor="start" xlink:show="new">Compile Bench v0.6</text>
  </a>
  <text x="6" y="36" font-size="11" fill="#FEFEFE" text-anchor="start">Test: Compile</text>
  <path d="m74 22v9m-5-16v16m-5-28v28m-23-2h12.5c2.485281 0 4.5-2.014719 4.5-4.5s-2.014719-4.5-4.5-4.5h-8c-2.485281 0-4.5-2.014719-4.5-4.5s2.014719-4.5 4.5-4.5h12.5m-21 5h-11m11 13h-2c-4.970563 0-9-4.029437-9-9v-20m-24 40v-20c0-4.970563 4.0294373-9 9-9 4.970563 0 9 4.029437 9 9s-4.029437 9-9 9h-9" stroke="#ffffff" stroke-width="4" fill="none" transform="translate(508,4)"/>
  <line x1="93.5" y1="110" x2="93.5" y2="467" stroke="#757575" stroke-width="11" stroke-dasharray="1,45"/>
  <g font-size="10" fill="#231f20">
    <text x="88" y="85" text-anchor="end">F2FS-RAMDISK</text>
    <text x="88" y="131" text-anchor="end">EXT4-RAMDISK</text>
    <text x="88" y="177" text-anchor="end">BTRFS-RAMDISK</text>
    <text x="88" y="223" text-anchor="end">F2FS-NVME</text>
    <text x="88" y="269" text-anchor="end">EXT4-NVME</text>
    <text x="88" y="315" text-anchor="end">BTRFS-NVME</text>
    <text x="88" y="361" text-anchor="end">F2FS-SSD</text>
    <text x="88" y="407" text-anchor="end">EXT4-SSD</text>
    <text x="88" y="453" text-anchor="end">BTRFS-SSD</text>
  </g>
  <g font-size="10" fill="#065695" text-anchor="middle">
    <text x="177.5" y="493">400</text>
    <text x="259.5" y="493">800</text>
    <text x="341.5" y="493">1200</text>
    <text x="423.5" y="493">1600</text>
    <text x="505.5" y="493">2000</text>
  </g>
  <g stroke="#BABABA" stroke-width="1">
    <line x1="177.5" y1="64" x2="177.5" y2="473" stroke-dasharray="5,5"/>
    <line x1="177.5" y1="474" x2="177.5" y2="483"/>
    <line x1="259.5" y1="64" x2="259.5" y2="473" stroke-dasharray="5,5"/>
    <line x1="259.5" y1="474" x2="259.5" y2="483"/>
    <line x1="341.5" y1="64" x2="341.5" y2="473" stroke-dasharray="5,5"/>
    <line x1="341.5" y1="474" x2="341.5" y2="483"/>
    <line x1="423.5" y1="64" x2="423.5" y2="473" stroke-dasharray="5,5"/>
    <line x1="423.5" y1="474" x2="423.5" y2="483"/>
    <line x1="505.5" y1="64" x2="505.5" y2="473" stroke-dasharray="5,5"/>
    <line x1="505.5" y1="474" x2="505.5" y2="483"/>
  </g>
  <g stroke="#949494" stroke-width="1">
    <rect x="93.5" y="70.5" height="34" width="372" fill="#2196f3" xlink:title="F2FS-RAMDISK: 1812.86"/>
    <rect x="93.5" y="116.5" height="34" width="286" fill="#2196f3" xlink:title="EXT4-RAMDISK: 1393.09"/>
    <rect x="93.5" y="162.5" height="34" width="162" fill="#2196f3" xlink:title="BTRFS-RAMDISK: 788.36"/>
    <rect x="93.5" y="208.5" height="34" width="363" fill="#2196f3" xlink:title="F2FS-NVME: 1770.16"/>
    <rect x="93.5" y="254.5" height="34" width="291" fill="#2196f3" xlink:title="EXT4-NVME: 1421.16"/>
    <rect x="93.5" y="300.5" height="34" width="187" fill="#2196f3" xlink:title="BTRFS-NVME: 912.27"/>
    <rect x="93.5" y="346.5" height="34" width="337" fill="#2196f3" xlink:title="F2FS-SSD: 1645.43"/>
    <rect x="93.5" y="392.5" height="34" width="288" fill="#2196f3" xlink:title="EXT4-SSD: 1403.02"/>
    <rect x="93.5" y="438.5" height="34" width="143" fill="#2196f3" xlink:title="BTRFS-SSD: 696.30"/>
  </g>
  <g font-size="8" fill="#065695" text-anchor="end">
    <text y="101" x="88">SE +/- 24.68</text>
    <text y="147" x="88">SE +/- 7.13</text>
    <text y="193" x="88">SE +/- 14.41</text>
    <text y="239" x="88">SE +/- 11.22</text>
    <text y="285" x="88">SE +/- 13.10</text>
    <text y="331" x="88">SE +/- 24.68</text>
    <text y="377" x="88">SE +/- 62.76</text>
    <text y="423" x="88">SE +/- 25.40</text>
    <text y="469" x="88">SE +/- 8.23</text>
  </g>
  <g font-size="10" fill="#FFFFFF">
    <text x="460" y="93" text-anchor="end">1812.86</text>
    <text x="374" y="139" text-anchor="end">1393.09</text>
    <text x="250" y="185" text-anchor="end">788.36</text>
    <text x="451" y="231" text-anchor="end">1770.16</text>
    <text x="379" y="277" text-anchor="end">1421.16</text>
    <text x="275" y="323" text-anchor="end">912.27</text>
    <text x="425" y="369" text-anchor="end">1645.43</text>
    <text x="376" y="415" text-anchor="end">1403.02</text>
    <text x="231" y="461" text-anchor="end">696.30</text>
  </g>
  <line x1="460.5" y1="70" x2="460.5" y2="78" stroke="#757575" stroke-width="1"/>
  <line x1="470.5" y1="70" x2="470.5" y2="78" stroke="#757575" stroke-width="1"/>
  <line x1="460.5" y1="70.5" x2="470.5" y2="70.5" stroke="#757575" stroke-width="1"/>
  <line x1="275.5" y1="300" x2="275.5" y2="308" stroke="#757575" stroke-width="1"/>
  <line x1="285.5" y1="300" x2="285.5" y2="308" stroke="#757575" stroke-width="1"/>
  <line x1="275.5" y1="300.5" x2="285.5" y2="300.5" stroke="#757575" stroke-width="1"/>
  <line x1="417.5" y1="346" x2="417.5" y2="354" stroke="#757575" stroke-width="1"/>
  <line x1="443.5" y1="346" x2="443.5" y2="354" stroke="#757575" stroke-width="1"/>
  <line x1="417.5" y1="346.5" x2="443.5" y2="346.5" stroke="#757575" stroke-width="1"/>
  <line x1="376.5" y1="392" x2="376.5" y2="400" stroke="#757575" stroke-width="1"/>
  <line x1="386.5" y1="392" x2="386.5" y2="400" stroke="#757575" stroke-width="1"/>
  <line x1="376.5" y1="392.5" x2="386.5" y2="392.5" stroke="#757575" stroke-width="1"/>
  <rect x="0" y="500" width="600" height="17" fill="#231f20"/>
  <a xlink:href="http://www.phoronix-test-suite.com/" xlink:show="new">
    <text x="585" y="512" font-size="9" fill="#FEFEFE" text-anchor="end" xlink:show="new">Phoronix Test Suite 6.8.0m1</text>
  </a>
</svg>
