<?xml version="1.0"?>
<!DOCTYPE svg PUBLIC "-//W3C//DTD SVG 1.1//EN" "http://www.w3.org/Graphics/SVG/1.1/DTD/svg11.dtd">
<!--Phoronix Test Suite v6.8.0m1 [ http://www.phoronix-test-suite.com/ ]-->
<svg xmlns="http://www.w3.org/2000/svg" xmlns:xlink="http://www.w3.org/1999/xlink" version="1.1" font-family="sans-serif, droid-sans, helvetica, verdana, tahoma" viewbox="0 0 600 559" width="600" height="559" preserveAspectRatio="xMinYMin meet">
  <rect x="0" y="0" width="600" height="559" fill="#FEFEFE" stroke="#757575" stroke-width="2"/>
  <g stroke="#757575" stroke-width="1">
    <line x1="93.5" y1="64" x2="93.5" y2="479"/>
    <line x1="93" y1="478.5" x2="586" y2="478.5"/>
  </g>
  <a xlink:href="http://www.phoronix-test-suite.com/" xlink:show="new">
    <text x="585" y="59" font-size="7" fill="#065695" text-anchor="end" xlink:show="new">PHORONIX-TEST-SUITE.COM</text>
  </a>
  <polygon points="102.5,56 93.5,60.5 93.5,51.5" fill="#065695" stroke="#949494" stroke-width="1"/>
  <text x="105" y="59" font-size="7" fill="#065695" text-anchor="start">IOPS, More Is Better</text>
  <rect x="0" y="0" width="600" height="48" fill="#231f20"/>
  <a xlink:href="http://openbenchmarking.org/test/pts/fio-1.8.2" xlink:show="new">
    <text x="6" y="19" font-size="17" fill="#FEFEFE" text-anchor="start" xlink:show="new">Flexible IO Tester v2.1.13</text>
  </a>
  <text x="6" y="36" font-size="6.5" fill="#FEFEFE" text-anchor="start">Type: Random Write - IO Engine: Sync - Buffered: Yes - Direct: No - Block Size: 4KB - Disk Target: Default Test Directory - Result: IOPS</text>
  <path d="m74 22v9m-5-16v16m-5-28v28m-23-2h12.5c2.485281 0 4.5-2.014719 4.5-4.5s-2.014719-4.5-4.5-4.5h-8c-2.485281 0-4.5-2.014719-4.5-4.5s2.014719-4.5 4.5-4.5h12.5m-21 5h-11m11 13h-2c-4.970563 0-9-4.029437-9-9v-20m-24 40v-20c0-4.970563 4.0294373-9 9-9 4.970563 0 9 4.029437 9 9s-4.029437 9-9 9h-9" stroke="#ffffff" stroke-width="4" fill="none" transform="translate(508,4)"/>
  <line x1="93.5" y1="110" x2="93.5" y2="471" stroke="#757575" stroke-width="11" stroke-dasharray="1,45"/>
  <g font-size="10" fill="#231f20">
    <text x="88" y="85" text-anchor="end">F2FS-RAMDISK</text>
    <text x="88" y="131" text-anchor="end">EXT4-RAMDISK</text>
    <text x="88" y="177" text-anchor="end">BTRFS-RAMDISK</text>
    <text x="88" y="223" text-anchor="end">F2FS-NVME</text>
    <text x="88" y="269" text-anchor="end">EXT4-NVME</text>
    <text x="88" y="315" text-anchor="end">BTRFS-NVME</text>
    <text x="88" y="361" text-anchor="end">F2FS-SSD</text>
    <text x="88" y="407" text-anchor="end">EXT4-SSD</text>
    <text x="88" y="453" text-anchor="end">BTRFS-SSD</text>
  </g>
  <g font-size="10" fill="#065695" text-anchor="middle">
    <text x="177.5" y="493">40000</text>
    <text x="259.5" y="493">80000</text>
    <text x="341.5" y="493">120000</text>
    <text x="423.5" y="493">160000</text>
    <text x="505.5" y="493">200000</text>
  </g>
  <g stroke="#BABABA" stroke-width="1">
    <line x1="177.5" y1="64" x2="177.5" y2="473" stroke-dasharray="5,5"/>
    <line x1="177.5" y1="474" x2="177.5" y2="483"/>
    <line x1="259.5" y1="64" x2="259.5" y2="473" stroke-dasharray="5,5"/>
    <line x1="259.5" y1="474" x2="259.5" y2="483"/>
    <line x1="341.5" y1="64" x2="341.5" y2="473" stroke-dasharray="5,5"/>
    <line x1="341.5" y1="474" x2="341.5" y2="483"/>
    <line x1="423.5" y1="64" x2="423.5" y2="473" stroke-dasharray="5,5"/>
    <line x1="423.5" y1="474" x2="423.5" y2="483"/>
    <line x1="505.5" y1="64" x2="505.5" y2="473" stroke-dasharray="5,5"/>
    <line x1="505.5" y1="474" x2="505.5" y2="483"/>
  </g>
  <g stroke="#949494" stroke-width="1">
    <rect x="93.5" y="70.5" height="34" width="358" fill="#2196f3" xlink:title="F2FS-RAMDISK: 174513"/>
    <rect x="93.5" y="116.5" height="34" width="403" fill="#2196f3" xlink:title="EXT4-RAMDISK: 196668"/>
    <rect x="93.5" y="162.5" height="34" width="76" fill="#2196f3" xlink:title="BTRFS-RAMDISK: 37294"/>
    <rect x="93.5" y="208.5" height="34" width="305" fill="#2196f3" xlink:title="F2FS-NVME: 148969"/>
    <rect x="93.5" y="254.5" height="34" width="300" fill="#2196f3" xlink:title="EXT4-NVME: 146224"/>
    <rect x="93.5" y="300.5" height="34" width="97" fill="#2196f3" xlink:title="BTRFS-NVME: 47337"/>
    <rect x="93.5" y="346.5" height="34" width="172" fill="#2196f3" xlink:title="F2FS-SSD: 83946"/>
    <rect x="93.5" y="392.5" height="34" width="176" fill="#2196f3" xlink:title="EXT4-SSD: 85711"/>
    <rect x="93.5" y="438.5" height="34" width="109" fill="#2196f3" xlink:title="BTRFS-SSD: 53246"/>
  </g>
  <g font-size="8" fill="#065695" text-anchor="end">
    <text y="101" x="88">SE +/- 8797.56</text>
    <text y="147" x="88">SE +/- 3720.66</text>
    <text y="193" x="88">SE +/- 600.97</text>
    <text y="239" x="88">SE +/- 2219.25</text>
    <text y="285" x="88">SE +/- 2476.38</text>
    <text y="331" x="88">SE +/- 150.18</text>
    <text y="377" x="88">SE +/- 62.08</text>
    <text y="423" x="88">SE +/- 327.22</text>
    <text y="469" x="88">SE +/- 4929.28</text>
  </g>
  <g font-size="10" fill="#FFFFFF">
    <text x="446" y="93" text-anchor="end">174513</text>
    <text x="491" y="139" text-anchor="end">196668</text>
    <text x="164" y="185" text-anchor="end">37294</text>
    <text x="393" y="231" text-anchor="end">148969</text>
    <text x="388" y="277" text-anchor="end">146224</text>
    <text x="185" y="323" text-anchor="end">47337</text>
    <text x="260" y="369" text-anchor="end">83946</text>
    <text x="264" y="415" text-anchor="end">85711</text>
    <text x="197" y="461" text-anchor="end">53246</text>
  </g>
  <line x1="433.5" y1="70" x2="433.5" y2="78" stroke="#757575" stroke-width="1"/>
  <line x1="469.5" y1="70" x2="469.5" y2="78" stroke="#757575" stroke-width="1"/>
  <line x1="433.5" y1="70.5" x2="469.5" y2="70.5" stroke="#757575" stroke-width="1"/>
  <line x1="488.5" y1="116" x2="488.5" y2="124" stroke="#757575" stroke-width="1"/>
  <line x1="504.5" y1="116" x2="504.5" y2="124" stroke="#757575" stroke-width="1"/>
  <line x1="488.5" y1="116.5" x2="504.5" y2="116.5" stroke="#757575" stroke-width="1"/>
  <line x1="393.5" y1="208" x2="393.5" y2="216" stroke="#757575" stroke-width="1"/>
  <line x1="403.5" y1="208" x2="403.5" y2="216" stroke="#757575" stroke-width="1"/>
  <line x1="393.5" y1="208.5" x2="403.5" y2="208.5" stroke="#757575" stroke-width="1"/>
  <line x1="388.5" y1="254" x2="388.5" y2="262" stroke="#757575" stroke-width="1"/>
  <line x1="398.5" y1="254" x2="398.5" y2="262" stroke="#757575" stroke-width="1"/>
  <line x1="388.5" y1="254.5" x2="398.5" y2="254.5" stroke="#757575" stroke-width="1"/>
  <line x1="192.5" y1="438" x2="192.5" y2="446" stroke="#757575" stroke-width="1"/>
  <line x1="212.5" y1="438" x2="212.5" y2="446" stroke="#757575" stroke-width="1"/>
  <line x1="192.5" y1="438.5" x2="212.5" y2="438.5" stroke="#757575" stroke-width="1"/>
  <rect x="0" y="500" width="600" height="59" fill="#231f20"/>
  <a xlink:href="http://www.phoronix-test-suite.com/" xlink:show="new">
    <text x="585" y="512" font-size="9" fill="#FEFEFE" text-anchor="end" xlink:show="new">Phoronix Test Suite 6.8.0m1</text>
  </a>
  <text x="5" y="526" font-size="8" fill="#FEFEFE" text-anchor="start" xlink:title="-rdynamic -std=gnu99 -O3 -ffast-math -include -ll -lnuma -lrt -laio -lz -lm -lpthread -ldl" width="595">1. (CC) gcc options: -rdynamic -std=gnu99 -O3 -ffast-math -include -ll -lnuma -lrt -laio -lz -lm -lpthread -ldl</text>
</svg>
