<?xml version="1.0"?>
<!DOCTYPE svg PUBLIC "-//W3C//DTD SVG 1.1//EN" "http://www.w3.org/Graphics/SVG/1.1/DTD/svg11.dtd">
<!--Phoronix Test Suite v6.8.0m1 [ http://www.phoronix-test-suite.com/ ]-->
<svg xmlns="http://www.w3.org/2000/svg" xmlns:xlink="http://www.w3.org/1999/xlink" version="1.1" font-family="sans-serif, droid-sans, helvetica, verdana, tahoma" viewbox="0 0 600 552" width="600" height="552" preserveAspectRatio="xMinYMin meet">
  <rect x="0" y="0" width="600" height="552" fill="#FEFEFE" stroke="#757575" stroke-width="2"/>
  <g stroke="#757575" stroke-width="1">
    <line x1="93.5" y1="64" x2="93.5" y2="479"/>
    <line x1="93" y1="478.5" x2="586" y2="478.5"/>
  </g>
  <a xlink:href="http://www.phoronix-test-suite.com/" xlink:show="new">
    <text x="585" y="59" font-size="7" fill="#065695" text-anchor="end" xlink:show="new">PHORONIX-TEST-SUITE.COM</text>
  </a>
  <polygon points="102.5,56 93.5,60.5 93.5,51.5" fill="#065695" stroke="#949494" stroke-width="1"/>
  <text x="105" y="59" font-size="7" fill="#065695" text-anchor="start">Files/s, More Is Better</text>
  <rect x="0" y="0" width="600" height="48" fill="#231f20"/>
  <a xlink:href="http://openbenchmarking.org/test/pts/fs-mark-1.0.1" xlink:show="new">
    <text x="6" y="19" font-size="17" fill="#FEFEFE" text-anchor="start" xlink:show="new">FS-Mark v3.3</text>
  </a>
  <text x="6" y="36" font-size="11" fill="#FEFEFE" text-anchor="start">Test: 1000 Files, 1MB Size</text>
  <path d="m74 22v9m-5-16v16m-5-28v28m-23-2h12.5c2.485281 0 4.5-2.014719 4.5-4.5s-2.014719-4.5-4.5-4.5h-8c-2.485281 0-4.5-2.014719-4.5-4.5s2.014719-4.5 4.5-4.5h12.5m-21 5h-11m11 13h-2c-4.970563 0-9-4.029437-9-9v-20m-24 40v-20c0-4.970563 4.0294373-9 9-9 4.970563 0 9 4.029437 9 9s-4.029437 9-9 9h-9" stroke="#ffffff" stroke-width="4" fill="none" transform="translate(508,4)"/>
  <line x1="93.5" y1="110" x2="93.5" y2="478" stroke="#757575" stroke-width="11" stroke-dasharray="1,45"/>
  <g font-size="10" fill="#231f20">
    <text x="88" y="85" text-anchor="end">F2FS-RAMDISK</text>
    <text x="88" y="131" text-anchor="end">EXT4-RAMDISK</text>
    <text x="88" y="177" text-anchor="end">BTRFS-RAMDISK</text>
    <text x="88" y="223" text-anchor="end">F2FS-NVME</text>
    <text x="88" y="269" text-anchor="end">EXT4-NVME</text>
    <text x="88" y="315" text-anchor="end">BTRFS-NVME</text>
    <text x="88" y="361" text-anchor="end">F2FS-SSD</text>
    <text x="88" y="407" text-anchor="end">EXT4-SSD</text>
    <text x="88" y="453" text-anchor="end">BTRFS-SSD</text>
  </g>
  <g font-size="10" fill="#065695" text-anchor="middle">
    <text x="177.5" y="493">200</text>
    <text x="259.5" y="493">400</text>
    <text x="341.5" y="493">600</text>
    <text x="423.5" y="493">800</text>
    <text x="505.5" y="493">1000</text>
  </g>
  <g stroke="#BABABA" stroke-width="1">
    <line x1="177.5" y1="64" x2="177.5" y2="473" stroke-dasharray="5,5"/>
    <line x1="177.5" y1="474" x2="177.5" y2="483"/>
    <line x1="259.5" y1="64" x2="259.5" y2="473" stroke-dasharray="5,5"/>
    <line x1="259.5" y1="474" x2="259.5" y2="483"/>
    <line x1="341.5" y1="64" x2="341.5" y2="473" stroke-dasharray="5,5"/>
    <line x1="341.5" y1="474" x2="341.5" y2="483"/>
    <line x1="423.5" y1="64" x2="423.5" y2="473" stroke-dasharray="5,5"/>
    <line x1="423.5" y1="474" x2="423.5" y2="483"/>
    <line x1="505.5" y1="64" x2="505.5" y2="473" stroke-dasharray="5,5"/>
    <line x1="505.5" y1="474" x2="505.5" y2="483"/>
  </g>
  <g stroke="#949494" stroke-width="1">
    <rect x="93.5" y="70.5" height="34" width="394" fill="#2196f3" xlink:title="F2FS-RAMDISK: 961.93"/>
    <rect x="93.5" y="116.5" height="34" width="262" fill="#2196f3" xlink:title="EXT4-RAMDISK: 638.70"/>
    <rect x="93.5" y="162.5" height="34" width="269" fill="#2196f3" xlink:title="BTRFS-RAMDISK: 657.27"/>
    <rect x="93.5" y="208.5" height="34" width="361" fill="#2196f3" xlink:title="F2FS-NVME: 881.47"/>
    <rect x="93.5" y="254.5" height="34" width="278" fill="#2196f3" xlink:title="EXT4-NVME: 678.70"/>
    <rect x="93.5" y="300.5" height="34" width="283" fill="#2196f3" xlink:title="BTRFS-NVME: 691.08"/>
    <rect x="93.5" y="346.5" height="34" width="79" fill="#2196f3" xlink:title="F2FS-SSD: 192.60"/>
    <rect x="93.5" y="392.5" height="34" width="63" fill="#2196f3" xlink:title="EXT4-SSD: 154.73"/>
    <rect x="93.5" y="438.5" height="34" width="63" fill="#2196f3" xlink:title="BTRFS-SSD: 154.00"/>
  </g>
  <g font-size="8" fill="#065695" text-anchor="end">
    <text y="101" x="88">SE +/- 1.96</text>
    <text y="147" x="88">SE +/- 34.09</text>
    <text y="193" x="88">SE +/- 69.62</text>
    <text y="239" x="88">SE +/- 2.03</text>
    <text y="285" x="88">SE +/- 26.24</text>
    <text y="331" x="88">SE +/- 19.58</text>
    <text y="377" x="88">SE +/- 0.35</text>
    <text y="423" x="88">SE +/- 1.32</text>
    <text y="469" x="88">SE +/- 3.01</text>
  </g>
  <g font-size="10" fill="#FFFFFF">
    <text x="482" y="93" text-anchor="end">961.93</text>
    <text x="350" y="139" text-anchor="end">638.70</text>
    <text x="357" y="185" text-anchor="end">657.27</text>
    <text x="449" y="231" text-anchor="end">881.47</text>
    <text x="366" y="277" text-anchor="end">678.70</text>
    <text x="371" y="323" text-anchor="end">691.08</text>
    <text x="167" y="369" text-anchor="end">192.60</text>
    <text x="151" y="415" text-anchor="end">154.73</text>
    <text x="151" y="461" text-anchor="end">154.00</text>
  </g>
  <line x1="341.5" y1="116" x2="341.5" y2="124" stroke="#757575" stroke-width="1"/>
  <line x1="369.5" y1="116" x2="369.5" y2="124" stroke="#757575" stroke-width="1"/>
  <line x1="341.5" y1="116.5" x2="369.5" y2="116.5" stroke="#757575" stroke-width="1"/>
  <line x1="333.5" y1="162" x2="333.5" y2="170" stroke="#757575" stroke-width="1"/>
  <line x1="391.5" y1="162" x2="391.5" y2="170" stroke="#757575" stroke-width="1"/>
  <line x1="333.5" y1="162.5" x2="391.5" y2="162.5" stroke="#757575" stroke-width="1"/>
  <line x1="360.5" y1="254" x2="360.5" y2="262" stroke="#757575" stroke-width="1"/>
  <line x1="382.5" y1="254" x2="382.5" y2="262" stroke="#757575" stroke-width="1"/>
  <line x1="360.5" y1="254.5" x2="382.5" y2="254.5" stroke="#757575" stroke-width="1"/>
  <line x1="368.5" y1="300" x2="368.5" y2="308" stroke="#757575" stroke-width="1"/>
  <line x1="384.5" y1="300" x2="384.5" y2="308" stroke="#757575" stroke-width="1"/>
  <line x1="368.5" y1="300.5" x2="384.5" y2="300.5" stroke="#757575" stroke-width="1"/>
  <rect x="0" y="500" width="600" height="52" fill="#231f20"/>
  <a xlink:href="http://www.phoronix-test-suite.com/" xlink:show="new">
    <text x="585" y="512" font-size="9" fill="#FEFEFE" text-anchor="end" xlink:show="new">Phoronix Test Suite 6.8.0m1</text>
  </a>
  <text x="5" y="526" font-size="8" fill="#FEFEFE" text-anchor="start" xlink:title="-static" width="595">1. (CC) gcc options: -static</text>
</svg>
