<?xml version="1.0"?>
<!DOCTYPE svg PUBLIC "-//W3C//DTD SVG 1.1//EN" "http://www.w3.org/Graphics/SVG/1.1/DTD/svg11.dtd">
<!--Phoronix Test Suite v6.8.0m1 [ http://www.phoronix-test-suite.com/ ]-->
<svg xmlns="http://www.w3.org/2000/svg" xmlns:xlink="http://www.w3.org/1999/xlink" version="1.1" font-family="sans-serif, droid-sans, helvetica, verdana, tahoma" viewbox="0 0 1078 168" width="1078" height="168" preserveAspectRatio="xMinYMin meet">
  <rect x="0" y="0" width="1078" height="168" fill="#FEFEFE" stroke="#757575" stroke-width="2"/>
  <rect x="1" y="1" width="1077" height="167" fill="#FEFEFE" stroke="#757575" stroke-width="1"/>
  <path d="m74 22v9m-5-16v16m-5-28v28m-23-2h12.5c2.485281 0 4.5-2.014719 4.5-4.5s-2.014719-4.5-4.5-4.5h-8c-2.485281 0-4.5-2.014719-4.5-4.5s2.014719-4.5 4.5-4.5h12.5m-21 5h-11m11 13h-2c-4.970563 0-9-4.029437-9-9v-20m-24 40v-20c0-4.970563 4.0294373-9 9-9 4.970563 0 9 4.029437 9 9s-4.029437 9-9 9h-9" stroke="#000000" stroke-width="4" fill="none" transform="translate(31,43)"/>
  <line x1="142" y1="96" x2="1078" y2="96" stroke="#BABABA" stroke-width="112" stroke-dasharray="104,104"/>
  <line x1="539" y1="88" x2="539" y2="152" stroke="#949494" stroke-width="1078" stroke-dasharray="16,16"/>
  <line x1="142" y1="96" x2="1078" y2="96" stroke="#757575" stroke-width="112" stroke-dasharray="1,103"/>
  <rect x="1" y="1" width="1076" height="40" fill="#231f20"/>
  <text x="5" y="19" font-size="17" fill="#FEFEFE" text-anchor="start">FS-Mark</text>
  <text x="5" y="33" font-size="11" fill="#FEFEFE" text-anchor="start">Test: 1000 Files, 1MB Size, No Sync/FSync</text>
  <line x1="1" y1="40" x2="1077" y2="40" stroke="#757575" stroke-width="1"/>
  <g font-size="10" font-weight="bold" text-anchor="end" fill="#065695">
    <text x="140" y="100" fill="#065695">Results</text>
    <text x="140" y="116" fill="#065695">Difference</text>
    <text x="140" y="132" fill="#065695">Standard Error</text>
    <text x="140" y="148" fill="#065695">Standard Deviation</text>
  </g>
  <g font-size="10" fill="#065695" font-weight="bold" text-anchor="middle" dominant-baseline="text-before-edge">
    <text x="194" y="64">F2FS-RAMDISK</text>
    <text x="298" y="64">EXT4-RAMDISK</text>
    <text x="402" y="64">BTRFS-RAMDISK</text>
    <text x="506" y="64">F2FS-NVME</text>
    <text x="610" y="64">EXT4-NVME</text>
    <text x="714" y="64">BTRFS-NVME</text>
    <text x="818" y="64">F2FS-SSD</text>
    <text x="922" y="64">EXT4-SSD</text>
    <text x="1026" y="64">BTRFS-SSD</text>
  </g>
  <g/>
  <g text-anchor="middle" font-size="10">
    <text x="194" y="101" fill="#065695" xlink:title="STD Dev: 1.30%;  STD Error: 13.32">1780.83</text>
    <text x="194" y="117" fill="#065695">1.35x</text>
    <text x="194" y="133" fill="#065695">13.32</text>
    <text x="194" y="149" fill="#065695">1.30%</text>
    <text x="298" y="101" fill="#065695" xlink:title="STD Dev: 0.21%;  STD Error: 1.62">1351.53</text>
    <text x="298" y="117" fill="#065695">1.02x</text>
    <text x="298" y="133" fill="#065695">1.62</text>
    <text x="298" y="149" fill="#065695">0.21%</text>
    <text x="402" y="101" fill="#065695" xlink:title="STD Dev: 1.11%;  STD Error: 11.31">1766.00</text>
    <text x="402" y="117" fill="#065695">1.33x</text>
    <text x="402" y="133" fill="#065695">11.31</text>
    <text x="402" y="149" fill="#065695">1.11%</text>
    <text x="506" y="101" fill="#065695" xlink:title="STD Dev: 1.28%;  STD Error: 13.05">1767.13</text>
    <text x="506" y="117" fill="#065695">1.34x</text>
    <text x="506" y="133" fill="#065695">13.05</text>
    <text x="506" y="149" fill="#065695">1.28%</text>
    <text x="610" y="101" fill="#C80000" xlink:title="STD Dev: 1.57%;  STD Error: 12.00">1323.27</text>
    <text x="610" y="117" fill="#065695">1.00x</text>
    <text x="610" y="133" fill="#065695">12.00</text>
    <text x="610" y="149" fill="#065695">1.57%</text>
    <text x="714" y="101" fill="#005a00" xlink:title="STD Dev: 0.57%;  STD Error: 5.87">1789.13</text>
    <text x="714" y="117" fill="#065695">1.35x</text>
    <text x="714" y="133" fill="#065695">5.87</text>
    <text x="714" y="149" fill="#065695">0.57%</text>
    <text x="818" y="101" fill="#065695" xlink:title="STD Dev: 0.93%;  STD Error: 9.47">1768.67</text>
    <text x="818" y="117" fill="#065695">1.34x</text>
    <text x="818" y="133" fill="#065695">9.47</text>
    <text x="818" y="149" fill="#065695">0.93%</text>
    <text x="922" y="101" fill="#065695" xlink:title="STD Dev: 0.35%;  STD Error: 2.69">1329.37</text>
    <text x="922" y="117" fill="#065695">1.00x</text>
    <text x="922" y="133" fill="#065695">2.69</text>
    <text x="922" y="149" fill="#065695">0.35%</text>
    <text x="1026" y="101" fill="#065695" xlink:title="STD Dev: 0.75%;  STD Error: 7.62">1752.37</text>
    <text x="1026" y="117" fill="#065695">1.32x</text>
    <text x="1026" y="133" fill="#065695">7.62</text>
    <text x="1026" y="149" fill="#065695">0.75%</text>
  </g>
  <line x1="539" y1="88" x2="539" y2="152" stroke="#949494" stroke-width="1078" stroke-dasharray="1,15"/>
  <rect x="0" y="152" width="1078" height="16" fill="#231f20"/>
  <a xlink:href="http://www.phoronix-test-suite.com/" xlink:show="new">
    <text x="1076" y="165" font-size="10" fill="#FFFFFF" text-anchor="end" xlink:show="new">PHORONIX-TEST-SUITE.COM</text>
  </a>
</svg>
