<?xml version="1.0"?>
<!DOCTYPE svg PUBLIC "-//W3C//DTD SVG 1.1//EN" "http://www.w3.org/Graphics/SVG/1.1/DTD/svg11.dtd">
<!--Phoronix Test Suite v6.8.0m1 [ http://www.phoronix-test-suite.com/ ]-->
<svg xmlns="http://www.w3.org/2000/svg" xmlns:xlink="http://www.w3.org/1999/xlink" version="1.1" font-family="sans-serif, droid-sans, helvetica, verdana, tahoma" viewbox="0 0 600 698" width="600" height="698" preserveAspectRatio="xMinYMin meet">
  <rect x="0" y="0" width="600" height="698" fill="#FEFEFE" stroke="#757575" stroke-width="2"/>
  <rect x="0" y="0" width="600" height="48" fill="#231f20"/>
  <image xlink:href="https://openbenchmarking.org/static/images/pts-77x40-white.png" x="10" y="2" width="77" height="40"/>
  <text x="100" y="21" font-size="17" fill="#FEFEFE" text-anchor="start">2016-11-14-1033</text>
  <text x="100" y="33" font-size="9" fill="#FEFEFE" text-anchor="start" href="http://www.phoronix-test-suite.com/">Phoronix Test Suite 6.8.0m1</text>
  <path fill="#FEFEFE" stroke="#949494" stroke-width="1" stroke-dasharray="10,20" d="M35,98 L558,98 A523,523 0 0,1 35,621 Z"/>
  <text x="558" y="90" font-size="10" fill="#757575" text-anchor="middle">8.3</text>
  <line x1="558" y1="92" x2="558" y2="98" stroke="#757575" stroke-width="1"/>
  <text x="27" y="621" font-size="10" fill="#757575" text-anchor="end" dominant-baseline="middle">8.3</text>
  <line x1="29" y1="621" x2="35" y2="621" stroke="#757575" stroke-width="1"/>
  <path fill="#FEFEFE" stroke="#949494" stroke-width="1" stroke-dasharray="10,20" d="M35,98 L482,98 A447,447 0 0,1 35,545 Z"/>
  <text x="482" y="90" font-size="10" fill="#757575" text-anchor="middle">7.1</text>
  <line x1="482" y1="92" x2="482" y2="98" stroke="#757575" stroke-width="1"/>
  <text x="27" y="545" font-size="10" fill="#757575" text-anchor="end" dominant-baseline="middle">7.1</text>
  <line x1="29" y1="545" x2="35" y2="545" stroke="#757575" stroke-width="1"/>
  <path fill="#FEFEFE" stroke="#949494" stroke-width="1" stroke-dasharray="10,20" d="M35,98 L407,98 A372,372 0 0,1 35,470 Z"/>
  <text x="407" y="90" font-size="10" fill="#757575" text-anchor="middle">5.9</text>
  <line x1="407" y1="92" x2="407" y2="98" stroke="#757575" stroke-width="1"/>
  <text x="27" y="470" font-size="10" fill="#757575" text-anchor="end" dominant-baseline="middle">5.9</text>
  <line x1="29" y1="470" x2="35" y2="470" stroke="#757575" stroke-width="1"/>
  <path fill="#FEFEFE" stroke="#949494" stroke-width="1" stroke-dasharray="10,20" d="M35,98 L325,98 A290,290 0 0,1 35,388 Z"/>
  <text x="325" y="90" font-size="10" fill="#757575" text-anchor="middle">4.6</text>
  <line x1="325" y1="92" x2="325" y2="98" stroke="#757575" stroke-width="1"/>
  <text x="27" y="388" font-size="10" fill="#757575" text-anchor="end" dominant-baseline="middle">4.6</text>
  <line x1="29" y1="388" x2="35" y2="388" stroke="#757575" stroke-width="1"/>
  <path fill="#FEFEFE" stroke="#949494" stroke-width="1" stroke-dasharray="10,20" d="M35,98 L249,98 A214,214 0 0,1 35,312 Z"/>
  <text x="249" y="90" font-size="10" fill="#757575" text-anchor="middle">3.4</text>
  <line x1="249" y1="92" x2="249" y2="98" stroke="#757575" stroke-width="1"/>
  <text x="27" y="312" font-size="10" fill="#757575" text-anchor="end" dominant-baseline="middle">3.4</text>
  <line x1="29" y1="312" x2="35" y2="312" stroke="#757575" stroke-width="1"/>
  <path fill="#FEFEFE" stroke="#949494" stroke-width="1" stroke-dasharray="10,20" d="M35,98 L174,98 A139,139 0 0,1 35,237 Z"/>
  <text x="174" y="90" font-size="10" fill="#757575" text-anchor="middle">2.2</text>
  <line x1="174" y1="92" x2="174" y2="98" stroke="#757575" stroke-width="1"/>
  <text x="27" y="237" font-size="10" fill="#757575" text-anchor="end" dominant-baseline="middle">2.2</text>
  <line x1="29" y1="237" x2="35" y2="237" stroke="#757575" stroke-width="1"/>
  <path fill="#FEFEFE" stroke="#949494" stroke-width="1" stroke-dasharray="10,20" d="M35,98 L98,98 A63,63 0 0,1 35,161 Z"/>
  <text x="98" y="90" font-size="10" fill="#757575" text-anchor="middle">1.0</text>
  <line x1="98" y1="92" x2="98" y2="98" stroke="#757575" stroke-width="1"/>
  <text x="27" y="161" font-size="10" fill="#757575" text-anchor="end" dominant-baseline="middle">1.0</text>
  <line x1="29" y1="161" x2="35" y2="161" stroke="#757575" stroke-width="1"/>
  <line x1="35" y1="98" x2="590" y2="98" stroke="#757575" stroke-width="1"/>
  <line x1="35" y1="98" x2="35" y2="676" stroke="#757575" stroke-width="1"/>
  <line x1="590" y1="676" x2="590" y2="98" stroke="#757575" stroke-width="1"/>
  <line x1="35" y1="676" x2="590" y2="676" stroke="#757575" stroke-width="1"/>
  <polygon points="35,98 428,98 426,142" fill="#ff5722" stroke="#065695" stroke-width="2" xlink:title="FS-Mark - BTRFS-NVME - 1.352x Faster Than EXT4-NVME"/>
  <polygon points="35,98 396,98 393,138" fill="#f44336" stroke="#065695" stroke-width="2" xlink:title="FS-Mark - F2FS-RAMDISK - 1.346x Faster Than EXT4-NVME"/>
  <polygon points="35,98 318,98 316,130" fill="#e91e63" stroke="#065695" stroke-width="2" xlink:title="FS-Mark - F2FS-SSD - 1.337x Faster Than EXT4-NVME"/>
  <polygon points="35,98 313,98 311,129" fill="#01579b" stroke="#065695" stroke-width="2" xlink:title="FS-Mark - BTRFS-RAMDISK - 1.335x Faster Than EXT4-NVME"/>
  <polygon points="35,98 304,98 302,128" fill="#009688" stroke="#065695" stroke-width="2" xlink:title="FS-Mark - F2FS-NVME - 1.335x Faster Than EXT4-NVME"/>
  <polygon points="35,98 296,98 295,127" fill="#9e9e9e" stroke="#065695" stroke-width="2" xlink:title="FS-Mark - BTRFS-SSD - 1.324x Faster Than EXT4-NVME"/>
  <polygon points="35,98 114,98 113,107" fill="#673ab7" stroke="#065695" stroke-width="2" xlink:title="FS-Mark - EXT4-RAMDISK - 1.021x Faster Than EXT4-NVME"/>
  <polygon points="35,98 98,98 98,105" fill="#795548" stroke="#065695" stroke-width="2" xlink:title="FS-Mark - EXT4-SSD - 1.005x Faster Than EXT4-NVME"/>
  <polygon points="35,98 98,98 98,105" fill="#4caf50" stroke="#065695" stroke-width="2" xlink:title="FS-Mark - EXT4-NVME - 1.000x Faster Than EXT4-NVME"/>
  <polygon points="35,98 120,108 118,117" fill="#009688" stroke="#065695" stroke-width="2" xlink:title="FS-Mark - F2FS-NVME - 6.390x Faster Than BTRFS-SSD"/>
  <polygon points="35,98 119,107 118,117" fill="#f44336" stroke="#065695" stroke-width="2" xlink:title="FS-Mark - F2FS-RAMDISK - 5.625x Faster Than BTRFS-SSD"/>
  <polygon points="35,98 119,107 117,117" fill="#ff5722" stroke="#065695" stroke-width="2" xlink:title="FS-Mark - BTRFS-NVME - 5.325x Faster Than BTRFS-SSD"/>
  <polygon points="35,98 119,107 117,117" fill="#673ab7" stroke="#065695" stroke-width="2" xlink:title="FS-Mark - EXT4-RAMDISK - 5.136x Faster Than BTRFS-SSD"/>
  <polygon points="35,98 119,107 117,117" fill="#4caf50" stroke="#065695" stroke-width="2" xlink:title="FS-Mark - EXT4-NVME - 4.729x Faster Than BTRFS-SSD"/>
  <polygon points="35,98 118,107 116,117" fill="#01579b" stroke="#065695" stroke-width="2" xlink:title="FS-Mark - BTRFS-RAMDISK - 4.516x Faster Than BTRFS-SSD"/>
  <polygon points="35,98 99,105 98,112" fill="#e91e63" stroke="#065695" stroke-width="2" xlink:title="FS-Mark - F2FS-SSD - 1.349x Faster Than BTRFS-SSD"/>
  <polygon points="35,98 98,105 97,112" fill="#795548" stroke="#065695" stroke-width="2" xlink:title="FS-Mark - EXT4-SSD - 1.111x Faster Than BTRFS-SSD"/>
  <polygon points="35,98 98,105 96,112" fill="#9e9e9e" stroke="#065695" stroke-width="2" xlink:title="FS-Mark - BTRFS-SSD - 1.000x Faster Than BTRFS-SSD"/>
  <polygon points="35,98 427,188 415,231" fill="#673ab7" stroke="#065695" stroke-width="2" xlink:title="FS-Mark - EXT4-RAMDISK - 8.281x Faster Than BTRFS-SSD"/>
  <polygon points="35,98 380,177 369,215" fill="#f44336" stroke="#065695" stroke-width="2" xlink:title="FS-Mark - F2FS-RAMDISK - 5.718x Faster Than BTRFS-SSD"/>
  <polygon points="35,98 362,173 352,209" fill="#009688" stroke="#065695" stroke-width="2" xlink:title="FS-Mark - F2FS-NVME - 4.620x Faster Than BTRFS-SSD"/>
  <polygon points="35,98 350,170 340,205" fill="#ff5722" stroke="#065695" stroke-width="2" xlink:title="FS-Mark - BTRFS-NVME - 4.299x Faster Than BTRFS-SSD"/>
  <polygon points="35,98 325,164 316,196" fill="#4caf50" stroke="#065695" stroke-width="2" xlink:title="FS-Mark - EXT4-NVME - 4.167x Faster Than BTRFS-SSD"/>
  <polygon points="35,98 312,161 304,192" fill="#01579b" stroke="#065695" stroke-width="2" xlink:title="FS-Mark - BTRFS-RAMDISK - 1.306x Faster Than BTRFS-SSD"/>
  <polygon points="35,98 118,117 115,126" fill="#e91e63" stroke="#065695" stroke-width="2" xlink:title="FS-Mark - F2FS-SSD - 1.245x Faster Than BTRFS-SSD"/>
  <polygon points="35,98 103,114 101,121" fill="#795548" stroke="#065695" stroke-width="2" xlink:title="FS-Mark - EXT4-SSD - 1.242x Faster Than BTRFS-SSD"/>
  <polygon points="35,98 96,112 94,119" fill="#9e9e9e" stroke="#065695" stroke-width="2" xlink:title="FS-Mark - BTRFS-SSD - 1.000x Faster Than BTRFS-SSD"/>
  <polygon points="35,98 527,270 505,324" fill="#673ab7" stroke="#065695" stroke-width="2" xlink:title="Flexible IO Tester - EXT4-RAMDISK - 5.273x Faster Than BTRFS-RAMDISK"/>
  <polygon points="35,98 375,217 360,254" fill="#f44336" stroke="#065695" stroke-width="2" xlink:title="Flexible IO Tester - F2FS-RAMDISK - 4.679x Faster Than BTRFS-RAMDISK"/>
  <polygon points="35,98 310,194 297,224" fill="#009688" stroke="#065695" stroke-width="2" xlink:title="Flexible IO Tester - F2FS-NVME - 3.994x Faster Than BTRFS-RAMDISK"/>
  <polygon points="35,98 291,187 279,216" fill="#4caf50" stroke="#065695" stroke-width="2" xlink:title="Flexible IO Tester - EXT4-NVME - 3.921x Faster Than BTRFS-RAMDISK"/>
  <polygon points="35,98 283,185 272,212" fill="#795548" stroke="#065695" stroke-width="2" xlink:title="Flexible IO Tester - EXT4-SSD - 2.298x Faster Than BTRFS-RAMDISK"/>
  <polygon points="35,98 113,125 109,134" fill="#e91e63" stroke="#065695" stroke-width="2" xlink:title="Flexible IO Tester - F2FS-SSD - 2.251x Faster Than BTRFS-RAMDISK"/>
  <polygon points="35,98 109,124 106,132" fill="#9e9e9e" stroke="#065695" stroke-width="2" xlink:title="Flexible IO Tester - BTRFS-SSD - 1.428x Faster Than BTRFS-RAMDISK"/>
  <polygon points="35,98 109,124 105,132" fill="#ff5722" stroke="#065695" stroke-width="2" xlink:title="Flexible IO Tester - BTRFS-NVME - 1.269x Faster Than BTRFS-RAMDISK"/>
  <polygon points="35,98 94,119 92,125" fill="#01579b" stroke="#065695" stroke-width="2" xlink:title="Flexible IO Tester - BTRFS-RAMDISK - 1.000x Faster Than BTRFS-RAMDISK"/>
  <polygon points="35,98 334,242 316,275" fill="#e91e63" stroke="#065695" stroke-width="2" xlink:title="AIO-Stress - F2FS-SSD - 1.277x Faster Than EXT4-RAMDISK"/>
  <polygon points="35,98 301,226 285,255" fill="#009688" stroke="#065695" stroke-width="2" xlink:title="AIO-Stress - F2FS-NVME - 1.268x Faster Than EXT4-RAMDISK"/>
  <polygon points="35,98 262,207 248,232" fill="#f44336" stroke="#065695" stroke-width="2" xlink:title="AIO-Stress - F2FS-RAMDISK - 1.266x Faster Than EXT4-RAMDISK"/>
  <polygon points="35,98 258,205 244,229" fill="#01579b" stroke="#065695" stroke-width="2" xlink:title="AIO-Stress - BTRFS-RAMDISK - 1.153x Faster Than EXT4-RAMDISK"/>
  <polygon points="35,98 165,161 158,175" fill="#ff5722" stroke="#065695" stroke-width="2" xlink:title="AIO-Stress - BTRFS-NVME - 1.141x Faster Than EXT4-RAMDISK"/>
  <polygon points="35,98 163,160 155,173" fill="#9e9e9e" stroke="#065695" stroke-width="2" xlink:title="AIO-Stress - BTRFS-SSD - 1.137x Faster Than EXT4-RAMDISK"/>
  <polygon points="35,98 116,137 111,146" fill="#795548" stroke="#065695" stroke-width="2" xlink:title="AIO-Stress - EXT4-SSD - 1.001x Faster Than EXT4-RAMDISK"/>
  <polygon points="35,98 107,133 103,141" fill="#4caf50" stroke="#065695" stroke-width="2" xlink:title="AIO-Stress - EXT4-NVME - 1.000x Faster Than EXT4-RAMDISK"/>
  <polygon points="35,98 92,125 88,132" fill="#673ab7" stroke="#065695" stroke-width="2" xlink:title="AIO-Stress - EXT4-RAMDISK - 1.000x Faster Than EXT4-RAMDISK"/>
  <polygon points="35,98 103,141 98,148" fill="#f44336" stroke="#065695" stroke-width="2" xlink:title="Flexible IO Tester - F2FS-RAMDISK - 3.712x Faster Than BTRFS-SSD"/>
  <polygon points="35,98 103,141 97,148" fill="#673ab7" stroke="#065695" stroke-width="2" xlink:title="Flexible IO Tester - EXT4-RAMDISK - 3.710x Faster Than BTRFS-SSD"/>
  <polygon points="35,98 103,140 97,148" fill="#ff5722" stroke="#065695" stroke-width="2" xlink:title="Flexible IO Tester - BTRFS-NVME - 2.073x Faster Than BTRFS-SSD"/>
  <polygon points="35,98 97,137 92,143" fill="#009688" stroke="#065695" stroke-width="2" xlink:title="Flexible IO Tester - F2FS-NVME - 2.039x Faster Than BTRFS-SSD"/>
  <polygon points="35,98 96,136 91,143" fill="#4caf50" stroke="#065695" stroke-width="2" xlink:title="Flexible IO Tester - EXT4-NVME - 1.802x Faster Than BTRFS-SSD"/>
  <polygon points="35,98 96,136 91,143" fill="#01579b" stroke="#065695" stroke-width="2" xlink:title="Flexible IO Tester - BTRFS-RAMDISK - 1.706x Faster Than BTRFS-SSD"/>
  <polygon points="35,98 88,132 84,137" fill="#e91e63" stroke="#065695" stroke-width="2" xlink:title="Flexible IO Tester - F2FS-SSD - 1.083x Faster Than BTRFS-SSD"/>
  <polygon points="35,98 88,132 84,137" fill="#795548" stroke="#065695" stroke-width="2" xlink:title="Flexible IO Tester - EXT4-SSD - 1.019x Faster Than BTRFS-SSD"/>
  <polygon points="35,98 88,132 84,137" fill="#9e9e9e" stroke="#065695" stroke-width="2" xlink:title="Flexible IO Tester - BTRFS-SSD - 1.000x Faster Than BTRFS-SSD"/>
  <polygon points="35,98 218,244 200,263" fill="#01579b" stroke="#065695" stroke-width="2" xlink:title="Flexible IO Tester - BTRFS-RAMDISK - 3.504x Faster Than EXT4-SSD"/>
  <polygon points="35,98 218,244 200,263" fill="#ff5722" stroke="#065695" stroke-width="2" xlink:title="Flexible IO Tester - BTRFS-NVME - 2.705x Faster Than EXT4-SSD"/>
  <polygon points="35,98 137,179 127,190" fill="#673ab7" stroke="#065695" stroke-width="2" xlink:title="Flexible IO Tester - EXT4-RAMDISK - 2.580x Faster Than EXT4-SSD"/>
  <polygon points="35,98 135,178 126,189" fill="#f44336" stroke="#065695" stroke-width="2" xlink:title="Flexible IO Tester - F2FS-RAMDISK - 2.087x Faster Than EXT4-SSD"/>
  <polygon points="35,98 124,169 115,178" fill="#009688" stroke="#065695" stroke-width="2" xlink:title="Flexible IO Tester - F2FS-NVME - 1.954x Faster Than EXT4-SSD"/>
  <polygon points="35,98 119,165 111,174" fill="#4caf50" stroke="#065695" stroke-width="2" xlink:title="Flexible IO Tester - EXT4-NVME - 1.753x Faster Than EXT4-SSD"/>
  <polygon points="35,98 88,141 83,146" fill="#9e9e9e" stroke="#065695" stroke-width="2" xlink:title="Flexible IO Tester - BTRFS-SSD - 1.259x Faster Than EXT4-SSD"/>
  <polygon points="35,98 85,138 80,143" fill="#e91e63" stroke="#065695" stroke-width="2" xlink:title="Flexible IO Tester - F2FS-SSD - 1.030x Faster Than EXT4-SSD"/>
  <polygon points="35,98 84,137 80,143" fill="#795548" stroke="#065695" stroke-width="2" xlink:title="Flexible IO Tester - EXT4-SSD - 1.000x Faster Than EXT4-SSD"/>
  <polygon points="35,98 191,254 173,271" fill="#f44336" stroke="#065695" stroke-width="2" xlink:title="Compile Bench - F2FS-RAMDISK - 2.604x Faster Than BTRFS-SSD"/>
  <polygon points="35,98 156,219 141,231" fill="#009688" stroke="#065695" stroke-width="2" xlink:title="Compile Bench - F2FS-NVME - 2.542x Faster Than BTRFS-SSD"/>
  <polygon points="35,98 150,213 136,225" fill="#e91e63" stroke="#065695" stroke-width="2" xlink:title="Compile Bench - F2FS-SSD - 2.363x Faster Than BTRFS-SSD"/>
  <polygon points="35,98 128,191 117,201" fill="#4caf50" stroke="#065695" stroke-width="2" xlink:title="Compile Bench - EXT4-NVME - 2.041x Faster Than BTRFS-SSD"/>
  <polygon points="35,98 122,185 112,194" fill="#795548" stroke="#065695" stroke-width="2" xlink:title="Compile Bench - EXT4-SSD - 2.015x Faster Than BTRFS-SSD"/>
  <polygon points="35,98 113,176 104,184" fill="#673ab7" stroke="#065695" stroke-width="2" xlink:title="Compile Bench - EXT4-RAMDISK - 2.001x Faster Than BTRFS-SSD"/>
  <polygon points="35,98 91,154 84,160" fill="#ff5722" stroke="#065695" stroke-width="2" xlink:title="Compile Bench - BTRFS-NVME - 1.310x Faster Than BTRFS-SSD"/>
  <polygon points="35,98 81,144 75,149" fill="#01579b" stroke="#065695" stroke-width="2" xlink:title="Compile Bench - BTRFS-RAMDISK - 1.132x Faster Than BTRFS-SSD"/>
  <polygon points="35,98 80,143 74,147" fill="#9e9e9e" stroke="#065695" stroke-width="2" xlink:title="Compile Bench - BTRFS-SSD - 1.000x Faster Than BTRFS-SSD"/>
  <polygon points="35,98 137,226 122,237" fill="#f44336" stroke="#065695" stroke-width="2" xlink:title="IOzone - F2FS-RAMDISK - 1.521x Faster Than EXT4-SSD"/>
  <polygon points="35,98 135,223 120,234" fill="#673ab7" stroke="#065695" stroke-width="2" xlink:title="IOzone - EXT4-RAMDISK - 1.503x Faster Than EXT4-SSD"/>
  <polygon points="35,98 128,214 114,224" fill="#01579b" stroke="#065695" stroke-width="2" xlink:title="IOzone - BTRFS-RAMDISK - 1.476x Faster Than EXT4-SSD"/>
  <polygon points="35,98 115,199 103,207" fill="#4caf50" stroke="#065695" stroke-width="2" xlink:title="IOzone - EXT4-NVME - 1.153x Faster Than EXT4-SSD"/>
  <polygon points="35,98 114,197 103,205" fill="#9e9e9e" stroke="#065695" stroke-width="2" xlink:title="IOzone - BTRFS-SSD - 1.139x Faster Than EXT4-SSD"/>
  <polygon points="35,98 114,197 102,205" fill="#ff5722" stroke="#065695" stroke-width="2" xlink:title="IOzone - BTRFS-NVME - 1.131x Faster Than EXT4-SSD"/>
  <polygon points="35,98 86,163 79,168" fill="#009688" stroke="#065695" stroke-width="2" xlink:title="IOzone - F2FS-NVME - 1.131x Faster Than EXT4-SSD"/>
  <polygon points="35,98 79,154 73,158" fill="#e91e63" stroke="#065695" stroke-width="2" xlink:title="IOzone - F2FS-SSD - 1.119x Faster Than EXT4-SSD"/>
  <polygon points="35,98 74,147 69,151" fill="#795548" stroke="#065695" stroke-width="2" xlink:title="IOzone - EXT4-SSD - 1.000x Faster Than EXT4-SSD"/>
  <polygon points="35,98 86,179 77,184" fill="#f44336" stroke="#065695" stroke-width="2" xlink:title="IOzone - F2FS-RAMDISK - 2.818x Faster Than EXT4-SSD"/>
  <polygon points="35,98 85,178 76,183" fill="#673ab7" stroke="#065695" stroke-width="2" xlink:title="IOzone - EXT4-RAMDISK - 2.623x Faster Than EXT4-SSD"/>
  <polygon points="35,98 84,177 75,182" fill="#01579b" stroke="#065695" stroke-width="2" xlink:title="IOzone - BTRFS-RAMDISK - 2.523x Faster Than EXT4-SSD"/>
  <polygon points="35,98 74,160 67,163" fill="#ff5722" stroke="#065695" stroke-width="2" xlink:title="IOzone - BTRFS-NVME - 2.107x Faster Than EXT4-SSD"/>
  <polygon points="35,98 73,159 66,163" fill="#009688" stroke="#065695" stroke-width="2" xlink:title="IOzone - F2FS-NVME - 2.043x Faster Than EXT4-SSD"/>
  <polygon points="35,98 73,158 66,162" fill="#4caf50" stroke="#065695" stroke-width="2" xlink:title="IOzone - EXT4-NVME - 1.857x Faster Than EXT4-SSD"/>
  <polygon points="35,98 73,158 66,162" fill="#9e9e9e" stroke="#065695" stroke-width="2" xlink:title="IOzone - BTRFS-SSD - 1.069x Faster Than EXT4-SSD"/>
  <polygon points="35,98 73,158 66,162" fill="#e91e63" stroke="#065695" stroke-width="2" xlink:title="IOzone - F2FS-SSD - 1.064x Faster Than EXT4-SSD"/>
  <polygon points="35,98 69,151 62,155" fill="#795548" stroke="#065695" stroke-width="2" xlink:title="IOzone - EXT4-SSD - 1.000x Faster Than EXT4-SSD"/>
  <polygon points="35,98 112,258 94,266" fill="#e91e63" stroke="#065695" stroke-width="2" xlink:title="Threaded I/O Tester - F2FS-SSD - 1.360x Faster Than BTRFS-SSD"/>
  <polygon points="35,98 107,247 90,254" fill="#009688" stroke="#065695" stroke-width="2" xlink:title="Threaded I/O Tester - F2FS-NVME - 1.356x Faster Than BTRFS-SSD"/>
  <polygon points="35,98 104,241 87,248" fill="#4caf50" stroke="#065695" stroke-width="2" xlink:title="Threaded I/O Tester - EXT4-NVME - 1.340x Faster Than BTRFS-SSD"/>
  <polygon points="35,98 93,218 79,223" fill="#f44336" stroke="#065695" stroke-width="2" xlink:title="Threaded I/O Tester - F2FS-RAMDISK - 1.293x Faster Than BTRFS-SSD"/>
  <polygon points="35,98 91,214 78,219" fill="#795548" stroke="#065695" stroke-width="2" xlink:title="Threaded I/O Tester - EXT4-SSD - 1.292x Faster Than BTRFS-SSD"/>
  <polygon points="35,98 86,203 74,208" fill="#673ab7" stroke="#065695" stroke-width="2" xlink:title="Threaded I/O Tester - EXT4-RAMDISK - 1.253x Faster Than BTRFS-SSD"/>
  <polygon points="35,98 64,159 57,162" fill="#01579b" stroke="#065695" stroke-width="2" xlink:title="Threaded I/O Tester - BTRFS-RAMDISK - 1.026x Faster Than BTRFS-SSD"/>
  <polygon points="35,98 64,158 57,161" fill="#ff5722" stroke="#065695" stroke-width="2" xlink:title="Threaded I/O Tester - BTRFS-NVME - 1.023x Faster Than BTRFS-SSD"/>
  <polygon points="35,98 62,155 56,157" fill="#9e9e9e" stroke="#065695" stroke-width="2" xlink:title="Threaded I/O Tester - BTRFS-SSD - 1.000x Faster Than BTRFS-SSD"/>
  <polygon points="35,98 63,179 54,182" fill="#673ab7" stroke="#065695" stroke-width="2" xlink:title="Unpacking The Linux Kernel - EXT4-RAMDISK - 1.221x Faster Than BTRFS-RAMDISK"/>
  <polygon points="35,98 63,179 54,181" fill="#f44336" stroke="#065695" stroke-width="2" xlink:title="Unpacking The Linux Kernel - F2FS-RAMDISK - 1.204x Faster Than BTRFS-RAMDISK"/>
  <polygon points="35,98 63,178 54,180" fill="#4caf50" stroke="#065695" stroke-width="2" xlink:title="Unpacking The Linux Kernel - EXT4-NVME - 1.202x Faster Than BTRFS-RAMDISK"/>
  <polygon points="35,98 62,175 53,177" fill="#009688" stroke="#065695" stroke-width="2" xlink:title="Unpacking The Linux Kernel - F2FS-NVME - 1.199x Faster Than BTRFS-RAMDISK"/>
  <polygon points="35,98 62,175 53,177" fill="#795548" stroke="#065695" stroke-width="2" xlink:title="Unpacking The Linux Kernel - EXT4-SSD - 1.195x Faster Than BTRFS-RAMDISK"/>
  <polygon points="35,98 61,173 53,175" fill="#e91e63" stroke="#065695" stroke-width="2" xlink:title="Unpacking The Linux Kernel - F2FS-SSD - 1.155x Faster Than BTRFS-RAMDISK"/>
  <polygon points="35,98 56,159 49,161" fill="#ff5722" stroke="#065695" stroke-width="2" xlink:title="Unpacking The Linux Kernel - BTRFS-NVME - 1.032x Faster Than BTRFS-RAMDISK"/>
  <polygon points="35,98 56,159 49,161" fill="#9e9e9e" stroke="#065695" stroke-width="2" xlink:title="Unpacking The Linux Kernel - BTRFS-SSD - 1.010x Faster Than BTRFS-RAMDISK"/>
  <polygon points="35,98 56,157 49,159" fill="#01579b" stroke="#065695" stroke-width="2" xlink:title="Unpacking The Linux Kernel - BTRFS-RAMDISK - 1.000x Faster Than BTRFS-RAMDISK"/>
  <polygon points="35,98 52,173 35,175" fill="#f44336" stroke="#065695" stroke-width="2" xlink:title="PostMark - F2FS-RAMDISK - 1.274x Faster Than BTRFS-SSD"/>
  <polygon points="35,98 52,172 35,174" fill="#e91e63" stroke="#065695" stroke-width="2" xlink:title="PostMark - F2FS-SSD - 1.264x Faster Than BTRFS-SSD"/>
  <polygon points="35,98 52,172 35,174" fill="#009688" stroke="#065695" stroke-width="2" xlink:title="PostMark - F2FS-NVME - 1.264x Faster Than BTRFS-SSD"/>
  <polygon points="35,98 52,172 35,174" fill="#673ab7" stroke="#065695" stroke-width="2" xlink:title="PostMark - EXT4-RAMDISK - 1.072x Faster Than BTRFS-SSD"/>
  <polygon points="35,98 52,171 35,173" fill="#4caf50" stroke="#065695" stroke-width="2" xlink:title="PostMark - EXT4-NVME - 1.027x Faster Than BTRFS-SSD"/>
  <polygon points="35,98 51,169 35,171" fill="#ff5722" stroke="#065695" stroke-width="2" xlink:title="PostMark - BTRFS-NVME - 1.027x Faster Than BTRFS-SSD"/>
  <polygon points="35,98 49,161 35,163" fill="#795548" stroke="#065695" stroke-width="2" xlink:title="PostMark - EXT4-SSD - 1.027x Faster Than BTRFS-SSD"/>
  <polygon points="35,98 49,160 35,162" fill="#01579b" stroke="#065695" stroke-width="2" xlink:title="PostMark - BTRFS-RAMDISK - 1.020x Faster Than BTRFS-SSD"/>
  <polygon points="35,98 49,159 35,161" fill="#9e9e9e" stroke="#065695" stroke-width="2" xlink:title="PostMark - BTRFS-SSD - 1.000x Faster Than BTRFS-SSD"/>
  <path fill="#FEFEFE" stroke="#757575" stroke-width="1" d="M35,98 L98,98 A63,63 0 0,1 35,161 Z"/>
  <text x="77.277910748875" y="135.78185096988" font-size="11" fill="#C80000" text-anchor="end" dominant-baseline="middle">Disk</text>
  <text x="586" y="667" font-size="9" fill="#f44336" text-anchor="end" dominant-baseline="middle">2 x 960GB SanDisk SDSSDHII + 1200GB INTEL SSDPE2MW012T4</text>
  <text x="586" y="658" font-size="9" fill="#673ab7" text-anchor="end" dominant-baseline="middle">2 x 960GB SanDisk SDSSDHII + 1200GB INTEL SSDPE2MW012T4</text>
  <text x="586" y="649" font-size="9" fill="#01579b" text-anchor="end" dominant-baseline="middle">2 x 960GB SanDisk SDSSDHII + 1200GB INTEL SSDPE2MW012T4</text>
  <text x="586" y="640" font-size="9" fill="#009688" text-anchor="end" dominant-baseline="middle">2 x 960GB SanDisk SDSSDHII + 1200GB INTEL SSDPE2MW012T4</text>
  <text x="586" y="631" font-size="9" fill="#4caf50" text-anchor="end" dominant-baseline="middle">2 x 960GB SanDisk SDSSDHII + 1200GB INTEL SSDPE2MW012T4</text>
  <text x="586" y="622" font-size="9" fill="#ff5722" text-anchor="end" dominant-baseline="middle">2 x 960GB SanDisk SDSSDHII + 1200GB INTEL SSDPE2MW012T4</text>
  <text x="586" y="613" font-size="9" fill="#e91e63" text-anchor="end" dominant-baseline="middle">2 x 960GB SanDisk SDSSDHII + 1200GB INTEL SSDPE2MW012T4</text>
  <text x="586" y="604" font-size="9" fill="#795548" text-anchor="end" dominant-baseline="middle">2 x 960GB SanDisk SDSSDHII + 1200GB INTEL SSDPE2MW012T4</text>
  <text x="586" y="595" font-size="9" fill="#9e9e9e" text-anchor="end" dominant-baseline="middle">2 x 960GB SanDisk SDSSDHII + 1200GB INTEL SSDPE2MW012T4</text>
</svg>
