<?xml version="1.0"?>
<!DOCTYPE svg PUBLIC "-//W3C//DTD SVG 1.1//EN" "http://www.w3.org/Graphics/SVG/1.1/DTD/svg11.dtd">
<!--Phoronix Test Suite v6.8.0m1 [ http://www.phoronix-test-suite.com/ ]-->
<svg xmlns="http://www.w3.org/2000/svg" xmlns:xlink="http://www.w3.org/1999/xlink" version="1.1" font-family="sans-serif, droid-sans, helvetica, verdana, tahoma" viewbox="0 0 600 570" width="600" height="570" preserveAspectRatio="xMinYMin meet">
  <rect x="0" y="0" width="600" height="570" fill="#FEFEFE" stroke="#757575" stroke-width="2"/>
  <g stroke="#757575" stroke-width="1">
    <line x1="93.5" y1="64" x2="93.5" y2="497"/>
    <line x1="93" y1="496.5" x2="586" y2="496.5"/>
  </g>
  <a xlink:href="http://www.phoronix-test-suite.com/" xlink:show="new">
    <text x="585" y="59" font-size="7" fill="#065695" text-anchor="end" xlink:show="new">PHORONIX-TEST-SUITE.COM</text>
  </a>
  <polygon points="102.5,56 93.5,60.5 93.5,51.5" fill="#065695" stroke="#949494" stroke-width="1"/>
  <text x="105" y="59" font-size="7" fill="#065695" text-anchor="start">MB/s, More Is Better</text>
  <rect x="0" y="0" width="600" height="48" fill="#231f20"/>
  <a xlink:href="http://openbenchmarking.org/test/pts/dbench-1.0.0" xlink:show="new">
    <text x="6" y="19" font-size="17" fill="#FEFEFE" text-anchor="start" xlink:show="new">Dbench v4.0</text>
  </a>
  <text x="6" y="36" font-size="11" fill="#FEFEFE" text-anchor="start">Client Count: 6</text>
  <path d="m74 22v9m-5-16v16m-5-28v28m-23-2h12.5c2.485281 0 4.5-2.014719 4.5-4.5s-2.014719-4.5-4.5-4.5h-8c-2.485281 0-4.5-2.014719-4.5-4.5s2.014719-4.5 4.5-4.5h12.5m-21 5h-11m11 13h-2c-4.970563 0-9-4.029437-9-9v-20m-24 40v-20c0-4.970563 4.0294373-9 9-9 4.970563 0 9 4.029437 9 9s-4.029437 9-9 9h-9" stroke="#ffffff" stroke-width="4" fill="none" transform="translate(508,4)"/>
  <line x1="93.5" y1="100" x2="93.5" y2="466" stroke="#757575" stroke-width="11" stroke-dasharray="1,35"/>
  <g font-size="10" fill="#231f20">
    <text x="88" y="80" text-anchor="end">f2fs-ramdisk</text>
    <text x="88" y="116" text-anchor="end">ext4-ramdisk</text>
    <text x="88" y="152" text-anchor="end">xfs-ramdisk</text>
    <text x="88" y="188" text-anchor="end">btrfs-ramdisk</text>
    <text x="88" y="224" text-anchor="end">f2fs-nvme</text>
    <text x="88" y="260" text-anchor="end">ext4-nvme</text>
    <text x="88" y="296" text-anchor="end">xfs-nvme</text>
    <text x="88" y="332" text-anchor="end">btrfs-nvme</text>
    <text x="88" y="368" text-anchor="end">f2fs-ssd</text>
    <text x="88" y="404" text-anchor="end">ext4-ssd</text>
    <text x="88" y="440" text-anchor="end">xfs-ssd</text>
    <text x="88" y="476" text-anchor="end">btrfs-ssd</text>
  </g>
  <g font-size="10" fill="#065695" text-anchor="middle">
    <text x="177.5" y="511">1100</text>
    <text x="259.5" y="511">2200</text>
    <text x="341.5" y="511">3300</text>
    <text x="423.5" y="511">4400</text>
    <text x="505.5" y="511">5500</text>
  </g>
  <g stroke="#BABABA" stroke-width="1">
    <line x1="177.5" y1="64" x2="177.5" y2="491" stroke-dasharray="5,5"/>
    <line x1="177.5" y1="492" x2="177.5" y2="501"/>
    <line x1="259.5" y1="64" x2="259.5" y2="491" stroke-dasharray="5,5"/>
    <line x1="259.5" y1="492" x2="259.5" y2="501"/>
    <line x1="341.5" y1="64" x2="341.5" y2="491" stroke-dasharray="5,5"/>
    <line x1="341.5" y1="492" x2="341.5" y2="501"/>
    <line x1="423.5" y1="64" x2="423.5" y2="491" stroke-dasharray="5,5"/>
    <line x1="423.5" y1="492" x2="423.5" y2="501"/>
    <line x1="505.5" y1="64" x2="505.5" y2="491" stroke-dasharray="5,5"/>
    <line x1="505.5" y1="492" x2="505.5" y2="501"/>
  </g>
  <g stroke="#949494" stroke-width="1">
    <rect x="93.5" y="70.5" height="24" width="369" fill="#2196f3" xlink:title="f2fs-ramdisk: 4953.90"/>
    <rect x="93.5" y="106.5" height="24" width="320" fill="#2196f3" xlink:title="ext4-ramdisk: 4290.16"/>
    <rect x="93.5" y="142.5" height="24" width="351" fill="#2196f3" xlink:title="xfs-ramdisk: 4704.46"/>
    <rect x="93.5" y="178.5" height="24" width="11" fill="#2196f3" xlink:title="btrfs-ramdisk: 152.63"/>
    <rect x="93.5" y="214.5" height="24" width="290" fill="#2196f3" xlink:title="f2fs-nvme: 3884.17"/>
    <rect x="93.5" y="250.5" height="24" width="203" fill="#2196f3" xlink:title="ext4-nvme: 2718.57"/>
    <rect x="93.5" y="286.5" height="24" width="96" fill="#2196f3" xlink:title="xfs-nvme: 1290.55"/>
    <rect x="93.5" y="322.5" height="24" width="70" fill="#2196f3" xlink:title="btrfs-nvme: 941.25"/>
    <rect x="93.5" y="358.5" height="24" width="52" fill="#2196f3" xlink:title="f2fs-ssd: 703.95"/>
    <rect x="93.5" y="394.5" height="24" width="34" fill="#2196f3" xlink:title="ext4-ssd: 455.05"/>
    <rect x="93.5" y="430.5" height="24" width="19" fill="#2196f3" xlink:title="xfs-ssd: 255.15"/>
    <rect x="93.5" y="466.5" height="24" width="36" fill="#2196f3" xlink:title="btrfs-ssd: 483.82"/>
  </g>
  <g font-size="8" fill="#065695" text-anchor="end">
    <text y="94" x="88">SE +/- 16.31</text>
    <text y="130" x="88">SE +/- 75.13</text>
    <text y="166" x="88">SE +/- 12.54</text>
    <text y="202" x="88">SE +/- 0.57</text>
    <text y="238" x="88">SE +/- 45.90</text>
    <text y="274" x="88">SE +/- 5.79</text>
    <text y="310" x="88">SE +/- 8.54</text>
    <text y="346" x="88">SE +/- 14.09</text>
    <text y="382" x="88">SE +/- 11.70</text>
    <text y="418" x="88">SE +/- 0.63</text>
    <text y="454" x="88">SE +/- 3.19</text>
    <text y="490" x="88">SE +/- 2.46</text>
  </g>
  <g font-size="10" fill="#FFFFFF">
    <text x="457" y="88" text-anchor="end">4953.90</text>
    <text x="408" y="124" text-anchor="end">4290.16</text>
    <text x="439" y="160" text-anchor="end">4704.46</text>
    <text x="110" y="196" fill="#065695" text-anchor="start">152.63</text>
    <text x="378" y="232" text-anchor="end">3884.17</text>
    <text x="291" y="268" text-anchor="end">2718.57</text>
    <text x="184" y="304" text-anchor="end">1290.55</text>
    <text x="158" y="340" text-anchor="end">941.25</text>
    <text x="140" y="376" text-anchor="end">703.95</text>
    <text x="133" y="412" fill="#065695" text-anchor="start">455.05</text>
    <text x="118" y="448" fill="#065695" text-anchor="start">255.15</text>
    <text x="135" y="484" fill="#065695" text-anchor="start">483.82</text>
  </g>
  <line x1="407.5" y1="106" x2="407.5" y2="114" stroke="#757575" stroke-width="1"/>
  <line x1="419.5" y1="106" x2="419.5" y2="114" stroke="#757575" stroke-width="1"/>
  <line x1="407.5" y1="106.5" x2="419.5" y2="106.5" stroke="#757575" stroke-width="1"/>
  <rect x="0" y="518" width="600" height="52" fill="#231f20"/>
  <a xlink:href="http://www.phoronix-test-suite.com/" xlink:show="new">
    <text x="585" y="530" font-size="9" fill="#FEFEFE" text-anchor="end" xlink:show="new">Phoronix Test Suite 6.8.0m1</text>
  </a>
  <text x="5" y="544" font-size="8" fill="#FEFEFE" text-anchor="start" xlink:title="-lpopt -O2" width="595">1. (CC) gcc options: -lpopt -O2</text>
</svg>
