<?xml version="1.0"?>
<!DOCTYPE svg PUBLIC "-//W3C//DTD SVG 1.1//EN" "http://www.w3.org/Graphics/SVG/1.1/DTD/svg11.dtd">
<!--Phoronix Test Suite v6.8.0m1 [ http://www.phoronix-test-suite.com/ ]-->
<svg xmlns="http://www.w3.org/2000/svg" xmlns:xlink="http://www.w3.org/1999/xlink" version="1.1" font-family="sans-serif, droid-sans, helvetica, verdana, tahoma" viewbox="0 0 600 570" width="600" height="570" preserveAspectRatio="xMinYMin meet">
  <rect x="0" y="0" width="600" height="570" fill="#FEFEFE" stroke="#757575" stroke-width="2"/>
  <g stroke="#757575" stroke-width="1">
    <line x1="93.5" y1="64" x2="93.5" y2="497"/>
    <line x1="93" y1="496.5" x2="586" y2="496.5"/>
  </g>
  <a xlink:href="http://www.phoronix-test-suite.com/" xlink:show="new">
    <text x="585" y="59" font-size="7" fill="#065695" text-anchor="end" xlink:show="new">PHORONIX-TEST-SUITE.COM</text>
  </a>
  <polygon points="102.5,56 93.5,60.5 93.5,51.5" fill="#065695" stroke="#949494" stroke-width="1"/>
  <text x="105" y="59" font-size="7" fill="#065695" text-anchor="start">MB/s, More Is Better</text>
  <rect x="0" y="0" width="600" height="48" fill="#231f20"/>
  <a xlink:href="http://openbenchmarking.org/test/pts/iozone-1.8.0" xlink:show="new">
    <text x="6" y="19" font-size="17" fill="#FEFEFE" text-anchor="start" xlink:show="new">IOzone v3.405</text>
  </a>
  <text x="6" y="36" font-size="11" fill="#FEFEFE" text-anchor="start">Record Size: 1MB - File Size: 2GB - Disk Test: Read Performance</text>
  <path d="m74 22v9m-5-16v16m-5-28v28m-23-2h12.5c2.485281 0 4.5-2.014719 4.5-4.5s-2.014719-4.5-4.5-4.5h-8c-2.485281 0-4.5-2.014719-4.5-4.5s2.014719-4.5 4.5-4.5h12.5m-21 5h-11m11 13h-2c-4.970563 0-9-4.029437-9-9v-20m-24 40v-20c0-4.970563 4.0294373-9 9-9 4.970563 0 9 4.029437 9 9s-4.029437 9-9 9h-9" stroke="#ffffff" stroke-width="4" fill="none" transform="translate(508,4)"/>
  <line x1="93.5" y1="100" x2="93.5" y2="466" stroke="#757575" stroke-width="11" stroke-dasharray="1,35"/>
  <g font-size="10" fill="#231f20">
    <text x="88" y="80" text-anchor="end">f2fs-ramdisk</text>
    <text x="88" y="116" text-anchor="end">ext4-ramdisk</text>
    <text x="88" y="152" text-anchor="end">xfs-ramdisk</text>
    <text x="88" y="188" text-anchor="end">btrfs-ramdisk</text>
    <text x="88" y="224" text-anchor="end">f2fs-nvme</text>
    <text x="88" y="260" text-anchor="end">ext4-nvme</text>
    <text x="88" y="296" text-anchor="end">xfs-nvme</text>
    <text x="88" y="332" text-anchor="end">btrfs-nvme</text>
    <text x="88" y="368" text-anchor="end">f2fs-ssd</text>
    <text x="88" y="404" text-anchor="end">ext4-ssd</text>
    <text x="88" y="440" text-anchor="end">xfs-ssd</text>
    <text x="88" y="476" text-anchor="end">btrfs-ssd</text>
  </g>
  <g font-size="10" fill="#065695" text-anchor="middle">
    <text x="177.5" y="511">1400</text>
    <text x="259.5" y="511">2800</text>
    <text x="341.5" y="511">4200</text>
    <text x="423.5" y="511">5600</text>
    <text x="505.5" y="511">7000</text>
  </g>
  <g stroke="#BABABA" stroke-width="1">
    <line x1="177.5" y1="64" x2="177.5" y2="491" stroke-dasharray="5,5"/>
    <line x1="177.5" y1="492" x2="177.5" y2="501"/>
    <line x1="259.5" y1="64" x2="259.5" y2="491" stroke-dasharray="5,5"/>
    <line x1="259.5" y1="492" x2="259.5" y2="501"/>
    <line x1="341.5" y1="64" x2="341.5" y2="491" stroke-dasharray="5,5"/>
    <line x1="341.5" y1="492" x2="341.5" y2="501"/>
    <line x1="423.5" y1="64" x2="423.5" y2="491" stroke-dasharray="5,5"/>
    <line x1="423.5" y1="492" x2="423.5" y2="501"/>
    <line x1="505.5" y1="64" x2="505.5" y2="491" stroke-dasharray="5,5"/>
    <line x1="505.5" y1="492" x2="505.5" y2="501"/>
  </g>
  <g stroke="#949494" stroke-width="1">
    <rect x="93.5" y="70.5" height="24" width="384" fill="#2196f3" xlink:title="f2fs-ramdisk: 6549.91"/>
    <rect x="93.5" y="106.5" height="24" width="250" fill="#2196f3" xlink:title="ext4-ramdisk: 4264.35"/>
    <rect x="93.5" y="142.5" height="24" width="301" fill="#2196f3" xlink:title="xfs-ramdisk: 5141.89"/>
    <rect x="93.5" y="178.5" height="24" width="373" fill="#2196f3" xlink:title="btrfs-ramdisk: 6365.56"/>
    <rect x="93.5" y="214.5" height="24" width="290" fill="#2196f3" xlink:title="f2fs-nvme: 4943.08"/>
    <rect x="93.5" y="250.5" height="24" width="285" fill="#2196f3" xlink:title="ext4-nvme: 4860.75"/>
    <rect x="93.5" y="286.5" height="24" width="280" fill="#2196f3" xlink:title="xfs-nvme: 4780.99"/>
    <rect x="93.5" y="322.5" height="24" width="267" fill="#2196f3" xlink:title="btrfs-nvme: 4552.40"/>
    <rect x="93.5" y="358.5" height="24" width="283" fill="#2196f3" xlink:title="f2fs-ssd: 4828.50"/>
    <rect x="93.5" y="394.5" height="24" width="251" fill="#2196f3" xlink:title="ext4-ssd: 4286.45"/>
    <rect x="93.5" y="430.5" height="24" width="279" fill="#2196f3" xlink:title="xfs-ssd: 4757.92"/>
    <rect x="93.5" y="466.5" height="24" width="293" fill="#2196f3" xlink:title="btrfs-ssd: 5007.75"/>
  </g>
  <g font-size="8" fill="#065695" text-anchor="end">
    <text y="94" x="88">SE +/- 47.52</text>
    <text y="130" x="88">SE +/- 95.17</text>
    <text y="166" x="88">SE +/- 56.49</text>
    <text y="202" x="88">SE +/- 25.58</text>
    <text y="238" x="88">SE +/- 29.38</text>
    <text y="274" x="88">SE +/- 30.59</text>
    <text y="310" x="88">SE +/- 168.62</text>
    <text y="346" x="88">SE +/- 232.29</text>
    <text y="382" x="88">SE +/- 7.35</text>
    <text y="418" x="88">SE +/- 210.88</text>
    <text y="454" x="88">SE +/- 186.53</text>
    <text y="490" x="88">SE +/- 44.74</text>
  </g>
  <g font-size="10" fill="#FFFFFF">
    <text x="472" y="88" text-anchor="end">6549.91</text>
    <text x="338" y="124" text-anchor="end">4264.35</text>
    <text x="389" y="160" text-anchor="end">5141.89</text>
    <text x="461" y="196" text-anchor="end">6365.56</text>
    <text x="378" y="232" text-anchor="end">4943.08</text>
    <text x="373" y="268" text-anchor="end">4860.75</text>
    <text x="368" y="304" text-anchor="end">4780.99</text>
    <text x="355" y="340" text-anchor="end">4552.40</text>
    <text x="371" y="376" text-anchor="end">4828.50</text>
    <text x="339" y="412" text-anchor="end">4286.45</text>
    <text x="367" y="448" text-anchor="end">4757.92</text>
    <text x="381" y="484" text-anchor="end">5007.75</text>
  </g>
  <line x1="337.5" y1="106" x2="337.5" y2="114" stroke="#757575" stroke-width="1"/>
  <line x1="349.5" y1="106" x2="349.5" y2="114" stroke="#757575" stroke-width="1"/>
  <line x1="337.5" y1="106.5" x2="349.5" y2="106.5" stroke="#757575" stroke-width="1"/>
  <line x1="363.5" y1="286" x2="363.5" y2="294" stroke="#757575" stroke-width="1"/>
  <line x1="383.5" y1="286" x2="383.5" y2="294" stroke="#757575" stroke-width="1"/>
  <line x1="363.5" y1="286.5" x2="383.5" y2="286.5" stroke="#757575" stroke-width="1"/>
  <line x1="346.5" y1="322" x2="346.5" y2="330" stroke="#757575" stroke-width="1"/>
  <line x1="374.5" y1="322" x2="374.5" y2="330" stroke="#757575" stroke-width="1"/>
  <line x1="346.5" y1="322.5" x2="374.5" y2="322.5" stroke="#757575" stroke-width="1"/>
  <line x1="332.5" y1="394" x2="332.5" y2="402" stroke="#757575" stroke-width="1"/>
  <line x1="356.5" y1="394" x2="356.5" y2="402" stroke="#757575" stroke-width="1"/>
  <line x1="332.5" y1="394.5" x2="356.5" y2="394.5" stroke="#757575" stroke-width="1"/>
  <line x1="361.5" y1="430" x2="361.5" y2="438" stroke="#757575" stroke-width="1"/>
  <line x1="383.5" y1="430" x2="383.5" y2="438" stroke="#757575" stroke-width="1"/>
  <line x1="361.5" y1="430.5" x2="383.5" y2="430.5" stroke="#757575" stroke-width="1"/>
  <rect x="0" y="518" width="600" height="52" fill="#231f20"/>
  <a xlink:href="http://www.phoronix-test-suite.com/" xlink:show="new">
    <text x="585" y="530" font-size="9" fill="#FEFEFE" text-anchor="end" xlink:show="new">Phoronix Test Suite 6.8.0m1</text>
  </a>
  <text x="5" y="544" font-size="8" fill="#FEFEFE" text-anchor="start" xlink:title="-O3" width="595">1. (CC) gcc options: -O3</text>
</svg>
