<?xml version="1.0"?>
<!DOCTYPE svg PUBLIC "-//W3C//DTD SVG 1.1//EN" "http://www.w3.org/Graphics/SVG/1.1/DTD/svg11.dtd">
<!--Phoronix Test Suite v6.8.0m1 [ http://www.phoronix-test-suite.com/ ]-->
<svg xmlns="http://www.w3.org/2000/svg" xmlns:xlink="http://www.w3.org/1999/xlink" version="1.1" font-family="sans-serif, droid-sans, helvetica, verdana, tahoma" viewbox="0 0 600 577" width="600" height="577" preserveAspectRatio="xMinYMin meet">
  <rect x="0" y="0" width="600" height="577" fill="#FEFEFE" stroke="#757575" stroke-width="2"/>
  <g stroke="#757575" stroke-width="1">
    <line x1="93.5" y1="64" x2="93.5" y2="497"/>
    <line x1="93" y1="496.5" x2="586" y2="496.5"/>
  </g>
  <a xlink:href="http://www.phoronix-test-suite.com/" xlink:show="new">
    <text x="585" y="59" font-size="7" fill="#065695" text-anchor="end" xlink:show="new">PHORONIX-TEST-SUITE.COM</text>
  </a>
  <polygon points="102.5,56 93.5,60.5 93.5,51.5" fill="#065695" stroke="#949494" stroke-width="1"/>
  <text x="105" y="59" font-size="7" fill="#065695" text-anchor="start">IOPS, More Is Better</text>
  <rect x="0" y="0" width="600" height="48" fill="#231f20"/>
  <a xlink:href="http://openbenchmarking.org/test/pts/fio-1.8.2" xlink:show="new">
    <text x="6" y="19" font-size="17" fill="#FEFEFE" text-anchor="start" xlink:show="new">Flexible IO Tester v2.1.13</text>
  </a>
  <text x="6" y="36" font-size="6.5" fill="#FEFEFE" text-anchor="start">Type: Random Read - IO Engine: Sync - Buffered: Yes - Direct: No - Block Size: 4KB - Disk Target: Default Test Directory - Result: IOPS</text>
  <path d="m74 22v9m-5-16v16m-5-28v28m-23-2h12.5c2.485281 0 4.5-2.014719 4.5-4.5s-2.014719-4.5-4.5-4.5h-8c-2.485281 0-4.5-2.014719-4.5-4.5s2.014719-4.5 4.5-4.5h12.5m-21 5h-11m11 13h-2c-4.970563 0-9-4.029437-9-9v-20m-24 40v-20c0-4.970563 4.0294373-9 9-9 4.970563 0 9 4.029437 9 9s-4.029437 9-9 9h-9" stroke="#ffffff" stroke-width="4" fill="none" transform="translate(508,4)"/>
  <line x1="93.5" y1="100" x2="93.5" y2="495" stroke="#757575" stroke-width="11" stroke-dasharray="1,35"/>
  <g font-size="10" fill="#231f20">
    <text x="88" y="80" text-anchor="end">f2fs-ramdisk</text>
    <text x="88" y="116" text-anchor="end">ext4-ramdisk</text>
    <text x="88" y="152" text-anchor="end">xfs-ramdisk</text>
    <text x="88" y="188" text-anchor="end">btrfs-ramdisk</text>
    <text x="88" y="224" text-anchor="end">f2fs-nvme</text>
    <text x="88" y="260" text-anchor="end">ext4-nvme</text>
    <text x="88" y="296" text-anchor="end">xfs-nvme</text>
    <text x="88" y="332" text-anchor="end">btrfs-nvme</text>
    <text x="88" y="368" text-anchor="end">f2fs-ssd</text>
    <text x="88" y="404" text-anchor="end">ext4-ssd</text>
    <text x="88" y="440" text-anchor="end">xfs-ssd</text>
    <text x="88" y="476" text-anchor="end">btrfs-ssd</text>
  </g>
  <g font-size="10" fill="#065695" text-anchor="middle">
    <text x="177.5" y="511">60000</text>
    <text x="259.5" y="511">120000</text>
    <text x="341.5" y="511">180000</text>
    <text x="423.5" y="511">240000</text>
    <text x="505.5" y="511">300000</text>
  </g>
  <g stroke="#BABABA" stroke-width="1">
    <line x1="177.5" y1="64" x2="177.5" y2="491" stroke-dasharray="5,5"/>
    <line x1="177.5" y1="492" x2="177.5" y2="501"/>
    <line x1="259.5" y1="64" x2="259.5" y2="491" stroke-dasharray="5,5"/>
    <line x1="259.5" y1="492" x2="259.5" y2="501"/>
    <line x1="341.5" y1="64" x2="341.5" y2="491" stroke-dasharray="5,5"/>
    <line x1="341.5" y1="492" x2="341.5" y2="501"/>
    <line x1="423.5" y1="64" x2="423.5" y2="491" stroke-dasharray="5,5"/>
    <line x1="423.5" y1="492" x2="423.5" y2="501"/>
    <line x1="505.5" y1="64" x2="505.5" y2="491" stroke-dasharray="5,5"/>
    <line x1="505.5" y1="492" x2="505.5" y2="501"/>
  </g>
  <g stroke="#949494" stroke-width="1">
    <rect x="93.5" y="70.5" height="24" width="349" fill="#2196f3" xlink:title="f2fs-ramdisk: 255573"/>
    <rect x="93.5" y="106.5" height="24" width="355" fill="#2196f3" xlink:title="ext4-ramdisk: 259532"/>
    <rect x="93.5" y="142.5" height="24" width="349" fill="#2196f3" xlink:title="xfs-ramdisk: 255395"/>
    <rect x="93.5" y="178.5" height="24" width="93" fill="#2196f3" xlink:title="btrfs-ramdisk: 68108"/>
    <rect x="93.5" y="214.5" height="24" width="15" fill="#2196f3" xlink:title="f2fs-nvme: 10646"/>
    <rect x="93.5" y="250.5" height="24" width="15" fill="#2196f3" xlink:title="ext4-nvme: 10611"/>
    <rect x="93.5" y="286.5" height="24" width="14" fill="#2196f3" xlink:title="xfs-nvme: 10324"/>
    <rect x="93.5" y="322.5" height="24" width="12" fill="#2196f3" xlink:title="btrfs-nvme: 8986"/>
    <rect x="93.5" y="358.5" height="24" width="11" fill="#2196f3" xlink:title="f2fs-ssd: 8122"/>
    <rect x="93.5" y="394.5" height="24" width="12" fill="#2196f3" xlink:title="ext4-ssd: 8470"/>
    <rect x="93.5" y="430.5" height="24" width="11" fill="#2196f3" xlink:title="xfs-ssd: 8228"/>
    <rect x="93.5" y="466.5" height="24" width="10" fill="#2196f3" xlink:title="btrfs-ssd: 7037"/>
  </g>
  <g font-size="8" fill="#065695" text-anchor="end">
    <text y="94" x="88">SE +/- 4521.44</text>
    <text y="130" x="88">SE +/- 6604.34</text>
    <text y="166" x="88">SE +/- 4582.05</text>
    <text y="202" x="88">SE +/- 1160.80</text>
    <text y="238" x="88">SE +/- 146.11</text>
    <text y="274" x="88">SE +/- 184.82</text>
    <text y="310" x="88">SE +/- 63.20</text>
    <text y="346" x="88">SE +/- 181.81</text>
    <text y="382" x="88">SE +/- 136.43</text>
    <text y="418" x="88">SE +/- 158.17</text>
    <text y="454" x="88">SE +/- 143.12</text>
    <text y="490" x="88">SE +/- 71.68</text>
  </g>
  <g font-size="10" fill="#FFFFFF">
    <text x="437" y="88" text-anchor="end">255573</text>
    <text x="443" y="124" text-anchor="end">259532</text>
    <text x="437" y="160" text-anchor="end">255395</text>
    <text x="181" y="196" text-anchor="end">68108</text>
    <text x="114" y="232" fill="#065695" text-anchor="start">10646</text>
    <text x="114" y="268" fill="#065695" text-anchor="start">10611</text>
    <text x="113" y="304" fill="#065695" text-anchor="start">10324</text>
    <text x="111" y="340" fill="#065695" text-anchor="start">8986</text>
    <text x="110" y="376" fill="#065695" text-anchor="start">8122</text>
    <text x="111" y="412" fill="#065695" text-anchor="start">8470</text>
    <text x="110" y="448" fill="#065695" text-anchor="start">8228</text>
    <text x="109" y="484" fill="#065695" text-anchor="start">7037</text>
  </g>
  <line x1="436.5" y1="70" x2="436.5" y2="78" stroke="#757575" stroke-width="1"/>
  <line x1="448.5" y1="70" x2="448.5" y2="78" stroke="#757575" stroke-width="1"/>
  <line x1="436.5" y1="70.5" x2="448.5" y2="70.5" stroke="#757575" stroke-width="1"/>
  <line x1="439.5" y1="106" x2="439.5" y2="114" stroke="#757575" stroke-width="1"/>
  <line x1="457.5" y1="106" x2="457.5" y2="114" stroke="#757575" stroke-width="1"/>
  <line x1="439.5" y1="106.5" x2="457.5" y2="106.5" stroke="#757575" stroke-width="1"/>
  <line x1="436.5" y1="142" x2="436.5" y2="150" stroke="#757575" stroke-width="1"/>
  <line x1="448.5" y1="142" x2="448.5" y2="150" stroke="#757575" stroke-width="1"/>
  <line x1="436.5" y1="142.5" x2="448.5" y2="142.5" stroke="#757575" stroke-width="1"/>
  <rect x="0" y="518" width="600" height="59" fill="#231f20"/>
  <a xlink:href="http://www.phoronix-test-suite.com/" xlink:show="new">
    <text x="585" y="530" font-size="9" fill="#FEFEFE" text-anchor="end" xlink:show="new">Phoronix Test Suite 6.8.0m1</text>
  </a>
  <text x="5" y="544" font-size="8" fill="#FEFEFE" text-anchor="start" xlink:title="-rdynamic -std=gnu99 -O3 -ffast-math -include -ll -lnuma -lrt -laio -lz -lm -lpthread -ldl" width="595">1. (CC) gcc options: -rdynamic -std=gnu99 -O3 -ffast-math -include -ll -lnuma -lrt -laio -lz -lm -lpthread -ldl</text>
</svg>
