<?xml version="1.0"?>
<!DOCTYPE svg PUBLIC "-//W3C//DTD SVG 1.1//EN" "http://www.w3.org/Graphics/SVG/1.1/DTD/svg11.dtd">
<!--Phoronix Test Suite v6.6.1 [ http://www.phoronix-test-suite.com/ ]-->
<svg xmlns="http://www.w3.org/2000/svg" xmlns:xlink="http://www.w3.org/1999/xlink" version="1.1" font-family="sans-serif, droid-sans, helvetica, verdana, tahoma" viewbox="0 0 1160 281" width="1160" height="281" preserveAspectRatio="xMinYMin meet"><rect x="0" y="0" width="1160" height="281" fill="#FEFEFE" stroke="#757575" stroke-width="2"/><rect x="1" y="1" width="1159" height="280" fill="#FEFEFE" stroke="#757575" stroke-width="1"/><path d="m74 22v9m-5-16v16m-5-28v28m-23-2h12.5c2.485281 0 4.5-2.014719 4.5-4.5s-2.014719-4.5-4.5-4.5h-8c-2.485281 0-4.5-2.014719-4.5-4.5s2.014719-4.5 4.5-4.5h12.5m-21 5h-11m11 13h-2c-4.970563 0-9-4.029437-9-9v-20m-24 40v-20c0-4.970563 4.0294373-9 9-9 4.970563 0 9 4.029437 9 9s-4.029437 9-9 9h-9" stroke="#000000" stroke-width="4" fill="none" transform="translate(488,28)"/><line x1="1056" y1="145" x2="1160" y2="145" stroke="#BABABA" stroke-width="240" stroke-dasharray="104,104"/><line x1="580" y1="73" x2="580" y2="265" stroke="#949494" stroke-width="1160" stroke-dasharray="16,16"/><line x1="1056" y1="145" x2="1160" y2="145" stroke="#757575" stroke-width="240" stroke-dasharray="1,103"/><rect x="1" y="1" width="1158" height="25" fill="#231f20"/><text x="5" y="19" font-size="17" fill="#FEFEFE" text-anchor="start">2016-11-04-2042</text><line x1="1" y1="25" x2="1159" y2="25" stroke="#757575" stroke-width="1"/><g font-size="10" font-weight="bold" text-anchor="end" fill="#065695"><a xlink:href="http://openbenchmarking.org/test/pts/aio-stress-1.1.1" xlink:show="new"><text x="1054" y="85" fill="#065695">aio-stress: Test: Random Write</text></a><a xlink:href="http://openbenchmarking.org/test/pts/fio-1.8.2" xlink:show="new"><text x="1054" y="101" fill="#065695">fio: Type: Random Read - IO Engine: Sync - Buffered: Yes - Direct: No - Block Size: 4KB - Disk Target: Default Test Directory - Result: IOPS</text></a><a xlink:href="http://openbenchmarking.org/test/pts/fio-1.8.2" xlink:show="new"><text x="1054" y="117" fill="#065695">fio: Type: Random Write - IO Engine: Sync - Buffered: Yes - Direct: No - Block Size: 4KB - Disk Target: Default Test Directory - Result: IOPS</text></a><a xlink:href="http://openbenchmarking.org/test/pts/fio-1.8.2" xlink:show="new"><text x="1054" y="133" fill="#065695">fio: Type: Sequential Read - IO Engine: Sync - Buffered: Yes - Direct: No - Block Size: 1MB - Disk Target: Default Test Directory - Result: MB/s</text></a><a xlink:href="http://openbenchmarking.org/test/pts/fio-1.8.2" xlink:show="new"><text x="1054" y="149" fill="#065695">fio: Type: Sequential Write - IO Engine: Sync - Buffered: Yes - Direct: No - Block Size: 1MB - Disk Target: Default Test Directory - Result: MB/s</text></a><a xlink:href="http://openbenchmarking.org/test/pts/fs-mark-1.0.1" xlink:show="new"><text x="1054" y="165" fill="#065695">fs-mark: Test: 1000 Files, 1MB Size, No Sync/FSync</text></a><a xlink:href="http://openbenchmarking.org/test/pts/dbench-1.0.0" xlink:show="new"><text x="1054" y="181" fill="#065695">dbench: Client Count: 6</text></a><a xlink:href="http://openbenchmarking.org/test/pts/iozone-1.8.0" xlink:show="new"><text x="1054" y="197" fill="#065695">iozone: Record Size: 1MB - File Size: 2GB - Disk Test: Read Performance</text></a><a xlink:href="http://openbenchmarking.org/test/pts/iozone-1.8.0" xlink:show="new"><text x="1054" y="213" fill="#065695">iozone: Record Size: 1MB - File Size: 2GB - Disk Test: Write Performance</text></a><a xlink:href="http://openbenchmarking.org/test/pts/compilebench-1.0.1" xlink:show="new"><text x="1054" y="229" fill="#065695">compilebench: Test: Initial Create</text></a><a xlink:href="http://openbenchmarking.org/test/pts/unpack-linux-1.0.0" xlink:show="new"><text x="1054" y="245" fill="#065695">unpack-linux: linux-2.6.32.tar.bz2</text></a><a xlink:href="http://openbenchmarking.org/test/pts/postmark-1.1.0" xlink:show="new"><text x="1054" y="261" fill="#065695">postmark: Disk Transaction Performance</text></a></g><g font-size="10" fill="#065695" font-weight="bold" text-anchor="middle" dominant-baseline="text-before-edge"><text x="1108" y="49">BTRFS-RAMDISK</text></g><g/><g text-anchor="middle" font-size="10"><text x="1108" y="86" fill="#065695" xlink:title="STD Dev: 0.39%;  STD Error: 4.54">2036.80</text><text x="1108" y="102" fill="#065695" xlink:title="STD Dev: 3.15%;  STD Error: 1092.07">69428</text><text x="1108" y="118" fill="#065695" xlink:title="STD Dev: 30.79%;  STD Error: 2722.30">21658</text><text x="1108" y="134" fill="#065695" xlink:title="STD Dev: 2.08%;  STD Error: 8.17">680.41</text><text x="1108" y="150" fill="#065695" xlink:title="STD Dev: 3.37%;  STD Error: 28.76">1477.03</text><text x="1108" y="166" fill="#065695" xlink:title="STD Dev: 0.70%;  STD Error: 7.21">1787.07</text><text x="1108" y="182" fill="#065695" xlink:title="STD Dev: 0.24%;  STD Error: 0.21">153.27</text><text x="1108" y="198" fill="#065695" xlink:title="STD Dev: 13.84%;  STD Error: 363.59">6436.11</text><text x="1108" y="214" fill="#065695" xlink:title="STD Dev: 4.44%;  STD Error: 17.38">958.98</text><text x="1108" y="230" fill="#065695" xlink:title="STD Dev: 1.68%;  STD Error: 1.67">172.30</text><text x="1108" y="246" fill="#065695" xlink:title="STD Dev: 2.68%;  STD Error: 0.16">11.61</text><text x="1108" y="262" fill="#065695" xlink:title="STD Dev: 2.11%;  STD Error: 55.00">4519</text></g><line x1="580" y1="73" x2="580" y2="265" stroke="#949494" stroke-width="1160" stroke-dasharray="1,15"/><rect x="0" y="265" width="1160" height="16" fill="#231f20"/><a xlink:href="http://www.phoronix-test-suite.com/" xlink:show="new"><text x="1158" y="278" font-size="10" fill="#FFFFFF" text-anchor="end" xlink:show="new">PHORONIX-TEST-SUITE.COM</text></a></svg>
