<?xml version="1.0"?>
<!DOCTYPE svg PUBLIC "-//W3C//DTD SVG 1.1//EN" "http://www.w3.org/Graphics/SVG/1.1/DTD/svg11.dtd">
<!--Phoronix Test Suite v6.4.0 [ http://www.phoronix-test-suite.com/ ]-->
<svg xmlns="http://www.w3.org/2000/svg" xmlns:xlink="http://www.w3.org/1999/xlink" version="1.1" font-family="sans-serif, droid-sans, helvetica, verdana, tahoma" viewbox="0 0 600 471" width="600" height="471" preserveAspectRatio="xMinYMin meet"><rect x="0" y="0" width="600" height="471" fill="#FEFEFE" stroke="#757575" stroke-width="2"/><g stroke="#757575" stroke-width="1"><line x1="70.5" y1="64" x2="70.5" y2="433"/><line x1="70" y1="432.5" x2="586" y2="432.5"/></g><a xlink:href="http://www.phoronix-test-suite.com/" xlink:show="new"><text x="585" y="59" font-size="7" fill="#065695" text-anchor="end" xlink:show="new">PHORONIX-TEST-SUITE.COM</text></a><polygon points="79.5,56 70.5,60.5 70.5,51.5" fill="#065695" stroke="#949494" stroke-width="1"/><text x="82" y="59" font-size="7" fill="#065695" text-anchor="start">MB/s, More Is Better</text><rect x="0" y="0" width="600" height="48" fill="#231f20"/><a xlink:href="http://openbenchmarking.org/test/pts/tiobench-1.2.0" xlink:show="new"><text x="6" y="19" font-size="17" fill="#FEFEFE" text-anchor="start" xlink:show="new">Threaded I/O Tester v0.3.3</text></a><text x="6" y="36" font-size="11" fill="#FEFEFE" text-anchor="start">Test: Random Read - Size Per Thread: 64MB - Thread Count: 4</text><path d="m74 22v9m-5-16v16m-5-28v28m-23-2h12.5c2.485281 0 4.5-2.014719 4.5-4.5s-2.014719-4.5-4.5-4.5h-8c-2.485281 0-4.5-2.014719-4.5-4.5s2.014719-4.5 4.5-4.5h12.5m-21 5h-11m11 13h-2c-4.970563 0-9-4.029437-9-9v-20m-24 40v-20c0-4.970563 4.0294373-9 9-9 4.970563 0 9 4.029437 9 9s-4.029437 9-9 9h-9" stroke="#ffffff" stroke-width="4" fill="none" transform="translate(508,4)"/><line x1="70.5" y1="110" x2="70.5" y2="421" stroke="#757575" stroke-width="11" stroke-dasharray="1,45"/><g font-size="10" fill="#231f20"><text x="65" y="85" text-anchor="end">F2FS-NVME</text><text x="65" y="131" text-anchor="end">EXT4-NVME</text><text x="65" y="177" text-anchor="end">XFS-NVME</text><text x="65" y="223" text-anchor="end">F2FS-SSD</text><text x="65" y="269" text-anchor="end">EXT4-SSD</text><text x="65" y="315" text-anchor="end">XFS-SSD</text><text x="65" y="361" text-anchor="end">F2FS-NVME</text><text x="65" y="407" text-anchor="end">F2FS-SSD</text></g><g font-size="10" fill="#065695" text-anchor="middle"><text x="158.5" y="447">3000</text><text x="244.5" y="447">6000</text><text x="330.5" y="447">9000</text><text x="416.5" y="447">12000</text><text x="502.5" y="447">15000</text></g><g stroke="#BABABA" stroke-width="1"><line x1="158.5" y1="64" x2="158.5" y2="427" stroke-dasharray="5,5"/><line x1="158.5" y1="428" x2="158.5" y2="437"/><line x1="244.5" y1="64" x2="244.5" y2="427" stroke-dasharray="5,5"/><line x1="244.5" y1="428" x2="244.5" y2="437"/><line x1="330.5" y1="64" x2="330.5" y2="427" stroke-dasharray="5,5"/><line x1="330.5" y1="428" x2="330.5" y2="437"/><line x1="416.5" y1="64" x2="416.5" y2="427" stroke-dasharray="5,5"/><line x1="416.5" y1="428" x2="416.5" y2="437"/><line x1="502.5" y1="64" x2="502.5" y2="427" stroke-dasharray="5,5"/><line x1="502.5" y1="428" x2="502.5" y2="437"/></g><g stroke="#949494" stroke-width="1"><rect x="70.5" y="70.5" height="34" width="277" fill="#2196f3" xlink:title="F2FS-NVME: 9689.24"/><rect x="70.5" y="116.5" height="34" width="262" fill="#2196f3" xlink:title="EXT4-NVME: 9167.74"/><rect x="70.5" y="162.5" height="34" width="179" fill="#2196f3" xlink:title="XFS-NVME: 6269.80"/><rect x="70.5" y="208.5" height="34" width="364" fill="#2196f3" xlink:title="F2FS-SSD: 12714.29"/><rect x="70.5" y="254.5" height="34" width="342" fill="#2196f3" xlink:title="EXT4-SSD: 11939.97"/><rect x="70.5" y="300.5" height="34" width="245" fill="#2196f3" xlink:title="XFS-SSD: 8571.92"/><rect x="70.5" y="346.5" height="34" width="378" fill="#2196f3" xlink:title="F2FS-NVME: 13196.96"/><rect x="70.5" y="392.5" height="34" width="372" fill="#2196f3" xlink:title="F2FS-SSD: 12992.18"/></g><g font-size="8" fill="#065695" text-anchor="end"><text y="101" x="65">SE +/- 1249.88</text><text y="147" x="65">SE +/- 1264.00</text><text y="193" x="65">SE +/- 956.09</text><text y="239" x="65">SE +/- 66.67</text><text y="285" x="65">SE +/- 44.82</text><text y="331" x="65">SE +/- 1059.50</text><text y="377" x="65">SE +/- 33.35</text><text y="423" x="65">SE +/- 37.56</text></g><g font-size="10" fill="#FFFFFF"><text x="342" y="93" text-anchor="end">9689.24</text><text x="327" y="139" text-anchor="end">9167.74</text><text x="244" y="185" text-anchor="end">6269.80</text><text x="429" y="231" text-anchor="end">12714.29</text><text x="407" y="277" text-anchor="end">11939.97</text><text x="310" y="323" text-anchor="end">8571.92</text><text x="443" y="369" text-anchor="end">13196.96</text><text x="437" y="415" text-anchor="end">12992.18</text></g><line x1="311.5" y1="70" x2="311.5" y2="78" stroke="#757575" stroke-width="1"/><line x1="383.5" y1="70" x2="383.5" y2="78" stroke="#757575" stroke-width="1"/><line x1="311.5" y1="70.5" x2="383.5" y2="70.5" stroke="#757575" stroke-width="1"/><line x1="296.5" y1="116" x2="296.5" y2="124" stroke="#757575" stroke-width="1"/><line x1="368.5" y1="116" x2="368.5" y2="124" stroke="#757575" stroke-width="1"/><line x1="296.5" y1="116.5" x2="368.5" y2="116.5" stroke="#757575" stroke-width="1"/><line x1="222.5" y1="162" x2="222.5" y2="170" stroke="#757575" stroke-width="1"/><line x1="276.5" y1="162" x2="276.5" y2="170" stroke="#757575" stroke-width="1"/><line x1="222.5" y1="162.5" x2="276.5" y2="162.5" stroke="#757575" stroke-width="1"/><line x1="285.5" y1="300" x2="285.5" y2="308" stroke="#757575" stroke-width="1"/><line x1="345.5" y1="300" x2="345.5" y2="308" stroke="#757575" stroke-width="1"/><line x1="285.5" y1="300.5" x2="345.5" y2="300.5" stroke="#757575" stroke-width="1"/><rect x="0" y="454" width="600" height="17" fill="#231f20"/><a xlink:href="http://www.phoronix-test-suite.com/" xlink:show="new"><text x="585" y="466" font-size="9" fill="#FEFEFE" text-anchor="end" xlink:show="new">Phoronix Test Suite 6.4.0</text></a></svg>
