<?xml version="1.0"?>
<!DOCTYPE svg PUBLIC "-//W3C//DTD SVG 1.1//EN" "http://www.w3.org/Graphics/SVG/1.1/DTD/svg11.dtd">
<!--Phoronix Test Suite v6.4.0 [ http://www.phoronix-test-suite.com/ ]-->
<svg xmlns="http://www.w3.org/2000/svg" xmlns:xlink="http://www.w3.org/1999/xlink" version="1.1" font-family="sans-serif, droid-sans, helvetica, verdana, tahoma" viewbox="0 0 600 698" width="600" height="698" preserveAspectRatio="xMinYMin meet"><rect x="0" y="0" width="600" height="698" fill="#FEFEFE" stroke="#757575" stroke-width="2"/><rect x="0" y="0" width="600" height="48" fill="#231f20"/><image xlink:href="https://openbenchmarking.org/static/images/pts-77x40-white.png" x="10" y="2" width="77" height="40"/><text x="100" y="21" font-size="17" fill="#FEFEFE" text-anchor="start">2016-08-29-1932</text><text x="100" y="33" font-size="9" fill="#FEFEFE" text-anchor="start" href="http://www.phoronix-test-suite.com/">Phoronix Test Suite 6.4.0</text><path fill="#FEFEFE" stroke="#949494" stroke-width="1" stroke-dasharray="10,20" d="M35,98 L563,98 A528,528 0 0,1 35,626 Z"/><text x="563" y="90" font-size="10" fill="#757575" text-anchor="middle">5.5</text><line x1="563" y1="92" x2="563" y2="98" stroke="#757575" stroke-width="1"/><text x="27" y="626" font-size="10" fill="#757575" text-anchor="end" dominant-baseline="middle">5.5</text><line x1="29" y1="626" x2="35" y2="626" stroke="#757575" stroke-width="1"/><path fill="#FEFEFE" stroke="#949494" stroke-width="1" stroke-dasharray="10,20" d="M35,98 L486,98 A451,451 0 0,1 35,549 Z"/><text x="486" y="90" font-size="10" fill="#757575" text-anchor="middle">4.7</text><line x1="486" y1="92" x2="486" y2="98" stroke="#757575" stroke-width="1"/><text x="27" y="549" font-size="10" fill="#757575" text-anchor="end" dominant-baseline="middle">4.7</text><line x1="29" y1="549" x2="35" y2="549" stroke="#757575" stroke-width="1"/><path fill="#FEFEFE" stroke="#949494" stroke-width="1" stroke-dasharray="10,20" d="M35,98 L419,98 A384,384 0 0,1 35,482 Z"/><text x="419" y="90" font-size="10" fill="#757575" text-anchor="middle">4.0</text><line x1="419" y1="92" x2="419" y2="98" stroke="#757575" stroke-width="1"/><text x="27" y="482" font-size="10" fill="#757575" text-anchor="end" dominant-baseline="middle">4.0</text><line x1="29" y1="482" x2="35" y2="482" stroke="#757575" stroke-width="1"/><path fill="#FEFEFE" stroke="#949494" stroke-width="1" stroke-dasharray="10,20" d="M35,98 L342,98 A307,307 0 0,1 35,405 Z"/><text x="342" y="90" font-size="10" fill="#757575" text-anchor="middle">3.2</text><line x1="342" y1="92" x2="342" y2="98" stroke="#757575" stroke-width="1"/><text x="27" y="405" font-size="10" fill="#757575" text-anchor="end" dominant-baseline="middle">3.2</text><line x1="29" y1="405" x2="35" y2="405" stroke="#757575" stroke-width="1"/><path fill="#FEFEFE" stroke="#949494" stroke-width="1" stroke-dasharray="10,20" d="M35,98 L275,98 A240,240 0 0,1 35,338 Z"/><text x="275" y="90" font-size="10" fill="#757575" text-anchor="middle">2.5</text><line x1="275" y1="92" x2="275" y2="98" stroke="#757575" stroke-width="1"/><text x="27" y="338" font-size="10" fill="#757575" text-anchor="end" dominant-baseline="middle">2.5</text><line x1="29" y1="338" x2="35" y2="338" stroke="#757575" stroke-width="1"/><path fill="#FEFEFE" stroke="#949494" stroke-width="1" stroke-dasharray="10,20" d="M35,98 L198,98 A163,163 0 0,1 35,261 Z"/><text x="198" y="90" font-size="10" fill="#757575" text-anchor="middle">1.7</text><line x1="198" y1="92" x2="198" y2="98" stroke="#757575" stroke-width="1"/><text x="27" y="261" font-size="10" fill="#757575" text-anchor="end" dominant-baseline="middle">1.7</text><line x1="29" y1="261" x2="35" y2="261" stroke="#757575" stroke-width="1"/><path fill="#FEFEFE" stroke="#949494" stroke-width="1" stroke-dasharray="10,20" d="M35,98 L131,98 A96,96 0 0,1 35,194 Z"/><text x="131" y="90" font-size="10" fill="#757575" text-anchor="middle">1.0</text><line x1="131" y1="92" x2="131" y2="98" stroke="#757575" stroke-width="1"/><text x="27" y="194" font-size="10" fill="#757575" text-anchor="end" dominant-baseline="middle">1.0</text><line x1="29" y1="194" x2="35" y2="194" stroke="#757575" stroke-width="1"/><line x1="35" y1="98" x2="590" y2="98" stroke="#757575" stroke-width="1"/><line x1="35" y1="98" x2="35" y2="676" stroke="#757575" stroke-width="1"/><line x1="590" y1="676" x2="590" y2="98" stroke="#757575" stroke-width="1"/><line x1="35" y1="676" x2="590" y2="676" stroke="#757575" stroke-width="1"/><polygon points="35,98 216,98 213,129" fill="#f44336" stroke="#065695" stroke-width="2" xlink:title="Flexible IO Tester - F2FS-NVME - 1.402x Faster Than EXT4-SSD"/><polygon points="35,98 215,98 212,129" fill="#673ab7" stroke="#065695" stroke-width="2" xlink:title="Flexible IO Tester - EXT4-NVME - 1.400x Faster Than EXT4-SSD"/><polygon points="35,98 213,98 210,129" fill="#f44336" stroke="#065695" stroke-width="2" xlink:title="Flexible IO Tester - F2FS-NVME - 1.399x Faster Than EXT4-SSD"/><polygon points="35,98 204,98 201,127" fill="#01579b" stroke="#065695" stroke-width="2" xlink:title="Flexible IO Tester - XFS-NVME - 1.397x Faster Than EXT4-SSD"/><polygon points="35,98 180,98 178,123" fill="#009688" stroke="#065695" stroke-width="2" xlink:title="Flexible IO Tester - F2FS-SSD - 1.073x Faster Than EXT4-SSD"/><polygon points="35,98 158,98 156,119" fill="#009688" stroke="#065695" stroke-width="2" xlink:title="Flexible IO Tester - F2FS-SSD - 1.062x Faster Than EXT4-SSD"/><polygon points="35,98 155,98 153,119" fill="#ffeb3b" stroke="#065695" stroke-width="2" xlink:title="Flexible IO Tester - XFS-SSD - 1.060x Faster Than EXT4-SSD"/><polygon points="35,98 131,98 130,115" fill="#4caf50" stroke="#065695" stroke-width="2" xlink:title="Flexible IO Tester - EXT4-SSD - 1.000x Faster Than EXT4-SSD"/><polygon points="35,98 168,121 161,144" fill="#f44336" stroke="#065695" stroke-width="2" xlink:title="Flexible IO Tester - F2FS-NVME - 2.969x Faster Than EXT4-SSD"/><polygon points="35,98 167,121 161,144" fill="#f44336" stroke="#065695" stroke-width="2" xlink:title="Flexible IO Tester - F2FS-NVME - 2.954x Faster Than EXT4-SSD"/><polygon points="35,98 167,121 161,144" fill="#673ab7" stroke="#065695" stroke-width="2" xlink:title="Flexible IO Tester - EXT4-NVME - 2.834x Faster Than EXT4-SSD"/><polygon points="35,98 167,121 161,144" fill="#01579b" stroke="#065695" stroke-width="2" xlink:title="Flexible IO Tester - XFS-NVME - 2.791x Faster Than EXT4-SSD"/><polygon points="35,98 136,116 132,133" fill="#009688" stroke="#065695" stroke-width="2" xlink:title="Flexible IO Tester - F2FS-SSD - 1.607x Faster Than EXT4-SSD"/><polygon points="35,98 135,116 131,133" fill="#009688" stroke="#065695" stroke-width="2" xlink:title="Flexible IO Tester - F2FS-SSD - 1.592x Faster Than EXT4-SSD"/><polygon points="35,98 135,116 131,133" fill="#ffeb3b" stroke="#065695" stroke-width="2" xlink:title="Flexible IO Tester - XFS-SSD - 1.058x Faster Than EXT4-SSD"/><polygon points="35,98 130,115 125,131" fill="#4caf50" stroke="#065695" stroke-width="2" xlink:title="Flexible IO Tester - EXT4-SSD - 1.000x Faster Than EXT4-SSD"/><polygon points="35,98 303,195 282,241" fill="#f44336" stroke="#065695" stroke-width="2" xlink:title="AIO-Stress - F2FS-NVME - 5.499x Faster Than XFS-SSD"/><polygon points="35,98 301,195 281,240" fill="#f44336" stroke="#065695" stroke-width="2" xlink:title="AIO-Stress - F2FS-NVME - 5.480x Faster Than XFS-SSD"/><polygon points="35,98 291,191 271,234" fill="#4caf50" stroke="#065695" stroke-width="2" xlink:title="AIO-Stress - EXT4-SSD - 3.319x Faster Than XFS-SSD"/><polygon points="35,98 287,190 267,232" fill="#009688" stroke="#065695" stroke-width="2" xlink:title="AIO-Stress - F2FS-SSD - 3.295x Faster Than XFS-SSD"/><polygon points="35,98 180,151 169,175" fill="#673ab7" stroke="#065695" stroke-width="2" xlink:title="AIO-Stress - EXT4-NVME - 3.148x Faster Than XFS-SSD"/><polygon points="35,98 179,150 167,174" fill="#009688" stroke="#065695" stroke-width="2" xlink:title="AIO-Stress - F2FS-SSD - 3.034x Faster Than XFS-SSD"/><polygon points="35,98 130,133 123,149" fill="#01579b" stroke="#065695" stroke-width="2" xlink:title="AIO-Stress - XFS-NVME - 2.982x Faster Than XFS-SSD"/><polygon points="35,98 125,131 118,146" fill="#ffeb3b" stroke="#065695" stroke-width="2" xlink:title="AIO-Stress - XFS-SSD - 1.000x Faster Than XFS-SSD"/><polygon points="35,98 492,362 439,437" fill="#f44336" stroke="#065695" stroke-width="2" xlink:title="Flexible IO Tester - F2FS-NVME - 2.460x Faster Than EXT4-SSD"/><polygon points="35,98 491,361 438,436" fill="#f44336" stroke="#065695" stroke-width="2" xlink:title="Flexible IO Tester - F2FS-NVME - 2.384x Faster Than EXT4-SSD"/><polygon points="35,98 311,257 279,303" fill="#01579b" stroke="#065695" stroke-width="2" xlink:title="Flexible IO Tester - XFS-NVME - 2.101x Faster Than EXT4-SSD"/><polygon points="35,98 309,256 277,301" fill="#673ab7" stroke="#065695" stroke-width="2" xlink:title="Flexible IO Tester - EXT4-NVME - 2.042x Faster Than EXT4-SSD"/><polygon points="35,98 297,249 267,292" fill="#009688" stroke="#065695" stroke-width="2" xlink:title="Flexible IO Tester - F2FS-SSD - 1.076x Faster Than EXT4-SSD"/><polygon points="35,98 287,244 258,285" fill="#ffeb3b" stroke="#065695" stroke-width="2" xlink:title="Flexible IO Tester - XFS-SSD - 1.074x Faster Than EXT4-SSD"/><polygon points="35,98 283,241 254,282" fill="#009688" stroke="#065695" stroke-width="2" xlink:title="Flexible IO Tester - F2FS-SSD - 1.037x Faster Than EXT4-SSD"/><polygon points="35,98 118,146 109,160" fill="#4caf50" stroke="#065695" stroke-width="2" xlink:title="Flexible IO Tester - EXT4-SSD - 1.000x Faster Than EXT4-SSD"/><polygon points="35,98 216,250 187,279" fill="#673ab7" stroke="#065695" stroke-width="2" xlink:title="Flexible IO Tester - EXT4-NVME - 2.118x Faster Than EXT4-SSD"/><polygon points="35,98 210,245 182,273" fill="#01579b" stroke="#065695" stroke-width="2" xlink:title="Flexible IO Tester - XFS-NVME - 2.109x Faster Than EXT4-SSD"/><polygon points="35,98 190,228 165,253" fill="#f44336" stroke="#065695" stroke-width="2" xlink:title="Flexible IO Tester - F2FS-NVME - 2.006x Faster Than EXT4-SSD"/><polygon points="35,98 185,224 161,248" fill="#f44336" stroke="#065695" stroke-width="2" xlink:title="Flexible IO Tester - F2FS-NVME - 1.980x Faster Than EXT4-SSD"/><polygon points="35,98 114,164 101,177" fill="#009688" stroke="#065695" stroke-width="2" xlink:title="Flexible IO Tester - F2FS-SSD - 1.042x Faster Than EXT4-SSD"/><polygon points="35,98 114,164 101,177" fill="#009688" stroke="#065695" stroke-width="2" xlink:title="Flexible IO Tester - F2FS-SSD - 1.037x Faster Than EXT4-SSD"/><polygon points="35,98 111,162 99,174" fill="#ffeb3b" stroke="#065695" stroke-width="2" xlink:title="Flexible IO Tester - XFS-SSD - 1.036x Faster Than EXT4-SSD"/><polygon points="35,98 109,160 97,172" fill="#4caf50" stroke="#065695" stroke-width="2" xlink:title="Flexible IO Tester - EXT4-SSD - 1.000x Faster Than EXT4-SSD"/><polygon points="35,98 166,254 137,274" fill="#01579b" stroke="#065695" stroke-width="2" xlink:title="IOzone - XFS-NVME - 2.292x Faster Than EXT4-SSD"/><polygon points="35,98 165,253 136,273" fill="#673ab7" stroke="#065695" stroke-width="2" xlink:title="IOzone - EXT4-NVME - 2.222x Faster Than EXT4-SSD"/><polygon points="35,98 159,246 131,265" fill="#f44336" stroke="#065695" stroke-width="2" xlink:title="IOzone - F2FS-NVME - 1.976x Faster Than EXT4-SSD"/><polygon points="35,98 157,244 130,263" fill="#f44336" stroke="#065695" stroke-width="2" xlink:title="IOzone - F2FS-NVME - 1.935x Faster Than EXT4-SSD"/><polygon points="35,98 99,175 85,185" fill="#009688" stroke="#065695" stroke-width="2" xlink:title="IOzone - F2FS-SSD - 1.038x Faster Than EXT4-SSD"/><polygon points="35,98 99,174 85,184" fill="#009688" stroke="#065695" stroke-width="2" xlink:title="IOzone - F2FS-SSD - 1.035x Faster Than EXT4-SSD"/><polygon points="35,98 99,174 85,184" fill="#ffeb3b" stroke="#065695" stroke-width="2" xlink:title="IOzone - XFS-SSD - 1.007x Faster Than EXT4-SSD"/><polygon points="35,98 97,172 83,181" fill="#4caf50" stroke="#065695" stroke-width="2" xlink:title="IOzone - EXT4-SSD - 1.000x Faster Than EXT4-SSD"/><polygon points="35,98 145,289 110,305" fill="#f44336" stroke="#065695" stroke-width="2" xlink:title="Threaded I/O Tester - F2FS-NVME - 2.105x Faster Than XFS-NVME"/><polygon points="35,98 142,283 108,298" fill="#009688" stroke="#065695" stroke-width="2" xlink:title="Threaded I/O Tester - F2FS-SSD - 2.072x Faster Than XFS-NVME"/><polygon points="35,98 130,262 100,276" fill="#009688" stroke="#065695" stroke-width="2" xlink:title="Threaded I/O Tester - F2FS-SSD - 2.028x Faster Than XFS-NVME"/><polygon points="35,98 128,259 99,273" fill="#4caf50" stroke="#065695" stroke-width="2" xlink:title="Threaded I/O Tester - EXT4-SSD - 1.904x Faster Than XFS-NVME"/><polygon points="35,98 85,184 69,192" fill="#f44336" stroke="#065695" stroke-width="2" xlink:title="Threaded I/O Tester - F2FS-NVME - 1.545x Faster Than XFS-NVME"/><polygon points="35,98 85,184 69,191" fill="#673ab7" stroke="#065695" stroke-width="2" xlink:title="Threaded I/O Tester - EXT4-NVME - 1.462x Faster Than XFS-NVME"/><polygon points="35,98 83,182 68,189" fill="#ffeb3b" stroke="#065695" stroke-width="2" xlink:title="Threaded I/O Tester - XFS-SSD - 1.367x Faster Than XFS-NVME"/><polygon points="35,98 83,181 68,188" fill="#01579b" stroke="#065695" stroke-width="2" xlink:title="Threaded I/O Tester - XFS-NVME - 1.000x Faster Than XFS-NVME"/><polygon points="35,98 104,288 70,297" fill="#673ab7" stroke="#065695" stroke-width="2" xlink:title="Unpacking The Linux Kernel - EXT4-NVME - 1.082x Faster Than F2FS-SSD"/><polygon points="35,98 103,285 70,294" fill="#f44336" stroke="#065695" stroke-width="2" xlink:title="Unpacking The Linux Kernel - F2FS-NVME - 1.076x Faster Than F2FS-SSD"/><polygon points="35,98 102,281 69,290" fill="#4caf50" stroke="#065695" stroke-width="2" xlink:title="Unpacking The Linux Kernel - EXT4-SSD - 1.051x Faster Than F2FS-SSD"/><polygon points="35,98 98,270 67,278" fill="#f44336" stroke="#065695" stroke-width="2" xlink:title="Unpacking The Linux Kernel - F2FS-NVME - 1.042x Faster Than F2FS-SSD"/><polygon points="35,98 86,237 61,244" fill="#009688" stroke="#065695" stroke-width="2" xlink:title="Unpacking The Linux Kernel - F2FS-SSD - 1.035x Faster Than F2FS-SSD"/><polygon points="35,98 83,230 59,236" fill="#01579b" stroke="#065695" stroke-width="2" xlink:title="Unpacking The Linux Kernel - XFS-NVME - 1.020x Faster Than F2FS-SSD"/><polygon points="35,98 80,221 58,227" fill="#ffeb3b" stroke="#065695" stroke-width="2" xlink:title="Unpacking The Linux Kernel - XFS-SSD - 1.006x Faster Than F2FS-SSD"/><polygon points="35,98 68,188 52,193" fill="#009688" stroke="#065695" stroke-width="2" xlink:title="Unpacking The Linux Kernel - F2FS-SSD - 1.000x Faster Than F2FS-SSD"/><path fill="#FEFEFE" stroke="#757575" stroke-width="1" d="M35,98 L131,98 A96,96 0 0,1 35,194 Z"/><text x="101.18623988548" y="153.53684947692" font-size="11" fill="#C80000" text-anchor="end" dominant-baseline="middle">Disk</text><text x="586" y="667" font-size="9" fill="#f44336" text-anchor="end" dominant-baseline="middle">2 x 960GB SanDisk SDSSDHII + 1200GB INTEL SSDPE2MW012T4</text><text x="586" y="658" font-size="9" fill="#673ab7" text-anchor="end" dominant-baseline="middle">2 x 960GB SanDisk SDSSDHII + 1200GB INTEL SSDPE2MW012T4</text><text x="586" y="649" font-size="9" fill="#01579b" text-anchor="end" dominant-baseline="middle">2 x 960GB SanDisk SDSSDHII + 1200GB INTEL SSDPE2MW012T4</text><text x="586" y="640" font-size="9" fill="#009688" text-anchor="end" dominant-baseline="middle">2 x 960GB SanDisk SDSSDHII + 1200GB INTEL SSDPE2MW012T4</text><text x="586" y="631" font-size="9" fill="#4caf50" text-anchor="end" dominant-baseline="middle">2 x 960GB SanDisk SDSSDHII + 1200GB INTEL SSDPE2MW012T4</text><text x="586" y="622" font-size="9" fill="#ffeb3b" text-anchor="end" dominant-baseline="middle">2 x 960GB SanDisk SDSSDHII + 1200GB INTEL SSDPE2MW012T4</text></svg>
