<?xml version="1.0"?>
<!DOCTYPE svg PUBLIC "-//W3C//DTD SVG 1.1//EN" "http://www.w3.org/Graphics/SVG/1.1/DTD/svg11.dtd">
<!--Phoronix Test Suite v6.4.0 [ http://www.phoronix-test-suite.com/ ]-->
<svg xmlns="http://www.w3.org/2000/svg" xmlns:xlink="http://www.w3.org/1999/xlink" version="1.1" font-family="sans-serif, droid-sans, helvetica, verdana, tahoma" viewbox="0 0 1163 421" width="1163" height="421" preserveAspectRatio="xMinYMin meet"><rect x="0" y="0" width="1163" height="421" fill="#FEFEFE" stroke="#757575" stroke-width="2"/><rect x="1" y="1" width="1162" height="420" fill="#FEFEFE" stroke="#757575" stroke-width="1"/><path d="m74 22v9m-5-16v16m-5-28v28m-23-2h12.5c2.485281 0 4.5-2.014719 4.5-4.5s-2.014719-4.5-4.5-4.5h-8c-2.485281 0-4.5-2.014719-4.5-4.5s2.014719-4.5 4.5-4.5h12.5m-21 5h-11m11 13h-2c-4.970563 0-9-4.029437-9-9v-20m-24 40v-20c0-4.970563 4.0294373-9 9-9 4.970563 0 9 4.029437 9 9s-4.029437 9-9 9h-9" stroke="#000000" stroke-width="4" fill="none" transform="translate(14,28)"/><line x1="107" y1="154" x2="1163" y2="154" stroke="#BABABA" stroke-width="258" stroke-dasharray="132,132"/><line x1="582" y1="73" x2="582" y2="283" stroke="#949494" stroke-width="1163" stroke-dasharray="15,15"/><line x1="107" y1="154" x2="1163" y2="154" stroke="#757575" stroke-width="258" stroke-dasharray="1,131"/><rect x="1" y="1" width="1161" height="25" fill="#231f20"/><text x="5" y="19" font-size="17" fill="#FEFEFE" text-anchor="start">2016-08-29-1932</text><line x1="1" y1="25" x2="1162" y2="25" stroke="#757575" stroke-width="1"/><g font-size="8" font-weight="bold" text-anchor="end" fill="#065695"><text x="105" y="84" fill="#065695">Processor</text><text x="105" y="99" fill="#065695">Motherboard</text><text x="105" y="114" fill="#065695">Chipset</text><text x="105" y="129" fill="#065695">Memory</text><text x="105" y="144" fill="#065695">Disk</text><text x="105" y="159" fill="#065695">Graphics</text><text x="105" y="174" fill="#065695">Audio</text><text x="105" y="189" fill="#065695">Network</text><text x="105" y="204" fill="#065695">OS</text><text x="105" y="219" fill="#065695">Kernel</text><text x="105" y="234" fill="#065695">Display Driver</text><text x="105" y="249" fill="#065695">Compiler</text><text x="105" y="264" fill="#065695">File-System</text><text x="105" y="279" fill="#065695">Screen Resolution</text></g><g font-size="8" fill="#065695" font-weight="bold" text-anchor="middle" dominant-baseline="text-before-edge"><text x="173" y="49">F2FS-NVME</text><text x="305" y="49">EXT4-NVME</text><text x="437" y="49">XFS-NVME</text><text x="569" y="49">F2FS-SSD</text><text x="701" y="49">EXT4-SSD</text><text x="833" y="49">XFS-SSD</text><text x="965" y="49">F2FS-NVME</text><text x="1097" y="49">F2FS-SSD</text></g><g><rect x="107" y="74" width="792" height="15" fill="#949494"/><rect x="107" y="89" width="792" height="15" fill="#BABABA"/><rect x="107" y="104" width="792" height="15" fill="#949494"/><rect x="107" y="119" width="792" height="15" fill="#BABABA"/><rect x="107" y="134" width="792" height="15" fill="#949494"/><rect x="107" y="164" width="792" height="15" fill="#949494"/><rect x="107" y="179" width="792" height="15" fill="#BABABA"/><rect x="107" y="194" width="792" height="15" fill="#949494"/><rect x="107" y="209" width="792" height="15" fill="#BABABA"/><rect x="107" y="224" width="792" height="15" fill="#949494"/><rect x="107" y="239" width="792" height="15" fill="#BABABA"/><rect x="107" y="269" width="792" height="15" fill="#BABABA"/><rect x="239" y="149" width="264" height="15" fill="#FEFEFE"/><rect x="635" y="149" width="264" height="15" fill="#BABABA"/></g><g text-anchor="middle" font-size="8"><a xlink:href="http://openbenchmarking.org/s/Intel Xeon E5-2630 v3 @ 2.40GHz (16 Cores)" xlink:show="new"><text x="503" y="85" fill="#005a00">Intel Xeon E5-2630 v3 @ 2.40GHz (16 Cores)</text></a><a xlink:href="http://openbenchmarking.org/s/HP 2129" xlink:show="new"><text x="503" y="100" fill="#005a00">HP 2129</text></a><a xlink:href="http://openbenchmarking.org/s/Intel Haswell-E DMI2" xlink:show="new"><text x="503" y="115" fill="#005a00">Intel Haswell-E DMI2</text></a><a xlink:href="http://openbenchmarking.org/s/2 x 8192 MB 2133MHz Samsung" xlink:show="new"><text x="503" y="130" fill="#005a00">2 x 8192 MB 2133MHz Samsung</text></a><a xlink:href="http://openbenchmarking.org/s/2 x 960GB SanDisk SDSSDHII + 1200GB INTEL SSDPE2MW012T4" xlink:show="new"><text x="503" y="145" fill="#005a00">2 x 960GB SanDisk SDSSDHII + 1200GB INTEL SSDPE2MW012T4</text></a><a xlink:href="http://openbenchmarking.org/s/NVIDIA Device 11b4 4096MB" xlink:show="new"><text x="173" y="160" fill="#065695">NVIDIA Device 11b4 4096MB</text></a><a xlink:href="http://openbenchmarking.org/s/Realtek ALC221" xlink:show="new"><text x="503" y="175" fill="#005a00">Realtek ALC221</text></a><a xlink:href="http://openbenchmarking.org/s/Intel Connection" xlink:show="new"><text x="503" y="190" fill="#005a00">Intel Connection</text></a><a xlink:href="http://openbenchmarking.org/s/Ubuntu 14.04" xlink:show="new"><text x="503" y="205" fill="#005a00">Ubuntu 14.04</text></a><a xlink:href="http://openbenchmarking.org/s/4.8.0-rc2+ (x86_64) 20160823" xlink:show="new"><text x="503" y="220" fill="#005a00">4.8.0-rc2+ (x86_64) 20160823</text></a><a xlink:href="http://openbenchmarking.org/s/nouveau 1.0.10" xlink:show="new"><text x="503" y="235" fill="#005a00">nouveau 1.0.10</text></a><a xlink:href="http://openbenchmarking.org/s/GCC 4.8.4" xlink:show="new"><text x="503" y="250" fill="#005a00">GCC 4.8.4</text></a><a xlink:href="http://openbenchmarking.org/s/F2FS" xlink:show="new"><text x="173" y="265" fill="#065695">F2FS</text></a><a xlink:href="http://openbenchmarking.org/s/1024x768" xlink:show="new"><text x="503" y="280" fill="#005a00">1024x768</text></a><a xlink:href="http://openbenchmarking.org/s/NVIDIA Device 11b4" xlink:show="new"><text x="371" y="160" fill="#005a00">NVIDIA Device 11b4</text></a><a xlink:href="http://openbenchmarking.org/s/ext4" xlink:show="new"><text x="305" y="265" fill="#065695">ext4</text></a><a xlink:href="http://openbenchmarking.org/s/xfs" xlink:show="new"><text x="437" y="265" fill="#065695">xfs</text></a><a xlink:href="http://openbenchmarking.org/s/NVIDIA Device 11b4 4096MB" xlink:show="new"><text x="569" y="160" fill="#065695">NVIDIA Device 11b4 4096MB</text></a><a xlink:href="http://openbenchmarking.org/s/F2FS" xlink:show="new"><text x="569" y="265" fill="#065695">F2FS</text></a><a xlink:href="http://openbenchmarking.org/s/NVIDIA Device 11b4" xlink:show="new"><text x="767" y="160" fill="#005a00">NVIDIA Device 11b4</text></a><a xlink:href="http://openbenchmarking.org/s/ext4" xlink:show="new"><text x="701" y="265" fill="#065695">ext4</text></a><a xlink:href="http://openbenchmarking.org/s/xfs" xlink:show="new"><text x="833" y="265" fill="#065695">xfs</text></a></g><line x1="582" y1="73" x2="582" y2="283" stroke="#949494" stroke-width="1163" stroke-dasharray="1,14"/><rect x="0" y="283" width="1163" height="138" fill="#231f20"/><a xlink:href="http://www.phoronix-test-suite.com/" xlink:show="new"><text x="1161" y="418" font-size="8" fill="#FFFFFF" text-anchor="end" xlink:show="new">PHORONIX-TEST-SUITE.COM</text></a><g fill="#FEFEFE" text-anchor="start"><text x="6" y="313" xlink:title="" fill="#FEFEFE" font-size="8"><tspan x="6" y="313" dx="0" dy="0">- F2FS-NVME, EXT4-NVME, XFS-NVME, F2FS-SSD, EXT4-SSD, XFS-SSD: --build=x86_64-linux-gnu --disable-browser-plugin --disable-libmudflap --disable-werror --enable-checking=release --enable-clocale=gnu --enable-gnu-unique-object --enable-gtk-cairo</tspan><tspan x="6" y="313" dx="5" dy="9"> --enable-java-awt=gtk --enable-java-home --enable-languages=c,c++,java,go,d,fortran,objc,obj-c++ --enable-libstdcxx-debug --enable-libstdcxx-time=yes --enable-multiarch --enable-nls --enable-objc-gc --enable-plugin --enable-shared</tspan><tspan x="6" y="313" dx="5" dy="18"> --enable-threads=posix --host=x86_64-linux-gnu --target=x86_64-linux-gnu --with-abi=m64 --with-arch-32=i686 --with-arch-directory=amd64 --with-multilib-list=m32,m64,mx32 --with-tune=generic -v </tspan></text></g><text x="6" y="300" style="font-weight: bold" fill="#FEFEFE" font-size="8" width="1157">Compiler Details</text><text x="6" y="345" style="font-weight: bold" fill="#FEFEFE" font-size="8" width="1157">Disk Details</text><text x="6" y="358" fill="#FEFEFE" font-size="8" width="1157">- F2FS-NVME, EXT4-NVME, XFS-NVME, F2FS-SSD, EXT4-SSD, XFS-SSD: DEADLINE / data=ordered,errors=remount-ro,relatime,rw</text><text x="6" y="371" style="font-weight: bold" fill="#FEFEFE" font-size="8" width="1157">Processor Details</text><text x="6" y="384" fill="#FEFEFE" font-size="8" width="1157">- F2FS-NVME, EXT4-NVME, XFS-NVME, F2FS-SSD, EXT4-SSD, XFS-SSD: Scaling Governor: intel_pstate powersave</text></svg>
