<?xml version="1.0"?>
<!DOCTYPE svg PUBLIC "-//W3C//DTD SVG 1.1//EN" "http://www.w3.org/Graphics/SVG/1.1/DTD/svg11.dtd">
<!--Phoronix Test Suite v6.4.0 [ http://www.phoronix-test-suite.com/ ]-->
<svg xmlns="http://www.w3.org/2000/svg" xmlns:xlink="http://www.w3.org/1999/xlink" version="1.1" font-family="sans-serif, droid-sans, helvetica, verdana, tahoma" viewbox="0 0 1000 370" width="1000" height="370" preserveAspectRatio="xMinYMin meet"><rect x="0" y="0" width="1000" height="369.33333333333" fill="#FEFEFE" stroke="#757575" stroke-width="2"/><g stroke="#757575" stroke-width="1"/><g font-size="9" text-anchor="start"/><rect x="30" y="99.333333333333" width="960" height="120" fill="#BABABA" stroke="#757575" stroke-width="1"/><a xlink:href="http://www.phoronix-test-suite.com/" xlink:show="new"><text x="988" y="111.33333333333" font-size="10" fill="#065695" text-anchor="end" xlink:show="new">PHORONIX-TEST-SUITE.COM</text></a><g stroke="#757575" stroke-width="1" stroke-dasharray="5,5"><line x1="30" y1="200.5" x2="990" y2="200.5"/><line x1="30" y1="180.5" x2="990" y2="180.5"/><line x1="30" y1="160.5" x2="990" y2="160.5"/><line x1="30" y1="140.5" x2="990" y2="140.5"/><line x1="30" y1="120.5" x2="990" y2="120.5"/></g><g stroke="#757575" stroke-width="1"><line x1="26" y1="200.5" x2="34" y2="200.5"/><line x1="26" y1="180.5" x2="34" y2="180.5"/><line x1="26" y1="160.5" x2="34" y2="160.5"/><line x1="26" y1="140.5" x2="34" y2="140.5"/><line x1="26" y1="120.5" x2="34" y2="120.5"/></g><g stroke="#949494" stroke-width="1" stroke-dasharray="5,5"><line x1="41" y1="200.5" x2="990" y2="200.5"/><line x1="41" y1="180.5" x2="990" y2="180.5"/><line x1="41" y1="160.5" x2="990" y2="160.5"/><line x1="41" y1="140.5" x2="990" y2="140.5"/><line x1="41" y1="120.5" x2="990" y2="120.5"/></g><g font-size="10" fill="#065695" text-anchor="end"/><rect x="30" y="234.33333333333" width="960" height="120" fill="#BABABA" stroke="#757575" stroke-width="1"/><a xlink:href="http://www.phoronix-test-suite.com/" xlink:show="new"><text x="988" y="246.33333333333" font-size="10" fill="#065695" text-anchor="end" xlink:show="new">PHORONIX-TEST-SUITE.COM</text></a><g stroke="#757575" stroke-width="1" stroke-dasharray="5,5"><line x1="30" y1="335.5" x2="990" y2="335.5"/><line x1="30" y1="315.5" x2="990" y2="315.5"/><line x1="30" y1="295.5" x2="990" y2="295.5"/><line x1="30" y1="275.5" x2="990" y2="275.5"/><line x1="30" y1="255.5" x2="990" y2="255.5"/></g><g stroke="#757575" stroke-width="1"><line x1="26" y1="335.5" x2="34" y2="335.5"/><line x1="26" y1="315.5" x2="34" y2="315.5"/><line x1="26" y1="295.5" x2="34" y2="295.5"/><line x1="26" y1="275.5" x2="34" y2="275.5"/><line x1="26" y1="255.5" x2="34" y2="255.5"/></g><g stroke="#949494" stroke-width="1" stroke-dasharray="5,5"><line x1="41" y1="335.5" x2="990" y2="335.5"/><line x1="41" y1="315.5" x2="990" y2="315.5"/><line x1="41" y1="295.5" x2="990" y2="295.5"/><line x1="41" y1="275.5" x2="990" y2="275.5"/><line x1="41" y1="255.5" x2="990" y2="255.5"/></g><g font-size="10" fill="#065695" text-anchor="end"/><text x="83" y="222" font-size="6.5" fill="#231f20" text-anchor="middle" dominant-baseline="text-before-edge">AIO-Stress</text><rect x="40.6" y="100" width="10" height="119" fill="#f44336" stroke="#949494" stroke-width="1"/><rect x="50.6" y="151" width="10" height="68" fill="#673ab7" stroke="#949494" stroke-width="1"/><rect x="60.6" y="155" width="10" height="64" fill="#01579b" stroke="#949494" stroke-width="1"/><rect x="70.6" y="154" width="10" height="65" fill="#009688" stroke="#949494" stroke-width="1"/><rect x="80.6" y="148" width="10" height="71" fill="#4caf50" stroke="#949494" stroke-width="1"/><rect x="90.6" y="198" width="10" height="21" fill="#ffeb3b" stroke="#949494" stroke-width="1"/><rect x="100.6" y="101" width="10" height="118" fill="#f44336" stroke="#949494" stroke-width="1"/><rect x="110.6" y="148" width="10" height="71" fill="#009688" stroke="#949494" stroke-width="1"/><text x="189" y="222" font-size="6.5" fill="#231f20" text-anchor="middle" dominant-baseline="text-before-edge">Flexible IO Tester</text><rect x="146.6" y="100" width="10" height="119" fill="#f44336" stroke="#949494" stroke-width="1"/><rect x="156.6" y="101" width="10" height="118" fill="#673ab7" stroke="#949494" stroke-width="1"/><rect x="166.6" y="101" width="10" height="118" fill="#01579b" stroke="#949494" stroke-width="1"/><rect x="176.6" y="129" width="10" height="90" fill="#009688" stroke="#949494" stroke-width="1"/><rect x="186.6" y="135" width="10" height="84" fill="#4caf50" stroke="#949494" stroke-width="1"/><rect x="196.6" y="130" width="10" height="89" fill="#ffeb3b" stroke="#949494" stroke-width="1"/><rect x="206.6" y="101" width="10" height="118" fill="#f44336" stroke="#949494" stroke-width="1"/><rect x="216.6" y="128" width="10" height="91" fill="#009688" stroke="#949494" stroke-width="1"/><text x="295" y="222" font-size="6.5" fill="#231f20" text-anchor="middle" dominant-baseline="text-before-edge">Flexible IO Tester</text><rect x="252.6" y="100" width="10" height="119" fill="#f44336" stroke="#949494" stroke-width="1"/><rect x="262.6" y="106" width="10" height="113" fill="#673ab7" stroke="#949494" stroke-width="1"/><rect x="272.6" y="108" width="10" height="111" fill="#01579b" stroke="#949494" stroke-width="1"/><rect x="282.6" y="156" width="10" height="63" fill="#009688" stroke="#949494" stroke-width="1"/><rect x="292.6" y="180" width="10" height="39" fill="#4caf50" stroke="#949494" stroke-width="1"/><rect x="302.6" y="177" width="10" height="42" fill="#ffeb3b" stroke="#949494" stroke-width="1"/><rect x="312.6" y="101" width="10" height="118" fill="#f44336" stroke="#949494" stroke-width="1"/><rect x="322.6" y="155" width="10" height="64" fill="#009688" stroke="#949494" stroke-width="1"/><text x="401" y="222" font-size="6.5" fill="#231f20" text-anchor="middle" dominant-baseline="text-before-edge">Flexible IO Tester</text><rect x="358.6" y="104" width="10" height="115" fill="#f44336" stroke="#949494" stroke-width="1"/><rect x="368.6" y="121" width="10" height="98" fill="#673ab7" stroke="#949494" stroke-width="1"/><rect x="378.6" y="118" width="10" height="101" fill="#01579b" stroke="#949494" stroke-width="1"/><rect x="388.6" y="170" width="10" height="49" fill="#009688" stroke="#949494" stroke-width="1"/><rect x="398.6" y="171" width="10" height="48" fill="#4caf50" stroke="#949494" stroke-width="1"/><rect x="408.6" y="168" width="10" height="51" fill="#ffeb3b" stroke="#949494" stroke-width="1"/><rect x="418.6" y="100" width="10" height="119" fill="#f44336" stroke="#949494" stroke-width="1"/><rect x="428.6" y="168" width="10" height="51" fill="#009688" stroke="#949494" stroke-width="1"/><text x="507" y="222" font-size="6.5" fill="#231f20" text-anchor="middle" dominant-baseline="text-before-edge">Flexible IO Tester</text><rect x="464.6" y="107" width="10" height="112" fill="#f44336" stroke="#949494" stroke-width="1"/><rect x="474.6" y="100" width="10" height="119" fill="#673ab7" stroke="#949494" stroke-width="1"/><rect x="484.6" y="101" width="10" height="118" fill="#01579b" stroke="#949494" stroke-width="1"/><rect x="494.6" y="161" width="10" height="58" fill="#009688" stroke="#949494" stroke-width="1"/><rect x="504.6" y="163" width="10" height="56" fill="#4caf50" stroke="#949494" stroke-width="1"/><rect x="514.6" y="161" width="10" height="58" fill="#ffeb3b" stroke="#949494" stroke-width="1"/><rect x="524.6" y="108" width="10" height="111" fill="#f44336" stroke="#949494" stroke-width="1"/><rect x="534.6" y="161" width="10" height="58" fill="#009688" stroke="#949494" stroke-width="1"/><text x="613" y="222" font-size="6.5" fill="#231f20" text-anchor="middle" dominant-baseline="text-before-edge">FS-Mark</text><rect x="570.6" y="100" width="10" height="119" fill="#f44336" stroke="#949494" stroke-width="1"/><rect x="580.6" y="121" width="10" height="98" fill="#673ab7" stroke="#949494" stroke-width="1"/><rect x="590.6" y="172" width="10" height="47" fill="#01579b" stroke="#949494" stroke-width="1"/><rect x="600.6" y="198" width="10" height="21" fill="#009688" stroke="#949494" stroke-width="1"/><rect x="610.6" y="201" width="10" height="18" fill="#4caf50" stroke="#949494" stroke-width="1"/><rect x="620.6" y="213" width="10" height="6" fill="#ffeb3b" stroke="#949494" stroke-width="1"/><rect x="630.6" y="102" width="10" height="117" fill="#f44336" stroke="#949494" stroke-width="1"/><rect x="640.6" y="197" width="10" height="22" fill="#009688" stroke="#949494" stroke-width="1"/><text x="719" y="222" font-size="6.5" fill="#231f20" text-anchor="middle" dominant-baseline="text-before-edge">FS-Mark</text><rect x="676.6" y="100" width="10" height="119" fill="#f44336" stroke="#949494" stroke-width="1"/><rect x="686.6" y="124" width="10" height="95" fill="#673ab7" stroke="#949494" stroke-width="1"/><rect x="696.6" y="156" width="10" height="63" fill="#01579b" stroke="#949494" stroke-width="1"/><rect x="706.6" y="192" width="10" height="27" fill="#009688" stroke="#949494" stroke-width="1"/><rect x="716.6" y="191" width="10" height="28" fill="#4caf50" stroke="#949494" stroke-width="1"/><rect x="726.6" y="210" width="10" height="9" fill="#ffeb3b" stroke="#949494" stroke-width="1"/><rect x="736.6" y="103" width="10" height="116" fill="#f44336" stroke="#949494" stroke-width="1"/><rect x="746.6" y="191" width="10" height="28" fill="#009688" stroke="#949494" stroke-width="1"/><text x="825" y="222" font-size="6.5" fill="#231f20" text-anchor="middle" dominant-baseline="text-before-edge">FS-Mark</text><rect x="782.6" y="102" width="10" height="117" fill="#f44336" stroke="#949494" stroke-width="1"/><rect x="792.6" y="120" width="10" height="99" fill="#673ab7" stroke="#949494" stroke-width="1"/><rect x="802.6" y="170" width="10" height="49" fill="#01579b" stroke="#949494" stroke-width="1"/><rect x="812.6" y="198" width="10" height="21" fill="#009688" stroke="#949494" stroke-width="1"/><rect x="822.6" y="201" width="10" height="18" fill="#4caf50" stroke="#949494" stroke-width="1"/><rect x="832.6" y="212" width="10" height="7" fill="#ffeb3b" stroke="#949494" stroke-width="1"/><rect x="842.6" y="100" width="10" height="119" fill="#f44336" stroke="#949494" stroke-width="1"/><rect x="852.6" y="198" width="10" height="21" fill="#009688" stroke="#949494" stroke-width="1"/><text x="931" y="222" font-size="6.5" fill="#231f20" text-anchor="middle" dominant-baseline="text-before-edge">FS-Mark</text><rect x="888.6" y="101" width="10" height="118" fill="#f44336" stroke="#949494" stroke-width="1"/><rect x="898.6" y="138" width="10" height="81" fill="#673ab7" stroke="#949494" stroke-width="1"/><rect x="908.6" y="124" width="10" height="95" fill="#01579b" stroke="#949494" stroke-width="1"/><rect x="918.6" y="108" width="10" height="111" fill="#009688" stroke="#949494" stroke-width="1"/><rect x="928.6" y="141" width="10" height="78" fill="#4caf50" stroke="#949494" stroke-width="1"/><rect x="938.6" y="156" width="10" height="63" fill="#ffeb3b" stroke="#949494" stroke-width="1"/><rect x="948.6" y="100" width="10" height="119" fill="#f44336" stroke="#949494" stroke-width="1"/><rect x="958.6" y="102" width="10" height="117" fill="#009688" stroke="#949494" stroke-width="1"/><line x1="136" y1="219" x2="944" y2="219" stroke="#757575" stroke-width="10" stroke-dasharray="1,105"/><line x1="30" y1="219" x2="990" y2="219" stroke="#757575" stroke-width="1"/><text x="83" y="357" font-size="6.5" fill="#231f20" text-anchor="middle" dominant-baseline="text-before-edge">Dbench</text><rect x="40.6" y="236" width="10" height="118" fill="#f44336" stroke="#949494" stroke-width="1"/><rect x="50.6" y="280" width="10" height="74" fill="#673ab7" stroke="#949494" stroke-width="1"/><rect x="60.6" y="334" width="10" height="20" fill="#01579b" stroke="#949494" stroke-width="1"/><rect x="70.6" y="336" width="10" height="18" fill="#009688" stroke="#949494" stroke-width="1"/><rect x="80.6" y="343" width="10" height="11" fill="#4caf50" stroke="#949494" stroke-width="1"/><rect x="90.6" y="349" width="10" height="5" fill="#ffeb3b" stroke="#949494" stroke-width="1"/><rect x="100.6" y="235" width="10" height="119" fill="#f44336" stroke="#949494" stroke-width="1"/><rect x="110.6" y="336" width="10" height="18" fill="#009688" stroke="#949494" stroke-width="1"/><text x="189" y="357" font-size="6.5" fill="#231f20" text-anchor="middle" dominant-baseline="text-before-edge">IOzone</text><rect x="146.6" y="236" width="10" height="118" fill="#f44336" stroke="#949494" stroke-width="1"/><rect x="156.6" y="242" width="10" height="112" fill="#673ab7" stroke="#949494" stroke-width="1"/><rect x="166.6" y="343" width="10" height="11" fill="#01579b" stroke="#949494" stroke-width="1"/><rect x="176.6" y="256" width="10" height="98" fill="#009688" stroke="#949494" stroke-width="1"/><rect x="186.6" y="259" width="10" height="95" fill="#4caf50" stroke="#949494" stroke-width="1"/><rect x="196.6" y="345" width="10" height="9" fill="#ffeb3b" stroke="#949494" stroke-width="1"/><rect x="206.6" y="235" width="10" height="119" fill="#f44336" stroke="#949494" stroke-width="1"/><rect x="216.6" y="240" width="10" height="114" fill="#009688" stroke="#949494" stroke-width="1"/><text x="295" y="357" font-size="6.5" fill="#231f20" text-anchor="middle" dominant-baseline="text-before-edge">IOzone</text><rect x="252.6" y="254" width="10" height="100" fill="#f44336" stroke="#949494" stroke-width="1"/><rect x="262.6" y="239" width="10" height="115" fill="#673ab7" stroke="#949494" stroke-width="1"/><rect x="272.6" y="235" width="10" height="119" fill="#01579b" stroke="#949494" stroke-width="1"/><rect x="282.6" y="301" width="10" height="53" fill="#009688" stroke="#949494" stroke-width="1"/><rect x="292.6" y="303" width="10" height="51" fill="#4caf50" stroke="#949494" stroke-width="1"/><rect x="302.6" y="302" width="10" height="52" fill="#ffeb3b" stroke="#949494" stroke-width="1"/><rect x="312.6" y="252" width="10" height="102" fill="#f44336" stroke="#949494" stroke-width="1"/><rect x="322.6" y="301" width="10" height="53" fill="#009688" stroke="#949494" stroke-width="1"/><text x="401" y="357" font-size="6.5" fill="#231f20" text-anchor="middle" dominant-baseline="text-before-edge">Threaded I/O Tester</text><rect x="358.6" y="267" width="10" height="87" fill="#f44336" stroke="#949494" stroke-width="1"/><rect x="368.6" y="272" width="10" height="82" fill="#673ab7" stroke="#949494" stroke-width="1"/><rect x="378.6" y="298" width="10" height="56" fill="#01579b" stroke="#949494" stroke-width="1"/><rect x="388.6" y="240" width="10" height="114" fill="#009688" stroke="#949494" stroke-width="1"/><rect x="398.6" y="247" width="10" height="107" fill="#4caf50" stroke="#949494" stroke-width="1"/><rect x="408.6" y="277" width="10" height="77" fill="#ffeb3b" stroke="#949494" stroke-width="1"/><rect x="418.6" y="235" width="10" height="119" fill="#f44336" stroke="#949494" stroke-width="1"/><rect x="428.6" y="237" width="10" height="117" fill="#009688" stroke="#949494" stroke-width="1"/><text x="507" y="357" font-size="6.5" fill="#231f20" text-anchor="middle" dominant-baseline="text-before-edge">Threaded I/O Tester</text><rect x="464.6" y="257" width="10" height="97" fill="#f44336" stroke="#949494" stroke-width="1"/><rect x="474.6" y="235" width="10" height="119" fill="#673ab7" stroke="#949494" stroke-width="1"/><rect x="484.6" y="339" width="10" height="15" fill="#01579b" stroke="#949494" stroke-width="1"/><rect x="494.6" y="354" width="10" height="0" fill="#009688" stroke="#949494" stroke-width="1"/><rect x="504.6" y="354" width="10" height="0" fill="#4caf50" stroke="#949494" stroke-width="1"/><rect x="514.6" y="354" width="10" height="0" fill="#ffeb3b" stroke="#949494" stroke-width="1"/><rect x="524.6" y="254" width="10" height="100" fill="#f44336" stroke="#949494" stroke-width="1"/><rect x="534.6" y="354" width="10" height="0" fill="#009688" stroke="#949494" stroke-width="1"/><text x="613" y="357" font-size="6.5" fill="#231f20" text-anchor="middle" dominant-baseline="text-before-edge">Unpacking The Linux Kernel</text><rect x="570.6" y="240" width="10" height="114" fill="#f44336" stroke="#949494" stroke-width="1"/><rect x="580.6" y="235" width="10" height="119" fill="#673ab7" stroke="#949494" stroke-width="1"/><rect x="590.6" y="242" width="10" height="112" fill="#01579b" stroke="#949494" stroke-width="1"/><rect x="600.6" y="244" width="10" height="110" fill="#009688" stroke="#949494" stroke-width="1"/><rect x="610.6" y="239" width="10" height="115" fill="#4caf50" stroke="#949494" stroke-width="1"/><rect x="620.6" y="244" width="10" height="110" fill="#ffeb3b" stroke="#949494" stroke-width="1"/><rect x="630.6" y="236" width="10" height="118" fill="#f44336" stroke="#949494" stroke-width="1"/><rect x="640.6" y="241" width="10" height="113" fill="#009688" stroke="#949494" stroke-width="1"/><text x="719" y="357" font-size="6.5" fill="#231f20" text-anchor="middle" dominant-baseline="text-before-edge">PostMark</text><rect x="676.6" y="235" width="10" height="119" fill="#f44336" stroke="#949494" stroke-width="1"/><rect x="686.6" y="259" width="10" height="95" fill="#673ab7" stroke="#949494" stroke-width="1"/><rect x="696.6" y="282" width="10" height="72" fill="#01579b" stroke="#949494" stroke-width="1"/><rect x="706.6" y="239" width="10" height="115" fill="#009688" stroke="#949494" stroke-width="1"/><rect x="716.6" y="259" width="10" height="95" fill="#4caf50" stroke="#949494" stroke-width="1"/><rect x="726.6" y="236" width="10" height="118" fill="#f44336" stroke="#949494" stroke-width="1"/><rect x="736.6" y="237" width="10" height="117" fill="#009688" stroke="#949494" stroke-width="1"/><text x="825" y="357" font-size="6.5" fill="#231f20" text-anchor="middle" dominant-baseline="text-before-edge">Compile Bench</text><rect x="782.6" y="256" width="10" height="98" fill="#673ab7" stroke="#949494" stroke-width="1"/><rect x="792.6" y="255" width="10" height="99" fill="#01579b" stroke="#949494" stroke-width="1"/><rect x="802.6" y="305" width="10" height="49" fill="#4caf50" stroke="#949494" stroke-width="1"/><rect x="812.6" y="308" width="10" height="46" fill="#ffeb3b" stroke="#949494" stroke-width="1"/><rect x="822.6" y="235" width="10" height="119" fill="#f44336" stroke="#949494" stroke-width="1"/><rect x="832.6" y="302" width="10" height="52" fill="#009688" stroke="#949494" stroke-width="1"/><text x="495" y="19" font-size="17" fill="#231f20" text-anchor="middle" xlink:show="new">2016-08-29-1932</text><a xlink:href="http://www.phoronix-test-suite.com/" xlink:show="new"><text x="990" y="96.333333333333" font-size="7" fill="#949494" text-anchor="end" xlink:show="new">Phoronix Test Suite 6.4.0</text></a></svg>
