<?xml version="1.0"?>
<!DOCTYPE svg PUBLIC "-//W3C//DTD SVG 1.1//EN" "http://www.w3.org/Graphics/SVG/1.1/DTD/svg11.dtd">
<!--Phoronix Test Suite v6.8.0m1 [ http://www.phoronix-test-suite.com/ ]-->
<svg xmlns="http://www.w3.org/2000/svg" xmlns:xlink="http://www.w3.org/1999/xlink" version="1.1" font-family="sans-serif, droid-sans, helvetica, verdana, tahoma" viewbox="0 0 1000 372" width="1000" height="372" preserveAspectRatio="xMinYMin meet">
  <rect x="0" y="0" width="1000" height="371.5" fill="#FEFEFE" stroke="#757575" stroke-width="2"/>
  <g stroke="#757575" stroke-width="1"/>
  <g font-size="9" text-anchor="start"/>
  <rect x="30" y="101.5" width="960" height="120" fill="#BABABA" stroke="#757575" stroke-width="1"/>
  <a xlink:href="http://www.phoronix-test-suite.com/" xlink:show="new">
    <text x="988" y="113.5" font-size="10" fill="#065695" text-anchor="end" xlink:show="new">PHORONIX-TEST-SUITE.COM</text>
  </a>
  <g stroke="#757575" stroke-width="1" stroke-dasharray="5,5">
    <line x1="30" y1="203.5" x2="990" y2="203.5"/>
    <line x1="30" y1="183.5" x2="990" y2="183.5"/>
    <line x1="30" y1="163.5" x2="990" y2="163.5"/>
    <line x1="30" y1="143.5" x2="990" y2="143.5"/>
    <line x1="30" y1="123.5" x2="990" y2="123.5"/>
  </g>
  <g stroke="#757575" stroke-width="1">
    <line x1="26" y1="203.5" x2="34" y2="203.5"/>
    <line x1="26" y1="183.5" x2="34" y2="183.5"/>
    <line x1="26" y1="163.5" x2="34" y2="163.5"/>
    <line x1="26" y1="143.5" x2="34" y2="143.5"/>
    <line x1="26" y1="123.5" x2="34" y2="123.5"/>
  </g>
  <g stroke="#949494" stroke-width="1" stroke-dasharray="5,5">
    <line x1="41" y1="203.5" x2="990" y2="203.5"/>
    <line x1="41" y1="183.5" x2="990" y2="183.5"/>
    <line x1="41" y1="163.5" x2="990" y2="163.5"/>
    <line x1="41" y1="143.5" x2="990" y2="143.5"/>
    <line x1="41" y1="123.5" x2="990" y2="123.5"/>
  </g>
  <g font-size="10" fill="#065695" text-anchor="end"/>
  <rect x="30" y="236.5" width="960" height="120" fill="#BABABA" stroke="#757575" stroke-width="1"/>
  <a xlink:href="http://www.phoronix-test-suite.com/" xlink:show="new">
    <text x="988" y="248.5" font-size="10" fill="#065695" text-anchor="end" xlink:show="new">PHORONIX-TEST-SUITE.COM</text>
  </a>
  <g stroke="#757575" stroke-width="1" stroke-dasharray="5,5">
    <line x1="30" y1="338.5" x2="990" y2="338.5"/>
    <line x1="30" y1="318.5" x2="990" y2="318.5"/>
    <line x1="30" y1="298.5" x2="990" y2="298.5"/>
    <line x1="30" y1="278.5" x2="990" y2="278.5"/>
    <line x1="30" y1="258.5" x2="990" y2="258.5"/>
  </g>
  <g stroke="#757575" stroke-width="1">
    <line x1="26" y1="338.5" x2="34" y2="338.5"/>
    <line x1="26" y1="318.5" x2="34" y2="318.5"/>
    <line x1="26" y1="298.5" x2="34" y2="298.5"/>
    <line x1="26" y1="278.5" x2="34" y2="278.5"/>
    <line x1="26" y1="258.5" x2="34" y2="258.5"/>
  </g>
  <g stroke="#949494" stroke-width="1" stroke-dasharray="5,5">
    <line x1="41" y1="338.5" x2="990" y2="338.5"/>
    <line x1="41" y1="318.5" x2="990" y2="318.5"/>
    <line x1="41" y1="298.5" x2="990" y2="298.5"/>
    <line x1="41" y1="278.5" x2="990" y2="278.5"/>
    <line x1="41" y1="258.5" x2="990" y2="258.5"/>
  </g>
  <g font-size="10" fill="#065695" text-anchor="end"/>
  <text x="83" y="225" font-size="6.5" fill="#231f20" text-anchor="middle" dominant-baseline="text-before-edge">AIO-Stress</text>
  <rect x="40.6" y="102" width="9" height="120" fill="#f44336" stroke="#949494" stroke-width="1"/>
  <rect x="49.6" y="131" width="9" height="91" fill="#673ab7" stroke="#949494" stroke-width="1"/>
  <rect x="58.6" y="117" width="9" height="105" fill="#01579b" stroke="#949494" stroke-width="1"/>
  <rect x="67.6" y="103" width="9" height="119" fill="#009688" stroke="#949494" stroke-width="1"/>
  <rect x="76.6" y="130" width="9" height="92" fill="#4caf50" stroke="#949494" stroke-width="1"/>
  <rect x="85.6" y="110" width="9" height="112" fill="#ff5722" stroke="#949494" stroke-width="1"/>
  <rect x="94.6" y="106" width="9" height="116" fill="#e91e63" stroke="#949494" stroke-width="1"/>
  <rect x="103.6" y="129" width="9" height="93" fill="#795548" stroke="#949494" stroke-width="1"/>
  <rect x="112.6" y="115" width="9" height="107" fill="#9e9e9e" stroke="#949494" stroke-width="1"/>
  <text x="189" y="225" font-size="6.5" fill="#231f20" text-anchor="middle" dominant-baseline="text-before-edge">Flexible IO Tester</text>
  <rect x="146.6" y="102" width="9" height="120" fill="#f44336" stroke="#949494" stroke-width="1"/>
  <rect x="155.6" y="105" width="9" height="117" fill="#673ab7" stroke="#949494" stroke-width="1"/>
  <rect x="164.6" y="191" width="9" height="31" fill="#01579b" stroke="#949494" stroke-width="1"/>
  <rect x="173.6" y="218" width="9" height="4" fill="#009688" stroke="#949494" stroke-width="1"/>
  <rect x="182.6" y="218" width="9" height="4" fill="#4caf50" stroke="#949494" stroke-width="1"/>
  <rect x="191.6" y="219" width="9" height="3" fill="#ff5722" stroke="#949494" stroke-width="1"/>
  <rect x="200.6" y="219" width="9" height="3" fill="#e91e63" stroke="#949494" stroke-width="1"/>
  <rect x="209.6" y="220" width="9" height="2" fill="#795548" stroke="#949494" stroke-width="1"/>
  <rect x="218.6" y="220" width="9" height="2" fill="#9e9e9e" stroke="#949494" stroke-width="1"/>
  <text x="295" y="225" font-size="6.5" fill="#231f20" text-anchor="middle" dominant-baseline="text-before-edge">Flexible IO Tester</text>
  <rect x="252.6" y="129" width="9" height="93" fill="#f44336" stroke="#949494" stroke-width="1"/>
  <rect x="261.6" y="102" width="9" height="120" fill="#673ab7" stroke="#949494" stroke-width="1"/>
  <rect x="270.6" y="200" width="9" height="22" fill="#01579b" stroke="#949494" stroke-width="1"/>
  <rect x="279.6" y="135" width="9" height="87" fill="#009688" stroke="#949494" stroke-width="1"/>
  <rect x="288.6" y="133" width="9" height="89" fill="#4caf50" stroke="#949494" stroke-width="1"/>
  <rect x="297.6" y="194" width="9" height="28" fill="#ff5722" stroke="#949494" stroke-width="1"/>
  <rect x="306.6" y="172" width="9" height="50" fill="#e91e63" stroke="#949494" stroke-width="1"/>
  <rect x="315.6" y="171" width="9" height="51" fill="#795548" stroke="#949494" stroke-width="1"/>
  <rect x="324.6" y="191" width="9" height="31" fill="#9e9e9e" stroke="#949494" stroke-width="1"/>
  <text x="401" y="225" font-size="6.5" fill="#231f20" text-anchor="middle" dominant-baseline="text-before-edge">Flexible IO Tester</text>
  <rect x="358.6" y="118" width="9" height="104" fill="#f44336" stroke="#949494" stroke-width="1"/>
  <rect x="367.6" y="102" width="9" height="120" fill="#673ab7" stroke="#949494" stroke-width="1"/>
  <rect x="376.6" y="168" width="9" height="54" fill="#01579b" stroke="#949494" stroke-width="1"/>
  <rect x="385.6" y="157" width="9" height="65" fill="#009688" stroke="#949494" stroke-width="1"/>
  <rect x="394.6" y="168" width="9" height="54" fill="#4caf50" stroke="#949494" stroke-width="1"/>
  <rect x="403.6" y="157" width="9" height="65" fill="#ff5722" stroke="#949494" stroke-width="1"/>
  <rect x="412.6" y="189" width="9" height="33" fill="#e91e63" stroke="#949494" stroke-width="1"/>
  <rect x="421.6" y="191" width="9" height="31" fill="#795548" stroke="#949494" stroke-width="1"/>
  <rect x="430.6" y="195" width="9" height="27" fill="#9e9e9e" stroke="#949494" stroke-width="1"/>
  <text x="507" y="225" font-size="6.5" fill="#231f20" text-anchor="middle" dominant-baseline="text-before-edge">Flexible IO Tester</text>
  <rect x="464.6" y="155" width="9" height="67" fill="#f44336" stroke="#949494" stroke-width="1"/>
  <rect x="473.6" y="137" width="9" height="85" fill="#673ab7" stroke="#949494" stroke-width="1"/>
  <rect x="482.6" y="102" width="9" height="120" fill="#01579b" stroke="#949494" stroke-width="1"/>
  <rect x="491.6" y="157" width="9" height="65" fill="#009688" stroke="#949494" stroke-width="1"/>
  <rect x="500.6" y="164" width="9" height="58" fill="#4caf50" stroke="#949494" stroke-width="1"/>
  <rect x="509.6" y="134" width="9" height="88" fill="#ff5722" stroke="#949494" stroke-width="1"/>
  <rect x="518.6" y="186" width="9" height="36" fill="#e91e63" stroke="#949494" stroke-width="1"/>
  <rect x="527.6" y="190" width="9" height="32" fill="#795548" stroke="#949494" stroke-width="1"/>
  <rect x="536.6" y="183" width="9" height="39" fill="#9e9e9e" stroke="#949494" stroke-width="1"/>
  <text x="613" y="225" font-size="6.5" fill="#231f20" text-anchor="middle" dominant-baseline="text-before-edge">FS-Mark</text>
  <rect x="570.6" y="102" width="9" height="120" fill="#f44336" stroke="#949494" stroke-width="1"/>
  <rect x="579.6" y="151" width="9" height="71" fill="#673ab7" stroke="#949494" stroke-width="1"/>
  <rect x="588.6" y="148" width="9" height="74" fill="#01579b" stroke="#949494" stroke-width="1"/>
  <rect x="597.6" y="122" width="9" height="100" fill="#009688" stroke="#949494" stroke-width="1"/>
  <rect x="606.6" y="131" width="9" height="91" fill="#4caf50" stroke="#949494" stroke-width="1"/>
  <rect x="615.6" y="141" width="9" height="81" fill="#ff5722" stroke="#949494" stroke-width="1"/>
  <rect x="624.6" y="201" width="9" height="21" fill="#e91e63" stroke="#949494" stroke-width="1"/>
  <rect x="633.6" y="205" width="9" height="17" fill="#795548" stroke="#949494" stroke-width="1"/>
  <rect x="642.6" y="205" width="9" height="17" fill="#9e9e9e" stroke="#949494" stroke-width="1"/>
  <text x="719" y="225" font-size="6.5" fill="#231f20" text-anchor="middle" dominant-baseline="text-before-edge">FS-Mark</text>
  <rect x="676.6" y="146" width="9" height="76" fill="#f44336" stroke="#949494" stroke-width="1"/>
  <rect x="685.6" y="102" width="9" height="120" fill="#673ab7" stroke="#949494" stroke-width="1"/>
  <rect x="694.6" y="203" width="9" height="19" fill="#01579b" stroke="#949494" stroke-width="1"/>
  <rect x="703.6" y="154" width="9" height="68" fill="#009688" stroke="#949494" stroke-width="1"/>
  <rect x="712.6" y="157" width="9" height="65" fill="#4caf50" stroke="#949494" stroke-width="1"/>
  <rect x="721.6" y="158" width="9" height="64" fill="#ff5722" stroke="#949494" stroke-width="1"/>
  <rect x="730.6" y="204" width="9" height="18" fill="#e91e63" stroke="#949494" stroke-width="1"/>
  <rect x="739.6" y="204" width="9" height="18" fill="#795548" stroke="#949494" stroke-width="1"/>
  <rect x="748.6" y="208" width="9" height="14" fill="#9e9e9e" stroke="#949494" stroke-width="1"/>
  <text x="825" y="225" font-size="6.5" fill="#231f20" text-anchor="middle" dominant-baseline="text-before-edge">FS-Mark</text>
  <rect x="782.6" y="102" width="9" height="120" fill="#f44336" stroke="#949494" stroke-width="1"/>
  <rect x="791.6" y="128" width="9" height="94" fill="#673ab7" stroke="#949494" stroke-width="1"/>
  <rect x="800.6" y="137" width="9" height="85" fill="#01579b" stroke="#949494" stroke-width="1"/>
  <rect x="809.6" y="106" width="9" height="116" fill="#009688" stroke="#949494" stroke-width="1"/>
  <rect x="818.6" y="104" width="9" height="118" fill="#4caf50" stroke="#949494" stroke-width="1"/>
  <rect x="827.6" y="128" width="9" height="94" fill="#ff5722" stroke="#949494" stroke-width="1"/>
  <rect x="836.6" y="198" width="9" height="24" fill="#e91e63" stroke="#949494" stroke-width="1"/>
  <rect x="845.6" y="201" width="9" height="21" fill="#795548" stroke="#949494" stroke-width="1"/>
  <rect x="854.6" y="204" width="9" height="18" fill="#9e9e9e" stroke="#949494" stroke-width="1"/>
  <text x="931" y="225" font-size="6.5" fill="#231f20" text-anchor="middle" dominant-baseline="text-before-edge">FS-Mark</text>
  <rect x="888.6" y="106" width="9" height="116" fill="#f44336" stroke="#949494" stroke-width="1"/>
  <rect x="897.6" y="135" width="9" height="87" fill="#673ab7" stroke="#949494" stroke-width="1"/>
  <rect x="906.6" y="105" width="9" height="117" fill="#01579b" stroke="#949494" stroke-width="1"/>
  <rect x="915.6" y="104" width="9" height="118" fill="#009688" stroke="#949494" stroke-width="1"/>
  <rect x="924.6" y="135" width="9" height="87" fill="#4caf50" stroke="#949494" stroke-width="1"/>
  <rect x="933.6" y="105" width="9" height="117" fill="#ff5722" stroke="#949494" stroke-width="1"/>
  <rect x="942.6" y="102" width="9" height="120" fill="#e91e63" stroke="#949494" stroke-width="1"/>
  <rect x="951.6" y="134" width="9" height="88" fill="#795548" stroke="#949494" stroke-width="1"/>
  <rect x="960.6" y="106" width="9" height="116" fill="#9e9e9e" stroke="#949494" stroke-width="1"/>
  <line x1="136" y1="222" x2="944" y2="222" stroke="#757575" stroke-width="10" stroke-dasharray="1,105"/>
  <line x1="30" y1="222" x2="990" y2="222" stroke="#757575" stroke-width="1"/>
  <text x="83" y="360" font-size="6.5" fill="#231f20" text-anchor="middle" dominant-baseline="text-before-edge">Dbench</text>
  <rect x="40.6" y="237" width="9" height="120" fill="#f44336" stroke="#949494" stroke-width="1"/>
  <rect x="49.6" y="247" width="9" height="110" fill="#673ab7" stroke="#949494" stroke-width="1"/>
  <rect x="58.6" y="354" width="9" height="3" fill="#01579b" stroke="#949494" stroke-width="1"/>
  <rect x="67.6" y="245" width="9" height="112" fill="#009688" stroke="#949494" stroke-width="1"/>
  <rect x="76.6" y="275" width="9" height="82" fill="#4caf50" stroke="#949494" stroke-width="1"/>
  <rect x="85.6" y="322" width="9" height="35" fill="#ff5722" stroke="#949494" stroke-width="1"/>
  <rect x="94.6" y="336" width="9" height="21" fill="#e91e63" stroke="#949494" stroke-width="1"/>
  <rect x="103.6" y="345" width="9" height="12" fill="#795548" stroke="#949494" stroke-width="1"/>
  <rect x="112.6" y="344" width="9" height="13" fill="#9e9e9e" stroke="#949494" stroke-width="1"/>
  <text x="189" y="360" font-size="6.5" fill="#231f20" text-anchor="middle" dominant-baseline="text-before-edge">IOzone</text>
  <rect x="146.6" y="237" width="9" height="120" fill="#f44336" stroke="#949494" stroke-width="1"/>
  <rect x="155.6" y="250" width="9" height="107" fill="#673ab7" stroke="#949494" stroke-width="1"/>
  <rect x="164.6" y="238" width="9" height="119" fill="#01579b" stroke="#949494" stroke-width="1"/>
  <rect x="173.6" y="266" width="9" height="91" fill="#009688" stroke="#949494" stroke-width="1"/>
  <rect x="182.6" y="267" width="9" height="90" fill="#4caf50" stroke="#949494" stroke-width="1"/>
  <rect x="191.6" y="272" width="9" height="85" fill="#ff5722" stroke="#949494" stroke-width="1"/>
  <rect x="200.6" y="270" width="9" height="87" fill="#e91e63" stroke="#949494" stroke-width="1"/>
  <rect x="209.6" y="271" width="9" height="86" fill="#795548" stroke="#949494" stroke-width="1"/>
  <rect x="218.6" y="268" width="9" height="89" fill="#9e9e9e" stroke="#949494" stroke-width="1"/>
  <text x="295" y="360" font-size="6.5" fill="#231f20" text-anchor="middle" dominant-baseline="text-before-edge">IOzone</text>
  <rect x="252.6" y="237" width="9" height="120" fill="#f44336" stroke="#949494" stroke-width="1"/>
  <rect x="261.6" y="242" width="9" height="115" fill="#673ab7" stroke="#949494" stroke-width="1"/>
  <rect x="270.6" y="242" width="9" height="115" fill="#01579b" stroke="#949494" stroke-width="1"/>
  <rect x="279.6" y="267" width="9" height="90" fill="#009688" stroke="#949494" stroke-width="1"/>
  <rect x="288.6" y="275" width="9" height="82" fill="#4caf50" stroke="#949494" stroke-width="1"/>
  <rect x="297.6" y="265" width="9" height="92" fill="#ff5722" stroke="#949494" stroke-width="1"/>
  <rect x="306.6" y="311" width="9" height="46" fill="#e91e63" stroke="#949494" stroke-width="1"/>
  <rect x="315.6" y="314" width="9" height="43" fill="#795548" stroke="#949494" stroke-width="1"/>
  <rect x="324.6" y="311" width="9" height="46" fill="#9e9e9e" stroke="#949494" stroke-width="1"/>
  <text x="401" y="360" font-size="6.5" fill="#231f20" text-anchor="middle" dominant-baseline="text-before-edge">Threaded I/O Tester</text>
  <rect x="358.6" y="237" width="9" height="120" fill="#f44336" stroke="#949494" stroke-width="1"/>
  <rect x="367.6" y="247" width="9" height="110" fill="#673ab7" stroke="#949494" stroke-width="1"/>
  <rect x="376.6" y="274" width="9" height="83" fill="#01579b" stroke="#949494" stroke-width="1"/>
  <rect x="385.6" y="241" width="9" height="116" fill="#009688" stroke="#949494" stroke-width="1"/>
  <rect x="394.6" y="252" width="9" height="105" fill="#4caf50" stroke="#949494" stroke-width="1"/>
  <rect x="403.6" y="257" width="9" height="100" fill="#ff5722" stroke="#949494" stroke-width="1"/>
  <rect x="412.6" y="248" width="9" height="109" fill="#e91e63" stroke="#949494" stroke-width="1"/>
  <rect x="421.6" y="248" width="9" height="109" fill="#795548" stroke="#949494" stroke-width="1"/>
  <rect x="430.6" y="268" width="9" height="89" fill="#9e9e9e" stroke="#949494" stroke-width="1"/>
  <text x="507" y="360" font-size="6.5" fill="#231f20" text-anchor="middle" dominant-baseline="text-before-edge">Threaded I/O Tester</text>
  <rect x="464.6" y="265" width="9" height="92" fill="#f44336" stroke="#949494" stroke-width="1"/>
  <rect x="473.6" y="254" width="9" height="103" fill="#673ab7" stroke="#949494" stroke-width="1"/>
  <rect x="482.6" y="358" width="9" height="-1" fill="#01579b" stroke="#949494" stroke-width="1"/>
  <rect x="491.6" y="268" width="9" height="89" fill="#009688" stroke="#949494" stroke-width="1"/>
  <rect x="500.6" y="237" width="9" height="120" fill="#4caf50" stroke="#949494" stroke-width="1"/>
  <rect x="509.6" y="352" width="9" height="5" fill="#ff5722" stroke="#949494" stroke-width="1"/>
  <rect x="518.6" y="356" width="9" height="1" fill="#e91e63" stroke="#949494" stroke-width="1"/>
  <rect x="527.6" y="357" width="9" height="0" fill="#795548" stroke="#949494" stroke-width="1"/>
  <rect x="536.6" y="357" width="9" height="0" fill="#9e9e9e" stroke="#949494" stroke-width="1"/>
  <text x="613" y="360" font-size="6.5" fill="#231f20" text-anchor="middle" dominant-baseline="text-before-edge">Compile Bench</text>
  <rect x="570.6" y="237" width="9" height="120" fill="#f44336" stroke="#949494" stroke-width="1"/>
  <rect x="579.6" y="263" width="9" height="94" fill="#673ab7" stroke="#949494" stroke-width="1"/>
  <rect x="588.6" y="306" width="9" height="51" fill="#01579b" stroke="#949494" stroke-width="1"/>
  <rect x="597.6" y="238" width="9" height="119" fill="#009688" stroke="#949494" stroke-width="1"/>
  <rect x="606.6" y="263" width="9" height="94" fill="#4caf50" stroke="#949494" stroke-width="1"/>
  <rect x="615.6" y="297" width="9" height="60" fill="#ff5722" stroke="#949494" stroke-width="1"/>
  <rect x="624.6" y="241" width="9" height="116" fill="#e91e63" stroke="#949494" stroke-width="1"/>
  <rect x="633.6" y="266" width="9" height="91" fill="#795548" stroke="#949494" stroke-width="1"/>
  <rect x="642.6" y="311" width="9" height="46" fill="#9e9e9e" stroke="#949494" stroke-width="1"/>
  <text x="719" y="360" font-size="6.5" fill="#231f20" text-anchor="middle" dominant-baseline="text-before-edge">Unpacking The Linux Kernel</text>
  <rect x="676.6" y="239" width="9" height="118" fill="#f44336" stroke="#949494" stroke-width="1"/>
  <rect x="685.6" y="239" width="9" height="118" fill="#673ab7" stroke="#949494" stroke-width="1"/>
  <rect x="694.6" y="259" width="9" height="98" fill="#01579b" stroke="#949494" stroke-width="1"/>
  <rect x="703.6" y="238" width="9" height="119" fill="#009688" stroke="#949494" stroke-width="1"/>
  <rect x="712.6" y="239" width="9" height="118" fill="#4caf50" stroke="#949494" stroke-width="1"/>
  <rect x="721.6" y="260" width="9" height="97" fill="#ff5722" stroke="#949494" stroke-width="1"/>
  <rect x="730.6" y="239" width="9" height="118" fill="#e91e63" stroke="#949494" stroke-width="1"/>
  <rect x="739.6" y="237" width="9" height="120" fill="#795548" stroke="#949494" stroke-width="1"/>
  <rect x="748.6" y="256" width="9" height="101" fill="#9e9e9e" stroke="#949494" stroke-width="1"/>
  <text x="825" y="360" font-size="6.5" fill="#231f20" text-anchor="middle" dominant-baseline="text-before-edge">PostMark</text>
  <rect x="782.6" y="238" width="9" height="119" fill="#f44336" stroke="#949494" stroke-width="1"/>
  <rect x="791.6" y="257" width="9" height="100" fill="#673ab7" stroke="#949494" stroke-width="1"/>
  <rect x="800.6" y="261" width="9" height="96" fill="#01579b" stroke="#949494" stroke-width="1"/>
  <rect x="809.6" y="240" width="9" height="117" fill="#009688" stroke="#949494" stroke-width="1"/>
  <rect x="818.6" y="261" width="9" height="96" fill="#4caf50" stroke="#949494" stroke-width="1"/>
  <rect x="827.6" y="262" width="9" height="95" fill="#ff5722" stroke="#949494" stroke-width="1"/>
  <rect x="836.6" y="237" width="9" height="120" fill="#e91e63" stroke="#949494" stroke-width="1"/>
  <rect x="845.6" y="260" width="9" height="97" fill="#795548" stroke="#949494" stroke-width="1"/>
  <rect x="854.6" y="262" width="9" height="95" fill="#9e9e9e" stroke="#949494" stroke-width="1"/>
  <text x="495" y="19" font-size="17" fill="#231f20" text-anchor="middle" xlink:show="new">2016-11-16-2058</text>
  <a xlink:href="http://www.phoronix-test-suite.com/" xlink:show="new">
    <text x="990" y="98.5" font-size="7" fill="#949494" text-anchor="end" xlink:show="new">Phoronix Test Suite 6.8.0m1</text>
  </a>
</svg>
