<?xml version="1.0"?>
<!DOCTYPE svg PUBLIC "-//W3C//DTD SVG 1.1//EN" "http://www.w3.org/Graphics/SVG/1.1/DTD/svg11.dtd">
<!--Phoronix Test Suite v6.4.0 [ http://www.phoronix-test-suite.com/ ]-->
<svg xmlns="http://www.w3.org/2000/svg" xmlns:xlink="http://www.w3.org/1999/xlink" version="1.1" font-family="sans-serif, droid-sans, helvetica, verdana, tahoma" viewbox="0 0 161 120" width="161" height="120" preserveAspectRatio="xMinYMin meet"><rect x="0" y="0" width="161" height="120" fill="#FEFEFE" stroke="#757575" stroke-width="2"/><rect x="1" y="1" width="160" height="119" fill="#FEFEFE" stroke="#757575" stroke-width="1"/><path d="m74 22v9m-5-16v16m-5-28v28m-23-2h12.5c2.485281 0 4.5-2.014719 4.5-4.5s-2.014719-4.5-4.5-4.5h-8c-2.485281 0-4.5-2.014719-4.5-4.5s2.014719-4.5 4.5-4.5h12.5m-21 5h-11m11 13h-2c-4.970563 0-9-4.029437-9-9v-20m-24 40v-20c0-4.970563 4.0294373-9 9-9 4.970563 0 9 4.029437 9 9s-4.029437 9-9 9h-9" stroke="#000000" stroke-width="4" fill="none" transform="translate(3,43)"/><line x1="86" y1="72" x2="161" y2="72" stroke="#BABABA" stroke-width="64" stroke-dasharray="75,75"/><line x1="81" y1="88" x2="81" y2="104" stroke="#949494" stroke-width="161" stroke-dasharray="16,16"/><line x1="86" y1="72" x2="161" y2="72" stroke="#757575" stroke-width="64" stroke-dasharray="1,74"/><rect x="1" y="1" width="159" height="40" fill="#231f20"/><text x="5" y="19" font-size="17" fill="#FEFEFE" text-anchor="start">PostMark</text><text x="5" y="33" font-size="11" fill="#FEFEFE" text-anchor="start">Disk Transaction Performance</text><line x1="1" y1="40" x2="160" y2="40" stroke="#757575" stroke-width="1"/><g font-size="10" font-weight="bold" text-anchor="end" fill="#065695"><text x="84" y="100" fill="#065695">Results</text></g><g font-size="10" fill="#065695" font-weight="bold" text-anchor="middle" dominant-baseline="text-before-edge"><text x="123.5" y="64">EXT4-NVME</text></g><g/><g text-anchor="middle" font-size="10"><text x="123.5" y="101" fill="#065695">4385</text></g><line x1="81" y1="88" x2="81" y2="104" stroke="#949494" stroke-width="161" stroke-dasharray="1,15"/><rect x="0" y="104" width="161" height="16" fill="#231f20"/><a xlink:href="http://www.phoronix-test-suite.com/" xlink:show="new"><text x="159" y="117" font-size="10" fill="#FFFFFF" text-anchor="end" xlink:show="new">PHORONIX-TEST-SUITE.COM</text></a></svg>
