<?xml version="1.0"?>
<!DOCTYPE svg PUBLIC "-//W3C//DTD SVG 1.1//EN" "http://www.w3.org/Graphics/SVG/1.1/DTD/svg11.dtd">
<!--Phoronix Test Suite v6.4.0 [ http://www.phoronix-test-suite.com/ ]-->
<svg xmlns="http://www.w3.org/2000/svg" xmlns:xlink="http://www.w3.org/1999/xlink" version="1.1" font-family="sans-serif, droid-sans, helvetica, verdana, tahoma" viewbox="0 0 600 414" width="600" height="414" preserveAspectRatio="xMinYMin meet"><rect x="0" y="0" width="600" height="414" fill="#FEFEFE" stroke="#757575" stroke-width="2"/><g stroke="#757575" stroke-width="1"><line x1="70.5" y1="64" x2="70.5" y2="341"/><line x1="70" y1="340.5" x2="586" y2="340.5"/></g><a xlink:href="http://www.phoronix-test-suite.com/" xlink:show="new"><text x="585" y="59" font-size="7" fill="#065695" text-anchor="end" xlink:show="new">PHORONIX-TEST-SUITE.COM</text></a><polygon points="79.5,56 70.5,60.5 70.5,51.5" fill="#065695" stroke="#949494" stroke-width="1"/><text x="82" y="59" font-size="7" fill="#065695" text-anchor="start">MB/s, More Is Better</text><rect x="0" y="0" width="600" height="48" fill="#231f20"/><a xlink:href="http://openbenchmarking.org/test/pts/aio-stress-1.1.1" xlink:show="new"><text x="6" y="19" font-size="17" fill="#FEFEFE" text-anchor="start" xlink:show="new">AIO-Stress v0.21</text></a><text x="6" y="36" font-size="11" fill="#FEFEFE" text-anchor="start">Test: Random Write</text><path d="m74 22v9m-5-16v16m-5-28v28m-23-2h12.5c2.485281 0 4.5-2.014719 4.5-4.5s-2.014719-4.5-4.5-4.5h-8c-2.485281 0-4.5-2.014719-4.5-4.5s2.014719-4.5 4.5-4.5h12.5m-21 5h-11m11 13h-2c-4.970563 0-9-4.029437-9-9v-20m-24 40v-20c0-4.970563 4.0294373-9 9-9 4.970563 0 9 4.029437 9 9s-4.029437 9-9 9h-9" stroke="#ffffff" stroke-width="4" fill="none" transform="translate(508,4)"/><line x1="70.5" y1="110" x2="70.5" y2="340" stroke="#757575" stroke-width="11" stroke-dasharray="1,45"/><g font-size="10" fill="#231f20"><text x="65" y="85" text-anchor="end">F2FS-NVME</text><text x="65" y="131" text-anchor="end">EXT4-NVME</text><text x="65" y="177" text-anchor="end">XFS-NVME</text><text x="65" y="223" text-anchor="end">F2FS-SSD</text><text x="65" y="269" text-anchor="end">EXT4-SSD</text><text x="65" y="315" text-anchor="end">XFS-SSD</text></g><g font-size="10" fill="#065695" text-anchor="middle"><text x="158.5" y="355">700</text><text x="244.5" y="355">1400</text><text x="330.5" y="355">2100</text><text x="416.5" y="355">2800</text><text x="502.5" y="355">3500</text></g><g stroke="#BABABA" stroke-width="1"><line x1="158.5" y1="64" x2="158.5" y2="335" stroke-dasharray="5,5"/><line x1="158.5" y1="336" x2="158.5" y2="345"/><line x1="244.5" y1="64" x2="244.5" y2="335" stroke-dasharray="5,5"/><line x1="244.5" y1="336" x2="244.5" y2="345"/><line x1="330.5" y1="64" x2="330.5" y2="335" stroke-dasharray="5,5"/><line x1="330.5" y1="336" x2="330.5" y2="345"/><line x1="416.5" y1="64" x2="416.5" y2="335" stroke-dasharray="5,5"/><line x1="416.5" y1="336" x2="416.5" y2="345"/><line x1="502.5" y1="64" x2="502.5" y2="335" stroke-dasharray="5,5"/><line x1="502.5" y1="336" x2="502.5" y2="345"/></g><g stroke="#949494" stroke-width="1"><rect x="70.5" y="70.5" height="34" width="400" fill="#2196f3" xlink:title="F2FS-NVME: 3260.28"/><rect x="70.5" y="116.5" height="34" width="234" fill="#2196f3" xlink:title="EXT4-NVME: 1904.31"/><rect x="70.5" y="162.5" height="34" width="222" fill="#2196f3" xlink:title="XFS-NVME: 1809.84"/><rect x="70.5" y="208.5" height="34" width="188" fill="#2196f3" xlink:title="F2FS-SSD: 1529.95"/><rect x="70.5" y="254.5" height="34" width="243" fill="#2196f3" xlink:title="EXT4-SSD: 1982.08"/><rect x="70.5" y="300.5" height="34" width="92" fill="#2196f3" xlink:title="XFS-SSD: 753.63"/></g><g font-size="8" fill="#065695" text-anchor="end"><text y="101" x="65">SE +/- 11.99</text><text y="147" x="65">SE +/- 26.24</text><text y="193" x="65">SE +/- 60.93</text><text y="239" x="65">SE +/- 80.13</text><text y="285" x="65">SE +/- 26.03</text><text y="331" x="65">SE +/- 285.03</text></g><g font-size="10" fill="#FFFFFF"><text x="465" y="93" text-anchor="end">3260.28</text><text x="299" y="139" text-anchor="end">1904.31</text><text x="287" y="185" text-anchor="end">1809.84</text><text x="253" y="231" text-anchor="end">1529.95</text><text x="308" y="277" text-anchor="end">1982.08</text><text x="157" y="323" text-anchor="end">753.63</text></g><line x1="285.5" y1="162" x2="285.5" y2="170" stroke="#757575" stroke-width="1"/><line x1="299.5" y1="162" x2="299.5" y2="170" stroke="#757575" stroke-width="1"/><line x1="285.5" y1="162.5" x2="299.5" y2="162.5" stroke="#757575" stroke-width="1"/><line x1="248.5" y1="208" x2="248.5" y2="216" stroke="#757575" stroke-width="1"/><line x1="268.5" y1="208" x2="268.5" y2="216" stroke="#757575" stroke-width="1"/><line x1="248.5" y1="208.5" x2="268.5" y2="208.5" stroke="#757575" stroke-width="1"/><line x1="127.5" y1="300" x2="127.5" y2="308" stroke="#757575" stroke-width="1"/><line x1="197.5" y1="300" x2="197.5" y2="308" stroke="#757575" stroke-width="1"/><line x1="127.5" y1="300.5" x2="197.5" y2="300.5" stroke="#757575" stroke-width="1"/><rect x="0" y="362" width="600" height="52" fill="#231f20"/><a xlink:href="http://www.phoronix-test-suite.com/" xlink:show="new"><text x="585" y="374" font-size="9" fill="#FEFEFE" text-anchor="end" xlink:show="new">Phoronix Test Suite 6.4.0</text></a><text x="5" y="388" font-size="8" fill="#FEFEFE" text-anchor="start" xlink:title="-pthread -laio" width="595">1. (CC) gcc options: -pthread -laio</text></svg>
