<?xml version="1.0"?>
<!DOCTYPE svg PUBLIC "-//W3C//DTD SVG 1.1//EN" "http://www.w3.org/Graphics/SVG/1.1/DTD/svg11.dtd">
<!--Phoronix Test Suite v6.4.0 [ http://www.phoronix-test-suite.com/ ]-->
<svg xmlns="http://www.w3.org/2000/svg" xmlns:xlink="http://www.w3.org/1999/xlink" version="1.1" font-family="sans-serif, droid-sans, helvetica, verdana, tahoma" viewbox="0 0 600 698" width="600" height="698" preserveAspectRatio="xMinYMin meet"><rect x="0" y="0" width="600" height="698" fill="#FEFEFE" stroke="#757575" stroke-width="2"/><rect x="0" y="0" width="600" height="48" fill="#231f20"/><image xlink:href="https://openbenchmarking.org/static/images/pts-77x40-white.png" x="10" y="2" width="77" height="40"/><text x="100" y="21" font-size="17" fill="#FEFEFE" text-anchor="start">2016-08-04-1307</text><text x="100" y="33" font-size="9" fill="#FEFEFE" text-anchor="start" href="http://www.phoronix-test-suite.com/">Phoronix Test Suite 6.4.0</text><path fill="#FEFEFE" stroke="#949494" stroke-width="1" stroke-dasharray="10,20" d="M35,98 L560,98 A525,525 0 0,1 35,623 Z"/><text x="560" y="90" font-size="10" fill="#757575" text-anchor="middle">4.3</text><line x1="560" y1="92" x2="560" y2="98" stroke="#757575" stroke-width="1"/><text x="27" y="623" font-size="10" fill="#757575" text-anchor="end" dominant-baseline="middle">4.3</text><line x1="29" y1="623" x2="35" y2="623" stroke="#757575" stroke-width="1"/><path fill="#FEFEFE" stroke="#949494" stroke-width="1" stroke-dasharray="10,20" d="M35,98 L499,98 A464,464 0 0,1 35,562 Z"/><text x="499" y="90" font-size="10" fill="#757575" text-anchor="middle">3.8</text><line x1="499" y1="92" x2="499" y2="98" stroke="#757575" stroke-width="1"/><text x="27" y="562" font-size="10" fill="#757575" text-anchor="end" dominant-baseline="middle">3.8</text><line x1="29" y1="562" x2="35" y2="562" stroke="#757575" stroke-width="1"/><path fill="#FEFEFE" stroke="#949494" stroke-width="1" stroke-dasharray="10,20" d="M35,98 L425,98 A390,390 0 0,1 35,488 Z"/><text x="425" y="90" font-size="10" fill="#757575" text-anchor="middle">3.2</text><line x1="425" y1="92" x2="425" y2="98" stroke="#757575" stroke-width="1"/><text x="27" y="488" font-size="10" fill="#757575" text-anchor="end" dominant-baseline="middle">3.2</text><line x1="29" y1="488" x2="35" y2="488" stroke="#757575" stroke-width="1"/><path fill="#FEFEFE" stroke="#949494" stroke-width="1" stroke-dasharray="10,20" d="M35,98 L364,98 A329,329 0 0,1 35,427 Z"/><text x="364" y="90" font-size="10" fill="#757575" text-anchor="middle">2.7</text><line x1="364" y1="92" x2="364" y2="98" stroke="#757575" stroke-width="1"/><text x="27" y="427" font-size="10" fill="#757575" text-anchor="end" dominant-baseline="middle">2.7</text><line x1="29" y1="427" x2="35" y2="427" stroke="#757575" stroke-width="1"/><path fill="#FEFEFE" stroke="#949494" stroke-width="1" stroke-dasharray="10,20" d="M35,98 L291,98 A256,256 0 0,1 35,354 Z"/><text x="291" y="90" font-size="10" fill="#757575" text-anchor="middle">2.1</text><line x1="291" y1="92" x2="291" y2="98" stroke="#757575" stroke-width="1"/><text x="27" y="354" font-size="10" fill="#757575" text-anchor="end" dominant-baseline="middle">2.1</text><line x1="29" y1="354" x2="35" y2="354" stroke="#757575" stroke-width="1"/><path fill="#FEFEFE" stroke="#949494" stroke-width="1" stroke-dasharray="10,20" d="M35,98 L230,98 A195,195 0 0,1 35,293 Z"/><text x="230" y="90" font-size="10" fill="#757575" text-anchor="middle">1.6</text><line x1="230" y1="92" x2="230" y2="98" stroke="#757575" stroke-width="1"/><text x="27" y="293" font-size="10" fill="#757575" text-anchor="end" dominant-baseline="middle">1.6</text><line x1="29" y1="293" x2="35" y2="293" stroke="#757575" stroke-width="1"/><path fill="#FEFEFE" stroke="#949494" stroke-width="1" stroke-dasharray="10,20" d="M35,98 L157,98 A122,122 0 0,1 35,220 Z"/><text x="157" y="90" font-size="10" fill="#757575" text-anchor="middle">1.0</text><line x1="157" y1="92" x2="157" y2="98" stroke="#757575" stroke-width="1"/><text x="27" y="220" font-size="10" fill="#757575" text-anchor="end" dominant-baseline="middle">1.0</text><line x1="29" y1="220" x2="35" y2="220" stroke="#757575" stroke-width="1"/><line x1="35" y1="98" x2="590" y2="98" stroke="#757575" stroke-width="1"/><line x1="35" y1="98" x2="35" y2="676" stroke="#757575" stroke-width="1"/><line x1="590" y1="676" x2="590" y2="98" stroke="#757575" stroke-width="1"/><line x1="35" y1="676" x2="590" y2="676" stroke="#757575" stroke-width="1"/><polygon points="35,98 224,98 222,125" fill="#673ab7" stroke="#065695" stroke-width="2" xlink:title="Flexible IO Tester - EXT4-NVME - 1.322x Faster Than XFS-SSD"/><polygon points="35,98 206,98 205,122" fill="#01579b" stroke="#065695" stroke-width="2" xlink:title="Flexible IO Tester - XFS-NVME - 1.316x Faster Than XFS-SSD"/><polygon points="35,98 189,98 187,120" fill="#f44336" stroke="#065695" stroke-width="2" xlink:title="Flexible IO Tester - F2FS-NVME - 1.313x Faster Than XFS-SSD"/><polygon points="35,98 165,98 163,116" fill="#4caf50" stroke="#065695" stroke-width="2" xlink:title="Flexible IO Tester - EXT4-SSD - 1.014x Faster Than XFS-SSD"/><polygon points="35,98 161,98 159,116" fill="#009688" stroke="#065695" stroke-width="2" xlink:title="Flexible IO Tester - F2FS-SSD - 1.012x Faster Than XFS-SSD"/><polygon points="35,98 157,98 156,115" fill="#ffeb3b" stroke="#065695" stroke-width="2" xlink:title="Flexible IO Tester - XFS-SSD - 1.000x Faster Than XFS-SSD"/><polygon points="35,98 195,121 190,143" fill="#f44336" stroke="#065695" stroke-width="2" xlink:title="Flexible IO Tester - F2FS-NVME - 2.914x Faster Than EXT4-SSD"/><polygon points="35,98 194,121 189,143" fill="#01579b" stroke="#065695" stroke-width="2" xlink:title="Flexible IO Tester - XFS-NVME - 2.716x Faster Than EXT4-SSD"/><polygon points="35,98 194,121 189,143" fill="#673ab7" stroke="#065695" stroke-width="2" xlink:title="Flexible IO Tester - EXT4-NVME - 2.569x Faster Than EXT4-SSD"/><polygon points="35,98 157,116 154,133" fill="#009688" stroke="#065695" stroke-width="2" xlink:title="Flexible IO Tester - F2FS-SSD - 1.471x Faster Than EXT4-SSD"/><polygon points="35,98 157,116 153,133" fill="#ffeb3b" stroke="#065695" stroke-width="2" xlink:title="Flexible IO Tester - XFS-SSD - 1.029x Faster Than EXT4-SSD"/><polygon points="35,98 156,115 152,132" fill="#4caf50" stroke="#065695" stroke-width="2" xlink:title="Flexible IO Tester - EXT4-SSD - 1.000x Faster Than EXT4-SSD"/><polygon points="35,98 376,198 358,246" fill="#f44336" stroke="#065695" stroke-width="2" xlink:title="AIO-Stress - F2FS-NVME - 4.326x Faster Than XFS-SSD"/><polygon points="35,98 353,191 336,236" fill="#4caf50" stroke="#065695" stroke-width="2" xlink:title="AIO-Stress - EXT4-SSD - 2.630x Faster Than XFS-SSD"/><polygon points="35,98 336,186 320,228" fill="#673ab7" stroke="#065695" stroke-width="2" xlink:title="AIO-Stress - EXT4-NVME - 2.527x Faster Than XFS-SSD"/><polygon points="35,98 207,149 198,173" fill="#01579b" stroke="#065695" stroke-width="2" xlink:title="AIO-Stress - XFS-NVME - 2.401x Faster Than XFS-SSD"/><polygon points="35,98 155,133 149,150" fill="#009688" stroke="#065695" stroke-width="2" xlink:title="AIO-Stress - F2FS-SSD - 2.030x Faster Than XFS-SSD"/><polygon points="35,98 152,132 146,149" fill="#ffeb3b" stroke="#065695" stroke-width="2" xlink:title="AIO-Stress - XFS-SSD - 1.000x Faster Than XFS-SSD"/><polygon points="35,98 515,317 479,383" fill="#f44336" stroke="#065695" stroke-width="2" xlink:title="Flexible IO Tester - F2FS-NVME - 2.326x Faster Than F2FS-SSD"/><polygon points="35,98 327,231 305,271" fill="#01579b" stroke="#065695" stroke-width="2" xlink:title="Flexible IO Tester - XFS-NVME - 2.045x Faster Than F2FS-SSD"/><polygon points="35,98 315,226 294,265" fill="#673ab7" stroke="#065695" stroke-width="2" xlink:title="Flexible IO Tester - EXT4-NVME - 2.024x Faster Than F2FS-SSD"/><polygon points="35,98 301,220 281,256" fill="#ffeb3b" stroke="#065695" stroke-width="2" xlink:title="Flexible IO Tester - XFS-SSD - 1.044x Faster Than F2FS-SSD"/><polygon points="35,98 260,201 243,232" fill="#4caf50" stroke="#065695" stroke-width="2" xlink:title="Flexible IO Tester - EXT4-SSD - 1.013x Faster Than F2FS-SSD"/><polygon points="35,98 146,149 138,164" fill="#009688" stroke="#065695" stroke-width="2" xlink:title="Flexible IO Tester - F2FS-SSD - 1.000x Faster Than F2FS-SSD"/><polygon points="35,98 274,251 249,284" fill="#673ab7" stroke="#065695" stroke-width="2" xlink:title="Flexible IO Tester - EXT4-NVME - 2.070x Faster Than F2FS-SSD"/><polygon points="35,98 245,233 224,261" fill="#01579b" stroke="#065695" stroke-width="2" xlink:title="Flexible IO Tester - XFS-NVME - 2.058x Faster Than F2FS-SSD"/><polygon points="35,98 243,231 222,260" fill="#f44336" stroke="#065695" stroke-width="2" xlink:title="Flexible IO Tester - F2FS-NVME - 1.970x Faster Than F2FS-SSD"/><polygon points="35,98 142,167 131,181" fill="#ffeb3b" stroke="#065695" stroke-width="2" xlink:title="Flexible IO Tester - XFS-SSD - 1.019x Faster Than F2FS-SSD"/><polygon points="35,98 139,165 128,179" fill="#4caf50" stroke="#065695" stroke-width="2" xlink:title="Flexible IO Tester - EXT4-SSD - 1.004x Faster Than F2FS-SSD"/><polygon points="35,98 138,164 127,178" fill="#009688" stroke="#065695" stroke-width="2" xlink:title="Flexible IO Tester - F2FS-SSD - 1.000x Faster Than F2FS-SSD"/><polygon points="35,98 226,263 200,289" fill="#f44336" stroke="#065695" stroke-width="2" xlink:title="Compile Bench - F2FS-NVME - 2.815x Faster Than F2FS-SSD"/><polygon points="35,98 225,262 199,288" fill="#673ab7" stroke="#065695" stroke-width="2" xlink:title="Compile Bench - EXT4-NVME - 2.484x Faster Than F2FS-SSD"/><polygon points="35,98 217,255 192,280" fill="#01579b" stroke="#065695" stroke-width="2" xlink:title="Compile Bench - XFS-NVME - 2.380x Faster Than F2FS-SSD"/><polygon points="35,98 129,179 116,192" fill="#4caf50" stroke="#065695" stroke-width="2" xlink:title="Compile Bench - EXT4-SSD - 1.223x Faster Than F2FS-SSD"/><polygon points="35,98 128,178 115,191" fill="#ffeb3b" stroke="#065695" stroke-width="2" xlink:title="Compile Bench - XFS-SSD - 1.085x Faster Than F2FS-SSD"/><polygon points="35,98 127,178 115,190" fill="#009688" stroke="#065695" stroke-width="2" xlink:title="Compile Bench - F2FS-SSD - 1.000x Faster Than F2FS-SSD"/><polygon points="35,98 260,358 221,387" fill="#673ab7" stroke="#065695" stroke-width="2" xlink:title="IOzone - EXT4-NVME - 2.238x Faster Than XFS-SSD"/><polygon points="35,98 233,327 199,353" fill="#01579b" stroke="#065695" stroke-width="2" xlink:title="IOzone - XFS-NVME - 2.230x Faster Than XFS-SSD"/><polygon points="35,98 225,317 192,342" fill="#f44336" stroke="#065695" stroke-width="2" xlink:title="IOzone - F2FS-NVME - 2.055x Faster Than XFS-SSD"/><polygon points="35,98 133,211 116,224" fill="#009688" stroke="#065695" stroke-width="2" xlink:title="IOzone - F2FS-SSD - 1.033x Faster Than XFS-SSD"/><polygon points="35,98 122,198 107,209" fill="#4caf50" stroke="#065695" stroke-width="2" xlink:title="IOzone - EXT4-SSD - 1.002x Faster Than XFS-SSD"/><polygon points="35,98 115,190 101,201" fill="#ffeb3b" stroke="#065695" stroke-width="2" xlink:title="IOzone - XFS-SSD - 1.000x Faster Than XFS-SSD"/><polygon points="35,98 183,328 148,346" fill="#f44336" stroke="#065695" stroke-width="2" xlink:title="Threaded I/O Tester - F2FS-NVME - 1.292x Faster Than XFS-SSD"/><polygon points="35,98 182,327 148,345" fill="#673ab7" stroke="#065695" stroke-width="2" xlink:title="Threaded I/O Tester - EXT4-NVME - 1.229x Faster Than XFS-SSD"/><polygon points="35,98 171,309 139,326" fill="#009688" stroke="#065695" stroke-width="2" xlink:title="Threaded I/O Tester - F2FS-SSD - 1.203x Faster Than XFS-SSD"/><polygon points="35,98 103,204 87,213" fill="#4caf50" stroke="#065695" stroke-width="2" xlink:title="Threaded I/O Tester - EXT4-SSD - 1.183x Faster Than XFS-SSD"/><polygon points="35,98 101,201 86,209" fill="#01579b" stroke="#065695" stroke-width="2" xlink:title="Threaded I/O Tester - XFS-NVME - 1.015x Faster Than XFS-SSD"/><polygon points="35,98 101,201 86,209" fill="#ffeb3b" stroke="#065695" stroke-width="2" xlink:title="Threaded I/O Tester - XFS-SSD - 1.000x Faster Than XFS-SSD"/><polygon points="35,98 100,241 79,249" fill="#f44336" stroke="#065695" stroke-width="2" xlink:title="Unpacking The Linux Kernel - F2FS-NVME - 1.068x Faster Than XFS-SSD"/><polygon points="35,98 97,234 77,242" fill="#009688" stroke="#065695" stroke-width="2" xlink:title="Unpacking The Linux Kernel - F2FS-SSD - 1.067x Faster Than XFS-SSD"/><polygon points="35,98 96,232 76,239" fill="#4caf50" stroke="#065695" stroke-width="2" xlink:title="Unpacking The Linux Kernel - EXT4-SSD - 1.065x Faster Than XFS-SSD"/><polygon points="35,98 95,229 76,236" fill="#673ab7" stroke="#065695" stroke-width="2" xlink:title="Unpacking The Linux Kernel - EXT4-NVME - 1.058x Faster Than XFS-SSD"/><polygon points="35,98 86,211 70,217" fill="#01579b" stroke="#065695" stroke-width="2" xlink:title="Unpacking The Linux Kernel - XFS-NVME - 1.052x Faster Than XFS-SSD"/><polygon points="35,98 86,209 69,215" fill="#ffeb3b" stroke="#065695" stroke-width="2" xlink:title="Unpacking The Linux Kernel - XFS-SSD - 1.000x Faster Than XFS-SSD"/><polygon points="35,98 72,223 35,228" fill="#f44336" stroke="#065695" stroke-width="2" xlink:title="PostMark - F2FS-NVME - 2.049x Faster Than XFS-SSD"/><polygon points="35,98 72,223 35,228" fill="#009688" stroke="#065695" stroke-width="2" xlink:title="PostMark - F2FS-SSD - 2.021x Faster Than XFS-SSD"/><polygon points="35,98 72,223 35,228" fill="#673ab7" stroke="#065695" stroke-width="2" xlink:title="PostMark - EXT4-NVME - 1.711x Faster Than XFS-SSD"/><polygon points="35,98 71,222 35,227" fill="#4caf50" stroke="#065695" stroke-width="2" xlink:title="PostMark - EXT4-SSD - 1.663x Faster Than XFS-SSD"/><polygon points="35,98 71,221 35,226" fill="#01579b" stroke="#065695" stroke-width="2" xlink:title="PostMark - XFS-NVME - 1.299x Faster Than XFS-SSD"/><polygon points="35,98 69,215 35,220" fill="#ffeb3b" stroke="#065695" stroke-width="2" xlink:title="PostMark - XFS-SSD - 1.000x Faster Than XFS-SSD"/><path fill="#FEFEFE" stroke="#757575" stroke-width="1" d="M35,98 L157,98 A122,122 0 0,1 35,220 Z"/><text x="117.9813032641" y="169.90370858719" font-size="11" fill="#C80000" text-anchor="end" dominant-baseline="middle">Disk</text><text x="586" y="667" font-size="9" fill="#f44336" text-anchor="end" dominant-baseline="middle">2 x 960GB SanDisk SDSSDHII + 1200GB INTEL SSDPE2MW012T4</text><text x="586" y="658" font-size="9" fill="#673ab7" text-anchor="end" dominant-baseline="middle">2 x 960GB SanDisk SDSSDHII + 1200GB INTEL SSDPE2MW012T4</text><text x="586" y="649" font-size="9" fill="#01579b" text-anchor="end" dominant-baseline="middle">2 x 960GB SanDisk SDSSDHII + 1200GB INTEL SSDPE2MW012T4</text><text x="586" y="640" font-size="9" fill="#009688" text-anchor="end" dominant-baseline="middle">2 x 960GB SanDisk SDSSDHII + 1200GB INTEL SSDPE2MW012T4</text><text x="586" y="631" font-size="9" fill="#4caf50" text-anchor="end" dominant-baseline="middle">2 x 960GB SanDisk SDSSDHII + 1200GB INTEL SSDPE2MW012T4</text><text x="586" y="622" font-size="9" fill="#ffeb3b" text-anchor="end" dominant-baseline="middle">2 x 960GB SanDisk SDSSDHII + 1200GB INTEL SSDPE2MW012T4</text></svg>
