<?xml version="1.0"?>
<!DOCTYPE svg PUBLIC "-//W3C//DTD SVG 1.1//EN" "http://www.w3.org/Graphics/SVG/1.1/DTD/svg11.dtd">
<!--Phoronix Test Suite v6.8.0m1 [ http://www.phoronix-test-suite.com/ ]-->
<svg xmlns="http://www.w3.org/2000/svg" xmlns:xlink="http://www.w3.org/1999/xlink" version="1.1" font-family="sans-serif, droid-sans, helvetica, verdana, tahoma" viewbox="0 0 600 698" width="600" height="698" preserveAspectRatio="xMinYMin meet">
  <rect x="0" y="0" width="600" height="698" fill="#FEFEFE" stroke="#757575" stroke-width="2"/>
  <rect x="0" y="0" width="600" height="48" fill="#231f20"/>
  <image xlink:href="https://openbenchmarking.org/static/images/pts-77x40-white.png" x="10" y="2" width="77" height="40"/>
  <text x="100" y="21" font-size="17" fill="#FEFEFE" text-anchor="start">2016-12-02-1519</text>
  <text x="100" y="33" font-size="9" fill="#FEFEFE" text-anchor="start" href="http://www.phoronix-test-suite.com/">Phoronix Test Suite 6.8.0m1</text>
  <path fill="#FEFEFE" stroke="#949494" stroke-width="1" stroke-dasharray="10,20" d="M35,98 L558,98 A523,523 0 0,1 35,621 Z"/>
  <text x="558" y="90" font-size="10" fill="#757575" text-anchor="middle">8.3</text>
  <line x1="558" y1="92" x2="558" y2="98" stroke="#757575" stroke-width="1"/>
  <text x="27" y="621" font-size="10" fill="#757575" text-anchor="end" dominant-baseline="middle">8.3</text>
  <line x1="29" y1="621" x2="35" y2="621" stroke="#757575" stroke-width="1"/>
  <path fill="#FEFEFE" stroke="#949494" stroke-width="1" stroke-dasharray="10,20" d="M35,98 L482,98 A447,447 0 0,1 35,545 Z"/>
  <text x="482" y="90" font-size="10" fill="#757575" text-anchor="middle">7.1</text>
  <line x1="482" y1="92" x2="482" y2="98" stroke="#757575" stroke-width="1"/>
  <text x="27" y="545" font-size="10" fill="#757575" text-anchor="end" dominant-baseline="middle">7.1</text>
  <line x1="29" y1="545" x2="35" y2="545" stroke="#757575" stroke-width="1"/>
  <path fill="#FEFEFE" stroke="#949494" stroke-width="1" stroke-dasharray="10,20" d="M35,98 L407,98 A372,372 0 0,1 35,470 Z"/>
  <text x="407" y="90" font-size="10" fill="#757575" text-anchor="middle">5.9</text>
  <line x1="407" y1="92" x2="407" y2="98" stroke="#757575" stroke-width="1"/>
  <text x="27" y="470" font-size="10" fill="#757575" text-anchor="end" dominant-baseline="middle">5.9</text>
  <line x1="29" y1="470" x2="35" y2="470" stroke="#757575" stroke-width="1"/>
  <path fill="#FEFEFE" stroke="#949494" stroke-width="1" stroke-dasharray="10,20" d="M35,98 L331,98 A296,296 0 0,1 35,394 Z"/>
  <text x="331" y="90" font-size="10" fill="#757575" text-anchor="middle">4.7</text>
  <line x1="331" y1="92" x2="331" y2="98" stroke="#757575" stroke-width="1"/>
  <text x="27" y="394" font-size="10" fill="#757575" text-anchor="end" dominant-baseline="middle">4.7</text>
  <line x1="29" y1="394" x2="35" y2="394" stroke="#757575" stroke-width="1"/>
  <path fill="#FEFEFE" stroke="#949494" stroke-width="1" stroke-dasharray="10,20" d="M35,98 L249,98 A214,214 0 0,1 35,312 Z"/>
  <text x="249" y="90" font-size="10" fill="#757575" text-anchor="middle">3.4</text>
  <line x1="249" y1="92" x2="249" y2="98" stroke="#757575" stroke-width="1"/>
  <text x="27" y="312" font-size="10" fill="#757575" text-anchor="end" dominant-baseline="middle">3.4</text>
  <line x1="29" y1="312" x2="35" y2="312" stroke="#757575" stroke-width="1"/>
  <path fill="#FEFEFE" stroke="#949494" stroke-width="1" stroke-dasharray="10,20" d="M35,98 L174,98 A139,139 0 0,1 35,237 Z"/>
  <text x="174" y="90" font-size="10" fill="#757575" text-anchor="middle">2.2</text>
  <line x1="174" y1="92" x2="174" y2="98" stroke="#757575" stroke-width="1"/>
  <text x="27" y="237" font-size="10" fill="#757575" text-anchor="end" dominant-baseline="middle">2.2</text>
  <line x1="29" y1="237" x2="35" y2="237" stroke="#757575" stroke-width="1"/>
  <path fill="#FEFEFE" stroke="#949494" stroke-width="1" stroke-dasharray="10,20" d="M35,98 L98,98 A63,63 0 0,1 35,161 Z"/>
  <text x="98" y="90" font-size="10" fill="#757575" text-anchor="middle">1.0</text>
  <line x1="98" y1="92" x2="98" y2="98" stroke="#757575" stroke-width="1"/>
  <text x="27" y="161" font-size="10" fill="#757575" text-anchor="end" dominant-baseline="middle">1.0</text>
  <line x1="29" y1="161" x2="35" y2="161" stroke="#757575" stroke-width="1"/>
  <line x1="35" y1="98" x2="590" y2="98" stroke="#757575" stroke-width="1"/>
  <line x1="35" y1="98" x2="35" y2="676" stroke="#757575" stroke-width="1"/>
  <line x1="590" y1="676" x2="590" y2="98" stroke="#757575" stroke-width="1"/>
  <line x1="35" y1="676" x2="590" y2="676" stroke="#757575" stroke-width="1"/>
  <polygon points="35,98 421,98 419,141" fill="#f44336" stroke="#065695" stroke-width="2" xlink:title="FS-Mark - F2FS-RAMDISK - 1.361x Faster Than EXT4-SSD"/>
  <polygon points="35,98 394,98 392,138" fill="#ff5722" stroke="#065695" stroke-width="2" xlink:title="FS-Mark - BTRFS-NVME - 1.335x Faster Than EXT4-SSD"/>
  <polygon points="35,98 321,98 319,130" fill="#009688" stroke="#065695" stroke-width="2" xlink:title="FS-Mark - F2FS-NVME - 1.333x Faster Than EXT4-SSD"/>
  <polygon points="35,98 320,98 319,130" fill="#9e9e9e" stroke="#065695" stroke-width="2" xlink:title="FS-Mark - BTRFS-SSD - 1.329x Faster Than EXT4-SSD"/>
  <polygon points="35,98 290,98 288,127" fill="#01579b" stroke="#065695" stroke-width="2" xlink:title="FS-Mark - BTRFS-RAMDISK - 1.328x Faster Than EXT4-SSD"/>
  <polygon points="35,98 284,98 282,126" fill="#e91e63" stroke="#065695" stroke-width="2" xlink:title="FS-Mark - F2FS-SSD - 1.322x Faster Than EXT4-SSD"/>
  <polygon points="35,98 112,98 111,107" fill="#673ab7" stroke="#065695" stroke-width="2" xlink:title="FS-Mark - EXT4-RAMDISK - 1.040x Faster Than EXT4-SSD"/>
  <polygon points="35,98 98,98 98,105" fill="#4caf50" stroke="#065695" stroke-width="2" xlink:title="FS-Mark - EXT4-NVME - 1.003x Faster Than EXT4-SSD"/>
  <polygon points="35,98 98,98 98,105" fill="#795548" stroke="#065695" stroke-width="2" xlink:title="FS-Mark - EXT4-SSD - 1.000x Faster Than EXT4-SSD"/>
  <polygon points="35,98 120,108 119,117" fill="#009688" stroke="#065695" stroke-width="2" xlink:title="FS-Mark - F2FS-NVME - 6.559x Faster Than BTRFS-SSD"/>
  <polygon points="35,98 119,107 117,117" fill="#4caf50" stroke="#065695" stroke-width="2" xlink:title="FS-Mark - EXT4-NVME - 6.023x Faster Than BTRFS-SSD"/>
  <polygon points="35,98 118,107 117,117" fill="#f44336" stroke="#065695" stroke-width="2" xlink:title="FS-Mark - F2FS-RAMDISK - 5.399x Faster Than BTRFS-SSD"/>
  <polygon points="35,98 118,107 117,117" fill="#ff5722" stroke="#065695" stroke-width="2" xlink:title="FS-Mark - BTRFS-NVME - 5.145x Faster Than BTRFS-SSD"/>
  <polygon points="35,98 118,107 117,117" fill="#673ab7" stroke="#065695" stroke-width="2" xlink:title="FS-Mark - EXT4-RAMDISK - 5.007x Faster Than BTRFS-SSD"/>
  <polygon points="35,98 118,107 116,117" fill="#01579b" stroke="#065695" stroke-width="2" xlink:title="FS-Mark - BTRFS-RAMDISK - 4.491x Faster Than BTRFS-SSD"/>
  <polygon points="35,98 100,105 99,113" fill="#e91e63" stroke="#065695" stroke-width="2" xlink:title="FS-Mark - F2FS-SSD - 1.403x Faster Than BTRFS-SSD"/>
  <polygon points="35,98 98,105 97,112" fill="#795548" stroke="#065695" stroke-width="2" xlink:title="FS-Mark - EXT4-SSD - 1.119x Faster Than BTRFS-SSD"/>
  <polygon points="35,98 98,105 96,112" fill="#9e9e9e" stroke="#065695" stroke-width="2" xlink:title="FS-Mark - BTRFS-SSD - 1.000x Faster Than BTRFS-SSD"/>
  <polygon points="35,98 438,190 425,234" fill="#673ab7" stroke="#065695" stroke-width="2" xlink:title="FS-Mark - EXT4-RAMDISK - 8.344x Faster Than BTRFS-SSD"/>
  <polygon points="35,98 405,182 393,223" fill="#f44336" stroke="#065695" stroke-width="2" xlink:title="FS-Mark - F2FS-RAMDISK - 4.929x Faster Than BTRFS-SSD"/>
  <polygon points="35,98 367,174 356,210" fill="#009688" stroke="#065695" stroke-width="2" xlink:title="FS-Mark - F2FS-NVME - 4.568x Faster Than BTRFS-SSD"/>
  <polygon points="35,98 351,170 341,205" fill="#ff5722" stroke="#065695" stroke-width="2" xlink:title="FS-Mark - BTRFS-NVME - 4.431x Faster Than BTRFS-SSD"/>
  <polygon points="35,98 343,168 333,202" fill="#4caf50" stroke="#065695" stroke-width="2" xlink:title="FS-Mark - EXT4-NVME - 4.104x Faster Than BTRFS-SSD"/>
  <polygon points="35,98 311,161 302,191" fill="#01579b" stroke="#065695" stroke-width="2" xlink:title="FS-Mark - BTRFS-RAMDISK - 1.300x Faster Than BTRFS-SSD"/>
  <polygon points="35,98 121,118 118,127" fill="#e91e63" stroke="#065695" stroke-width="2" xlink:title="FS-Mark - F2FS-SSD - 1.251x Faster Than BTRFS-SSD"/>
  <polygon points="35,98 104,114 102,121" fill="#795548" stroke="#065695" stroke-width="2" xlink:title="FS-Mark - EXT4-SSD - 1.241x Faster Than BTRFS-SSD"/>
  <polygon points="35,98 96,112 94,119" fill="#9e9e9e" stroke="#065695" stroke-width="2" xlink:title="FS-Mark - BTRFS-SSD - 1.000x Faster Than BTRFS-SSD"/>
  <polygon points="35,98 531,272 509,326" fill="#673ab7" stroke="#065695" stroke-width="2" xlink:title="Flexible IO Tester - EXT4-RAMDISK - 5.406x Faster Than BTRFS-RAMDISK"/>
  <polygon points="35,98 328,201 315,233" fill="#f44336" stroke="#065695" stroke-width="2" xlink:title="Flexible IO Tester - F2FS-RAMDISK - 4.114x Faster Than BTRFS-RAMDISK"/>
  <polygon points="35,98 307,193 294,223" fill="#009688" stroke="#065695" stroke-width="2" xlink:title="Flexible IO Tester - F2FS-NVME - 4.056x Faster Than BTRFS-RAMDISK"/>
  <polygon points="35,98 298,190 287,219" fill="#4caf50" stroke="#065695" stroke-width="2" xlink:title="Flexible IO Tester - EXT4-NVME - 3.890x Faster Than BTRFS-RAMDISK"/>
  <polygon points="35,98 279,183 268,210" fill="#795548" stroke="#065695" stroke-width="2" xlink:title="Flexible IO Tester - EXT4-SSD - 2.292x Faster Than BTRFS-RAMDISK"/>
  <polygon points="35,98 112,125 109,134" fill="#e91e63" stroke="#065695" stroke-width="2" xlink:title="Flexible IO Tester - F2FS-SSD - 2.275x Faster Than BTRFS-RAMDISK"/>
  <polygon points="35,98 109,124 106,132" fill="#9e9e9e" stroke="#065695" stroke-width="2" xlink:title="Flexible IO Tester - BTRFS-SSD - 1.393x Faster Than BTRFS-RAMDISK"/>
  <polygon points="35,98 109,124 105,132" fill="#ff5722" stroke="#065695" stroke-width="2" xlink:title="Flexible IO Tester - BTRFS-NVME - 1.280x Faster Than BTRFS-RAMDISK"/>
  <polygon points="35,98 94,119 92,125" fill="#01579b" stroke="#065695" stroke-width="2" xlink:title="Flexible IO Tester - BTRFS-RAMDISK - 1.000x Faster Than BTRFS-RAMDISK"/>
  <polygon points="35,98 342,246 323,279" fill="#009688" stroke="#065695" stroke-width="2" xlink:title="AIO-Stress - F2FS-NVME - 1.311x Faster Than EXT4-NVME"/>
  <polygon points="35,98 269,210 254,236" fill="#e91e63" stroke="#065695" stroke-width="2" xlink:title="AIO-Stress - F2FS-SSD - 1.307x Faster Than EXT4-NVME"/>
  <polygon points="35,98 265,209 251,234" fill="#f44336" stroke="#065695" stroke-width="2" xlink:title="AIO-Stress - F2FS-RAMDISK - 1.294x Faster Than EXT4-NVME"/>
  <polygon points="35,98 256,204 243,228" fill="#ff5722" stroke="#065695" stroke-width="2" xlink:title="AIO-Stress - BTRFS-NVME - 1.203x Faster Than EXT4-NVME"/>
  <polygon points="35,98 165,161 157,175" fill="#9e9e9e" stroke="#065695" stroke-width="2" xlink:title="AIO-Stress - BTRFS-SSD - 1.192x Faster Than EXT4-NVME"/>
  <polygon points="35,98 164,160 156,174" fill="#01579b" stroke="#065695" stroke-width="2" xlink:title="AIO-Stress - BTRFS-RAMDISK - 1.158x Faster Than EXT4-NVME"/>
  <polygon points="35,98 114,136 109,145" fill="#673ab7" stroke="#065695" stroke-width="2" xlink:title="AIO-Stress - EXT4-RAMDISK - 1.030x Faster Than EXT4-NVME"/>
  <polygon points="35,98 108,133 103,141" fill="#795548" stroke="#065695" stroke-width="2" xlink:title="AIO-Stress - EXT4-SSD - 1.023x Faster Than EXT4-NVME"/>
  <polygon points="35,98 92,125 88,132" fill="#4caf50" stroke="#065695" stroke-width="2" xlink:title="AIO-Stress - EXT4-NVME - 1.000x Faster Than EXT4-NVME"/>
  <polygon points="35,98 105,142 100,149" fill="#673ab7" stroke="#065695" stroke-width="2" xlink:title="Flexible IO Tester - EXT4-RAMDISK - 4.956x Faster Than BTRFS-SSD"/>
  <polygon points="35,98 105,142 99,149" fill="#f44336" stroke="#065695" stroke-width="2" xlink:title="Flexible IO Tester - F2FS-RAMDISK - 4.444x Faster Than BTRFS-SSD"/>
  <polygon points="35,98 104,141 99,149" fill="#ff5722" stroke="#065695" stroke-width="2" xlink:title="Flexible IO Tester - BTRFS-NVME - 2.713x Faster Than BTRFS-SSD"/>
  <polygon points="35,98 99,138 94,145" fill="#009688" stroke="#065695" stroke-width="2" xlink:title="Flexible IO Tester - F2FS-NVME - 2.503x Faster Than BTRFS-SSD"/>
  <polygon points="35,98 99,138 94,145" fill="#01579b" stroke="#065695" stroke-width="2" xlink:title="Flexible IO Tester - BTRFS-RAMDISK - 2.242x Faster Than BTRFS-SSD"/>
  <polygon points="35,98 97,137 92,143" fill="#4caf50" stroke="#065695" stroke-width="2" xlink:title="Flexible IO Tester - EXT4-NVME - 2.084x Faster Than BTRFS-SSD"/>
  <polygon points="35,98 90,133 86,138" fill="#e91e63" stroke="#065695" stroke-width="2" xlink:title="Flexible IO Tester - F2FS-SSD - 1.400x Faster Than BTRFS-SSD"/>
  <polygon points="35,98 90,132 85,138" fill="#795548" stroke="#065695" stroke-width="2" xlink:title="Flexible IO Tester - EXT4-SSD - 1.316x Faster Than BTRFS-SSD"/>
  <polygon points="35,98 88,132 84,137" fill="#9e9e9e" stroke="#065695" stroke-width="2" xlink:title="Flexible IO Tester - BTRFS-SSD - 1.000x Faster Than BTRFS-SSD"/>
  <polygon points="35,98 279,293 256,319" fill="#01579b" stroke="#065695" stroke-width="2" xlink:title="Flexible IO Tester - BTRFS-RAMDISK - 3.589x Faster Than EXT4-SSD"/>
  <polygon points="35,98 254,273 233,296" fill="#ff5722" stroke="#065695" stroke-width="2" xlink:title="Flexible IO Tester - BTRFS-NVME - 2.697x Faster Than EXT4-SSD"/>
  <polygon points="35,98 169,205 156,219" fill="#673ab7" stroke="#065695" stroke-width="2" xlink:title="Flexible IO Tester - EXT4-RAMDISK - 2.604x Faster Than EXT4-SSD"/>
  <polygon points="35,98 158,196 147,210" fill="#f44336" stroke="#065695" stroke-width="2" xlink:title="Flexible IO Tester - F2FS-RAMDISK - 1.982x Faster Than EXT4-SSD"/>
  <polygon points="35,98 145,186 135,198" fill="#009688" stroke="#065695" stroke-width="2" xlink:title="Flexible IO Tester - F2FS-NVME - 1.957x Faster Than EXT4-SSD"/>
  <polygon points="35,98 138,180 128,191" fill="#4caf50" stroke="#065695" stroke-width="2" xlink:title="Flexible IO Tester - EXT4-NVME - 1.781x Faster Than EXT4-SSD"/>
  <polygon points="35,98 104,153 97,160" fill="#9e9e9e" stroke="#065695" stroke-width="2" xlink:title="Flexible IO Tester - BTRFS-SSD - 1.198x Faster Than EXT4-SSD"/>
  <polygon points="35,98 100,150 94,157" fill="#e91e63" stroke="#065695" stroke-width="2" xlink:title="Flexible IO Tester - F2FS-SSD - 1.050x Faster Than EXT4-SSD"/>
  <polygon points="35,98 84,137 80,143" fill="#795548" stroke="#065695" stroke-width="2" xlink:title="Flexible IO Tester - EXT4-SSD - 1.000x Faster Than EXT4-SSD"/>
  <polygon points="35,98 195,258 176,275" fill="#009688" stroke="#065695" stroke-width="2" xlink:title="Compile Bench - F2FS-NVME - 2.659x Faster Than BTRFS-SSD"/>
  <polygon points="35,98 155,218 141,231" fill="#f44336" stroke="#065695" stroke-width="2" xlink:title="Compile Bench - F2FS-RAMDISK - 2.656x Faster Than BTRFS-SSD"/>
  <polygon points="35,98 151,214 137,226" fill="#e91e63" stroke="#065695" stroke-width="2" xlink:title="Compile Bench - F2FS-SSD - 2.566x Faster Than BTRFS-SSD"/>
  <polygon points="35,98 123,186 113,196" fill="#4caf50" stroke="#065695" stroke-width="2" xlink:title="Compile Bench - EXT4-NVME - 2.055x Faster Than BTRFS-SSD"/>
  <polygon points="35,98 122,185 112,194" fill="#673ab7" stroke="#065695" stroke-width="2" xlink:title="Compile Bench - EXT4-RAMDISK - 2.034x Faster Than BTRFS-SSD"/>
  <polygon points="35,98 114,177 105,186" fill="#795548" stroke="#065695" stroke-width="2" xlink:title="Compile Bench - EXT4-SSD - 2.032x Faster Than BTRFS-SSD"/>
  <polygon points="35,98 88,151 82,157" fill="#ff5722" stroke="#065695" stroke-width="2" xlink:title="Compile Bench - BTRFS-NVME - 1.329x Faster Than BTRFS-SSD"/>
  <polygon points="35,98 82,145 76,150" fill="#01579b" stroke="#065695" stroke-width="2" xlink:title="Compile Bench - BTRFS-RAMDISK - 1.162x Faster Than BTRFS-SSD"/>
  <polygon points="35,98 80,143 74,147" fill="#9e9e9e" stroke="#065695" stroke-width="2" xlink:title="Compile Bench - BTRFS-SSD - 1.000x Faster Than BTRFS-SSD"/>
  <polygon points="35,98 139,229 124,240" fill="#01579b" stroke="#065695" stroke-width="2" xlink:title="IOzone - BTRFS-RAMDISK - 1.383x Faster Than EXT4-SSD"/>
  <polygon points="35,98 139,229 124,240" fill="#f44336" stroke="#065695" stroke-width="2" xlink:title="IOzone - F2FS-RAMDISK - 1.326x Faster Than EXT4-SSD"/>
  <polygon points="35,98 136,224 121,235" fill="#673ab7" stroke="#065695" stroke-width="2" xlink:title="IOzone - EXT4-RAMDISK - 1.151x Faster Than EXT4-SSD"/>
  <polygon points="35,98 116,199 104,208" fill="#009688" stroke="#065695" stroke-width="2" xlink:title="IOzone - F2FS-NVME - 1.042x Faster Than EXT4-SSD"/>
  <polygon points="35,98 115,198 103,207" fill="#e91e63" stroke="#065695" stroke-width="2" xlink:title="IOzone - F2FS-SSD - 1.038x Faster Than EXT4-SSD"/>
  <polygon points="35,98 115,198 103,206" fill="#9e9e9e" stroke="#065695" stroke-width="2" xlink:title="IOzone - BTRFS-SSD - 1.027x Faster Than EXT4-SSD"/>
  <polygon points="35,98 87,163 80,169" fill="#ff5722" stroke="#065695" stroke-width="2" xlink:title="IOzone - BTRFS-NVME - 1.013x Faster Than EXT4-SSD"/>
  <polygon points="35,98 81,155 74,160" fill="#4caf50" stroke="#065695" stroke-width="2" xlink:title="IOzone - EXT4-NVME - 1.005x Faster Than EXT4-SSD"/>
  <polygon points="35,98 74,147 69,151" fill="#795548" stroke="#065695" stroke-width="2" xlink:title="IOzone - EXT4-SSD - 1.000x Faster Than EXT4-SSD"/>
  <polygon points="35,98 81,172 73,177" fill="#f44336" stroke="#065695" stroke-width="2" xlink:title="IOzone - F2FS-RAMDISK - 2.731x Faster Than EXT4-SSD"/>
  <polygon points="35,98 79,169 71,173" fill="#673ab7" stroke="#065695" stroke-width="2" xlink:title="IOzone - EXT4-RAMDISK - 2.582x Faster Than EXT4-SSD"/>
  <polygon points="35,98 74,159 66,163" fill="#01579b" stroke="#065695" stroke-width="2" xlink:title="IOzone - BTRFS-RAMDISK - 2.536x Faster Than EXT4-SSD"/>
  <polygon points="35,98 70,154 63,157" fill="#ff5722" stroke="#065695" stroke-width="2" xlink:title="IOzone - BTRFS-NVME - 2.126x Faster Than EXT4-SSD"/>
  <polygon points="35,98 70,153 63,157" fill="#009688" stroke="#065695" stroke-width="2" xlink:title="IOzone - F2FS-NVME - 2.068x Faster Than EXT4-SSD"/>
  <polygon points="35,98 69,153 63,156" fill="#4caf50" stroke="#065695" stroke-width="2" xlink:title="IOzone - EXT4-NVME - 1.835x Faster Than EXT4-SSD"/>
  <polygon points="35,98 69,152 63,155" fill="#9e9e9e" stroke="#065695" stroke-width="2" xlink:title="IOzone - BTRFS-SSD - 1.069x Faster Than EXT4-SSD"/>
  <polygon points="35,98 69,152 62,155" fill="#e91e63" stroke="#065695" stroke-width="2" xlink:title="IOzone - F2FS-SSD - 1.065x Faster Than EXT4-SSD"/>
  <polygon points="35,98 69,151 62,155" fill="#795548" stroke="#065695" stroke-width="2" xlink:title="IOzone - EXT4-SSD - 1.000x Faster Than EXT4-SSD"/>
  <polygon points="35,98 110,253 92,260" fill="#f44336" stroke="#065695" stroke-width="2" xlink:title="Threaded I/O Tester - F2FS-RAMDISK - 1.456x Faster Than BTRFS-NVME"/>
  <polygon points="35,98 106,245 89,252" fill="#4caf50" stroke="#065695" stroke-width="2" xlink:title="Threaded I/O Tester - EXT4-NVME - 1.374x Faster Than BTRFS-NVME"/>
  <polygon points="35,98 104,242 88,249" fill="#673ab7" stroke="#065695" stroke-width="2" xlink:title="Threaded I/O Tester - EXT4-RAMDISK - 1.313x Faster Than BTRFS-NVME"/>
  <polygon points="35,98 93,219 79,224" fill="#009688" stroke="#065695" stroke-width="2" xlink:title="Threaded I/O Tester - F2FS-NVME - 1.301x Faster Than BTRFS-NVME"/>
  <polygon points="35,98 92,215 78,221" fill="#795548" stroke="#065695" stroke-width="2" xlink:title="Threaded I/O Tester - EXT4-SSD - 1.224x Faster Than BTRFS-NVME"/>
  <polygon points="35,98 85,202 73,207" fill="#e91e63" stroke="#065695" stroke-width="2" xlink:title="Threaded I/O Tester - F2FS-SSD - 1.222x Faster Than BTRFS-NVME"/>
  <polygon points="35,98 64,159 57,162" fill="#9e9e9e" stroke="#065695" stroke-width="2" xlink:title="Threaded I/O Tester - BTRFS-SSD - 1.148x Faster Than BTRFS-NVME"/>
  <polygon points="35,98 64,158 57,161" fill="#01579b" stroke="#065695" stroke-width="2" xlink:title="Threaded I/O Tester - BTRFS-RAMDISK - 1.003x Faster Than BTRFS-NVME"/>
  <polygon points="35,98 62,155 56,157" fill="#ff5722" stroke="#065695" stroke-width="2" xlink:title="Threaded I/O Tester - BTRFS-NVME - 1.000x Faster Than BTRFS-NVME"/>
  <polygon points="35,98 65,185 55,187" fill="#673ab7" stroke="#065695" stroke-width="2" xlink:title="Unpacking The Linux Kernel - EXT4-RAMDISK - 1.197x Faster Than BTRFS-RAMDISK"/>
  <polygon points="35,98 64,180 54,182" fill="#f44336" stroke="#065695" stroke-width="2" xlink:title="Unpacking The Linux Kernel - F2FS-RAMDISK - 1.193x Faster Than BTRFS-RAMDISK"/>
  <polygon points="35,98 62,176 53,179" fill="#e91e63" stroke="#065695" stroke-width="2" xlink:title="Unpacking The Linux Kernel - F2FS-SSD - 1.188x Faster Than BTRFS-RAMDISK"/>
  <polygon points="35,98 62,175 53,178" fill="#795548" stroke="#065695" stroke-width="2" xlink:title="Unpacking The Linux Kernel - EXT4-SSD - 1.186x Faster Than BTRFS-RAMDISK"/>
  <polygon points="35,98 60,171 52,173" fill="#009688" stroke="#065695" stroke-width="2" xlink:title="Unpacking The Linux Kernel - F2FS-NVME - 1.186x Faster Than BTRFS-RAMDISK"/>
  <polygon points="35,98 60,171 52,173" fill="#4caf50" stroke="#065695" stroke-width="2" xlink:title="Unpacking The Linux Kernel - EXT4-NVME - 1.177x Faster Than BTRFS-RAMDISK"/>
  <polygon points="35,98 59,166 51,169" fill="#ff5722" stroke="#065695" stroke-width="2" xlink:title="Unpacking The Linux Kernel - BTRFS-NVME - 1.037x Faster Than BTRFS-RAMDISK"/>
  <polygon points="35,98 56,158 49,160" fill="#9e9e9e" stroke="#065695" stroke-width="2" xlink:title="Unpacking The Linux Kernel - BTRFS-SSD - 1.015x Faster Than BTRFS-RAMDISK"/>
  <polygon points="35,98 56,157 49,159" fill="#01579b" stroke="#065695" stroke-width="2" xlink:title="Unpacking The Linux Kernel - BTRFS-RAMDISK - 1.000x Faster Than BTRFS-RAMDISK"/>
  <polygon points="35,98 52,172 35,173" fill="#009688" stroke="#065695" stroke-width="2" xlink:title="PostMark - F2FS-NVME - 1.266x Faster Than EXT4-SSD"/>
  <polygon points="35,98 52,171 35,173" fill="#f44336" stroke="#065695" stroke-width="2" xlink:title="PostMark - F2FS-RAMDISK - 1.257x Faster Than EXT4-SSD"/>
  <polygon points="35,98 52,171 35,173" fill="#e91e63" stroke="#065695" stroke-width="2" xlink:title="PostMark - F2FS-SSD - 1.257x Faster Than EXT4-SSD"/>
  <polygon points="35,98 52,171 35,173" fill="#673ab7" stroke="#065695" stroke-width="2" xlink:title="PostMark - EXT4-RAMDISK - 1.054x Faster Than EXT4-SSD"/>
  <polygon points="35,98 52,171 35,173" fill="#01579b" stroke="#065695" stroke-width="2" xlink:title="PostMark - BTRFS-RAMDISK - 1.041x Faster Than EXT4-SSD"/>
  <polygon points="35,98 52,170 35,172" fill="#4caf50" stroke="#065695" stroke-width="2" xlink:title="PostMark - EXT4-NVME - 1.041x Faster Than EXT4-SSD"/>
  <polygon points="35,98 50,162 35,163" fill="#ff5722" stroke="#065695" stroke-width="2" xlink:title="PostMark - BTRFS-NVME - 1.009x Faster Than EXT4-SSD"/>
  <polygon points="35,98 49,160 35,162" fill="#9e9e9e" stroke="#065695" stroke-width="2" xlink:title="PostMark - BTRFS-SSD - 1.002x Faster Than EXT4-SSD"/>
  <polygon points="35,98 49,159 35,161" fill="#795548" stroke="#065695" stroke-width="2" xlink:title="PostMark - EXT4-SSD - 1.000x Faster Than EXT4-SSD"/>
  <path fill="#FEFEFE" stroke="#757575" stroke-width="1" d="M35,98 L98,98 A63,63 0 0,1 35,161 Z"/>
  <text x="77.277910748875" y="135.78185096988" font-size="11" fill="#C80000" text-anchor="end" dominant-baseline="middle">Disk</text>
  <text x="586" y="667" font-size="9" fill="#f44336" text-anchor="end" dominant-baseline="middle">2 x 960GB SanDisk SDSSDHII + 1200GB INTEL SSDPE2MW012T4</text>
  <text x="586" y="658" font-size="9" fill="#673ab7" text-anchor="end" dominant-baseline="middle">2 x 960GB SanDisk SDSSDHII + 1200GB INTEL SSDPE2MW012T4</text>
  <text x="586" y="649" font-size="9" fill="#01579b" text-anchor="end" dominant-baseline="middle">2 x 960GB SanDisk SDSSDHII + 1200GB INTEL SSDPE2MW012T4</text>
  <text x="586" y="640" font-size="9" fill="#009688" text-anchor="end" dominant-baseline="middle">2 x 960GB SanDisk SDSSDHII + 1200GB INTEL SSDPE2MW012T4</text>
  <text x="586" y="631" font-size="9" fill="#4caf50" text-anchor="end" dominant-baseline="middle">2 x 960GB SanDisk SDSSDHII + 1200GB INTEL SSDPE2MW012T4</text>
  <text x="586" y="622" font-size="9" fill="#ff5722" text-anchor="end" dominant-baseline="middle">2 x 960GB SanDisk SDSSDHII + 1200GB INTEL SSDPE2MW012T4</text>
  <text x="586" y="613" font-size="9" fill="#e91e63" text-anchor="end" dominant-baseline="middle">2 x 960GB SanDisk SDSSDHII + 1200GB INTEL SSDPE2MW012T4</text>
  <text x="586" y="604" font-size="9" fill="#795548" text-anchor="end" dominant-baseline="middle">2 x 960GB SanDisk SDSSDHII + 1200GB INTEL SSDPE2MW012T4</text>
  <text x="586" y="595" font-size="9" fill="#9e9e9e" text-anchor="end" dominant-baseline="middle">2 x 960GB SanDisk SDSSDHII + 1200GB INTEL SSDPE2MW012T4</text>
</svg>
