<?xml version="1.0"?>
<!DOCTYPE svg PUBLIC "-//W3C//DTD SVG 1.1//EN" "http://www.w3.org/Graphics/SVG/1.1/DTD/svg11.dtd">
<!--Phoronix Test Suite v6.4.0 [ http://www.phoronix-test-suite.com/ ]-->
<svg xmlns="http://www.w3.org/2000/svg" xmlns:xlink="http://www.w3.org/1999/xlink" version="1.1" font-family="sans-serif, droid-sans, helvetica, verdana, tahoma" viewbox="0 0 1131 345" width="1131" height="345" preserveAspectRatio="xMinYMin meet"><rect x="0" y="0" width="1131" height="345" fill="#FEFEFE" stroke="#757575" stroke-width="2"/><rect x="1" y="1" width="1130" height="344" fill="#FEFEFE" stroke="#757575" stroke-width="1"/><path d="m74 22v9m-5-16v16m-5-28v28m-23-2h12.5c2.485281 0 4.5-2.014719 4.5-4.5s-2.014719-4.5-4.5-4.5h-8c-2.485281 0-4.5-2.014719-4.5-4.5s2.014719-4.5 4.5-4.5h12.5m-21 5h-11m11 13h-2c-4.970563 0-9-4.029437-9-9v-20m-24 40v-20c0-4.970563 4.0294373-9 9-9 4.970563 0 9 4.029437 9 9s-4.029437 9-9 9h-9" stroke="#000000" stroke-width="4" fill="none" transform="translate(488,28)"/><line x1="1056" y1="177" x2="1131" y2="177" stroke="#BABABA" stroke-width="304" stroke-dasharray="75,75"/><line x1="566" y1="73" x2="566" y2="329" stroke="#949494" stroke-width="1131" stroke-dasharray="16,16"/><line x1="1056" y1="177" x2="1131" y2="177" stroke="#757575" stroke-width="304" stroke-dasharray="1,74"/><rect x="1" y="1" width="1129" height="25" fill="#231f20"/><text x="5" y="19" font-size="17" fill="#FEFEFE" text-anchor="start">2016-08-29-1932</text><line x1="1" y1="25" x2="1130" y2="25" stroke="#757575" stroke-width="1"/><g font-size="10" font-weight="bold" text-anchor="end" fill="#065695"><a xlink:href="http://openbenchmarking.org/test/pts/aio-stress-1.1.1" xlink:show="new"><text x="1054" y="85" fill="#065695">aio-stress: Test: Random Write</text></a><a xlink:href="http://openbenchmarking.org/test/pts/fio-1.8.2" xlink:show="new"><text x="1054" y="101" fill="#065695">fio: Type: Random Read - IO Engine: Sync - Buffered: Yes - Direct: No - Block Size: 4KB - Disk Target: Default Test Directory - Result: IOPS</text></a><a xlink:href="http://openbenchmarking.org/test/pts/fio-1.8.2" xlink:show="new"><text x="1054" y="117" fill="#065695">fio: Type: Random Write - IO Engine: Sync - Buffered: Yes - Direct: No - Block Size: 4KB - Disk Target: Default Test Directory - Result: IOPS</text></a><a xlink:href="http://openbenchmarking.org/test/pts/fio-1.8.2" xlink:show="new"><text x="1054" y="133" fill="#065695">fio: Type: Sequential Read - IO Engine: Sync - Buffered: Yes - Direct: No - Block Size: 1MB - Disk Target: Default Test Directory - Result: MB/s</text></a><a xlink:href="http://openbenchmarking.org/test/pts/fio-1.8.2" xlink:show="new"><text x="1054" y="149" fill="#065695">fio: Type: Sequential Write - IO Engine: Sync - Buffered: Yes - Direct: No - Block Size: 1MB - Disk Target: Default Test Directory - Result: MB/s</text></a><a xlink:href="http://openbenchmarking.org/test/pts/fs-mark-1.0.1" xlink:show="new"><text x="1054" y="165" fill="#065695">fs-mark: Test: 1000 Files, 1MB Size</text></a><a xlink:href="http://openbenchmarking.org/test/pts/fs-mark-1.0.1" xlink:show="new"><text x="1054" y="181" fill="#065695">fs-mark: Test: 5000 Files, 1MB Size, 4 Threads</text></a><a xlink:href="http://openbenchmarking.org/test/pts/fs-mark-1.0.1" xlink:show="new"><text x="1054" y="197" fill="#065695">fs-mark: Test: 4000 Files, 32 Sub Dirs, 1MB Size</text></a><a xlink:href="http://openbenchmarking.org/test/pts/fs-mark-1.0.1" xlink:show="new"><text x="1054" y="213" fill="#065695">fs-mark: Test: 1000 Files, 1MB Size, No Sync/FSync</text></a><a xlink:href="http://openbenchmarking.org/test/pts/dbench-1.0.0" xlink:show="new"><text x="1054" y="229" fill="#065695">dbench: Client Count: 6</text></a><a xlink:href="http://openbenchmarking.org/test/pts/iozone-1.8.0" xlink:show="new"><text x="1054" y="245" fill="#065695">iozone: Record Size: 1MB - File Size: 2GB - Disk Test: Read Performance</text></a><a xlink:href="http://openbenchmarking.org/test/pts/iozone-1.8.0" xlink:show="new"><text x="1054" y="261" fill="#065695">iozone: Record Size: 1MB - File Size: 2GB - Disk Test: Write Performance</text></a><a xlink:href="http://openbenchmarking.org/test/pts/tiobench-1.2.0" xlink:show="new"><text x="1054" y="277" fill="#065695">tiobench: Test: Random Read - Size Per Thread: 64MB - Thread Count: 4</text></a><a xlink:href="http://openbenchmarking.org/test/pts/tiobench-1.2.0" xlink:show="new"><text x="1054" y="293" fill="#065695">tiobench: Test: Random Write - Size Per Thread: 64MB - Thread Count: 4</text></a><a xlink:href="http://openbenchmarking.org/test/pts/unpack-linux-1.0.0" xlink:show="new"><text x="1054" y="309" fill="#065695">unpack-linux: linux-2.6.32.tar.bz2</text></a><a xlink:href="http://openbenchmarking.org/test/pts/postmark-1.1.0" xlink:show="new"><text x="1054" y="325" fill="#065695">postmark: Disk Transaction Performance</text></a></g><g font-size="10" fill="#065695" font-weight="bold" text-anchor="middle" dominant-baseline="text-before-edge"><text x="1093.5" y="49">F2FS-NVME</text></g><g/><g text-anchor="middle" font-size="10"><text x="1093.5" y="86" fill="#065695" xlink:title="STD Dev: 0.32%;  STD Error: 6.09">3303.83</text><text x="1093.5" y="102" fill="#065695" xlink:title="STD Dev: 0.26%;  STD Error: 16.27">10935</text><text x="1093.5" y="118" fill="#065695" xlink:title="STD Dev: 1.42%;  STD Error: 1779.04">216550</text><text x="1093.5" y="134" fill="#065695" xlink:title="STD Dev: 0.24%;  STD Error: 1.28">937.49</text><text x="1093.5" y="150" fill="#065695" xlink:title="STD Dev: 0.28%;  STD Error: 1.47">917.01</text><text x="1093.5" y="166" fill="#065695" xlink:title="STD Dev: 0.62%;  STD Error: 3.70">1038.00</text><text x="1093.5" y="182" fill="#065695" xlink:title="STD Dev: 3.26%;  STD Error: 14.52">1090.62</text><text x="1093.5" y="198" fill="#065695" xlink:title="STD Dev: 3.88%;  STD Error: 16.20">1023.53</text><text x="1093.5" y="214" fill="#065695" xlink:title="STD Dev: 0.32%;  STD Error: 4.65">2534.57</text><text x="1093.5" y="230" fill="#065695" xlink:title="STD Dev: 0.51%;  STD Error: 14.22">4863.33</text><text x="1093.5" y="246" fill="#065695" xlink:title="STD Dev: 1.35%;  STD Error: 48.84">6271.35</text><text x="1093.5" y="262" fill="#065695" xlink:title="STD Dev: 1.87%;  STD Error: 9.02">835.02</text><text x="1093.5" y="278" fill="#065695" xlink:title="STD Dev: 31.60%;  STD Error: 1249.88">9689.24</text><text x="1093.5" y="294" fill="#065695" xlink:title="STD Dev: 7.76%;  STD Error: 21.56">680.41</text><text x="1093.5" y="310" fill="#065695" xlink:title="STD Dev: 2.44%;  STD Error: 0.15">12.49</text><text x="1093.5" y="326" fill="#065695" xlink:title="STD Dev: 1.23%;  STD Error: 38.33">5396</text></g><line x1="566" y1="73" x2="566" y2="329" stroke="#949494" stroke-width="1131" stroke-dasharray="1,15"/><rect x="0" y="329" width="1131" height="16" fill="#231f20"/><a xlink:href="http://www.phoronix-test-suite.com/" xlink:show="new"><text x="1129" y="342" font-size="10" fill="#FFFFFF" text-anchor="end" xlink:show="new">PHORONIX-TEST-SUITE.COM</text></a></svg>
