<?xml version="1.0"?>
<!DOCTYPE svg PUBLIC "-//W3C//DTD SVG 1.1//EN" "http://www.w3.org/Graphics/SVG/1.1/DTD/svg11.dtd">
<!--Phoronix Test Suite v6.4.0 [ http://www.phoronix-test-suite.com/ ]-->
<svg xmlns="http://www.w3.org/2000/svg" xmlns:xlink="http://www.w3.org/1999/xlink" version="1.1" font-family="sans-serif, droid-sans, helvetica, verdana, tahoma" viewbox="0 0 600 698" width="600" height="698" preserveAspectRatio="xMinYMin meet"><rect x="0" y="0" width="600" height="698" fill="#FEFEFE" stroke="#757575" stroke-width="2"/><rect x="0" y="0" width="600" height="48" fill="#231f20"/><image xlink:href="https://openbenchmarking.org/static/images/pts-77x40-white.png" x="10" y="2" width="77" height="40"/><text x="100" y="21" font-size="17" fill="#FEFEFE" text-anchor="start">2016-07-21-1000</text><text x="100" y="33" font-size="9" fill="#FEFEFE" text-anchor="start" href="http://www.phoronix-test-suite.com/">Phoronix Test Suite 6.4.0</text><path fill="#FEFEFE" stroke="#949494" stroke-width="1" stroke-dasharray="10,20" d="M35,98 L563,98 A528,528 0 0,1 35,626 Z"/><text x="563" y="90" font-size="10" fill="#757575" text-anchor="middle">4.4</text><line x1="563" y1="92" x2="563" y2="98" stroke="#757575" stroke-width="1"/><text x="27" y="626" font-size="10" fill="#757575" text-anchor="end" dominant-baseline="middle">4.4</text><line x1="29" y1="626" x2="35" y2="626" stroke="#757575" stroke-width="1"/><path fill="#FEFEFE" stroke="#949494" stroke-width="1" stroke-dasharray="10,20" d="M35,98 L491,98 A456,456 0 0,1 35,554 Z"/><text x="491" y="90" font-size="10" fill="#757575" text-anchor="middle">3.8</text><line x1="491" y1="92" x2="491" y2="98" stroke="#757575" stroke-width="1"/><text x="27" y="554" font-size="10" fill="#757575" text-anchor="end" dominant-baseline="middle">3.8</text><line x1="29" y1="554" x2="35" y2="554" stroke="#757575" stroke-width="1"/><path fill="#FEFEFE" stroke="#949494" stroke-width="1" stroke-dasharray="10,20" d="M35,98 L431,98 A396,396 0 0,1 35,494 Z"/><text x="431" y="90" font-size="10" fill="#757575" text-anchor="middle">3.3</text><line x1="431" y1="92" x2="431" y2="98" stroke="#757575" stroke-width="1"/><text x="27" y="494" font-size="10" fill="#757575" text-anchor="end" dominant-baseline="middle">3.3</text><line x1="29" y1="494" x2="35" y2="494" stroke="#757575" stroke-width="1"/><path fill="#FEFEFE" stroke="#949494" stroke-width="1" stroke-dasharray="10,20" d="M35,98 L359,98 A324,324 0 0,1 35,422 Z"/><text x="359" y="90" font-size="10" fill="#757575" text-anchor="middle">2.7</text><line x1="359" y1="92" x2="359" y2="98" stroke="#757575" stroke-width="1"/><text x="27" y="422" font-size="10" fill="#757575" text-anchor="end" dominant-baseline="middle">2.7</text><line x1="29" y1="422" x2="35" y2="422" stroke="#757575" stroke-width="1"/><path fill="#FEFEFE" stroke="#949494" stroke-width="1" stroke-dasharray="10,20" d="M35,98 L287,98 A252,252 0 0,1 35,350 Z"/><text x="287" y="90" font-size="10" fill="#757575" text-anchor="middle">2.1</text><line x1="287" y1="92" x2="287" y2="98" stroke="#757575" stroke-width="1"/><text x="27" y="350" font-size="10" fill="#757575" text-anchor="end" dominant-baseline="middle">2.1</text><line x1="29" y1="350" x2="35" y2="350" stroke="#757575" stroke-width="1"/><path fill="#FEFEFE" stroke="#949494" stroke-width="1" stroke-dasharray="10,20" d="M35,98 L227,98 A192,192 0 0,1 35,290 Z"/><text x="227" y="90" font-size="10" fill="#757575" text-anchor="middle">1.6</text><line x1="227" y1="92" x2="227" y2="98" stroke="#757575" stroke-width="1"/><text x="27" y="290" font-size="10" fill="#757575" text-anchor="end" dominant-baseline="middle">1.6</text><line x1="29" y1="290" x2="35" y2="290" stroke="#757575" stroke-width="1"/><path fill="#FEFEFE" stroke="#949494" stroke-width="1" stroke-dasharray="10,20" d="M35,98 L155,98 A120,120 0 0,1 35,218 Z"/><text x="155" y="90" font-size="10" fill="#757575" text-anchor="middle">1.0</text><line x1="155" y1="92" x2="155" y2="98" stroke="#757575" stroke-width="1"/><text x="27" y="218" font-size="10" fill="#757575" text-anchor="end" dominant-baseline="middle">1.0</text><line x1="29" y1="218" x2="35" y2="218" stroke="#757575" stroke-width="1"/><line x1="35" y1="98" x2="590" y2="98" stroke="#757575" stroke-width="1"/><line x1="35" y1="98" x2="35" y2="676" stroke="#757575" stroke-width="1"/><line x1="590" y1="676" x2="590" y2="98" stroke="#757575" stroke-width="1"/><line x1="35" y1="676" x2="590" y2="676" stroke="#757575" stroke-width="1"/><polygon points="35,98 285,98 283,131" fill="#673ab7" stroke="#065695" stroke-width="2" xlink:title="Flexible IO Tester - EXT4-NVME - 1.397x Faster Than EXT4-SSD"/><polygon points="35,98 270,98 268,129" fill="#f44336" stroke="#065695" stroke-width="2" xlink:title="Flexible IO Tester - F2FS-NVME - 1.392x Faster Than EXT4-SSD"/><polygon points="35,98 217,98 215,122" fill="#01579b" stroke="#065695" stroke-width="2" xlink:title="Flexible IO Tester - XFS-NVME - 1.386x Faster Than EXT4-SSD"/><polygon points="35,98 205,98 203,120" fill="#009688" stroke="#065695" stroke-width="2" xlink:title="Flexible IO Tester - F2FS-SSD - 1.080x Faster Than EXT4-SSD"/><polygon points="35,98 204,98 203,120" fill="#ffeb3b" stroke="#065695" stroke-width="2" xlink:title="Flexible IO Tester - XFS-SSD - 1.074x Faster Than EXT4-SSD"/><polygon points="35,98 155,98 154,114" fill="#4caf50" stroke="#065695" stroke-width="2" xlink:title="Flexible IO Tester - EXT4-SSD - 1.000x Faster Than EXT4-SSD"/><polygon points="35,98 201,120 197,141" fill="#f44336" stroke="#065695" stroke-width="2" xlink:title="Flexible IO Tester - F2FS-NVME - 2.964x Faster Than XFS-SSD"/><polygon points="35,98 201,120 196,141" fill="#01579b" stroke="#065695" stroke-width="2" xlink:title="Flexible IO Tester - XFS-NVME - 2.833x Faster Than XFS-SSD"/><polygon points="35,98 200,120 196,141" fill="#673ab7" stroke="#065695" stroke-width="2" xlink:title="Flexible IO Tester - EXT4-NVME - 2.670x Faster Than XFS-SSD"/><polygon points="35,98 163,115 160,132" fill="#009688" stroke="#065695" stroke-width="2" xlink:title="Flexible IO Tester - F2FS-SSD - 1.595x Faster Than XFS-SSD"/><polygon points="35,98 163,115 159,131" fill="#4caf50" stroke="#065695" stroke-width="2" xlink:title="Flexible IO Tester - EXT4-SSD - 1.007x Faster Than XFS-SSD"/><polygon points="35,98 154,114 151,129" fill="#ffeb3b" stroke="#065695" stroke-width="2" xlink:title="Flexible IO Tester - XFS-SSD - 1.000x Faster Than XFS-SSD"/><polygon points="35,98 379,190 364,234" fill="#f44336" stroke="#065695" stroke-width="2" xlink:title="AIO-Stress - F2FS-NVME - 4.404x Faster Than XFS-SSD"/><polygon points="35,98 363,186 349,228" fill="#673ab7" stroke="#065695" stroke-width="2" xlink:title="AIO-Stress - EXT4-NVME - 2.454x Faster Than XFS-SSD"/><polygon points="35,98 344,181 331,221" fill="#4caf50" stroke="#065695" stroke-width="2" xlink:title="AIO-Stress - EXT4-SSD - 2.318x Faster Than XFS-SSD"/><polygon points="35,98 220,148 212,171" fill="#009688" stroke="#065695" stroke-width="2" xlink:title="AIO-Stress - F2FS-SSD - 1.930x Faster Than XFS-SSD"/><polygon points="35,98 152,129 147,144" fill="#01579b" stroke="#065695" stroke-width="2" xlink:title="AIO-Stress - XFS-NVME - 1.875x Faster Than XFS-SSD"/><polygon points="35,98 151,129 146,144" fill="#ffeb3b" stroke="#065695" stroke-width="2" xlink:title="AIO-Stress - XFS-SSD - 1.000x Faster Than XFS-SSD"/><polygon points="35,98 523,300 493,362" fill="#f44336" stroke="#065695" stroke-width="2" xlink:title="Flexible IO Tester - F2FS-NVME - 2.552x Faster Than EXT4-SSD"/><polygon points="35,98 307,211 290,245" fill="#01579b" stroke="#065695" stroke-width="2" xlink:title="Flexible IO Tester - XFS-NVME - 2.216x Faster Than EXT4-SSD"/><polygon points="35,98 292,204 276,237" fill="#673ab7" stroke="#065695" stroke-width="2" xlink:title="Flexible IO Tester - EXT4-NVME - 2.197x Faster Than EXT4-SSD"/><polygon points="35,98 249,187 236,214" fill="#009688" stroke="#065695" stroke-width="2" xlink:title="Flexible IO Tester - F2FS-SSD - 1.173x Faster Than EXT4-SSD"/><polygon points="35,98 243,184 230,211" fill="#ffeb3b" stroke="#065695" stroke-width="2" xlink:title="Flexible IO Tester - XFS-SSD - 1.098x Faster Than EXT4-SSD"/><polygon points="35,98 146,144 139,158" fill="#4caf50" stroke="#065695" stroke-width="2" xlink:title="Flexible IO Tester - EXT4-SSD - 1.000x Faster Than EXT4-SSD"/><polygon points="35,98 300,251 278,284" fill="#01579b" stroke="#065695" stroke-width="2" xlink:title="Flexible IO Tester - XFS-NVME - 2.116x Faster Than EXT4-SSD"/><polygon points="35,98 265,231 246,260" fill="#673ab7" stroke="#065695" stroke-width="2" xlink:title="Flexible IO Tester - EXT4-NVME - 2.070x Faster Than EXT4-SSD"/><polygon points="35,98 263,230 244,258" fill="#f44336" stroke="#065695" stroke-width="2" xlink:title="Flexible IO Tester - F2FS-NVME - 1.982x Faster Than EXT4-SSD"/><polygon points="35,98 157,168 147,184" fill="#ffeb3b" stroke="#065695" stroke-width="2" xlink:title="Flexible IO Tester - XFS-SSD - 1.037x Faster Than EXT4-SSD"/><polygon points="35,98 149,164 140,178" fill="#009688" stroke="#065695" stroke-width="2" xlink:title="Flexible IO Tester - F2FS-SSD - 1.036x Faster Than EXT4-SSD"/><polygon points="35,98 139,158 130,171" fill="#4caf50" stroke="#065695" stroke-width="2" xlink:title="Flexible IO Tester - EXT4-SSD - 1.000x Faster Than EXT4-SSD"/><polygon points="35,98 236,253 215,278" fill="#f44336" stroke="#065695" stroke-width="2" xlink:title="Compile Bench - F2FS-NVME - 2.277x Faster Than EXT4-SSD"/><polygon points="35,98 232,249 211,274" fill="#673ab7" stroke="#065695" stroke-width="2" xlink:title="Compile Bench - EXT4-NVME - 2.131x Faster Than EXT4-SSD"/><polygon points="35,98 224,243 203,266" fill="#01579b" stroke="#065695" stroke-width="2" xlink:title="Compile Bench - XFS-NVME - 2.051x Faster Than EXT4-SSD"/><polygon points="35,98 134,174 123,186" fill="#009688" stroke="#065695" stroke-width="2" xlink:title="Compile Bench - F2FS-SSD - 1.063x Faster Than EXT4-SSD"/><polygon points="35,98 134,174 123,186" fill="#ffeb3b" stroke="#065695" stroke-width="2" xlink:title="Compile Bench - XFS-SSD - 1.004x Faster Than EXT4-SSD"/><polygon points="35,98 130,171 120,183" fill="#4caf50" stroke="#065695" stroke-width="2" xlink:title="Compile Bench - EXT4-SSD - 1.000x Faster Than EXT4-SSD"/><polygon points="35,98 228,291 201,315" fill="#f44336" stroke="#065695" stroke-width="2" xlink:title="IOzone - F2FS-NVME - 1.104x Faster Than EXT4-SSD"/><polygon points="35,98 216,279 191,301" fill="#009688" stroke="#065695" stroke-width="2" xlink:title="IOzone - F2FS-SSD - 1.037x Faster Than EXT4-SSD"/><polygon points="35,98 209,272 185,293" fill="#01579b" stroke="#065695" stroke-width="2" xlink:title="IOzone - XFS-NVME - 1.031x Faster Than EXT4-SSD"/><polygon points="35,98 125,188 113,199" fill="#673ab7" stroke="#065695" stroke-width="2" xlink:title="IOzone - EXT4-NVME - 1.030x Faster Than EXT4-SSD"/><polygon points="35,98 120,183 108,194" fill="#ffeb3b" stroke="#065695" stroke-width="2" xlink:title="IOzone - XFS-SSD - 1.008x Faster Than EXT4-SSD"/><polygon points="35,98 120,183 108,193" fill="#4caf50" stroke="#065695" stroke-width="2" xlink:title="IOzone - EXT4-SSD - 1.000x Faster Than EXT4-SSD"/><polygon points="35,98 116,203 101,213" fill="#01579b" stroke="#065695" stroke-width="2" xlink:title="IOzone - XFS-NVME - 2.277x Faster Than EXT4-SSD"/><polygon points="35,98 111,197 97,206" fill="#673ab7" stroke="#065695" stroke-width="2" xlink:title="IOzone - EXT4-NVME - 2.224x Faster Than EXT4-SSD"/><polygon points="35,98 110,196 97,205" fill="#f44336" stroke="#065695" stroke-width="2" xlink:title="IOzone - F2FS-NVME - 2.013x Faster Than EXT4-SSD"/><polygon points="35,98 110,196 97,205" fill="#009688" stroke="#065695" stroke-width="2" xlink:title="IOzone - F2FS-SSD - 1.023x Faster Than EXT4-SSD"/><polygon points="35,98 109,194 95,203" fill="#ffeb3b" stroke="#065695" stroke-width="2" xlink:title="IOzone - XFS-SSD - 1.006x Faster Than EXT4-SSD"/><polygon points="35,98 108,193 95,202" fill="#4caf50" stroke="#065695" stroke-width="2" xlink:title="IOzone - EXT4-SSD - 1.000x Faster Than EXT4-SSD"/><polygon points="35,98 172,335 140,350" fill="#f44336" stroke="#065695" stroke-width="2" xlink:title="Threaded I/O Tester - F2FS-NVME - 1.124x Faster Than XFS-SSD"/><polygon points="35,98 168,329 137,345" fill="#4caf50" stroke="#065695" stroke-width="2" xlink:title="Threaded I/O Tester - EXT4-SSD - 1.064x Faster Than XFS-SSD"/><polygon points="35,98 156,307 127,321" fill="#673ab7" stroke="#065695" stroke-width="2" xlink:title="Threaded I/O Tester - EXT4-NVME - 1.058x Faster Than XFS-SSD"/><polygon points="35,98 96,204 82,211" fill="#01579b" stroke="#065695" stroke-width="2" xlink:title="Threaded I/O Tester - XFS-NVME - 1.049x Faster Than XFS-SSD"/><polygon points="35,98 95,203 81,210" fill="#009688" stroke="#065695" stroke-width="2" xlink:title="Threaded I/O Tester - F2FS-SSD - 1.037x Faster Than XFS-SSD"/><polygon points="35,98 95,202 81,209" fill="#ffeb3b" stroke="#065695" stroke-width="2" xlink:title="Threaded I/O Tester - XFS-SSD - 1.000x Faster Than XFS-SSD"/><polygon points="35,98 87,223 70,228" fill="#673ab7" stroke="#065695" stroke-width="2" xlink:title="Unpacking The Linux Kernel - EXT4-NVME - 1.126x Faster Than F2FS-NVME"/><polygon points="35,98 84,216 68,221" fill="#4caf50" stroke="#065695" stroke-width="2" xlink:title="Unpacking The Linux Kernel - EXT4-SSD - 1.094x Faster Than F2FS-NVME"/><polygon points="35,98 84,215 68,221" fill="#009688" stroke="#065695" stroke-width="2" xlink:title="Unpacking The Linux Kernel - F2FS-SSD - 1.058x Faster Than F2FS-NVME"/><polygon points="35,98 83,214 68,220" fill="#01579b" stroke="#065695" stroke-width="2" xlink:title="Unpacking The Linux Kernel - XFS-NVME - 1.050x Faster Than F2FS-NVME"/><polygon points="35,98 83,213 67,218" fill="#ffeb3b" stroke="#065695" stroke-width="2" xlink:title="Unpacking The Linux Kernel - XFS-SSD - 1.010x Faster Than F2FS-NVME"/><polygon points="35,98 81,209 66,214" fill="#f44336" stroke="#065695" stroke-width="2" xlink:title="Unpacking The Linux Kernel - F2FS-NVME - 1.000x Faster Than F2FS-NVME"/><polygon points="35,98 70,229 35,233" fill="#f44336" stroke="#065695" stroke-width="2" xlink:title="PostMark - F2FS-NVME - 1.451x Faster Than XFS-SSD"/><polygon points="35,98 69,225 35,229" fill="#009688" stroke="#065695" stroke-width="2" xlink:title="PostMark - F2FS-SSD - 1.402x Faster Than XFS-SSD"/><polygon points="35,98 68,221 35,225" fill="#673ab7" stroke="#065695" stroke-width="2" xlink:title="PostMark - EXT4-NVME - 1.212x Faster Than XFS-SSD"/><polygon points="35,98 68,220 35,224" fill="#4caf50" stroke="#065695" stroke-width="2" xlink:title="PostMark - EXT4-SSD - 1.197x Faster Than XFS-SSD"/><polygon points="35,98 66,215 35,219" fill="#01579b" stroke="#065695" stroke-width="2" xlink:title="PostMark - XFS-NVME - 1.005x Faster Than XFS-SSD"/><polygon points="35,98 66,214 35,218" fill="#ffeb3b" stroke="#065695" stroke-width="2" xlink:title="PostMark - XFS-SSD - 1.000x Faster Than XFS-SSD"/><path fill="#FEFEFE" stroke="#757575" stroke-width="1" d="M35,98 L155,98 A120,120 0 0,1 35,218 Z"/><text x="116.19869920773" y="169.20934803081" font-size="11" fill="#C80000" text-anchor="end" dominant-baseline="middle">Disk</text><text x="586" y="667" font-size="9" fill="#f44336" text-anchor="end" dominant-baseline="middle">2 x 960GB SanDisk SDSSDHII + 1200GB INTEL SSDPE2MW012T4</text><text x="586" y="658" font-size="9" fill="#673ab7" text-anchor="end" dominant-baseline="middle">2 x 960GB SanDisk SDSSDHII + 1200GB INTEL SSDPE2MW012T4</text><text x="586" y="649" font-size="9" fill="#01579b" text-anchor="end" dominant-baseline="middle">2 x 960GB SanDisk SDSSDHII + 1200GB INTEL SSDPE2MW012T4</text><text x="586" y="640" font-size="9" fill="#009688" text-anchor="end" dominant-baseline="middle">2 x 960GB SanDisk SDSSDHII + 1200GB INTEL SSDPE2MW012T4</text><text x="586" y="631" font-size="9" fill="#4caf50" text-anchor="end" dominant-baseline="middle">2 x 960GB SanDisk SDSSDHII + 1200GB INTEL SSDPE2MW012T4</text><text x="586" y="622" font-size="9" fill="#ffeb3b" text-anchor="end" dominant-baseline="middle">2 x 960GB SanDisk SDSSDHII + 1200GB INTEL SSDPE2MW012T4</text></svg>
