<?xml version="1.0"?>
<!DOCTYPE svg PUBLIC "-//W3C//DTD SVG 1.1//EN" "http://www.w3.org/Graphics/SVG/1.1/DTD/svg11.dtd">
<!--Phoronix Test Suite v6.4.0 [ http://www.phoronix-test-suite.com/ ]-->
<svg xmlns="http://www.w3.org/2000/svg" xmlns:xlink="http://www.w3.org/1999/xlink" version="1.1" font-family="sans-serif, droid-sans, helvetica, verdana, tahoma" viewbox="0 0 1000 365" width="1000" height="365" preserveAspectRatio="xMinYMin meet"><rect x="0" y="0" width="1000" height="365" fill="#FEFEFE" stroke="#757575" stroke-width="2"/><g stroke="#757575" stroke-width="1"/><g font-size="9" text-anchor="start"/><rect x="30" y="95" width="960" height="120" fill="#BABABA" stroke="#757575" stroke-width="1"/><a xlink:href="http://www.phoronix-test-suite.com/" xlink:show="new"><text x="988" y="107" font-size="10" fill="#065695" text-anchor="end" xlink:show="new">PHORONIX-TEST-SUITE.COM</text></a><g stroke="#757575" stroke-width="1" stroke-dasharray="5,5"><line x1="30" y1="196.5" x2="990" y2="196.5"/><line x1="30" y1="176.5" x2="990" y2="176.5"/><line x1="30" y1="156.5" x2="990" y2="156.5"/><line x1="30" y1="136.5" x2="990" y2="136.5"/><line x1="30" y1="116.5" x2="990" y2="116.5"/></g><g stroke="#757575" stroke-width="1"><line x1="26" y1="196.5" x2="34" y2="196.5"/><line x1="26" y1="176.5" x2="34" y2="176.5"/><line x1="26" y1="156.5" x2="34" y2="156.5"/><line x1="26" y1="136.5" x2="34" y2="136.5"/><line x1="26" y1="116.5" x2="34" y2="116.5"/></g><g stroke="#949494" stroke-width="1" stroke-dasharray="5,5"><line x1="41" y1="196.5" x2="990" y2="196.5"/><line x1="41" y1="176.5" x2="990" y2="176.5"/><line x1="41" y1="156.5" x2="990" y2="156.5"/><line x1="41" y1="136.5" x2="990" y2="136.5"/><line x1="41" y1="116.5" x2="990" y2="116.5"/></g><g font-size="10" fill="#065695" text-anchor="end"/><rect x="30" y="230" width="960" height="120" fill="#BABABA" stroke="#757575" stroke-width="1"/><a xlink:href="http://www.phoronix-test-suite.com/" xlink:show="new"><text x="988" y="242" font-size="10" fill="#065695" text-anchor="end" xlink:show="new">PHORONIX-TEST-SUITE.COM</text></a><g stroke="#757575" stroke-width="1" stroke-dasharray="5,5"><line x1="30" y1="331.5" x2="990" y2="331.5"/><line x1="30" y1="311.5" x2="990" y2="311.5"/><line x1="30" y1="291.5" x2="990" y2="291.5"/><line x1="30" y1="271.5" x2="990" y2="271.5"/><line x1="30" y1="251.5" x2="990" y2="251.5"/></g><g stroke="#757575" stroke-width="1"><line x1="26" y1="331.5" x2="34" y2="331.5"/><line x1="26" y1="311.5" x2="34" y2="311.5"/><line x1="26" y1="291.5" x2="34" y2="291.5"/><line x1="26" y1="271.5" x2="34" y2="271.5"/><line x1="26" y1="251.5" x2="34" y2="251.5"/></g><g stroke="#949494" stroke-width="1" stroke-dasharray="5,5"><line x1="41" y1="331.5" x2="990" y2="331.5"/><line x1="41" y1="311.5" x2="990" y2="311.5"/><line x1="41" y1="291.5" x2="990" y2="291.5"/><line x1="41" y1="271.5" x2="990" y2="271.5"/><line x1="41" y1="251.5" x2="990" y2="251.5"/></g><g font-size="10" fill="#065695" text-anchor="end"/><text x="83" y="218" font-size="6.5" fill="#231f20" text-anchor="middle" dominant-baseline="text-before-edge">AIO-Stress</text><rect x="40.6" y="96" width="14" height="119" fill="#f44336" stroke="#949494" stroke-width="1"/><rect x="54.6" y="149" width="14" height="66" fill="#673ab7" stroke="#949494" stroke-width="1"/><rect x="68.6" y="165" width="14" height="50" fill="#01579b" stroke="#949494" stroke-width="1"/><rect x="82.6" y="163" width="14" height="52" fill="#009688" stroke="#949494" stroke-width="1"/><rect x="96.6" y="153" width="14" height="62" fill="#4caf50" stroke="#949494" stroke-width="1"/><rect x="110.6" y="189" width="14" height="26" fill="#ffeb3b" stroke="#949494" stroke-width="1"/><text x="189" y="218" font-size="6.5" fill="#231f20" text-anchor="middle" dominant-baseline="text-before-edge">Flexible IO Tester</text><rect x="146.6" y="96" width="14" height="119" fill="#f44336" stroke="#949494" stroke-width="1"/><rect x="160.6" y="96" width="14" height="119" fill="#673ab7" stroke="#949494" stroke-width="1"/><rect x="174.6" y="97" width="14" height="118" fill="#01579b" stroke="#949494" stroke-width="1"/><rect x="188.6" y="123" width="14" height="92" fill="#009688" stroke="#949494" stroke-width="1"/><rect x="202.6" y="130" width="14" height="85" fill="#4caf50" stroke="#949494" stroke-width="1"/><rect x="216.6" y="124" width="14" height="91" fill="#ffeb3b" stroke="#949494" stroke-width="1"/><text x="295" y="218" font-size="6.5" fill="#231f20" text-anchor="middle" dominant-baseline="text-before-edge">Flexible IO Tester</text><rect x="252.6" y="96" width="14" height="119" fill="#f44336" stroke="#949494" stroke-width="1"/><rect x="266.6" y="108" width="14" height="107" fill="#673ab7" stroke="#949494" stroke-width="1"/><rect x="280.6" y="101" width="14" height="114" fill="#01579b" stroke="#949494" stroke-width="1"/><rect x="294.6" y="151" width="14" height="64" fill="#009688" stroke="#949494" stroke-width="1"/><rect x="308.6" y="175" width="14" height="40" fill="#4caf50" stroke="#949494" stroke-width="1"/><rect x="322.6" y="176" width="14" height="39" fill="#ffeb3b" stroke="#949494" stroke-width="1"/><text x="401" y="218" font-size="6.5" fill="#231f20" text-anchor="middle" dominant-baseline="text-before-edge">Flexible IO Tester</text><rect x="358.6" y="96" width="14" height="119" fill="#f44336" stroke="#949494" stroke-width="1"/><rect x="372.6" y="113" width="14" height="102" fill="#673ab7" stroke="#949494" stroke-width="1"/><rect x="386.6" y="112" width="14" height="103" fill="#01579b" stroke="#949494" stroke-width="1"/><rect x="400.6" y="161" width="14" height="54" fill="#009688" stroke="#949494" stroke-width="1"/><rect x="414.6" y="169" width="14" height="46" fill="#4caf50" stroke="#949494" stroke-width="1"/><rect x="428.6" y="164" width="14" height="51" fill="#ffeb3b" stroke="#949494" stroke-width="1"/><text x="507" y="218" font-size="6.5" fill="#231f20" text-anchor="middle" dominant-baseline="text-before-edge">Flexible IO Tester</text><rect x="464.6" y="104" width="14" height="111" fill="#f44336" stroke="#949494" stroke-width="1"/><rect x="478.6" y="99" width="14" height="116" fill="#673ab7" stroke="#949494" stroke-width="1"/><rect x="492.6" y="96" width="14" height="119" fill="#01579b" stroke="#949494" stroke-width="1"/><rect x="506.6" y="157" width="14" height="58" fill="#009688" stroke="#949494" stroke-width="1"/><rect x="520.6" y="159" width="14" height="56" fill="#4caf50" stroke="#949494" stroke-width="1"/><rect x="534.6" y="157" width="14" height="58" fill="#ffeb3b" stroke="#949494" stroke-width="1"/><text x="613" y="218" font-size="6.5" fill="#231f20" text-anchor="middle" dominant-baseline="text-before-edge">FS-Mark</text><rect x="570.6" y="96" width="14" height="119" fill="#f44336" stroke="#949494" stroke-width="1"/><rect x="584.6" y="114" width="14" height="101" fill="#673ab7" stroke="#949494" stroke-width="1"/><rect x="598.6" y="168" width="14" height="47" fill="#01579b" stroke="#949494" stroke-width="1"/><rect x="612.6" y="193" width="14" height="22" fill="#009688" stroke="#949494" stroke-width="1"/><rect x="626.6" y="197" width="14" height="18" fill="#4caf50" stroke="#949494" stroke-width="1"/><rect x="640.6" y="209" width="14" height="6" fill="#ffeb3b" stroke="#949494" stroke-width="1"/><text x="719" y="218" font-size="6.5" fill="#231f20" text-anchor="middle" dominant-baseline="text-before-edge">FS-Mark</text><rect x="676.6" y="96" width="14" height="119" fill="#f44336" stroke="#949494" stroke-width="1"/><rect x="690.6" y="116" width="14" height="99" fill="#673ab7" stroke="#949494" stroke-width="1"/><rect x="704.6" y="151" width="14" height="64" fill="#01579b" stroke="#949494" stroke-width="1"/><rect x="718.6" y="188" width="14" height="27" fill="#009688" stroke="#949494" stroke-width="1"/><rect x="732.6" y="187" width="14" height="28" fill="#4caf50" stroke="#949494" stroke-width="1"/><rect x="746.6" y="206" width="14" height="9" fill="#ffeb3b" stroke="#949494" stroke-width="1"/><text x="825" y="218" font-size="6.5" fill="#231f20" text-anchor="middle" dominant-baseline="text-before-edge">FS-Mark</text><rect x="782.6" y="96" width="14" height="119" fill="#f44336" stroke="#949494" stroke-width="1"/><rect x="796.6" y="114" width="14" height="101" fill="#673ab7" stroke="#949494" stroke-width="1"/><rect x="810.6" y="166" width="14" height="49" fill="#01579b" stroke="#949494" stroke-width="1"/><rect x="824.6" y="194" width="14" height="21" fill="#009688" stroke="#949494" stroke-width="1"/><rect x="838.6" y="196" width="14" height="19" fill="#4caf50" stroke="#949494" stroke-width="1"/><rect x="852.6" y="208" width="14" height="7" fill="#ffeb3b" stroke="#949494" stroke-width="1"/><text x="931" y="218" font-size="6.5" fill="#231f20" text-anchor="middle" dominant-baseline="text-before-edge">FS-Mark</text><rect x="888.6" y="96" width="14" height="119" fill="#f44336" stroke="#949494" stroke-width="1"/><rect x="902.6" y="135" width="14" height="80" fill="#673ab7" stroke="#949494" stroke-width="1"/><rect x="916.6" y="129" width="14" height="86" fill="#01579b" stroke="#949494" stroke-width="1"/><rect x="930.6" y="103" width="14" height="112" fill="#009688" stroke="#949494" stroke-width="1"/><rect x="944.6" y="135" width="14" height="80" fill="#4caf50" stroke="#949494" stroke-width="1"/><rect x="958.6" y="158" width="14" height="57" fill="#ffeb3b" stroke="#949494" stroke-width="1"/><line x1="136" y1="215" x2="944" y2="215" stroke="#757575" stroke-width="10" stroke-dasharray="1,105"/><line x1="30" y1="215" x2="990" y2="215" stroke="#757575" stroke-width="1"/><text x="83" y="353" font-size="6.5" fill="#231f20" text-anchor="middle" dominant-baseline="text-before-edge">Dbench</text><rect x="40.6" y="231" width="14" height="119" fill="#f44336" stroke="#949494" stroke-width="1"/><rect x="54.6" y="262" width="14" height="88" fill="#673ab7" stroke="#949494" stroke-width="1"/><rect x="68.6" y="324" width="14" height="26" fill="#01579b" stroke="#949494" stroke-width="1"/><rect x="82.6" y="329" width="14" height="21" fill="#009688" stroke="#949494" stroke-width="1"/><rect x="96.6" y="337" width="14" height="13" fill="#4caf50" stroke="#949494" stroke-width="1"/><rect x="110.6" y="344" width="14" height="6" fill="#ffeb3b" stroke="#949494" stroke-width="1"/><text x="189" y="353" font-size="6.5" fill="#231f20" text-anchor="middle" dominant-baseline="text-before-edge">IOzone</text><rect x="146.6" y="231" width="14" height="119" fill="#f44336" stroke="#949494" stroke-width="1"/><rect x="160.6" y="239" width="14" height="111" fill="#673ab7" stroke="#949494" stroke-width="1"/><rect x="174.6" y="239" width="14" height="111" fill="#01579b" stroke="#949494" stroke-width="1"/><rect x="188.6" y="238" width="14" height="112" fill="#009688" stroke="#949494" stroke-width="1"/><rect x="202.6" y="242" width="14" height="108" fill="#4caf50" stroke="#949494" stroke-width="1"/><rect x="216.6" y="241" width="14" height="109" fill="#ffeb3b" stroke="#949494" stroke-width="1"/><text x="295" y="353" font-size="6.5" fill="#231f20" text-anchor="middle" dominant-baseline="text-before-edge">IOzone</text><rect x="252.6" y="245" width="14" height="105" fill="#f44336" stroke="#949494" stroke-width="1"/><rect x="266.6" y="234" width="14" height="116" fill="#673ab7" stroke="#949494" stroke-width="1"/><rect x="280.6" y="231" width="14" height="119" fill="#01579b" stroke="#949494" stroke-width="1"/><rect x="294.6" y="297" width="14" height="53" fill="#009688" stroke="#949494" stroke-width="1"/><rect x="308.6" y="298" width="14" height="52" fill="#4caf50" stroke="#949494" stroke-width="1"/><rect x="322.6" y="298" width="14" height="52" fill="#ffeb3b" stroke="#949494" stroke-width="1"/><text x="401" y="353" font-size="6.5" fill="#231f20" text-anchor="middle" dominant-baseline="text-before-edge">Threaded I/O Tester</text><rect x="358.6" y="231" width="14" height="119" fill="#f44336" stroke="#949494" stroke-width="1"/><rect x="372.6" y="238" width="14" height="112" fill="#673ab7" stroke="#949494" stroke-width="1"/><rect x="386.6" y="239" width="14" height="111" fill="#01579b" stroke="#949494" stroke-width="1"/><rect x="400.6" y="240" width="14" height="110" fill="#009688" stroke="#949494" stroke-width="1"/><rect x="414.6" y="237" width="14" height="113" fill="#4caf50" stroke="#949494" stroke-width="1"/><rect x="428.6" y="244" width="14" height="106" fill="#ffeb3b" stroke="#949494" stroke-width="1"/><text x="507" y="353" font-size="6.5" fill="#231f20" text-anchor="middle" dominant-baseline="text-before-edge">Threaded I/O Tester</text><rect x="464.6" y="254" width="14" height="96" fill="#f44336" stroke="#949494" stroke-width="1"/><rect x="478.6" y="231" width="14" height="119" fill="#673ab7" stroke="#949494" stroke-width="1"/><rect x="492.6" y="336" width="14" height="14" fill="#01579b" stroke="#949494" stroke-width="1"/><rect x="506.6" y="350" width="14" height="0" fill="#009688" stroke="#949494" stroke-width="1"/><rect x="520.6" y="350" width="14" height="0" fill="#4caf50" stroke="#949494" stroke-width="1"/><rect x="534.6" y="350" width="14" height="0" fill="#ffeb3b" stroke="#949494" stroke-width="1"/><text x="613" y="353" font-size="6.5" fill="#231f20" text-anchor="middle" dominant-baseline="text-before-edge">Compile Bench</text><rect x="570.6" y="231" width="14" height="119" fill="#f44336" stroke="#949494" stroke-width="1"/><rect x="584.6" y="239" width="14" height="111" fill="#673ab7" stroke="#949494" stroke-width="1"/><rect x="598.6" y="243" width="14" height="107" fill="#01579b" stroke="#949494" stroke-width="1"/><rect x="612.6" y="295" width="14" height="55" fill="#009688" stroke="#949494" stroke-width="1"/><rect x="626.6" y="298" width="14" height="52" fill="#4caf50" stroke="#949494" stroke-width="1"/><rect x="640.6" y="298" width="14" height="52" fill="#ffeb3b" stroke="#949494" stroke-width="1"/><text x="719" y="353" font-size="6.5" fill="#231f20" text-anchor="middle" dominant-baseline="text-before-edge">Unpacking The Linux Kernel</text><rect x="676.6" y="244" width="14" height="106" fill="#f44336" stroke="#949494" stroke-width="1"/><rect x="690.6" y="231" width="14" height="119" fill="#673ab7" stroke="#949494" stroke-width="1"/><rect x="704.6" y="239" width="14" height="111" fill="#01579b" stroke="#949494" stroke-width="1"/><rect x="718.6" y="238" width="14" height="112" fill="#009688" stroke="#949494" stroke-width="1"/><rect x="732.6" y="234" width="14" height="116" fill="#4caf50" stroke="#949494" stroke-width="1"/><rect x="746.6" y="243" width="14" height="107" fill="#ffeb3b" stroke="#949494" stroke-width="1"/><text x="825" y="353" font-size="6.5" fill="#231f20" text-anchor="middle" dominant-baseline="text-before-edge">PostMark</text><rect x="782.6" y="231" width="14" height="119" fill="#f44336" stroke="#949494" stroke-width="1"/><rect x="796.6" y="251" width="14" height="99" fill="#673ab7" stroke="#949494" stroke-width="1"/><rect x="810.6" y="268" width="14" height="82" fill="#01579b" stroke="#949494" stroke-width="1"/><rect x="824.6" y="235" width="14" height="115" fill="#009688" stroke="#949494" stroke-width="1"/><rect x="838.6" y="252" width="14" height="98" fill="#4caf50" stroke="#949494" stroke-width="1"/><rect x="852.6" y="268" width="14" height="82" fill="#ffeb3b" stroke="#949494" stroke-width="1"/><text x="495" y="19" font-size="17" fill="#231f20" text-anchor="middle" xlink:show="new">2016-07-21-1000</text><a xlink:href="http://www.phoronix-test-suite.com/" xlink:show="new"><text x="990" y="92" font-size="7" fill="#949494" text-anchor="end" xlink:show="new">Phoronix Test Suite 6.4.0</text></a></svg>
