<?xml version="1.0"?>
<!DOCTYPE svg PUBLIC "-//W3C//DTD SVG 1.1//EN" "http://www.w3.org/Graphics/SVG/1.1/DTD/svg11.dtd">
<!--Phoronix Test Suite v6.4.0 [ http://www.phoronix-test-suite.com/ ]-->
<svg xmlns="http://www.w3.org/2000/svg" xmlns:xlink="http://www.w3.org/1999/xlink" version="1.1" font-family="sans-serif, droid-sans, helvetica, verdana, tahoma" viewbox="0 0 592 168" width="592" height="168" preserveAspectRatio="xMinYMin meet"><rect x="0" y="0" width="592" height="168" fill="#FEFEFE" stroke="#757575" stroke-width="2"/><rect x="1" y="1" width="591" height="167" fill="#FEFEFE" stroke="#757575" stroke-width="1"/><path d="m74 22v9m-5-16v16m-5-28v28m-23-2h12.5c2.485281 0 4.5-2.014719 4.5-4.5s-2.014719-4.5-4.5-4.5h-8c-2.485281 0-4.5-2.014719-4.5-4.5s2.014719-4.5 4.5-4.5h12.5m-21 5h-11m11 13h-2c-4.970563 0-9-4.029437-9-9v-20m-24 40v-20c0-4.970563 4.0294373-9 9-9 4.970563 0 9 4.029437 9 9s-4.029437 9-9 9h-9" stroke="#000000" stroke-width="4" fill="none" transform="translate(31,43)"/><line x1="142" y1="96" x2="592" y2="96" stroke="#BABABA" stroke-width="112" stroke-dasharray="75,75"/><line x1="296" y1="88" x2="296" y2="152" stroke="#949494" stroke-width="592" stroke-dasharray="16,16"/><line x1="142" y1="96" x2="592" y2="96" stroke="#757575" stroke-width="112" stroke-dasharray="1,74"/><rect x="1" y="1" width="590" height="40" fill="#231f20"/><text x="5" y="19" font-size="17" fill="#FEFEFE" text-anchor="start">Dbench</text><text x="5" y="33" font-size="11" fill="#FEFEFE" text-anchor="start">Client Count: 6</text><line x1="1" y1="40" x2="591" y2="40" stroke="#757575" stroke-width="1"/><g font-size="10" font-weight="bold" text-anchor="end" fill="#065695"><text x="140" y="100" fill="#065695">Results</text><text x="140" y="116" fill="#065695">Difference</text><text x="140" y="132" fill="#065695">Standard Error</text><text x="140" y="148" fill="#065695">Standard Deviation</text></g><g font-size="10" fill="#065695" font-weight="bold" text-anchor="middle" dominant-baseline="text-before-edge"><text x="179.5" y="64">F2FS-NVME</text><text x="254.5" y="64">EXT4-NVME</text><text x="329.5" y="64">XFS-NVME</text><text x="404.5" y="64">F2FS-SSD</text><text x="479.5" y="64">EXT4-SSD</text><text x="554.5" y="64">XFS-SSD</text></g><g/><g text-anchor="middle" font-size="10"><text x="179.5" y="101" fill="#005a00" xlink:title="STD Dev: 0.17%;  STD Error: 3.96">4057.54</text><text x="179.5" y="117" fill="#065695">17.57x</text><text x="179.5" y="133" fill="#065695">3.96</text><text x="179.5" y="149" fill="#065695">0.17%</text><text x="254.5" y="101" fill="#065695" xlink:title="STD Dev: 0.41%;  STD Error: 7.10">3022.74</text><text x="254.5" y="117" fill="#065695">13.09x</text><text x="254.5" y="133" fill="#065695">7.10</text><text x="254.5" y="149" fill="#065695">0.41%</text><text x="329.5" y="101" fill="#065695" xlink:title="STD Dev: 0.23%;  STD Error: 1.23">916.48</text><text x="329.5" y="117" fill="#065695">3.97x</text><text x="329.5" y="133" fill="#065695">1.23</text><text x="329.5" y="149" fill="#065695">0.23%</text><text x="404.5" y="101" fill="#065695" xlink:title="STD Dev: 0.07%;  STD Error: 0.29">759.47</text><text x="404.5" y="117" fill="#065695">3.29x</text><text x="404.5" y="133" fill="#065695">0.29</text><text x="404.5" y="149" fill="#065695">0.07%</text><text x="479.5" y="101" fill="#065695" xlink:title="STD Dev: 0.32%;  STD Error: 0.87">476.84</text><text x="479.5" y="117" fill="#065695">2.06x</text><text x="479.5" y="133" fill="#065695">0.87</text><text x="479.5" y="149" fill="#065695">0.32%</text><text x="554.5" y="101" fill="#C80000" xlink:title="STD Dev: 1.99%;  STD Error: 2.65">231.00</text><text x="554.5" y="117" fill="#065695">1.00x</text><text x="554.5" y="133" fill="#065695">2.65</text><text x="554.5" y="149" fill="#065695">1.99%</text></g><line x1="296" y1="88" x2="296" y2="152" stroke="#949494" stroke-width="592" stroke-dasharray="1,15"/><rect x="0" y="152" width="592" height="16" fill="#231f20"/><a xlink:href="http://www.phoronix-test-suite.com/" xlink:show="new"><text x="590" y="165" font-size="10" fill="#FFFFFF" text-anchor="end" xlink:show="new">PHORONIX-TEST-SUITE.COM</text></a></svg>
