<?xml version="1.0"?>
<!DOCTYPE svg PUBLIC "-//W3C//DTD SVG 1.1//EN" "http://www.w3.org/Graphics/SVG/1.1/DTD/svg11.dtd">
<!--Phoronix Test Suite v6.4.0 [ http://www.phoronix-test-suite.com/ ]-->
<svg xmlns="http://www.w3.org/2000/svg" xmlns:xlink="http://www.w3.org/1999/xlink" version="1.1" font-family="sans-serif, droid-sans, helvetica, verdana, tahoma" viewbox="0 0 600 414" width="600" height="414" preserveAspectRatio="xMinYMin meet"><rect x="0" y="0" width="600" height="414" fill="#FEFEFE" stroke="#757575" stroke-width="2"/><g stroke="#757575" stroke-width="1"><line x1="70.5" y1="64" x2="70.5" y2="341"/><line x1="70" y1="340.5" x2="586" y2="340.5"/></g><a xlink:href="http://www.phoronix-test-suite.com/" xlink:show="new"><text x="585" y="59" font-size="7" fill="#065695" text-anchor="end" xlink:show="new">PHORONIX-TEST-SUITE.COM</text></a><polygon points="79.5,56 70.5,60.5 70.5,51.5" fill="#065695" stroke="#949494" stroke-width="1"/><text x="82" y="59" font-size="7" fill="#065695" text-anchor="start">MB/s, More Is Better</text><rect x="0" y="0" width="600" height="48" fill="#231f20"/><a xlink:href="http://openbenchmarking.org/test/pts/iozone-1.8.0" xlink:show="new"><text x="6" y="19" font-size="17" fill="#FEFEFE" text-anchor="start" xlink:show="new">IOzone v3.405</text></a><text x="6" y="36" font-size="11" fill="#FEFEFE" text-anchor="start">Record Size: 1MB - File Size: 2GB - Disk Test: Read Performance</text><path d="m74 22v9m-5-16v16m-5-28v28m-23-2h12.5c2.485281 0 4.5-2.014719 4.5-4.5s-2.014719-4.5-4.5-4.5h-8c-2.485281 0-4.5-2.014719-4.5-4.5s2.014719-4.5 4.5-4.5h12.5m-21 5h-11m11 13h-2c-4.970563 0-9-4.029437-9-9v-20m-24 40v-20c0-4.970563 4.0294373-9 9-9 4.970563 0 9 4.029437 9 9s-4.029437 9-9 9h-9" stroke="#ffffff" stroke-width="4" fill="none" transform="translate(508,4)"/><line x1="70.5" y1="110" x2="70.5" y2="340" stroke="#757575" stroke-width="11" stroke-dasharray="1,45"/><g font-size="10" fill="#231f20"><text x="65" y="85" text-anchor="end">F2FS-NVME</text><text x="65" y="131" text-anchor="end">EXT4-NVME</text><text x="65" y="177" text-anchor="end">XFS-NVME</text><text x="65" y="223" text-anchor="end">F2FS-SSD</text><text x="65" y="269" text-anchor="end">EXT4-SSD</text><text x="65" y="315" text-anchor="end">XFS-SSD</text></g><g font-size="10" fill="#065695" text-anchor="middle"><text x="158.5" y="355">1400</text><text x="244.5" y="355">2800</text><text x="330.5" y="355">4200</text><text x="416.5" y="355">5600</text><text x="502.5" y="355">7000</text></g><g stroke="#BABABA" stroke-width="1"><line x1="158.5" y1="64" x2="158.5" y2="335" stroke-dasharray="5,5"/><line x1="158.5" y1="336" x2="158.5" y2="345"/><line x1="244.5" y1="64" x2="244.5" y2="335" stroke-dasharray="5,5"/><line x1="244.5" y1="336" x2="244.5" y2="345"/><line x1="330.5" y1="64" x2="330.5" y2="335" stroke-dasharray="5,5"/><line x1="330.5" y1="336" x2="330.5" y2="345"/><line x1="416.5" y1="64" x2="416.5" y2="335" stroke-dasharray="5,5"/><line x1="416.5" y1="336" x2="416.5" y2="345"/><line x1="502.5" y1="64" x2="502.5" y2="335" stroke-dasharray="5,5"/><line x1="502.5" y1="336" x2="502.5" y2="345"/></g><g stroke="#949494" stroke-width="1"><rect x="70.5" y="70.5" height="34" width="405" fill="#2196f3" xlink:title="F2FS-NVME: 6604.77"/><rect x="70.5" y="116.5" height="34" width="378" fill="#2196f3" xlink:title="EXT4-NVME: 6161.82"/><rect x="70.5" y="162.5" height="34" width="378" fill="#2196f3" xlink:title="XFS-NVME: 6163.39"/><rect x="70.5" y="208.5" height="34" width="380" fill="#2196f3" xlink:title="F2FS-SSD: 6202.42"/><rect x="70.5" y="254.5" height="34" width="367" fill="#2196f3" xlink:title="EXT4-SSD: 5979.95"/><rect x="70.5" y="300.5" height="34" width="370" fill="#2196f3" xlink:title="XFS-SSD: 6029.12"/></g><g font-size="8" fill="#065695" text-anchor="end"><text y="101" x="65">SE +/- 20.77</text><text y="147" x="65">SE +/- 24.97</text><text y="193" x="65">SE +/- 23.65</text><text y="239" x="65">SE +/- 32.32</text><text y="285" x="65">SE +/- 7.33</text><text y="331" x="65">SE +/- 11.96</text></g><g font-size="10" fill="#FFFFFF"><text x="470" y="93" text-anchor="end">6604.77</text><text x="443" y="139" text-anchor="end">6161.82</text><text x="443" y="185" text-anchor="end">6163.39</text><text x="445" y="231" text-anchor="end">6202.42</text><text x="432" y="277" text-anchor="end">5979.95</text><text x="435" y="323" text-anchor="end">6029.12</text></g><rect x="0" y="362" width="600" height="52" fill="#231f20"/><a xlink:href="http://www.phoronix-test-suite.com/" xlink:show="new"><text x="585" y="374" font-size="9" fill="#FEFEFE" text-anchor="end" xlink:show="new">Phoronix Test Suite 6.4.0</text></a><text x="5" y="388" font-size="8" fill="#FEFEFE" text-anchor="start" xlink:title="-O3" width="595">1. (CC) gcc options: -O3</text></svg>
