<?xml version="1.0"?>
<!DOCTYPE svg PUBLIC "-//W3C//DTD SVG 1.1//EN" "http://www.w3.org/Graphics/SVG/1.1/DTD/svg11.dtd">
<!--Phoronix Test Suite v6.8.0m1 [ http://www.phoronix-test-suite.com/ ]-->
<svg xmlns="http://www.w3.org/2000/svg" xmlns:xlink="http://www.w3.org/1999/xlink" version="1.1" font-family="sans-serif, droid-sans, helvetica, verdana, tahoma" viewbox="0 0 600 517" width="600" height="517" preserveAspectRatio="xMinYMin meet">
  <rect x="0" y="0" width="600" height="517" fill="#FEFEFE" stroke="#757575" stroke-width="2"/>
  <g stroke="#757575" stroke-width="1">
    <line x1="93.5" y1="64" x2="93.5" y2="479"/>
    <line x1="93" y1="478.5" x2="586" y2="478.5"/>
  </g>
  <a xlink:href="http://www.phoronix-test-suite.com/" xlink:show="new">
    <text x="585" y="59" font-size="7" fill="#065695" text-anchor="end" xlink:show="new">PHORONIX-TEST-SUITE.COM</text>
  </a>
  <polygon points="93.5,56 102.5,60.5 102.5,51.5" fill="#065695" stroke="#949494" stroke-width="1"/>
  <text x="105" y="59" font-size="7" fill="#065695" text-anchor="start">Seconds, Less Is Better</text>
  <rect x="0" y="0" width="600" height="48" fill="#231f20"/>
  <a xlink:href="http://openbenchmarking.org/test/pts/unpack-linux-1.0.0" xlink:show="new">
    <text x="6" y="19" font-size="17" fill="#FEFEFE" text-anchor="start" xlink:show="new">Unpacking The Linux Kernel</text>
  </a>
  <text x="6" y="36" font-size="11" fill="#FEFEFE" text-anchor="start">linux-2.6.32.tar.bz2</text>
  <path d="m74 22v9m-5-16v16m-5-28v28m-23-2h12.5c2.485281 0 4.5-2.014719 4.5-4.5s-2.014719-4.5-4.5-4.5h-8c-2.485281 0-4.5-2.014719-4.5-4.5s2.014719-4.5 4.5-4.5h12.5m-21 5h-11m11 13h-2c-4.970563 0-9-4.029437-9-9v-20m-24 40v-20c0-4.970563 4.0294373-9 9-9 4.970563 0 9 4.029437 9 9s-4.029437 9-9 9h-9" stroke="#ffffff" stroke-width="4" fill="none" transform="translate(508,4)"/>
  <line x1="93.5" y1="110" x2="93.5" y2="467" stroke="#757575" stroke-width="11" stroke-dasharray="1,45"/>
  <g font-size="10" fill="#231f20">
    <text x="88" y="85" text-anchor="end">f2fs-ramdisk</text>
    <text x="88" y="131" text-anchor="end">ext4-ramdisk</text>
    <text x="88" y="177" text-anchor="end">btrfs-ramdisk</text>
    <text x="88" y="223" text-anchor="end">f2fs-nvme</text>
    <text x="88" y="269" text-anchor="end">ext4-nvme</text>
    <text x="88" y="315" text-anchor="end">btrfs-nvme</text>
    <text x="88" y="361" text-anchor="end">f2fs-ssd</text>
    <text x="88" y="407" text-anchor="end">ext4-ssd</text>
    <text x="88" y="453" text-anchor="end">btrfs-ssd</text>
  </g>
  <g font-size="10" fill="#065695" text-anchor="middle">
    <text x="177.5" y="493">3</text>
    <text x="259.5" y="493">6</text>
    <text x="341.5" y="493">9</text>
    <text x="423.5" y="493">12</text>
    <text x="505.5" y="493">15</text>
  </g>
  <g stroke="#BABABA" stroke-width="1">
    <line x1="177.5" y1="64" x2="177.5" y2="473" stroke-dasharray="5,5"/>
    <line x1="177.5" y1="474" x2="177.5" y2="483"/>
    <line x1="259.5" y1="64" x2="259.5" y2="473" stroke-dasharray="5,5"/>
    <line x1="259.5" y1="474" x2="259.5" y2="483"/>
    <line x1="341.5" y1="64" x2="341.5" y2="473" stroke-dasharray="5,5"/>
    <line x1="341.5" y1="474" x2="341.5" y2="483"/>
    <line x1="423.5" y1="64" x2="423.5" y2="473" stroke-dasharray="5,5"/>
    <line x1="423.5" y1="474" x2="423.5" y2="483"/>
    <line x1="505.5" y1="64" x2="505.5" y2="473" stroke-dasharray="5,5"/>
    <line x1="505.5" y1="474" x2="505.5" y2="483"/>
  </g>
  <g stroke="#949494" stroke-width="1">
    <rect x="93.5" y="70.5" height="34" width="269" fill="#2196f3" xlink:title="f2fs-ramdisk: 9.84"/>
    <rect x="93.5" y="116.5" height="34" width="274" fill="#2196f3" xlink:title="ext4-ramdisk: 10.01"/>
    <rect x="93.5" y="162.5" height="34" width="346" fill="#2196f3" xlink:title="btrfs-ramdisk: 12.65"/>
    <rect x="93.5" y="208.5" height="34" width="273" fill="#2196f3" xlink:title="f2fs-nvme: 9.99"/>
    <rect x="93.5" y="254.5" height="34" width="267" fill="#2196f3" xlink:title="ext4-nvme: 9.78"/>
    <rect x="93.5" y="300.5" height="34" width="315" fill="#2196f3" xlink:title="btrfs-nvme: 11.51"/>
    <rect x="93.5" y="346.5" height="34" width="274" fill="#2196f3" xlink:title="f2fs-ssd: 10.03"/>
    <rect x="93.5" y="392.5" height="34" width="267" fill="#2196f3" xlink:title="ext4-ssd: 9.75"/>
    <rect x="93.5" y="438.5" height="34" width="308" fill="#2196f3" xlink:title="btrfs-ssd: 11.26"/>
  </g>
  <g font-size="8" fill="#065695" text-anchor="end">
    <text y="101" x="88">SE +/- 0.17</text>
    <text y="147" x="88">SE +/- 0.19</text>
    <text y="193" x="88">SE +/- 0.18</text>
    <text y="239" x="88">SE +/- 0.17</text>
    <text y="285" x="88">SE +/- 0.16</text>
    <text y="331" x="88">SE +/- 0.19</text>
    <text y="377" x="88">SE +/- 0.15</text>
    <text y="423" x="88">SE +/- 0.12</text>
    <text y="469" x="88">SE +/- 0.14</text>
  </g>
  <g font-size="10" fill="#FFFFFF">
    <text x="357" y="93" text-anchor="end">9.84</text>
    <text x="362" y="139" text-anchor="end">10.01</text>
    <text x="434" y="185" text-anchor="end">12.65</text>
    <text x="361" y="231" text-anchor="end">9.99</text>
    <text x="355" y="277" text-anchor="end">9.78</text>
    <text x="403" y="323" text-anchor="end">11.51</text>
    <text x="362" y="369" text-anchor="end">10.03</text>
    <text x="355" y="415" text-anchor="end">9.75</text>
    <text x="396" y="461" text-anchor="end">11.26</text>
  </g>
  <line x1="357.5" y1="70" x2="357.5" y2="78" stroke="#757575" stroke-width="1"/>
  <line x1="367.5" y1="70" x2="367.5" y2="78" stroke="#757575" stroke-width="1"/>
  <line x1="357.5" y1="70.5" x2="367.5" y2="70.5" stroke="#757575" stroke-width="1"/>
  <line x1="362.5" y1="116" x2="362.5" y2="124" stroke="#757575" stroke-width="1"/>
  <line x1="372.5" y1="116" x2="372.5" y2="124" stroke="#757575" stroke-width="1"/>
  <line x1="362.5" y1="116.5" x2="372.5" y2="116.5" stroke="#757575" stroke-width="1"/>
  <line x1="434.5" y1="162" x2="434.5" y2="170" stroke="#757575" stroke-width="1"/>
  <line x1="444.5" y1="162" x2="444.5" y2="170" stroke="#757575" stroke-width="1"/>
  <line x1="434.5" y1="162.5" x2="444.5" y2="162.5" stroke="#757575" stroke-width="1"/>
  <line x1="361.5" y1="208" x2="361.5" y2="216" stroke="#757575" stroke-width="1"/>
  <line x1="371.5" y1="208" x2="371.5" y2="216" stroke="#757575" stroke-width="1"/>
  <line x1="361.5" y1="208.5" x2="371.5" y2="208.5" stroke="#757575" stroke-width="1"/>
  <line x1="403.5" y1="300" x2="403.5" y2="308" stroke="#757575" stroke-width="1"/>
  <line x1="413.5" y1="300" x2="413.5" y2="308" stroke="#757575" stroke-width="1"/>
  <line x1="403.5" y1="300.5" x2="413.5" y2="300.5" stroke="#757575" stroke-width="1"/>
  <rect x="0" y="500" width="600" height="17" fill="#231f20"/>
  <a xlink:href="http://www.phoronix-test-suite.com/" xlink:show="new">
    <text x="585" y="512" font-size="9" fill="#FEFEFE" text-anchor="end" xlink:show="new">Phoronix Test Suite 6.8.0m1</text>
  </a>
</svg>
