<?xml version="1.0"?>
<!DOCTYPE svg PUBLIC "-//W3C//DTD SVG 1.1//EN" "http://www.w3.org/Graphics/SVG/1.1/DTD/svg11.dtd">
<!--Phoronix Test Suite v6.8.0m1 [ http://www.phoronix-test-suite.com/ ]-->
<svg xmlns="http://www.w3.org/2000/svg" xmlns:xlink="http://www.w3.org/1999/xlink" version="1.1" font-family="sans-serif, droid-sans, helvetica, verdana, tahoma" viewbox="0 0 600 698" width="600" height="698" preserveAspectRatio="xMinYMin meet">
  <rect x="0" y="0" width="600" height="698" fill="#FEFEFE" stroke="#757575" stroke-width="2"/>
  <rect x="0" y="0" width="600" height="48" fill="#231f20"/>
  <image xlink:href="https://openbenchmarking.org/static/images/pts-77x40-white.png" x="10" y="2" width="77" height="40"/>
  <text x="100" y="21" font-size="17" fill="#FEFEFE" text-anchor="start">f2fs-ramdisk</text>
  <text x="100" y="33" font-size="9" fill="#FEFEFE" text-anchor="start" href="http://www.phoronix-test-suite.com/">Phoronix Test Suite 6.8.0m1</text>
  <path fill="#FEFEFE" stroke="#949494" stroke-width="1" stroke-dasharray="10,20" d="M35,98 L563,98 A528,528 0 0,1 35,626 Z"/>
  <text x="563" y="90" font-size="10" fill="#757575" text-anchor="middle">9.1</text>
  <line x1="563" y1="92" x2="563" y2="98" stroke="#757575" stroke-width="1"/>
  <text x="27" y="626" font-size="10" fill="#757575" text-anchor="end" dominant-baseline="middle">9.1</text>
  <line x1="29" y1="626" x2="35" y2="626" stroke="#757575" stroke-width="1"/>
  <path fill="#FEFEFE" stroke="#949494" stroke-width="1" stroke-dasharray="10,20" d="M35,98 L482,98 A447,447 0 0,1 35,545 Z"/>
  <text x="482" y="90" font-size="10" fill="#757575" text-anchor="middle">7.7</text>
  <line x1="482" y1="92" x2="482" y2="98" stroke="#757575" stroke-width="1"/>
  <text x="27" y="545" font-size="10" fill="#757575" text-anchor="end" dominant-baseline="middle">7.7</text>
  <line x1="29" y1="545" x2="35" y2="545" stroke="#757575" stroke-width="1"/>
  <path fill="#FEFEFE" stroke="#949494" stroke-width="1" stroke-dasharray="10,20" d="M35,98 L406,98 A371,371 0 0,1 35,469 Z"/>
  <text x="406" y="90" font-size="10" fill="#757575" text-anchor="middle">6.4</text>
  <line x1="406" y1="92" x2="406" y2="98" stroke="#757575" stroke-width="1"/>
  <text x="27" y="469" font-size="10" fill="#757575" text-anchor="end" dominant-baseline="middle">6.4</text>
  <line x1="29" y1="469" x2="35" y2="469" stroke="#757575" stroke-width="1"/>
  <path fill="#FEFEFE" stroke="#949494" stroke-width="1" stroke-dasharray="10,20" d="M35,98 L325,98 A290,290 0 0,1 35,388 Z"/>
  <text x="325" y="90" font-size="10" fill="#757575" text-anchor="middle">5.0</text>
  <line x1="325" y1="92" x2="325" y2="98" stroke="#757575" stroke-width="1"/>
  <text x="27" y="388" font-size="10" fill="#757575" text-anchor="end" dominant-baseline="middle">5.0</text>
  <line x1="29" y1="388" x2="35" y2="388" stroke="#757575" stroke-width="1"/>
  <path fill="#FEFEFE" stroke="#949494" stroke-width="1" stroke-dasharray="10,20" d="M35,98 L250,98 A215,215 0 0,1 35,313 Z"/>
  <text x="250" y="90" font-size="10" fill="#757575" text-anchor="middle">3.7</text>
  <line x1="250" y1="92" x2="250" y2="98" stroke="#757575" stroke-width="1"/>
  <text x="27" y="313" font-size="10" fill="#757575" text-anchor="end" dominant-baseline="middle">3.7</text>
  <line x1="29" y1="313" x2="35" y2="313" stroke="#757575" stroke-width="1"/>
  <path fill="#FEFEFE" stroke="#949494" stroke-width="1" stroke-dasharray="10,20" d="M35,98 L168,98 A133,133 0 0,1 35,231 Z"/>
  <text x="168" y="90" font-size="10" fill="#757575" text-anchor="middle">2.3</text>
  <line x1="168" y1="92" x2="168" y2="98" stroke="#757575" stroke-width="1"/>
  <text x="27" y="231" font-size="10" fill="#757575" text-anchor="end" dominant-baseline="middle">2.3</text>
  <line x1="29" y1="231" x2="35" y2="231" stroke="#757575" stroke-width="1"/>
  <path fill="#FEFEFE" stroke="#949494" stroke-width="1" stroke-dasharray="10,20" d="M35,98 L93,98 A58,58 0 0,1 35,156 Z"/>
  <text x="93" y="90" font-size="10" fill="#757575" text-anchor="middle">1.0</text>
  <line x1="93" y1="92" x2="93" y2="98" stroke="#757575" stroke-width="1"/>
  <text x="27" y="156" font-size="10" fill="#757575" text-anchor="end" dominant-baseline="middle">1.0</text>
  <line x1="29" y1="156" x2="35" y2="156" stroke="#757575" stroke-width="1"/>
  <line x1="35" y1="98" x2="590" y2="98" stroke="#757575" stroke-width="1"/>
  <line x1="35" y1="98" x2="35" y2="676" stroke="#757575" stroke-width="1"/>
  <line x1="590" y1="676" x2="590" y2="98" stroke="#757575" stroke-width="1"/>
  <line x1="35" y1="676" x2="590" y2="676" stroke="#757575" stroke-width="1"/>
  <polygon points="35,98 392,98 390,138" fill="#ff5722" stroke="#065695" stroke-width="2" xlink:title="FS-Mark - btrfs-nvme - 1.353x Faster Than ext4-ssd"/>
  <polygon points="35,98 369,98 367,135" fill="#01579b" stroke="#065695" stroke-width="2" xlink:title="FS-Mark - btrfs-ramdisk - 1.348x Faster Than ext4-ssd"/>
  <polygon points="35,98 327,98 325,131" fill="#009688" stroke="#065695" stroke-width="2" xlink:title="FS-Mark - f2fs-nvme - 1.345x Faster Than ext4-ssd"/>
  <polygon points="35,98 297,98 295,127" fill="#e91e63" stroke="#065695" stroke-width="2" xlink:title="FS-Mark - f2fs-ssd - 1.342x Faster Than ext4-ssd"/>
  <polygon points="35,98 295,98 293,127" fill="#9e9e9e" stroke="#065695" stroke-width="2" xlink:title="FS-Mark - btrfs-ssd - 1.334x Faster Than ext4-ssd"/>
  <polygon points="35,98 277,98 275,125" fill="#f44336" stroke="#065695" stroke-width="2" xlink:title="FS-Mark - f2fs-ramdisk - 1.323x Faster Than ext4-ssd"/>
  <polygon points="35,98 95,98 95,105" fill="#4caf50" stroke="#065695" stroke-width="2" xlink:title="FS-Mark - ext4-nvme - 1.007x Faster Than ext4-ssd"/>
  <polygon points="35,98 94,98 93,105" fill="#673ab7" stroke="#065695" stroke-width="2" xlink:title="FS-Mark - ext4-ramdisk - 1.004x Faster Than ext4-ssd"/>
  <polygon points="35,98 93,98 93,104" fill="#795548" stroke="#065695" stroke-width="2" xlink:title="FS-Mark - ext4-ssd - 1.000x Faster Than ext4-ssd"/>
  <polygon points="35,98 113,107 112,115" fill="#f44336" stroke="#065695" stroke-width="2" xlink:title="FS-Mark - f2fs-ramdisk - 7.255x Faster Than btrfs-ssd"/>
  <polygon points="35,98 113,107 111,115" fill="#4caf50" stroke="#065695" stroke-width="2" xlink:title="FS-Mark - ext4-nvme - 6.141x Faster Than btrfs-ssd"/>
  <polygon points="35,98 113,107 111,115" fill="#009688" stroke="#065695" stroke-width="2" xlink:title="FS-Mark - f2fs-nvme - 5.901x Faster Than btrfs-ssd"/>
  <polygon points="35,98 112,107 111,115" fill="#ff5722" stroke="#065695" stroke-width="2" xlink:title="FS-Mark - btrfs-nvme - 5.310x Faster Than btrfs-ssd"/>
  <polygon points="35,98 112,107 110,115" fill="#673ab7" stroke="#065695" stroke-width="2" xlink:title="FS-Mark - ext4-ramdisk - 4.928x Faster Than btrfs-ssd"/>
  <polygon points="35,98 111,107 110,115" fill="#01579b" stroke="#065695" stroke-width="2" xlink:title="FS-Mark - btrfs-ramdisk - 4.611x Faster Than btrfs-ssd"/>
  <polygon points="35,98 93,105 92,111" fill="#e91e63" stroke="#065695" stroke-width="2" xlink:title="FS-Mark - f2fs-ssd - 1.144x Faster Than btrfs-ssd"/>
  <polygon points="35,98 93,105 92,111" fill="#795548" stroke="#065695" stroke-width="2" xlink:title="FS-Mark - ext4-ssd - 1.117x Faster Than btrfs-ssd"/>
  <polygon points="35,98 93,104 92,111" fill="#9e9e9e" stroke="#065695" stroke-width="2" xlink:title="FS-Mark - btrfs-ssd - 1.000x Faster Than btrfs-ssd"/>
  <polygon points="35,98 445,192 432,237" fill="#673ab7" stroke="#065695" stroke-width="2" xlink:title="FS-Mark - ext4-ramdisk - 9.074x Faster Than f2fs-ssd"/>
  <polygon points="35,98 382,177 371,216" fill="#f44336" stroke="#065695" stroke-width="2" xlink:title="FS-Mark - f2fs-ramdisk - 6.814x Faster Than f2fs-ssd"/>
  <polygon points="35,98 369,174 358,211" fill="#009688" stroke="#065695" stroke-width="2" xlink:title="FS-Mark - f2fs-nvme - 4.808x Faster Than f2fs-ssd"/>
  <polygon points="35,98 335,167 326,200" fill="#ff5722" stroke="#065695" stroke-width="2" xlink:title="FS-Mark - btrfs-nvme - 4.583x Faster Than f2fs-ssd"/>
  <polygon points="35,98 314,162 305,192" fill="#4caf50" stroke="#065695" stroke-width="2" xlink:title="FS-Mark - ext4-nvme - 4.388x Faster Than f2fs-ssd"/>
  <polygon points="35,98 296,158 287,186" fill="#01579b" stroke="#065695" stroke-width="2" xlink:title="FS-Mark - btrfs-ramdisk - 1.457x Faster Than f2fs-ssd"/>
  <polygon points="35,98 100,113 98,120" fill="#795548" stroke="#065695" stroke-width="2" xlink:title="FS-Mark - ext4-ssd - 1.328x Faster Than f2fs-ssd"/>
  <polygon points="35,98 98,112 96,119" fill="#9e9e9e" stroke="#065695" stroke-width="2" xlink:title="FS-Mark - btrfs-ssd - 1.085x Faster Than f2fs-ssd"/>
  <polygon points="35,98 92,111 90,117" fill="#e91e63" stroke="#065695" stroke-width="2" xlink:title="FS-Mark - f2fs-ssd - 1.000x Faster Than f2fs-ssd"/>
  <polygon points="35,98 532,272 509,326" fill="#673ab7" stroke="#065695" stroke-width="2" xlink:title="Flexible IO Tester - ext4-ramdisk - 5.346x Faster Than btrfs-ramdisk"/>
  <polygon points="35,98 408,229 391,269" fill="#f44336" stroke="#065695" stroke-width="2" xlink:title="Flexible IO Tester - f2fs-ramdisk - 4.840x Faster Than btrfs-ramdisk"/>
  <polygon points="35,98 298,190 286,219" fill="#009688" stroke="#065695" stroke-width="2" xlink:title="Flexible IO Tester - f2fs-nvme - 3.999x Faster Than btrfs-ramdisk"/>
  <polygon points="35,98 286,186 274,213" fill="#4caf50" stroke="#065695" stroke-width="2" xlink:title="Flexible IO Tester - ext4-nvme - 3.952x Faster Than btrfs-ramdisk"/>
  <polygon points="35,98 275,182 264,208" fill="#795548" stroke="#065695" stroke-width="2" xlink:title="Flexible IO Tester - ext4-ssd - 2.270x Faster Than btrfs-ramdisk"/>
  <polygon points="35,98 115,126 111,135" fill="#e91e63" stroke="#065695" stroke-width="2" xlink:title="Flexible IO Tester - f2fs-ssd - 1.753x Faster Than btrfs-ramdisk"/>
  <polygon points="35,98 108,123 104,131" fill="#9e9e9e" stroke="#065695" stroke-width="2" xlink:title="Flexible IO Tester - btrfs-ssd - 1.354x Faster Than btrfs-ramdisk"/>
  <polygon points="35,98 94,119 92,125" fill="#ff5722" stroke="#065695" stroke-width="2" xlink:title="Flexible IO Tester - btrfs-nvme - 1.227x Faster Than btrfs-ramdisk"/>
  <polygon points="35,98 90,117 87,123" fill="#01579b" stroke="#065695" stroke-width="2" xlink:title="Flexible IO Tester - btrfs-ramdisk - 1.000x Faster Than btrfs-ramdisk"/>
  <polygon points="35,98 314,233 298,263" fill="#f44336" stroke="#065695" stroke-width="2" xlink:title="AIO-Stress - f2fs-ramdisk - 1.552x Faster Than ext4-ramdisk"/>
  <polygon points="35,98 288,220 273,247" fill="#009688" stroke="#065695" stroke-width="2" xlink:title="AIO-Stress - f2fs-nvme - 1.316x Faster Than ext4-ramdisk"/>
  <polygon points="35,98 244,199 231,221" fill="#e91e63" stroke="#065695" stroke-width="2" xlink:title="AIO-Stress - f2fs-ssd - 1.265x Faster Than ext4-ramdisk"/>
  <polygon points="35,98 242,197 229,220" fill="#ff5722" stroke="#065695" stroke-width="2" xlink:title="AIO-Stress - btrfs-nvme - 1.183x Faster Than ext4-ramdisk"/>
  <polygon points="35,98 154,155 146,168" fill="#9e9e9e" stroke="#065695" stroke-width="2" xlink:title="AIO-Stress - btrfs-ssd - 1.182x Faster Than ext4-ramdisk"/>
  <polygon points="35,98 127,142 121,152" fill="#01579b" stroke="#065695" stroke-width="2" xlink:title="AIO-Stress - btrfs-ramdisk - 1.152x Faster Than ext4-ramdisk"/>
  <polygon points="35,98 106,132 101,140" fill="#795548" stroke="#065695" stroke-width="2" xlink:title="AIO-Stress - ext4-ssd - 1.015x Faster Than ext4-ramdisk"/>
  <polygon points="35,98 99,129 95,136" fill="#4caf50" stroke="#065695" stroke-width="2" xlink:title="AIO-Stress - ext4-nvme - 1.001x Faster Than ext4-ramdisk"/>
  <polygon points="35,98 87,123 84,129" fill="#673ab7" stroke="#065695" stroke-width="2" xlink:title="AIO-Stress - ext4-ramdisk - 1.000x Faster Than ext4-ramdisk"/>
  <polygon points="35,98 111,146 105,154" fill="#673ab7" stroke="#065695" stroke-width="2" xlink:title="Flexible IO Tester - ext4-ramdisk - 4.309x Faster Than btrfs-ssd"/>
  <polygon points="35,98 100,139 95,146" fill="#f44336" stroke="#065695" stroke-width="2" xlink:title="Flexible IO Tester - f2fs-ramdisk - 3.984x Faster Than btrfs-ssd"/>
  <polygon points="35,98 97,137 92,144" fill="#009688" stroke="#065695" stroke-width="2" xlink:title="Flexible IO Tester - f2fs-nvme - 2.412x Faster Than btrfs-ssd"/>
  <polygon points="35,98 93,135 89,141" fill="#ff5722" stroke="#065695" stroke-width="2" xlink:title="Flexible IO Tester - btrfs-nvme - 2.309x Faster Than btrfs-ssd"/>
  <polygon points="35,98 93,134 89,141" fill="#4caf50" stroke="#065695" stroke-width="2" xlink:title="Flexible IO Tester - ext4-nvme - 2.079x Faster Than btrfs-ssd"/>
  <polygon points="35,98 92,134 87,140" fill="#01579b" stroke="#065695" stroke-width="2" xlink:title="Flexible IO Tester - btrfs-ramdisk - 1.919x Faster Than btrfs-ssd"/>
  <polygon points="35,98 85,129 81,135" fill="#e91e63" stroke="#065695" stroke-width="2" xlink:title="Flexible IO Tester - f2fs-ssd - 1.197x Faster Than btrfs-ssd"/>
  <polygon points="35,98 84,129 80,134" fill="#795548" stroke="#065695" stroke-width="2" xlink:title="Flexible IO Tester - ext4-ssd - 1.135x Faster Than btrfs-ssd"/>
  <polygon points="35,98 84,129 80,134" fill="#9e9e9e" stroke="#065695" stroke-width="2" xlink:title="Flexible IO Tester - btrfs-ssd - 1.000x Faster Than btrfs-ssd"/>
  <polygon points="35,98 230,254 212,275" fill="#01579b" stroke="#065695" stroke-width="2" xlink:title="Flexible IO Tester - btrfs-ramdisk - 5.592x Faster Than f2fs-ssd"/>
  <polygon points="35,98 216,242 198,261" fill="#673ab7" stroke="#065695" stroke-width="2" xlink:title="Flexible IO Tester - ext4-ramdisk - 4.379x Faster Than f2fs-ssd"/>
  <polygon points="35,98 144,185 134,197" fill="#ff5722" stroke="#065695" stroke-width="2" xlink:title="Flexible IO Tester - btrfs-nvme - 4.207x Faster Than f2fs-ssd"/>
  <polygon points="35,98 140,181 130,193" fill="#f44336" stroke="#065695" stroke-width="2" xlink:title="Flexible IO Tester - f2fs-ramdisk - 4.108x Faster Than f2fs-ssd"/>
  <polygon points="35,98 129,173 120,183" fill="#009688" stroke="#065695" stroke-width="2" xlink:title="Flexible IO Tester - f2fs-nvme - 3.062x Faster Than f2fs-ssd"/>
  <polygon points="35,98 122,167 114,177" fill="#4caf50" stroke="#065695" stroke-width="2" xlink:title="Flexible IO Tester - ext4-nvme - 2.789x Faster Than f2fs-ssd"/>
  <polygon points="35,98 89,141 84,147" fill="#9e9e9e" stroke="#065695" stroke-width="2" xlink:title="Flexible IO Tester - btrfs-ssd - 1.803x Faster Than f2fs-ssd"/>
  <polygon points="35,98 86,139 82,145" fill="#795548" stroke="#065695" stroke-width="2" xlink:title="Flexible IO Tester - ext4-ssd - 1.559x Faster Than f2fs-ssd"/>
  <polygon points="35,98 80,134 76,139" fill="#e91e63" stroke="#065695" stroke-width="2" xlink:title="Flexible IO Tester - f2fs-ssd - 1.000x Faster Than f2fs-ssd"/>
  <polygon points="35,98 264,327 237,352" fill="#009688" stroke="#065695" stroke-width="2" xlink:title="Compile Bench - f2fs-nvme - 2.650x Faster Than btrfs-ssd"/>
  <polygon points="35,98 215,278 193,297" fill="#f44336" stroke="#065695" stroke-width="2" xlink:title="Compile Bench - f2fs-ramdisk - 2.644x Faster Than btrfs-ssd"/>
  <polygon points="35,98 208,271 187,289" fill="#e91e63" stroke="#065695" stroke-width="2" xlink:title="Compile Bench - f2fs-ssd - 2.621x Faster Than btrfs-ssd"/>
  <polygon points="35,98 203,266 184,284" fill="#673ab7" stroke="#065695" stroke-width="2" xlink:title="Compile Bench - ext4-ramdisk - 2.063x Faster Than btrfs-ssd"/>
  <polygon points="35,98 161,224 146,237" fill="#4caf50" stroke="#065695" stroke-width="2" xlink:title="Compile Bench - ext4-nvme - 2.057x Faster Than btrfs-ssd"/>
  <polygon points="35,98 149,212 136,224" fill="#795548" stroke="#065695" stroke-width="2" xlink:title="Compile Bench - ext4-ssd - 2.020x Faster Than btrfs-ssd"/>
  <polygon points="35,98 109,172 100,180" fill="#ff5722" stroke="#065695" stroke-width="2" xlink:title="Compile Bench - btrfs-nvme - 1.351x Faster Than btrfs-ssd"/>
  <polygon points="35,98 99,162 91,169" fill="#01579b" stroke="#065695" stroke-width="2" xlink:title="Compile Bench - btrfs-ramdisk - 1.128x Faster Than btrfs-ssd"/>
  <polygon points="35,98 76,139 71,143" fill="#9e9e9e" stroke="#065695" stroke-width="2" xlink:title="Compile Bench - btrfs-ssd - 1.000x Faster Than btrfs-ssd"/>
  <polygon points="35,98 131,218 117,228" fill="#f44336" stroke="#065695" stroke-width="2" xlink:title="IOzone - f2fs-ramdisk - 1.389x Faster Than f2fs-nvme"/>
  <polygon points="35,98 131,218 117,228" fill="#01579b" stroke="#065695" stroke-width="2" xlink:title="IOzone - btrfs-ramdisk - 1.344x Faster Than f2fs-nvme"/>
  <polygon points="35,98 130,217 116,227" fill="#673ab7" stroke="#065695" stroke-width="2" xlink:title="IOzone - ext4-ramdisk - 1.256x Faster Than f2fs-nvme"/>
  <polygon points="35,98 110,192 99,199" fill="#4caf50" stroke="#065695" stroke-width="2" xlink:title="IOzone - ext4-nvme - 1.055x Faster Than f2fs-nvme"/>
  <polygon points="35,98 109,191 98,199" fill="#9e9e9e" stroke="#065695" stroke-width="2" xlink:title="IOzone - btrfs-ssd - 1.041x Faster Than f2fs-nvme"/>
  <polygon points="35,98 108,190 97,197" fill="#e91e63" stroke="#065695" stroke-width="2" xlink:title="IOzone - f2fs-ssd - 1.038x Faster Than f2fs-nvme"/>
  <polygon points="35,98 84,159 77,164" fill="#ff5722" stroke="#065695" stroke-width="2" xlink:title="IOzone - btrfs-nvme - 1.031x Faster Than f2fs-nvme"/>
  <polygon points="35,98 76,149 70,153" fill="#795548" stroke="#065695" stroke-width="2" xlink:title="IOzone - ext4-ssd - 1.008x Faster Than f2fs-nvme"/>
  <polygon points="35,98 71,143 66,147" fill="#009688" stroke="#065695" stroke-width="2" xlink:title="IOzone - f2fs-nvme - 1.000x Faster Than f2fs-nvme"/>
  <polygon points="35,98 78,166 70,171" fill="#f44336" stroke="#065695" stroke-width="2" xlink:title="IOzone - f2fs-ramdisk - 4.407x Faster Than f2fs-ssd"/>
  <polygon points="35,98 76,164 69,168" fill="#673ab7" stroke="#065695" stroke-width="2" xlink:title="IOzone - ext4-ramdisk - 4.194x Faster Than f2fs-ssd"/>
  <polygon points="35,98 74,160 67,164" fill="#01579b" stroke="#065695" stroke-width="2" xlink:title="IOzone - btrfs-ramdisk - 4.171x Faster Than f2fs-ssd"/>
  <polygon points="35,98 68,150 62,153" fill="#ff5722" stroke="#065695" stroke-width="2" xlink:title="IOzone - btrfs-nvme - 3.342x Faster Than f2fs-ssd"/>
  <polygon points="35,98 67,149 61,152" fill="#009688" stroke="#065695" stroke-width="2" xlink:title="IOzone - f2fs-nvme - 3.272x Faster Than f2fs-ssd"/>
  <polygon points="35,98 67,149 61,152" fill="#4caf50" stroke="#065695" stroke-width="2" xlink:title="IOzone - ext4-nvme - 2.964x Faster Than f2fs-ssd"/>
  <polygon points="35,98 67,149 61,152" fill="#9e9e9e" stroke="#065695" stroke-width="2" xlink:title="IOzone - btrfs-ssd - 1.693x Faster Than f2fs-ssd"/>
  <polygon points="35,98 66,148 60,151" fill="#795548" stroke="#065695" stroke-width="2" xlink:title="IOzone - ext4-ssd - 1.579x Faster Than f2fs-ssd"/>
  <polygon points="35,98 66,147 60,150" fill="#e91e63" stroke="#065695" stroke-width="2" xlink:title="IOzone - f2fs-ssd - 1.000x Faster Than f2fs-ssd"/>
  <polygon points="35,98 146,328 119,339" fill="#009688" stroke="#065695" stroke-width="2" xlink:title="Threaded I/O Tester - f2fs-nvme - 1.593x Faster Than btrfs-ssd"/>
  <polygon points="35,98 141,317 115,328" fill="#f44336" stroke="#065695" stroke-width="2" xlink:title="Threaded I/O Tester - f2fs-ramdisk - 1.520x Faster Than btrfs-ssd"/>
  <polygon points="35,98 140,316 115,326" fill="#4caf50" stroke="#065695" stroke-width="2" xlink:title="Threaded I/O Tester - ext4-nvme - 1.422x Faster Than btrfs-ssd"/>
  <polygon points="35,98 119,273 99,281" fill="#795548" stroke="#065695" stroke-width="2" xlink:title="Threaded I/O Tester - ext4-ssd - 1.400x Faster Than btrfs-ssd"/>
  <polygon points="35,98 117,269 98,277" fill="#673ab7" stroke="#065695" stroke-width="2" xlink:title="Threaded I/O Tester - ext4-ramdisk - 1.367x Faster Than btrfs-ssd"/>
  <polygon points="35,98 110,253 92,260" fill="#e91e63" stroke="#065695" stroke-width="2" xlink:title="Threaded I/O Tester - f2fs-ssd - 1.204x Faster Than btrfs-ssd"/>
  <polygon points="35,98 78,186 67,191" fill="#01579b" stroke="#065695" stroke-width="2" xlink:title="Threaded I/O Tester - btrfs-ramdisk - 1.134x Faster Than btrfs-ssd"/>
  <polygon points="35,98 75,181 65,184" fill="#ff5722" stroke="#065695" stroke-width="2" xlink:title="Threaded I/O Tester - btrfs-nvme - 1.067x Faster Than btrfs-ssd"/>
  <polygon points="35,98 60,150 54,153" fill="#9e9e9e" stroke="#065695" stroke-width="2" xlink:title="Threaded I/O Tester - btrfs-ssd - 1.000x Faster Than btrfs-ssd"/>
  <polygon points="35,98 66,185 56,188" fill="#673ab7" stroke="#065695" stroke-width="2" xlink:title="Unpacking The Linux Kernel - ext4-ramdisk - 1.207x Faster Than btrfs-ramdisk"/>
  <polygon points="35,98 64,181 55,184" fill="#4caf50" stroke="#065695" stroke-width="2" xlink:title="Unpacking The Linux Kernel - ext4-nvme - 1.200x Faster Than btrfs-ramdisk"/>
  <polygon points="35,98 62,176 53,178" fill="#009688" stroke="#065695" stroke-width="2" xlink:title="Unpacking The Linux Kernel - f2fs-nvme - 1.190x Faster Than btrfs-ramdisk"/>
  <polygon points="35,98 62,175 53,177" fill="#e91e63" stroke="#065695" stroke-width="2" xlink:title="Unpacking The Linux Kernel - f2fs-ssd - 1.183x Faster Than btrfs-ramdisk"/>
  <polygon points="35,98 61,173 53,175" fill="#795548" stroke="#065695" stroke-width="2" xlink:title="Unpacking The Linux Kernel - ext4-ssd - 1.162x Faster Than btrfs-ramdisk"/>
  <polygon points="35,98 58,164 51,166" fill="#f44336" stroke="#065695" stroke-width="2" xlink:title="Unpacking The Linux Kernel - f2fs-ramdisk - 1.157x Faster Than btrfs-ramdisk"/>
  <polygon points="35,98 57,160 50,162" fill="#ff5722" stroke="#065695" stroke-width="2" xlink:title="Unpacking The Linux Kernel - btrfs-nvme - 1.022x Faster Than btrfs-ramdisk"/>
  <polygon points="35,98 55,156 49,158" fill="#9e9e9e" stroke="#065695" stroke-width="2" xlink:title="Unpacking The Linux Kernel - btrfs-ssd - 1.012x Faster Than btrfs-ramdisk"/>
  <polygon points="35,98 54,153 48,155" fill="#01579b" stroke="#065695" stroke-width="2" xlink:title="Unpacking The Linux Kernel - btrfs-ramdisk - 1.000x Faster Than btrfs-ramdisk"/>
  <polygon points="35,98 51,166 35,168" fill="#009688" stroke="#065695" stroke-width="2" xlink:title="PostMark - f2fs-nvme - 1.262x Faster Than ext4-ssd"/>
  <polygon points="35,98 50,166 35,168" fill="#e91e63" stroke="#065695" stroke-width="2" xlink:title="PostMark - f2fs-ssd - 1.243x Faster Than ext4-ssd"/>
  <polygon points="35,98 50,165 35,167" fill="#f44336" stroke="#065695" stroke-width="2" xlink:title="PostMark - f2fs-ramdisk - 1.180x Faster Than ext4-ssd"/>
  <polygon points="35,98 50,165 35,167" fill="#673ab7" stroke="#065695" stroke-width="2" xlink:title="PostMark - ext4-ramdisk - 1.051x Faster Than ext4-ssd"/>
  <polygon points="35,98 50,164 35,165" fill="#ff5722" stroke="#065695" stroke-width="2" xlink:title="PostMark - btrfs-nvme - 1.019x Faster Than ext4-ssd"/>
  <polygon points="35,98 50,163 35,165" fill="#01579b" stroke="#065695" stroke-width="2" xlink:title="PostMark - btrfs-ramdisk - 1.019x Faster Than ext4-ssd"/>
  <polygon points="35,98 48,156 35,157" fill="#9e9e9e" stroke="#065695" stroke-width="2" xlink:title="PostMark - btrfs-ssd - 1.012x Faster Than ext4-ssd"/>
  <polygon points="35,98 48,155 35,157" fill="#4caf50" stroke="#065695" stroke-width="2" xlink:title="PostMark - ext4-nvme - 1.000x Faster Than ext4-ssd"/>
  <polygon points="35,98 48,155 35,156" fill="#795548" stroke="#065695" stroke-width="2" xlink:title="PostMark - ext4-ssd - 1.000x Faster Than ext4-ssd"/>
  <path fill="#FEFEFE" stroke="#757575" stroke-width="1" d="M35,98 L93,98 A58,58 0 0,1 35,156 Z"/>
  <text x="73.922521006901" y="132.78329136909" font-size="11" fill="#C80000" text-anchor="end" dominant-baseline="middle">Disk</text>
  <text x="586" y="667" font-size="9" fill="#f44336" text-anchor="end" dominant-baseline="middle">2 x 960GB SanDisk SDSSDHII + 1200GB INTEL SSDPE2MW012T4</text>
  <text x="586" y="658" font-size="9" fill="#673ab7" text-anchor="end" dominant-baseline="middle">2 x 960GB SanDisk SDSSDHII + 1200GB INTEL SSDPE2MW012T4</text>
  <text x="586" y="649" font-size="9" fill="#01579b" text-anchor="end" dominant-baseline="middle">2 x 960GB SanDisk SDSSDHII + 1200GB INTEL SSDPE2MW012T4</text>
  <text x="586" y="640" font-size="9" fill="#009688" text-anchor="end" dominant-baseline="middle">2 x 960GB SanDisk SDSSDHII + 1200GB INTEL SSDPE2MW012T4</text>
  <text x="586" y="631" font-size="9" fill="#4caf50" text-anchor="end" dominant-baseline="middle">2 x 960GB SanDisk SDSSDHII + 1200GB INTEL SSDPE2MW012T4</text>
  <text x="586" y="622" font-size="9" fill="#ff5722" text-anchor="end" dominant-baseline="middle">2 x 960GB SanDisk SDSSDHII + 1200GB INTEL SSDPE2MW012T4</text>
  <text x="586" y="613" font-size="9" fill="#e91e63" text-anchor="end" dominant-baseline="middle">2 x 960GB SanDisk SDSSDHII + 1200GB INTEL SSDPE2MW012T4</text>
  <text x="586" y="604" font-size="9" fill="#795548" text-anchor="end" dominant-baseline="middle">2 x 960GB SanDisk SDSSDHII + 1200GB INTEL SSDPE2MW012T4</text>
  <text x="586" y="595" font-size="9" fill="#9e9e9e" text-anchor="end" dominant-baseline="middle">2 x 960GB SanDisk SDSSDHII + 1200GB INTEL SSDPE2MW012T4</text>
</svg>
