<?xml version="1.0"?>
<!DOCTYPE svg PUBLIC "-//W3C//DTD SVG 1.1//EN" "http://www.w3.org/Graphics/SVG/1.1/DTD/svg11.dtd">
<!--Phoronix Test Suite v6.4.0 [ http://www.phoronix-test-suite.com/ ]-->
<svg xmlns="http://www.w3.org/2000/svg" xmlns:xlink="http://www.w3.org/1999/xlink" version="1.1" font-family="sans-serif, droid-sans, helvetica, verdana, tahoma" viewbox="0 0 600 698" width="600" height="698" preserveAspectRatio="xMinYMin meet"><rect x="0" y="0" width="600" height="698" fill="#FEFEFE" stroke="#757575" stroke-width="2"/><rect x="0" y="0" width="600" height="48" fill="#231f20"/><image xlink:href="https://openbenchmarking.org/static/images/pts-77x40-white.png" x="10" y="2" width="77" height="40"/><text x="100" y="21" font-size="17" fill="#FEFEFE" text-anchor="start">2016-08-31-1732</text><text x="100" y="33" font-size="9" fill="#FEFEFE" text-anchor="start" href="http://www.phoronix-test-suite.com/">Phoronix Test Suite 6.4.0</text><path fill="#FEFEFE" stroke="#949494" stroke-width="1" stroke-dasharray="10,20" d="M35,98 L563,98 A528,528 0 0,1 35,626 Z"/><text x="563" y="90" font-size="10" fill="#757575" text-anchor="middle">4.4</text><line x1="563" y1="92" x2="563" y2="98" stroke="#757575" stroke-width="1"/><text x="27" y="626" font-size="10" fill="#757575" text-anchor="end" dominant-baseline="middle">4.4</text><line x1="29" y1="626" x2="35" y2="626" stroke="#757575" stroke-width="1"/><path fill="#FEFEFE" stroke="#949494" stroke-width="1" stroke-dasharray="10,20" d="M35,98 L491,98 A456,456 0 0,1 35,554 Z"/><text x="491" y="90" font-size="10" fill="#757575" text-anchor="middle">3.8</text><line x1="491" y1="92" x2="491" y2="98" stroke="#757575" stroke-width="1"/><text x="27" y="554" font-size="10" fill="#757575" text-anchor="end" dominant-baseline="middle">3.8</text><line x1="29" y1="554" x2="35" y2="554" stroke="#757575" stroke-width="1"/><path fill="#FEFEFE" stroke="#949494" stroke-width="1" stroke-dasharray="10,20" d="M35,98 L431,98 A396,396 0 0,1 35,494 Z"/><text x="431" y="90" font-size="10" fill="#757575" text-anchor="middle">3.3</text><line x1="431" y1="92" x2="431" y2="98" stroke="#757575" stroke-width="1"/><text x="27" y="494" font-size="10" fill="#757575" text-anchor="end" dominant-baseline="middle">3.3</text><line x1="29" y1="494" x2="35" y2="494" stroke="#757575" stroke-width="1"/><path fill="#FEFEFE" stroke="#949494" stroke-width="1" stroke-dasharray="10,20" d="M35,98 L359,98 A324,324 0 0,1 35,422 Z"/><text x="359" y="90" font-size="10" fill="#757575" text-anchor="middle">2.7</text><line x1="359" y1="92" x2="359" y2="98" stroke="#757575" stroke-width="1"/><text x="27" y="422" font-size="10" fill="#757575" text-anchor="end" dominant-baseline="middle">2.7</text><line x1="29" y1="422" x2="35" y2="422" stroke="#757575" stroke-width="1"/><path fill="#FEFEFE" stroke="#949494" stroke-width="1" stroke-dasharray="10,20" d="M35,98 L287,98 A252,252 0 0,1 35,350 Z"/><text x="287" y="90" font-size="10" fill="#757575" text-anchor="middle">2.1</text><line x1="287" y1="92" x2="287" y2="98" stroke="#757575" stroke-width="1"/><text x="27" y="350" font-size="10" fill="#757575" text-anchor="end" dominant-baseline="middle">2.1</text><line x1="29" y1="350" x2="35" y2="350" stroke="#757575" stroke-width="1"/><path fill="#FEFEFE" stroke="#949494" stroke-width="1" stroke-dasharray="10,20" d="M35,98 L227,98 A192,192 0 0,1 35,290 Z"/><text x="227" y="90" font-size="10" fill="#757575" text-anchor="middle">1.6</text><line x1="227" y1="92" x2="227" y2="98" stroke="#757575" stroke-width="1"/><text x="27" y="290" font-size="10" fill="#757575" text-anchor="end" dominant-baseline="middle">1.6</text><line x1="29" y1="290" x2="35" y2="290" stroke="#757575" stroke-width="1"/><path fill="#FEFEFE" stroke="#949494" stroke-width="1" stroke-dasharray="10,20" d="M35,98 L155,98 A120,120 0 0,1 35,218 Z"/><text x="155" y="90" font-size="10" fill="#757575" text-anchor="middle">1.0</text><line x1="155" y1="92" x2="155" y2="98" stroke="#757575" stroke-width="1"/><text x="27" y="218" font-size="10" fill="#757575" text-anchor="end" dominant-baseline="middle">1.0</text><line x1="29" y1="218" x2="35" y2="218" stroke="#757575" stroke-width="1"/><line x1="35" y1="98" x2="590" y2="98" stroke="#757575" stroke-width="1"/><line x1="35" y1="98" x2="35" y2="676" stroke="#757575" stroke-width="1"/><line x1="590" y1="676" x2="590" y2="98" stroke="#757575" stroke-width="1"/><line x1="35" y1="676" x2="590" y2="676" stroke="#757575" stroke-width="1"/><polygon points="35,98 253,98 251,129" fill="#f44336" stroke="#065695" stroke-width="2" xlink:title="Flexible IO Tester - F2FS-NVME - 1.343x Faster Than EXT4-SSD"/><polygon points="35,98 245,98 243,128" fill="#673ab7" stroke="#065695" stroke-width="2" xlink:title="Flexible IO Tester - EXT4-NVME - 1.340x Faster Than EXT4-SSD"/><polygon points="35,98 214,98 212,123" fill="#01579b" stroke="#065695" stroke-width="2" xlink:title="Flexible IO Tester - XFS-NVME - 1.335x Faster Than EXT4-SSD"/><polygon points="35,98 185,98 184,119" fill="#009688" stroke="#065695" stroke-width="2" xlink:title="Flexible IO Tester - F2FS-SSD - 1.030x Faster Than EXT4-SSD"/><polygon points="35,98 184,98 182,119" fill="#ffeb3b" stroke="#065695" stroke-width="2" xlink:title="Flexible IO Tester - XFS-SSD - 1.029x Faster Than EXT4-SSD"/><polygon points="35,98 155,98 154,115" fill="#4caf50" stroke="#065695" stroke-width="2" xlink:title="Flexible IO Tester - EXT4-SSD - 1.000x Faster Than EXT4-SSD"/><polygon points="35,98 195,121 190,143" fill="#f44336" stroke="#065695" stroke-width="2" xlink:title="Flexible IO Tester - F2FS-NVME - 3.122x Faster Than EXT4-SSD"/><polygon points="35,98 194,121 189,143" fill="#01579b" stroke="#065695" stroke-width="2" xlink:title="Flexible IO Tester - XFS-NVME - 2.666x Faster Than EXT4-SSD"/><polygon points="35,98 194,121 189,143" fill="#673ab7" stroke="#065695" stroke-width="2" xlink:title="Flexible IO Tester - EXT4-NVME - 2.571x Faster Than EXT4-SSD"/><polygon points="35,98 157,116 154,133" fill="#009688" stroke="#065695" stroke-width="2" xlink:title="Flexible IO Tester - F2FS-SSD - 1.543x Faster Than EXT4-SSD"/><polygon points="35,98 157,116 153,133" fill="#ffeb3b" stroke="#065695" stroke-width="2" xlink:title="Flexible IO Tester - XFS-SSD - 1.038x Faster Than EXT4-SSD"/><polygon points="35,98 154,115 150,132" fill="#4caf50" stroke="#065695" stroke-width="2" xlink:title="Flexible IO Tester - EXT4-SSD - 1.000x Faster Than EXT4-SSD"/><polygon points="35,98 394,204 376,254" fill="#f44336" stroke="#065695" stroke-width="2" xlink:title="AIO-Stress - F2FS-NVME - 4.394x Faster Than XFS-SSD"/><polygon points="35,98 342,188 326,231" fill="#4caf50" stroke="#065695" stroke-width="2" xlink:title="AIO-Stress - EXT4-SSD - 3.074x Faster Than XFS-SSD"/><polygon points="35,98 331,185 316,226" fill="#673ab7" stroke="#065695" stroke-width="2" xlink:title="AIO-Stress - EXT4-NVME - 2.808x Faster Than XFS-SSD"/><polygon points="35,98 213,150 203,175" fill="#009688" stroke="#065695" stroke-width="2" xlink:title="AIO-Stress - F2FS-SSD - 2.647x Faster Than XFS-SSD"/><polygon points="35,98 155,133 148,150" fill="#01579b" stroke="#065695" stroke-width="2" xlink:title="AIO-Stress - XFS-NVME - 2.643x Faster Than XFS-SSD"/><polygon points="35,98 150,132 144,148" fill="#ffeb3b" stroke="#065695" stroke-width="2" xlink:title="AIO-Stress - XFS-SSD - 1.000x Faster Than XFS-SSD"/><polygon points="35,98 515,317 479,383" fill="#f44336" stroke="#065695" stroke-width="2" xlink:title="Flexible IO Tester - F2FS-NVME - 2.200x Faster Than F2FS-SSD"/><polygon points="35,98 371,251 345,297" fill="#673ab7" stroke="#065695" stroke-width="2" xlink:title="Flexible IO Tester - EXT4-NVME - 2.091x Faster Than F2FS-SSD"/><polygon points="35,98 342,238 318,280" fill="#01579b" stroke="#065695" stroke-width="2" xlink:title="Flexible IO Tester - XFS-NVME - 2.061x Faster Than F2FS-SSD"/><polygon points="35,98 324,230 302,270" fill="#ffeb3b" stroke="#065695" stroke-width="2" xlink:title="Flexible IO Tester - XFS-SSD - 1.053x Faster Than F2FS-SSD"/><polygon points="35,98 323,230 302,269" fill="#4caf50" stroke="#065695" stroke-width="2" xlink:title="Flexible IO Tester - EXT4-SSD - 1.043x Faster Than F2FS-SSD"/><polygon points="35,98 144,148 136,163" fill="#009688" stroke="#065695" stroke-width="2" xlink:title="Flexible IO Tester - F2FS-SSD - 1.000x Faster Than F2FS-SSD"/><polygon points="35,98 257,241 235,271" fill="#f44336" stroke="#065695" stroke-width="2" xlink:title="Flexible IO Tester - F2FS-NVME - 2.122x Faster Than EXT4-SSD"/><polygon points="35,98 246,234 225,262" fill="#673ab7" stroke="#065695" stroke-width="2" xlink:title="Flexible IO Tester - EXT4-NVME - 2.049x Faster Than EXT4-SSD"/><polygon points="35,98 243,232 222,260" fill="#01579b" stroke="#065695" stroke-width="2" xlink:title="Flexible IO Tester - XFS-NVME - 2.044x Faster Than EXT4-SSD"/><polygon points="35,98 141,166 130,181" fill="#009688" stroke="#065695" stroke-width="2" xlink:title="Flexible IO Tester - F2FS-SSD - 1.005x Faster Than EXT4-SSD"/><polygon points="35,98 140,166 130,180" fill="#ffeb3b" stroke="#065695" stroke-width="2" xlink:title="Flexible IO Tester - XFS-SSD - 1.005x Faster Than EXT4-SSD"/><polygon points="35,98 136,163 126,177" fill="#4caf50" stroke="#065695" stroke-width="2" xlink:title="Flexible IO Tester - EXT4-SSD - 1.000x Faster Than EXT4-SSD"/><polygon points="35,98 227,265 202,290" fill="#f44336" stroke="#065695" stroke-width="2" xlink:title="Compile Bench - F2FS-NVME - 2.194x Faster Than XFS-SSD"/><polygon points="35,98 221,259 196,284" fill="#01579b" stroke="#065695" stroke-width="2" xlink:title="Compile Bench - XFS-NVME - 2.157x Faster Than XFS-SSD"/><polygon points="35,98 220,259 196,283" fill="#673ab7" stroke="#065695" stroke-width="2" xlink:title="Compile Bench - EXT4-NVME - 2.055x Faster Than XFS-SSD"/><polygon points="35,98 126,177 114,189" fill="#009688" stroke="#065695" stroke-width="2" xlink:title="Compile Bench - F2FS-SSD - 1.065x Faster Than XFS-SSD"/><polygon points="35,98 126,177 114,189" fill="#4caf50" stroke="#065695" stroke-width="2" xlink:title="Compile Bench - EXT4-SSD - 1.049x Faster Than XFS-SSD"/><polygon points="35,98 126,177 114,189" fill="#ffeb3b" stroke="#065695" stroke-width="2" xlink:title="Compile Bench - XFS-SSD - 1.000x Faster Than XFS-SSD"/><polygon points="35,98 207,297 177,319" fill="#f44336" stroke="#065695" stroke-width="2" xlink:title="IOzone - F2FS-NVME - 2.313x Faster Than EXT4-SSD"/><polygon points="35,98 205,294 175,316" fill="#01579b" stroke="#065695" stroke-width="2" xlink:title="IOzone - XFS-NVME - 2.274x Faster Than EXT4-SSD"/><polygon points="35,98 196,284 168,305" fill="#673ab7" stroke="#065695" stroke-width="2" xlink:title="IOzone - EXT4-NVME - 2.211x Faster Than EXT4-SSD"/><polygon points="35,98 119,195 104,206" fill="#009688" stroke="#065695" stroke-width="2" xlink:title="IOzone - F2FS-SSD - 1.032x Faster Than EXT4-SSD"/><polygon points="35,98 117,193 103,204" fill="#ffeb3b" stroke="#065695" stroke-width="2" xlink:title="IOzone - XFS-SSD - 1.003x Faster Than EXT4-SSD"/><polygon points="35,98 114,189 100,199" fill="#4caf50" stroke="#065695" stroke-width="2" xlink:title="IOzone - EXT4-SSD - 1.000x Faster Than EXT4-SSD"/><polygon points="35,98 185,331 150,350" fill="#f44336" stroke="#065695" stroke-width="2" xlink:title="Threaded I/O Tester - F2FS-NVME - 1.183x Faster Than XFS-NVME"/><polygon points="35,98 183,328 148,346" fill="#009688" stroke="#065695" stroke-width="2" xlink:title="Threaded I/O Tester - F2FS-SSD - 1.175x Faster Than XFS-NVME"/><polygon points="35,98 178,321 145,339" fill="#673ab7" stroke="#065695" stroke-width="2" xlink:title="Threaded I/O Tester - EXT4-NVME - 1.156x Faster Than XFS-NVME"/><polygon points="35,98 102,202 86,211" fill="#4caf50" stroke="#065695" stroke-width="2" xlink:title="Threaded I/O Tester - EXT4-SSD - 1.146x Faster Than XFS-NVME"/><polygon points="35,98 100,199 85,207" fill="#ffeb3b" stroke="#065695" stroke-width="2" xlink:title="Threaded I/O Tester - XFS-SSD - 1.002x Faster Than XFS-NVME"/><polygon points="35,98 100,199 85,207" fill="#01579b" stroke="#065695" stroke-width="2" xlink:title="Threaded I/O Tester - XFS-NVME - 1.000x Faster Than XFS-NVME"/><polygon points="35,98 94,227 75,234" fill="#009688" stroke="#065695" stroke-width="2" xlink:title="Unpacking The Linux Kernel - F2FS-SSD - 1.039x Faster Than EXT4-SSD"/><polygon points="35,98 94,226 75,233" fill="#01579b" stroke="#065695" stroke-width="2" xlink:title="Unpacking The Linux Kernel - XFS-NVME - 1.037x Faster Than EXT4-SSD"/><polygon points="35,98 93,224 74,231" fill="#f44336" stroke="#065695" stroke-width="2" xlink:title="Unpacking The Linux Kernel - F2FS-NVME - 1.024x Faster Than EXT4-SSD"/><polygon points="35,98 92,223 74,230" fill="#673ab7" stroke="#065695" stroke-width="2" xlink:title="Unpacking The Linux Kernel - EXT4-NVME - 1.017x Faster Than EXT4-SSD"/><polygon points="35,98 85,207 69,213" fill="#ffeb3b" stroke="#065695" stroke-width="2" xlink:title="Unpacking The Linux Kernel - XFS-SSD - 1.009x Faster Than EXT4-SSD"/><polygon points="35,98 85,207 69,213" fill="#4caf50" stroke="#065695" stroke-width="2" xlink:title="Unpacking The Linux Kernel - EXT4-SSD - 1.000x Faster Than EXT4-SSD"/><polygon points="35,98 70,218 35,223" fill="#f44336" stroke="#065695" stroke-width="2" xlink:title="PostMark - F2FS-NVME - 1.671x Faster Than XFS-SSD"/><polygon points="35,98 70,217 35,222" fill="#009688" stroke="#065695" stroke-width="2" xlink:title="PostMark - F2FS-SSD - 1.671x Faster Than XFS-SSD"/><polygon points="35,98 70,216 35,221" fill="#673ab7" stroke="#065695" stroke-width="2" xlink:title="PostMark - EXT4-NVME - 1.368x Faster Than XFS-SSD"/><polygon points="35,98 69,215 35,220" fill="#4caf50" stroke="#065695" stroke-width="2" xlink:title="PostMark - EXT4-SSD - 1.353x Faster Than XFS-SSD"/><polygon points="35,98 69,214 35,219" fill="#01579b" stroke="#065695" stroke-width="2" xlink:title="PostMark - XFS-NVME - 1.094x Faster Than XFS-SSD"/><polygon points="35,98 69,213 35,218" fill="#ffeb3b" stroke="#065695" stroke-width="2" xlink:title="PostMark - XFS-SSD - 1.000x Faster Than XFS-SSD"/><path fill="#FEFEFE" stroke="#757575" stroke-width="1" d="M35,98 L155,98 A120,120 0 0,1 35,218 Z"/><text x="116.62095403026" y="168.72495926609" font-size="11" fill="#C80000" text-anchor="end" dominant-baseline="middle">Disk</text><text x="586" y="667" font-size="9" fill="#f44336" text-anchor="end" dominant-baseline="middle">2 x 960GB SanDisk SDSSDHII + 1200GB INTEL SSDPE2MW012T4</text><text x="586" y="658" font-size="9" fill="#673ab7" text-anchor="end" dominant-baseline="middle">2 x 960GB SanDisk SDSSDHII + 1200GB INTEL SSDPE2MW012T4</text><text x="586" y="649" font-size="9" fill="#01579b" text-anchor="end" dominant-baseline="middle">2 x 960GB SanDisk SDSSDHII + 1200GB INTEL SSDPE2MW012T4</text><text x="586" y="640" font-size="9" fill="#009688" text-anchor="end" dominant-baseline="middle">2 x 960GB SanDisk SDSSDHII + 1200GB INTEL SSDPE2MW012T4</text><text x="586" y="631" font-size="9" fill="#4caf50" text-anchor="end" dominant-baseline="middle">2 x 960GB SanDisk SDSSDHII + 1200GB INTEL SSDPE2MW012T4</text><text x="586" y="622" font-size="9" fill="#ffeb3b" text-anchor="end" dominant-baseline="middle">2 x 960GB SanDisk SDSSDHII + 1200GB INTEL SSDPE2MW012T4</text></svg>
