<?xml version="1.0"?>
<!DOCTYPE svg PUBLIC "-//W3C//DTD SVG 1.1//EN" "http://www.w3.org/Graphics/SVG/1.1/DTD/svg11.dtd">
<!--Phoronix Test Suite v6.8.0m1 [ http://www.phoronix-test-suite.com/ ]-->
<svg xmlns="http://www.w3.org/2000/svg" xmlns:xlink="http://www.w3.org/1999/xlink" version="1.1" font-family="sans-serif, droid-sans, helvetica, verdana, tahoma" viewbox="0 0 600 570" width="600" height="570" preserveAspectRatio="xMinYMin meet">
  <rect x="0" y="0" width="600" height="570" fill="#FEFEFE" stroke="#757575" stroke-width="2"/>
  <g stroke="#757575" stroke-width="1">
    <line x1="93.5" y1="64" x2="93.5" y2="497"/>
    <line x1="93" y1="496.5" x2="586" y2="496.5"/>
  </g>
  <a xlink:href="http://www.phoronix-test-suite.com/" xlink:show="new">
    <text x="585" y="59" font-size="7" fill="#065695" text-anchor="end" xlink:show="new">PHORONIX-TEST-SUITE.COM</text>
  </a>
  <polygon points="102.5,56 93.5,60.5 93.5,51.5" fill="#065695" stroke="#949494" stroke-width="1"/>
  <text x="105" y="59" font-size="7" fill="#065695" text-anchor="start">MB/s, More Is Better</text>
  <rect x="0" y="0" width="600" height="48" fill="#231f20"/>
  <a xlink:href="http://openbenchmarking.org/test/pts/tiobench-1.3.0" xlink:show="new">
    <text x="6" y="19" font-size="17" fill="#FEFEFE" text-anchor="start" xlink:show="new">Threaded I/O Tester v20170503</text>
  </a>
  <text x="6" y="36" font-size="11" fill="#FEFEFE" text-anchor="start">Test: Random Read - Size Per Thread: 64MB - Thread Count: 4</text>
  <path d="m74 22v9m-5-16v16m-5-28v28m-23-2h12.5c2.485281 0 4.5-2.014719 4.5-4.5s-2.014719-4.5-4.5-4.5h-8c-2.485281 0-4.5-2.014719-4.5-4.5s2.014719-4.5 4.5-4.5h12.5m-21 5h-11m11 13h-2c-4.970563 0-9-4.029437-9-9v-20m-24 40v-20c0-4.970563 4.0294373-9 9-9 4.970563 0 9 4.029437 9 9s-4.029437 9-9 9h-9" stroke="#ffffff" stroke-width="4" fill="none" transform="translate(508,4)"/>
  <line x1="93.5" y1="100" x2="93.5" y2="466" stroke="#757575" stroke-width="11" stroke-dasharray="1,35"/>
  <g font-size="10" fill="#231f20">
    <text x="88" y="80" text-anchor="end">f2fs-ramdisk</text>
    <text x="88" y="116" text-anchor="end">ext4-ramdisk</text>
    <text x="88" y="152" text-anchor="end">xfs-ramdisk</text>
    <text x="88" y="188" text-anchor="end">btrfs-ramdisk</text>
    <text x="88" y="224" text-anchor="end">f2fs-nvme</text>
    <text x="88" y="260" text-anchor="end">ext4-nvme</text>
    <text x="88" y="296" text-anchor="end">xfs-nvme</text>
    <text x="88" y="332" text-anchor="end">btrfs-nvme</text>
    <text x="88" y="368" text-anchor="end">f2fs-ssd</text>
    <text x="88" y="404" text-anchor="end">ext4-ssd</text>
    <text x="88" y="440" text-anchor="end">xfs-ssd</text>
    <text x="88" y="476" text-anchor="end">btrfs-ssd</text>
  </g>
  <g font-size="10" fill="#065695" text-anchor="middle">
    <text x="177.5" y="511">40000</text>
    <text x="259.5" y="511">80000</text>
    <text x="341.5" y="511">120000</text>
    <text x="423.5" y="511">160000</text>
    <text x="505.5" y="511">200000</text>
  </g>
  <g stroke="#BABABA" stroke-width="1">
    <line x1="177.5" y1="64" x2="177.5" y2="491" stroke-dasharray="5,5"/>
    <line x1="177.5" y1="492" x2="177.5" y2="501"/>
    <line x1="259.5" y1="64" x2="259.5" y2="491" stroke-dasharray="5,5"/>
    <line x1="259.5" y1="492" x2="259.5" y2="501"/>
    <line x1="341.5" y1="64" x2="341.5" y2="491" stroke-dasharray="5,5"/>
    <line x1="341.5" y1="492" x2="341.5" y2="501"/>
    <line x1="423.5" y1="64" x2="423.5" y2="491" stroke-dasharray="5,5"/>
    <line x1="423.5" y1="492" x2="423.5" y2="501"/>
    <line x1="505.5" y1="64" x2="505.5" y2="491" stroke-dasharray="5,5"/>
    <line x1="505.5" y1="492" x2="505.5" y2="501"/>
  </g>
  <g stroke="#949494" stroke-width="1">
    <rect x="93.5" y="70.5" height="24" width="286" fill="#2196f3" xlink:title="f2fs-ramdisk: 139302.66"/>
    <rect x="93.5" y="106.5" height="24" width="297" fill="#2196f3" xlink:title="ext4-ramdisk: 144948.59"/>
    <rect x="93.5" y="142.5" height="24" width="314" fill="#2196f3" xlink:title="xfs-ramdisk: 153246.22"/>
    <rect x="93.5" y="178.5" height="24" width="35" fill="#2196f3" xlink:title="btrfs-ramdisk: 16842.95"/>
    <rect x="93.5" y="214.5" height="24" width="324" fill="#2196f3" xlink:title="f2fs-nvme: 158043.71"/>
    <rect x="93.5" y="250.5" height="24" width="343" fill="#2196f3" xlink:title="ext4-nvme: 167277.58"/>
    <rect x="93.5" y="286.5" height="24" width="396" fill="#2196f3" xlink:title="xfs-nvme: 193199.40"/>
    <rect x="93.5" y="322.5" height="24" width="39" fill="#2196f3" xlink:title="btrfs-nvme: 19077.64"/>
    <rect x="93.5" y="358.5" height="24" width="96" fill="#2196f3" xlink:title="f2fs-ssd: 46972.72"/>
    <rect x="93.5" y="394.5" height="24" width="87" fill="#2196f3" xlink:title="ext4-ssd: 42428.35"/>
    <rect x="93.5" y="430.5" height="24" width="93" fill="#2196f3" xlink:title="xfs-ssd: 45497.59"/>
    <rect x="93.5" y="466.5" height="24" width="8" fill="#2196f3" xlink:title="btrfs-ssd: 3783.55"/>
  </g>
  <g font-size="8" fill="#065695" text-anchor="end">
    <text y="94" x="88">SE +/- 3911.10</text>
    <text y="130" x="88">SE +/- 1060.57</text>
    <text y="166" x="88">SE +/- 18333.18</text>
    <text y="202" x="88">SE +/- 1270.51</text>
    <text y="238" x="88">SE +/- 8460.88</text>
    <text y="274" x="88">SE +/- 7446.52</text>
    <text y="310" x="88">SE +/- 2911.32</text>
    <text y="346" x="88">SE +/- 6449.98</text>
    <text y="382" x="88">SE +/- 454.20</text>
    <text y="418" x="88">SE +/- 1508.80</text>
    <text y="454" x="88">SE +/- 1114.34</text>
    <text y="490" x="88">SE +/- 642.73</text>
  </g>
  <g font-size="10" fill="#FFFFFF">
    <text x="374" y="88" text-anchor="end">139302.66</text>
    <text x="385" y="124" text-anchor="end">144948.59</text>
    <text x="402" y="160" text-anchor="end">153246.22</text>
    <text x="134" y="196" fill="#065695" text-anchor="start">16842.95</text>
    <text x="412" y="232" text-anchor="end">158043.71</text>
    <text x="431" y="268" text-anchor="end">167277.58</text>
    <text x="484" y="304" text-anchor="end">193199.40</text>
    <text x="138" y="340" fill="#065695" text-anchor="start">19077.64</text>
    <text x="184" y="376" text-anchor="end">46972.72</text>
    <text x="175" y="412" text-anchor="end">42428.35</text>
    <text x="181" y="448" text-anchor="end">45497.59</text>
    <text x="107" y="484" fill="#065695" text-anchor="start">3783.55</text>
  </g>
  <line x1="371.5" y1="70" x2="371.5" y2="78" stroke="#757575" stroke-width="1"/>
  <line x1="387.5" y1="70" x2="387.5" y2="78" stroke="#757575" stroke-width="1"/>
  <line x1="371.5" y1="70.5" x2="387.5" y2="70.5" stroke="#757575" stroke-width="1"/>
  <line x1="369.5" y1="142" x2="369.5" y2="150" stroke="#757575" stroke-width="1"/>
  <line x1="445.5" y1="142" x2="445.5" y2="150" stroke="#757575" stroke-width="1"/>
  <line x1="369.5" y1="142.5" x2="445.5" y2="142.5" stroke="#757575" stroke-width="1"/>
  <line x1="400.5" y1="214" x2="400.5" y2="222" stroke="#757575" stroke-width="1"/>
  <line x1="434.5" y1="214" x2="434.5" y2="222" stroke="#757575" stroke-width="1"/>
  <line x1="400.5" y1="214.5" x2="434.5" y2="214.5" stroke="#757575" stroke-width="1"/>
  <line x1="421.5" y1="250" x2="421.5" y2="258" stroke="#757575" stroke-width="1"/>
  <line x1="451.5" y1="250" x2="451.5" y2="258" stroke="#757575" stroke-width="1"/>
  <line x1="421.5" y1="250.5" x2="451.5" y2="250.5" stroke="#757575" stroke-width="1"/>
  <line x1="483.5" y1="286" x2="483.5" y2="294" stroke="#757575" stroke-width="1"/>
  <line x1="495.5" y1="286" x2="495.5" y2="294" stroke="#757575" stroke-width="1"/>
  <line x1="483.5" y1="286.5" x2="495.5" y2="286.5" stroke="#757575" stroke-width="1"/>
  <line x1="119.5" y1="322" x2="119.5" y2="330" stroke="#757575" stroke-width="1"/>
  <line x1="145.5" y1="322" x2="145.5" y2="330" stroke="#757575" stroke-width="1"/>
  <line x1="119.5" y1="322.5" x2="145.5" y2="322.5" stroke="#757575" stroke-width="1"/>
  <rect x="0" y="518" width="600" height="52" fill="#231f20"/>
  <a xlink:href="http://www.phoronix-test-suite.com/" xlink:show="new">
    <text x="585" y="530" font-size="9" fill="#FEFEFE" text-anchor="end" xlink:show="new">Phoronix Test Suite 6.8.0m1</text>
  </a>
  <text x="5" y="544" font-size="8" fill="#FEFEFE" text-anchor="start" xlink:title="-O2" width="595">1. (CC) gcc options: -O2</text>
</svg>
