<?xml version="1.0"?>
<!DOCTYPE svg PUBLIC "-//W3C//DTD SVG 1.1//EN" "http://www.w3.org/Graphics/SVG/1.1/DTD/svg11.dtd">
<!--Phoronix Test Suite v6.8.0m1 [ http://www.phoronix-test-suite.com/ ]-->
<svg xmlns="http://www.w3.org/2000/svg" xmlns:xlink="http://www.w3.org/1999/xlink" version="1.1" font-family="sans-serif, droid-sans, helvetica, verdana, tahoma" viewbox="0 0 600 535" width="600" height="535" preserveAspectRatio="xMinYMin meet">
  <rect x="0" y="0" width="600" height="535" fill="#FEFEFE" stroke="#757575" stroke-width="2"/>
  <g stroke="#757575" stroke-width="1">
    <line x1="93.5" y1="64" x2="93.5" y2="497"/>
    <line x1="93" y1="496.5" x2="586" y2="496.5"/>
  </g>
  <a xlink:href="http://www.phoronix-test-suite.com/" xlink:show="new">
    <text x="585" y="59" font-size="7" fill="#065695" text-anchor="end" xlink:show="new">PHORONIX-TEST-SUITE.COM</text>
  </a>
  <polygon points="93.5,56 102.5,60.5 102.5,51.5" fill="#065695" stroke="#949494" stroke-width="1"/>
  <text x="105" y="59" font-size="7" fill="#065695" text-anchor="start">Seconds, Less Is Better</text>
  <rect x="0" y="0" width="600" height="48" fill="#231f20"/>
  <a xlink:href="http://openbenchmarking.org/test/pts/unpack-linux-1.0.0" xlink:show="new">
    <text x="6" y="19" font-size="17" fill="#FEFEFE" text-anchor="start" xlink:show="new">Unpacking The Linux Kernel</text>
  </a>
  <text x="6" y="36" font-size="11" fill="#FEFEFE" text-anchor="start">linux-2.6.32.tar.bz2</text>
  <path d="m74 22v9m-5-16v16m-5-28v28m-23-2h12.5c2.485281 0 4.5-2.014719 4.5-4.5s-2.014719-4.5-4.5-4.5h-8c-2.485281 0-4.5-2.014719-4.5-4.5s2.014719-4.5 4.5-4.5h12.5m-21 5h-11m11 13h-2c-4.970563 0-9-4.029437-9-9v-20m-24 40v-20c0-4.970563 4.0294373-9 9-9 4.970563 0 9 4.029437 9 9s-4.029437 9-9 9h-9" stroke="#ffffff" stroke-width="4" fill="none" transform="translate(508,4)"/>
  <line x1="93.5" y1="100" x2="93.5" y2="465" stroke="#757575" stroke-width="11" stroke-dasharray="1,35"/>
  <g font-size="10" fill="#231f20">
    <text x="88" y="80" text-anchor="end">f2fs-ramdisk</text>
    <text x="88" y="116" text-anchor="end">ext4-ramdisk</text>
    <text x="88" y="152" text-anchor="end">xfs-ramdisk</text>
    <text x="88" y="188" text-anchor="end">btrfs-ramdisk</text>
    <text x="88" y="224" text-anchor="end">f2fs-nvme</text>
    <text x="88" y="260" text-anchor="end">ext4-nvme</text>
    <text x="88" y="296" text-anchor="end">xfs-nvme</text>
    <text x="88" y="332" text-anchor="end">btrfs-nvme</text>
    <text x="88" y="368" text-anchor="end">f2fs-ssd</text>
    <text x="88" y="404" text-anchor="end">ext4-ssd</text>
    <text x="88" y="440" text-anchor="end">xfs-ssd</text>
    <text x="88" y="476" text-anchor="end">btrfs-ssd</text>
  </g>
  <g font-size="10" fill="#065695" text-anchor="middle">
    <text x="177.5" y="511">3</text>
    <text x="259.5" y="511">6</text>
    <text x="341.5" y="511">9</text>
    <text x="423.5" y="511">12</text>
    <text x="505.5" y="511">15</text>
  </g>
  <g stroke="#BABABA" stroke-width="1">
    <line x1="177.5" y1="64" x2="177.5" y2="491" stroke-dasharray="5,5"/>
    <line x1="177.5" y1="492" x2="177.5" y2="501"/>
    <line x1="259.5" y1="64" x2="259.5" y2="491" stroke-dasharray="5,5"/>
    <line x1="259.5" y1="492" x2="259.5" y2="501"/>
    <line x1="341.5" y1="64" x2="341.5" y2="491" stroke-dasharray="5,5"/>
    <line x1="341.5" y1="492" x2="341.5" y2="501"/>
    <line x1="423.5" y1="64" x2="423.5" y2="491" stroke-dasharray="5,5"/>
    <line x1="423.5" y1="492" x2="423.5" y2="501"/>
    <line x1="505.5" y1="64" x2="505.5" y2="491" stroke-dasharray="5,5"/>
    <line x1="505.5" y1="492" x2="505.5" y2="501"/>
  </g>
  <g stroke="#949494" stroke-width="1">
    <rect x="93.5" y="70.5" height="24" width="257" fill="#2196f3" xlink:title="f2fs-ramdisk: 9.40"/>
    <rect x="93.5" y="106.5" height="24" width="253" fill="#2196f3" xlink:title="ext4-ramdisk: 9.24"/>
    <rect x="93.5" y="142.5" height="24" width="259" fill="#2196f3" xlink:title="xfs-ramdisk: 9.46"/>
    <rect x="93.5" y="178.5" height="24" width="294" fill="#2196f3" xlink:title="btrfs-ramdisk: 10.76"/>
    <rect x="93.5" y="214.5" height="24" width="259" fill="#2196f3" xlink:title="f2fs-nvme: 9.49"/>
    <rect x="93.5" y="250.5" height="24" width="252" fill="#2196f3" xlink:title="ext4-nvme: 9.22"/>
    <rect x="93.5" y="286.5" height="24" width="257" fill="#2196f3" xlink:title="xfs-nvme: 9.42"/>
    <rect x="93.5" y="322.5" height="24" width="290" fill="#2196f3" xlink:title="btrfs-nvme: 10.60"/>
    <rect x="93.5" y="358.5" height="24" width="262" fill="#2196f3" xlink:title="f2fs-ssd: 9.58"/>
    <rect x="93.5" y="394.5" height="24" width="253" fill="#2196f3" xlink:title="ext4-ssd: 9.26"/>
    <rect x="93.5" y="430.5" height="24" width="265" fill="#2196f3" xlink:title="xfs-ssd: 9.71"/>
    <rect x="93.5" y="466.5" height="24" width="297" fill="#2196f3" xlink:title="btrfs-ssd: 10.87"/>
  </g>
  <g font-size="8" fill="#065695" text-anchor="end">
    <text y="94" x="88">SE +/- 0.11</text>
    <text y="130" x="88">SE +/- 0.05</text>
    <text y="166" x="88">SE +/- 0.12</text>
    <text y="202" x="88">SE +/- 0.05</text>
    <text y="238" x="88">SE +/- 0.16</text>
    <text y="274" x="88">SE +/- 0.01</text>
    <text y="310" x="88">SE +/- 0.12</text>
    <text y="346" x="88">SE +/- 0.02</text>
    <text y="382" x="88">SE +/- 0.09</text>
    <text y="418" x="88">SE +/- 0.05</text>
    <text y="454" x="88">SE +/- 0.19</text>
    <text y="490" x="88">SE +/- 0.15</text>
  </g>
  <g font-size="10" fill="#FFFFFF">
    <text x="345" y="88" text-anchor="end">9.40</text>
    <text x="341" y="124" text-anchor="end">9.24</text>
    <text x="347" y="160" text-anchor="end">9.46</text>
    <text x="382" y="196" text-anchor="end">10.76</text>
    <text x="347" y="232" text-anchor="end">9.49</text>
    <text x="340" y="268" text-anchor="end">9.22</text>
    <text x="345" y="304" text-anchor="end">9.42</text>
    <text x="378" y="340" text-anchor="end">10.60</text>
    <text x="350" y="376" text-anchor="end">9.58</text>
    <text x="341" y="412" text-anchor="end">9.26</text>
    <text x="353" y="448" text-anchor="end">9.71</text>
    <text x="385" y="484" text-anchor="end">10.87</text>
  </g>
  <line x1="353.5" y1="430" x2="353.5" y2="438" stroke="#757575" stroke-width="1"/>
  <line x1="363.5" y1="430" x2="363.5" y2="438" stroke="#757575" stroke-width="1"/>
  <line x1="353.5" y1="430.5" x2="363.5" y2="430.5" stroke="#757575" stroke-width="1"/>
  <rect x="0" y="518" width="600" height="17" fill="#231f20"/>
  <a xlink:href="http://www.phoronix-test-suite.com/" xlink:show="new">
    <text x="585" y="530" font-size="9" fill="#FEFEFE" text-anchor="end" xlink:show="new">Phoronix Test Suite 6.8.0m1</text>
  </a>
</svg>
