<?xml version="1.0"?>
<!DOCTYPE svg PUBLIC "-//W3C//DTD SVG 1.1//EN" "http://www.w3.org/Graphics/SVG/1.1/DTD/svg11.dtd">
<!--Phoronix Test Suite v6.8.0m1 [ http://www.phoronix-test-suite.com/ ]-->
<svg xmlns="http://www.w3.org/2000/svg" xmlns:xlink="http://www.w3.org/1999/xlink" version="1.1" font-family="sans-serif, droid-sans, helvetica, verdana, tahoma" viewbox="0 0 1390 168" width="1390" height="168" preserveAspectRatio="xMinYMin meet">
  <rect x="0" y="0" width="1390" height="168" fill="#FEFEFE" stroke="#757575" stroke-width="2"/>
  <rect x="1" y="1" width="1389" height="167" fill="#FEFEFE" stroke="#757575" stroke-width="1"/>
  <path d="m74 22v9m-5-16v16m-5-28v28m-23-2h12.5c2.485281 0 4.5-2.014719 4.5-4.5s-2.014719-4.5-4.5-4.5h-8c-2.485281 0-4.5-2.014719-4.5-4.5s2.014719-4.5 4.5-4.5h12.5m-21 5h-11m11 13h-2c-4.970563 0-9-4.029437-9-9v-20m-24 40v-20c0-4.970563 4.0294373-9 9-9 4.970563 0 9 4.029437 9 9s-4.029437 9-9 9h-9" stroke="#000000" stroke-width="4" fill="none" transform="translate(31,43)"/>
  <line x1="142" y1="96" x2="1390" y2="96" stroke="#BABABA" stroke-width="112" stroke-dasharray="104,104"/>
  <line x1="695" y1="88" x2="695" y2="152" stroke="#949494" stroke-width="1390" stroke-dasharray="16,16"/>
  <line x1="142" y1="96" x2="1390" y2="96" stroke="#757575" stroke-width="112" stroke-dasharray="1,103"/>
  <rect x="1" y="1" width="1388" height="40" fill="#231f20"/>
  <text x="5" y="19" font-size="17" fill="#FEFEFE" text-anchor="start">Flexible IO Tester</text>
  <text x="5" y="33" font-size="11" fill="#FEFEFE" text-anchor="start">Type: Random Write - IO Engine: Sync - Buffered: Yes - Direct: No - Block Size: 4KB - Disk Target: Default Test Directory - Result: IOPS</text>
  <line x1="1" y1="40" x2="1389" y2="40" stroke="#757575" stroke-width="1"/>
  <g font-size="10" font-weight="bold" text-anchor="end" fill="#065695">
    <text x="140" y="100" fill="#065695">Results</text>
    <text x="140" y="116" fill="#065695">Difference</text>
    <text x="140" y="132" fill="#065695">Standard Error</text>
    <text x="140" y="148" fill="#065695">Standard Deviation</text>
  </g>
  <g font-size="10" fill="#065695" font-weight="bold" text-anchor="middle" dominant-baseline="text-before-edge">
    <text x="194" y="64">f2fs-ramdisk</text>
    <text x="298" y="64">ext4-ramdisk</text>
    <text x="402" y="64">xfs-ramdisk</text>
    <text x="506" y="64">btrfs-ramdisk</text>
    <text x="610" y="64">f2fs-nvme</text>
    <text x="714" y="64">ext4-nvme</text>
    <text x="818" y="64">xfs-nvme</text>
    <text x="922" y="64">btrfs-nvme</text>
    <text x="1026" y="64">f2fs-ssd</text>
    <text x="1130" y="64">ext4-ssd</text>
    <text x="1234" y="64">xfs-ssd</text>
    <text x="1338" y="64">btrfs-ssd</text>
  </g>
  <g/>
  <g text-anchor="middle" font-size="10">
    <text x="194" y="101" fill="#065695" xlink:title="STD Dev: 6.90%;  STD Error: 5461.02">193932</text>
    <text x="194" y="117" fill="#065695">5.81x</text>
    <text x="194" y="133" fill="#065695">5461.02</text>
    <text x="194" y="149" fill="#065695">6.90%</text>
    <text x="298" y="101" fill="#005a00" xlink:title="STD Dev: 3.28%;  STD Error: 2763.65">206209</text>
    <text x="298" y="117" fill="#065695">6.18x</text>
    <text x="298" y="133" fill="#065695">2763.65</text>
    <text x="298" y="149" fill="#065695">3.28%</text>
    <text x="402" y="101" fill="#065695" xlink:title="STD Dev: 3.21%;  STD Error: 3210.03">173261</text>
    <text x="402" y="117" fill="#065695">5.19x</text>
    <text x="402" y="133" fill="#065695">3210.03</text>
    <text x="402" y="149" fill="#065695">3.21%</text>
    <text x="506" y="101" fill="#065695" xlink:title="STD Dev: 1.74%;  STD Error: 394.60">39183</text>
    <text x="506" y="117" fill="#065695">1.17x</text>
    <text x="506" y="133" fill="#065695">394.60</text>
    <text x="506" y="149" fill="#065695">1.74%</text>
    <text x="610" y="101" fill="#065695" xlink:title="STD Dev: 0.94%;  STD Error: 893.24">164385</text>
    <text x="610" y="117" fill="#065695">4.93x</text>
    <text x="610" y="133" fill="#065695">893.24</text>
    <text x="610" y="149" fill="#065695">0.94%</text>
    <text x="714" y="101" fill="#065695" xlink:title="STD Dev: 0.59%;  STD Error: 555.60">163024</text>
    <text x="714" y="117" fill="#065695">4.89x</text>
    <text x="714" y="133" fill="#065695">555.60</text>
    <text x="714" y="149" fill="#065695">0.59%</text>
    <text x="818" y="101" fill="#065695" xlink:title="STD Dev: 2.76%;  STD Error: 2557.90">160735</text>
    <text x="818" y="117" fill="#065695">4.82x</text>
    <text x="818" y="133" fill="#065695">2557.90</text>
    <text x="818" y="149" fill="#065695">2.76%</text>
    <text x="922" y="101" fill="#065695" xlink:title="STD Dev: 7.94%;  STD Error: 1465.89">45230</text>
    <text x="922" y="117" fill="#065695">1.36x</text>
    <text x="922" y="133" fill="#065695">1465.89</text>
    <text x="922" y="149" fill="#065695">7.94%</text>
    <text x="1026" y="101" fill="#065695" xlink:title="STD Dev: 2.79%;  STD Error: 1596.48">99248</text>
    <text x="1026" y="117" fill="#065695">2.98x</text>
    <text x="1026" y="133" fill="#065695">1596.48</text>
    <text x="1026" y="149" fill="#065695">2.79%</text>
    <text x="1130" y="101" fill="#065695" xlink:title="STD Dev: 3.79%;  STD Error: 1500.49">96901</text>
    <text x="1130" y="117" fill="#065695">2.91x</text>
    <text x="1130" y="133" fill="#065695">1500.49</text>
    <text x="1130" y="149" fill="#065695">3.79%</text>
    <text x="1234" y="101" fill="#065695" xlink:title="STD Dev: 3.29%;  STD Error: 1388.69">94392</text>
    <text x="1234" y="117" fill="#065695">2.83x</text>
    <text x="1234" y="133" fill="#065695">1388.69</text>
    <text x="1234" y="149" fill="#065695">3.29%</text>
    <text x="1338" y="101" fill="#C80000" xlink:title="STD Dev: 77.62%;  STD Error: 10569.50">33353</text>
    <text x="1338" y="117" fill="#065695">1.00x</text>
    <text x="1338" y="133" fill="#065695">10569.50</text>
    <text x="1338" y="149" fill="#065695">77.62%</text>
  </g>
  <line x1="695" y1="88" x2="695" y2="152" stroke="#949494" stroke-width="1390" stroke-dasharray="1,15"/>
  <rect x="0" y="152" width="1390" height="16" fill="#231f20"/>
  <a xlink:href="http://www.phoronix-test-suite.com/" xlink:show="new">
    <text x="1388" y="165" font-size="10" fill="#FFFFFF" text-anchor="end" xlink:show="new">PHORONIX-TEST-SUITE.COM</text>
  </a>
</svg>
