<?xml version="1.0"?>
<!DOCTYPE svg PUBLIC "-//W3C//DTD SVG 1.1//EN" "http://www.w3.org/Graphics/SVG/1.1/DTD/svg11.dtd">
<!--Phoronix Test Suite v6.8.0m1 [ http://www.phoronix-test-suite.com/ ]-->
<svg xmlns="http://www.w3.org/2000/svg" xmlns:xlink="http://www.w3.org/1999/xlink" version="1.1" font-family="sans-serif, droid-sans, helvetica, verdana, tahoma" viewbox="0 0 600 577" width="600" height="577" preserveAspectRatio="xMinYMin meet">
  <rect x="0" y="0" width="600" height="577" fill="#FEFEFE" stroke="#757575" stroke-width="2"/>
  <g stroke="#757575" stroke-width="1">
    <line x1="93.5" y1="64" x2="93.5" y2="497"/>
    <line x1="93" y1="496.5" x2="586" y2="496.5"/>
  </g>
  <a xlink:href="http://www.phoronix-test-suite.com/" xlink:show="new">
    <text x="585" y="59" font-size="7" fill="#065695" text-anchor="end" xlink:show="new">PHORONIX-TEST-SUITE.COM</text>
  </a>
  <polygon points="102.5,56 93.5,60.5 93.5,51.5" fill="#065695" stroke="#949494" stroke-width="1"/>
  <text x="105" y="59" font-size="7" fill="#065695" text-anchor="start">MB/s, More Is Better</text>
  <rect x="0" y="0" width="600" height="48" fill="#231f20"/>
  <a xlink:href="http://openbenchmarking.org/test/pts/fio-1.8.2" xlink:show="new">
    <text x="6" y="19" font-size="17" fill="#FEFEFE" text-anchor="start" xlink:show="new">Flexible IO Tester v2.1.13</text>
  </a>
  <text x="6" y="36" font-size="6.5" fill="#FEFEFE" text-anchor="start">Type: Sequential Write - IO Engine: Sync - Buffered: Yes - Direct: No - Block Size: 1MB - Disk Target: Default Test Directory - Result: MB/s</text>
  <path d="m74 22v9m-5-16v16m-5-28v28m-23-2h12.5c2.485281 0 4.5-2.014719 4.5-4.5s-2.014719-4.5-4.5-4.5h-8c-2.485281 0-4.5-2.014719-4.5-4.5s2.014719-4.5 4.5-4.5h12.5m-21 5h-11m11 13h-2c-4.970563 0-9-4.029437-9-9v-20m-24 40v-20c0-4.970563 4.0294373-9 9-9 4.970563 0 9 4.029437 9 9s-4.029437 9-9 9h-9" stroke="#ffffff" stroke-width="4" fill="none" transform="translate(508,4)"/>
  <line x1="93.5" y1="100" x2="93.5" y2="495" stroke="#757575" stroke-width="11" stroke-dasharray="1,35"/>
  <g font-size="10" fill="#231f20">
    <text x="88" y="80" text-anchor="end">f2fs-ramdisk</text>
    <text x="88" y="116" text-anchor="end">ext4-ramdisk</text>
    <text x="88" y="152" text-anchor="end">xfs-ramdisk</text>
    <text x="88" y="188" text-anchor="end">btrfs-ramdisk</text>
    <text x="88" y="224" text-anchor="end">f2fs-nvme</text>
    <text x="88" y="260" text-anchor="end">ext4-nvme</text>
    <text x="88" y="296" text-anchor="end">xfs-nvme</text>
    <text x="88" y="332" text-anchor="end">btrfs-nvme</text>
    <text x="88" y="368" text-anchor="end">f2fs-ssd</text>
    <text x="88" y="404" text-anchor="end">ext4-ssd</text>
    <text x="88" y="440" text-anchor="end">xfs-ssd</text>
    <text x="88" y="476" text-anchor="end">btrfs-ssd</text>
  </g>
  <g font-size="10" fill="#065695" text-anchor="middle">
    <text x="177.5" y="511">300</text>
    <text x="259.5" y="511">600</text>
    <text x="341.5" y="511">900</text>
    <text x="423.5" y="511">1200</text>
    <text x="505.5" y="511">1500</text>
  </g>
  <g stroke="#BABABA" stroke-width="1">
    <line x1="177.5" y1="64" x2="177.5" y2="491" stroke-dasharray="5,5"/>
    <line x1="177.5" y1="492" x2="177.5" y2="501"/>
    <line x1="259.5" y1="64" x2="259.5" y2="491" stroke-dasharray="5,5"/>
    <line x1="259.5" y1="492" x2="259.5" y2="501"/>
    <line x1="341.5" y1="64" x2="341.5" y2="491" stroke-dasharray="5,5"/>
    <line x1="341.5" y1="492" x2="341.5" y2="501"/>
    <line x1="423.5" y1="64" x2="423.5" y2="491" stroke-dasharray="5,5"/>
    <line x1="423.5" y1="492" x2="423.5" y2="501"/>
    <line x1="505.5" y1="64" x2="505.5" y2="491" stroke-dasharray="5,5"/>
    <line x1="505.5" y1="492" x2="505.5" y2="501"/>
  </g>
  <g stroke="#949494" stroke-width="1">
    <rect x="93.5" y="70.5" height="24" width="305" fill="#2196f3" xlink:title="f2fs-ramdisk: 1115.26"/>
    <rect x="93.5" y="106.5" height="24" width="263" fill="#2196f3" xlink:title="ext4-ramdisk: 963.01"/>
    <rect x="93.5" y="142.5" height="24" width="286" fill="#2196f3" xlink:title="xfs-ramdisk: 1046.27"/>
    <rect x="93.5" y="178.5" height="24" width="339" fill="#2196f3" xlink:title="btrfs-ramdisk: 1239.16"/>
    <rect x="93.5" y="214.5" height="24" width="237" fill="#2196f3" xlink:title="f2fs-nvme: 866.23"/>
    <rect x="93.5" y="250.5" height="24" width="222" fill="#2196f3" xlink:title="ext4-nvme: 813.98"/>
    <rect x="93.5" y="286.5" height="24" width="232" fill="#2196f3" xlink:title="xfs-nvme: 850.19"/>
    <rect x="93.5" y="322.5" height="24" width="305" fill="#2196f3" xlink:title="btrfs-nvme: 1115.33"/>
    <rect x="93.5" y="358.5" height="24" width="87" fill="#2196f3" xlink:title="f2fs-ssd: 317.83"/>
    <rect x="93.5" y="394.5" height="24" width="136" fill="#2196f3" xlink:title="ext4-ssd: 497.82"/>
    <rect x="93.5" y="430.5" height="24" width="122" fill="#2196f3" xlink:title="xfs-ssd: 447.30"/>
    <rect x="93.5" y="466.5" height="24" width="129" fill="#2196f3" xlink:title="btrfs-ssd: 471.47"/>
  </g>
  <g font-size="8" fill="#065695" text-anchor="end">
    <text y="94" x="88">SE +/- 45.95</text>
    <text y="130" x="88">SE +/- 14.54</text>
    <text y="166" x="88">SE +/- 12.21</text>
    <text y="202" x="88">SE +/- 97.25</text>
    <text y="238" x="88">SE +/- 8.47</text>
    <text y="274" x="88">SE +/- 1.26</text>
    <text y="310" x="88">SE +/- 11.73</text>
    <text y="346" x="88">SE +/- 2.57</text>
    <text y="382" x="88">SE +/- 32.29</text>
    <text y="418" x="88">SE +/- 44.81</text>
    <text y="454" x="88">SE +/- 8.08</text>
    <text y="490" x="88">SE +/- 1.65</text>
  </g>
  <g font-size="10" fill="#FFFFFF">
    <text x="393" y="88" text-anchor="end">1115.26</text>
    <text x="351" y="124" text-anchor="end">963.01</text>
    <text x="374" y="160" text-anchor="end">1046.27</text>
    <text x="427" y="196" text-anchor="end">1239.16</text>
    <text x="325" y="232" text-anchor="end">866.23</text>
    <text x="310" y="268" text-anchor="end">813.98</text>
    <text x="320" y="304" text-anchor="end">850.19</text>
    <text x="393" y="340" text-anchor="end">1115.33</text>
    <text x="175" y="376" text-anchor="end">317.83</text>
    <text x="224" y="412" text-anchor="end">497.82</text>
    <text x="210" y="448" text-anchor="end">447.30</text>
    <text x="217" y="484" text-anchor="end">471.47</text>
  </g>
  <line x1="385.5" y1="70" x2="385.5" y2="78" stroke="#757575" stroke-width="1"/>
  <line x1="411.5" y1="70" x2="411.5" y2="78" stroke="#757575" stroke-width="1"/>
  <line x1="385.5" y1="70.5" x2="411.5" y2="70.5" stroke="#757575" stroke-width="1"/>
  <line x1="405.5" y1="178" x2="405.5" y2="186" stroke="#757575" stroke-width="1"/>
  <line x1="459.5" y1="178" x2="459.5" y2="186" stroke="#757575" stroke-width="1"/>
  <line x1="405.5" y1="178.5" x2="459.5" y2="178.5" stroke="#757575" stroke-width="1"/>
  <line x1="171.5" y1="358" x2="171.5" y2="366" stroke="#757575" stroke-width="1"/>
  <line x1="189.5" y1="358" x2="189.5" y2="366" stroke="#757575" stroke-width="1"/>
  <line x1="171.5" y1="358.5" x2="189.5" y2="358.5" stroke="#757575" stroke-width="1"/>
  <line x1="217.5" y1="394" x2="217.5" y2="402" stroke="#757575" stroke-width="1"/>
  <line x1="241.5" y1="394" x2="241.5" y2="402" stroke="#757575" stroke-width="1"/>
  <line x1="217.5" y1="394.5" x2="241.5" y2="394.5" stroke="#757575" stroke-width="1"/>
  <rect x="0" y="518" width="600" height="59" fill="#231f20"/>
  <a xlink:href="http://www.phoronix-test-suite.com/" xlink:show="new">
    <text x="585" y="530" font-size="9" fill="#FEFEFE" text-anchor="end" xlink:show="new">Phoronix Test Suite 6.8.0m1</text>
  </a>
  <text x="5" y="544" font-size="8" fill="#FEFEFE" text-anchor="start" xlink:title="-rdynamic -std=gnu99 -O3 -ffast-math -include -ll -lnuma -lrt -laio -lz -lm -lpthread -ldl" width="595">1. (CC) gcc options: -rdynamic -std=gnu99 -O3 -ffast-math -include -ll -lnuma -lrt -laio -lz -lm -lpthread -ldl</text>
</svg>
