<?xml version="1.0"?>
<!DOCTYPE svg PUBLIC "-//W3C//DTD SVG 1.1//EN" "http://www.w3.org/Graphics/SVG/1.1/DTD/svg11.dtd">
<!--Phoronix Test Suite v6.8.0m1 [ http://www.phoronix-test-suite.com/ ]-->
<svg xmlns="http://www.w3.org/2000/svg" xmlns:xlink="http://www.w3.org/1999/xlink" version="1.1" font-family="sans-serif, droid-sans, helvetica, verdana, tahoma" viewbox="0 0 600 698" width="600" height="698" preserveAspectRatio="xMinYMin meet">
  <rect x="0" y="0" width="600" height="698" fill="#FEFEFE" stroke="#757575" stroke-width="2"/>
  <rect x="0" y="0" width="600" height="48" fill="#231f20"/>
  <image xlink:href="https://openbenchmarking.org/static/images/pts-77x40-white.png" x="10" y="2" width="77" height="40"/>
  <text x="100" y="21" font-size="17" fill="#FEFEFE" text-anchor="start">f2fs-ramdisk</text>
  <text x="100" y="33" font-size="9" fill="#FEFEFE" text-anchor="start" href="http://www.phoronix-test-suite.com/">Phoronix Test Suite 6.8.0m1</text>
  <path fill="#FEFEFE" stroke="#949494" stroke-width="1" stroke-dasharray="10,20" d="M35,98 L559,98 A524,524 0 0,1 35,622 Z"/>
  <text x="559" y="90" font-size="10" fill="#757575" text-anchor="middle">7.6</text>
  <line x1="559" y1="92" x2="559" y2="98" stroke="#757575" stroke-width="1"/>
  <text x="27" y="622" font-size="10" fill="#757575" text-anchor="end" dominant-baseline="middle">7.6</text>
  <line x1="29" y1="622" x2="35" y2="622" stroke="#757575" stroke-width="1"/>
  <path fill="#FEFEFE" stroke="#949494" stroke-width="1" stroke-dasharray="10,20" d="M35,98 L484,98 A449,449 0 0,1 35,547 Z"/>
  <text x="484" y="90" font-size="10" fill="#757575" text-anchor="middle">6.5</text>
  <line x1="484" y1="92" x2="484" y2="98" stroke="#757575" stroke-width="1"/>
  <text x="27" y="547" font-size="10" fill="#757575" text-anchor="end" dominant-baseline="middle">6.5</text>
  <line x1="29" y1="547" x2="35" y2="547" stroke="#757575" stroke-width="1"/>
  <path fill="#FEFEFE" stroke="#949494" stroke-width="1" stroke-dasharray="10,20" d="M35,98 L408,98 A373,373 0 0,1 35,471 Z"/>
  <text x="408" y="90" font-size="10" fill="#757575" text-anchor="middle">5.4</text>
  <line x1="408" y1="92" x2="408" y2="98" stroke="#757575" stroke-width="1"/>
  <text x="27" y="471" font-size="10" fill="#757575" text-anchor="end" dominant-baseline="middle">5.4</text>
  <line x1="29" y1="471" x2="35" y2="471" stroke="#757575" stroke-width="1"/>
  <path fill="#FEFEFE" stroke="#949494" stroke-width="1" stroke-dasharray="10,20" d="M35,98 L332,98 A297,297 0 0,1 35,395 Z"/>
  <text x="332" y="90" font-size="10" fill="#757575" text-anchor="middle">4.3</text>
  <line x1="332" y1="92" x2="332" y2="98" stroke="#757575" stroke-width="1"/>
  <text x="27" y="395" font-size="10" fill="#757575" text-anchor="end" dominant-baseline="middle">4.3</text>
  <line x1="29" y1="395" x2="35" y2="395" stroke="#757575" stroke-width="1"/>
  <path fill="#FEFEFE" stroke="#949494" stroke-width="1" stroke-dasharray="10,20" d="M35,98 L256,98 A221,221 0 0,1 35,319 Z"/>
  <text x="256" y="90" font-size="10" fill="#757575" text-anchor="middle">3.2</text>
  <line x1="256" y1="92" x2="256" y2="98" stroke="#757575" stroke-width="1"/>
  <text x="27" y="319" font-size="10" fill="#757575" text-anchor="end" dominant-baseline="middle">3.2</text>
  <line x1="29" y1="319" x2="35" y2="319" stroke="#757575" stroke-width="1"/>
  <path fill="#FEFEFE" stroke="#949494" stroke-width="1" stroke-dasharray="10,20" d="M35,98 L180,98 A145,145 0 0,1 35,243 Z"/>
  <text x="180" y="90" font-size="10" fill="#757575" text-anchor="middle">2.1</text>
  <line x1="180" y1="92" x2="180" y2="98" stroke="#757575" stroke-width="1"/>
  <text x="27" y="243" font-size="10" fill="#757575" text-anchor="end" dominant-baseline="middle">2.1</text>
  <line x1="29" y1="243" x2="35" y2="243" stroke="#757575" stroke-width="1"/>
  <path fill="#FEFEFE" stroke="#949494" stroke-width="1" stroke-dasharray="10,20" d="M35,98 L104,98 A69,69 0 0,1 35,167 Z"/>
  <text x="104" y="90" font-size="10" fill="#757575" text-anchor="middle">1.0</text>
  <line x1="104" y1="92" x2="104" y2="98" stroke="#757575" stroke-width="1"/>
  <text x="27" y="167" font-size="10" fill="#757575" text-anchor="end" dominant-baseline="middle">1.0</text>
  <line x1="29" y1="167" x2="35" y2="167" stroke="#757575" stroke-width="1"/>
  <line x1="35" y1="98" x2="590" y2="98" stroke="#757575" stroke-width="1"/>
  <line x1="35" y1="98" x2="35" y2="676" stroke="#757575" stroke-width="1"/>
  <line x1="590" y1="676" x2="590" y2="98" stroke="#757575" stroke-width="1"/>
  <line x1="35" y1="676" x2="590" y2="676" stroke="#757575" stroke-width="1"/>
  <polygon points="35,98 148,98 147,116" fill="#673ab7" stroke="#065695" stroke-width="2" xlink:title="Flexible IO Tester - ext4-ramdisk - 6.183x Faster Than btrfs-ssd"/>
  <polygon points="35,98 148,98 146,116" fill="#f44336" stroke="#065695" stroke-width="2" xlink:title="Flexible IO Tester - f2fs-ramdisk - 5.815x Faster Than btrfs-ssd"/>
  <polygon points="35,98 147,98 145,115" fill="#01579b" stroke="#065695" stroke-width="2" xlink:title="Flexible IO Tester - xfs-ramdisk - 5.195x Faster Than btrfs-ssd"/>
  <polygon points="35,98 146,98 145,115" fill="#4caf50" stroke="#065695" stroke-width="2" xlink:title="Flexible IO Tester - f2fs-nvme - 4.929x Faster Than btrfs-ssd"/>
  <polygon points="35,98 145,98 144,115" fill="#ff5722" stroke="#065695" stroke-width="2" xlink:title="Flexible IO Tester - ext4-nvme - 4.888x Faster Than btrfs-ssd"/>
  <polygon points="35,98 142,98 141,115" fill="#e91e63" stroke="#065695" stroke-width="2" xlink:title="Flexible IO Tester - xfs-nvme - 4.819x Faster Than btrfs-ssd"/>
  <polygon points="35,98 134,98 133,113" fill="#9e9e9e" stroke="#065695" stroke-width="2" xlink:title="Flexible IO Tester - f2fs-ssd - 2.976x Faster Than btrfs-ssd"/>
  <polygon points="35,98 133,98 132,113" fill="#607d8b" stroke="#065695" stroke-width="2" xlink:title="Flexible IO Tester - ext4-ssd - 2.905x Faster Than btrfs-ssd"/>
  <polygon points="35,98 119,98 118,111" fill="#FFB300" stroke="#065695" stroke-width="2" xlink:title="Flexible IO Tester - xfs-ssd - 2.830x Faster Than btrfs-ssd"/>
  <polygon points="35,98 119,98 118,111" fill="#795548" stroke="#065695" stroke-width="2" xlink:title="Flexible IO Tester - btrfs-nvme - 1.356x Faster Than btrfs-ssd"/>
  <polygon points="35,98 118,98 117,111" fill="#009688" stroke="#065695" stroke-width="2" xlink:title="Flexible IO Tester - btrfs-ramdisk - 1.175x Faster Than btrfs-ssd"/>
  <polygon points="35,98 104,98 103,109" fill="#803E75" stroke="#065695" stroke-width="2" xlink:title="Flexible IO Tester - btrfs-ssd - 1.000x Faster Than btrfs-ssd"/>
  <polygon points="35,98 456,165 441,230" fill="#9e9e9e" stroke="#065695" stroke-width="2" xlink:title="AIO-Stress - f2fs-ssd - 1.360x Faster Than ext4-ramdisk"/>
  <polygon points="35,98 431,161 417,222" fill="#f44336" stroke="#065695" stroke-width="2" xlink:title="AIO-Stress - f2fs-ramdisk - 1.320x Faster Than ext4-ramdisk"/>
  <polygon points="35,98 389,154 376,209" fill="#4caf50" stroke="#065695" stroke-width="2" xlink:title="AIO-Stress - f2fs-nvme - 1.306x Faster Than ext4-ramdisk"/>
  <polygon points="35,98 371,151 358,203" fill="#795548" stroke="#065695" stroke-width="2" xlink:title="AIO-Stress - btrfs-nvme - 1.296x Faster Than ext4-ramdisk"/>
  <polygon points="35,98 368,151 356,202" fill="#803E75" stroke="#065695" stroke-width="2" xlink:title="AIO-Stress - btrfs-ssd - 1.291x Faster Than ext4-ramdisk"/>
  <polygon points="35,98 363,150 351,201" fill="#01579b" stroke="#065695" stroke-width="2" xlink:title="AIO-Stress - xfs-ramdisk - 1.286x Faster Than ext4-ramdisk"/>
  <polygon points="35,98 238,130 230,161" fill="#FFB300" stroke="#065695" stroke-width="2" xlink:title="AIO-Stress - xfs-ssd - 1.274x Faster Than ext4-ramdisk"/>
  <polygon points="35,98 233,129 226,160" fill="#009688" stroke="#065695" stroke-width="2" xlink:title="AIO-Stress - btrfs-ramdisk - 1.262x Faster Than ext4-ramdisk"/>
  <polygon points="35,98 228,129 221,158" fill="#e91e63" stroke="#065695" stroke-width="2" xlink:title="AIO-Stress - xfs-nvme - 1.221x Faster Than ext4-ramdisk"/>
  <polygon points="35,98 127,113 124,127" fill="#ff5722" stroke="#065695" stroke-width="2" xlink:title="AIO-Stress - ext4-nvme - 1.065x Faster Than ext4-ramdisk"/>
  <polygon points="35,98 115,111 112,123" fill="#607d8b" stroke="#065695" stroke-width="2" xlink:title="AIO-Stress - ext4-ssd - 1.041x Faster Than ext4-ramdisk"/>
  <polygon points="35,98 103,109 101,119" fill="#673ab7" stroke="#065695" stroke-width="2" xlink:title="AIO-Stress - ext4-ramdisk - 1.000x Faster Than ext4-ramdisk"/>
  <polygon points="35,98 124,127 119,141" fill="#673ab7" stroke="#065695" stroke-width="2" xlink:title="Flexible IO Tester - ext4-ramdisk - 7.641x Faster Than f2fs-ssd"/>
  <polygon points="35,98 122,126 116,139" fill="#01579b" stroke="#065695" stroke-width="2" xlink:title="Flexible IO Tester - xfs-ramdisk - 7.284x Faster Than f2fs-ssd"/>
  <polygon points="35,98 121,126 115,139" fill="#f44336" stroke="#065695" stroke-width="2" xlink:title="Flexible IO Tester - f2fs-ramdisk - 6.020x Faster Than f2fs-ssd"/>
  <polygon points="35,98 120,126 115,139" fill="#4caf50" stroke="#065695" stroke-width="2" xlink:title="Flexible IO Tester - f2fs-nvme - 3.239x Faster Than f2fs-ssd"/>
  <polygon points="35,98 120,126 114,138" fill="#ff5722" stroke="#065695" stroke-width="2" xlink:title="Flexible IO Tester - ext4-nvme - 3.119x Faster Than f2fs-ssd"/>
  <polygon points="35,98 119,125 114,138" fill="#009688" stroke="#065695" stroke-width="2" xlink:title="Flexible IO Tester - btrfs-ramdisk - 3.078x Faster Than f2fs-ssd"/>
  <polygon points="35,98 119,125 113,138" fill="#e91e63" stroke="#065695" stroke-width="2" xlink:title="Flexible IO Tester - xfs-nvme - 2.797x Faster Than f2fs-ssd"/>
  <polygon points="35,98 118,125 113,138" fill="#795548" stroke="#065695" stroke-width="2" xlink:title="Flexible IO Tester - btrfs-nvme - 2.612x Faster Than f2fs-ssd"/>
  <polygon points="35,98 115,124 110,136" fill="#FFB300" stroke="#065695" stroke-width="2" xlink:title="Flexible IO Tester - xfs-ssd - 1.604x Faster Than f2fs-ssd"/>
  <polygon points="35,98 105,121 100,131" fill="#607d8b" stroke="#065695" stroke-width="2" xlink:title="Flexible IO Tester - ext4-ssd - 1.537x Faster Than f2fs-ssd"/>
  <polygon points="35,98 103,120 99,131" fill="#803E75" stroke="#065695" stroke-width="2" xlink:title="Flexible IO Tester - btrfs-ssd - 1.432x Faster Than f2fs-ssd"/>
  <polygon points="35,98 101,119 96,129" fill="#9e9e9e" stroke="#065695" stroke-width="2" xlink:title="Flexible IO Tester - f2fs-ssd - 1.000x Faster Than f2fs-ssd"/>
  <polygon points="35,98 505,337 462,408" fill="#009688" stroke="#065695" stroke-width="2" xlink:title="Flexible IO Tester - btrfs-ramdisk - 3.899x Faster Than f2fs-ssd"/>
  <polygon points="35,98 483,326 442,393" fill="#795548" stroke="#065695" stroke-width="2" xlink:title="Flexible IO Tester - btrfs-nvme - 3.509x Faster Than f2fs-ssd"/>
  <polygon points="35,98 405,287 371,342" fill="#f44336" stroke="#065695" stroke-width="2" xlink:title="Flexible IO Tester - f2fs-ramdisk - 3.509x Faster Than f2fs-ssd"/>
  <polygon points="35,98 234,199 216,229" fill="#01579b" stroke="#065695" stroke-width="2" xlink:title="Flexible IO Tester - xfs-ramdisk - 3.292x Faster Than f2fs-ssd"/>
  <polygon points="35,98 227,196 209,224" fill="#673ab7" stroke="#065695" stroke-width="2" xlink:title="Flexible IO Tester - ext4-ramdisk - 3.030x Faster Than f2fs-ssd"/>
  <polygon points="35,98 224,194 207,223" fill="#4caf50" stroke="#065695" stroke-width="2" xlink:title="Flexible IO Tester - f2fs-nvme - 2.725x Faster Than f2fs-ssd"/>
  <polygon points="35,98 207,186 191,211" fill="#e91e63" stroke="#065695" stroke-width="2" xlink:title="Flexible IO Tester - xfs-nvme - 2.675x Faster Than f2fs-ssd"/>
  <polygon points="35,98 196,180 181,204" fill="#ff5722" stroke="#065695" stroke-width="2" xlink:title="Flexible IO Tester - ext4-nvme - 2.561x Faster Than f2fs-ssd"/>
  <polygon points="35,98 134,148 125,163" fill="#607d8b" stroke="#065695" stroke-width="2" xlink:title="Flexible IO Tester - ext4-ssd - 1.566x Faster Than f2fs-ssd"/>
  <polygon points="35,98 129,146 121,160" fill="#803E75" stroke="#065695" stroke-width="2" xlink:title="Flexible IO Tester - btrfs-ssd - 1.483x Faster Than f2fs-ssd"/>
  <polygon points="35,98 123,143 115,156" fill="#FFB300" stroke="#065695" stroke-width="2" xlink:title="Flexible IO Tester - xfs-ssd - 1.407x Faster Than f2fs-ssd"/>
  <polygon points="35,98 96,129 91,139" fill="#9e9e9e" stroke="#065695" stroke-width="2" xlink:title="Flexible IO Tester - f2fs-ssd - 1.000x Faster Than f2fs-ssd"/>
  <polygon points="35,98 253,256 225,288" fill="#4caf50" stroke="#065695" stroke-width="2" xlink:title="Compile Bench - f2fs-nvme - 3.598x Faster Than btrfs-ssd"/>
  <polygon points="35,98 231,240 206,269" fill="#9e9e9e" stroke="#065695" stroke-width="2" xlink:title="Compile Bench - f2fs-ssd - 3.506x Faster Than btrfs-ssd"/>
  <polygon points="35,98 231,240 206,269" fill="#f44336" stroke="#065695" stroke-width="2" xlink:title="Compile Bench - f2fs-ramdisk - 3.382x Faster Than btrfs-ssd"/>
  <polygon points="35,98 219,232 196,259" fill="#FFB300" stroke="#065695" stroke-width="2" xlink:title="Compile Bench - xfs-ssd - 2.912x Faster Than btrfs-ssd"/>
  <polygon points="35,98 204,221 183,246" fill="#e91e63" stroke="#065695" stroke-width="2" xlink:title="Compile Bench - xfs-nvme - 2.892x Faster Than btrfs-ssd"/>
  <polygon points="35,98 187,209 168,231" fill="#01579b" stroke="#065695" stroke-width="2" xlink:title="Compile Bench - xfs-ramdisk - 2.891x Faster Than btrfs-ssd"/>
  <polygon points="35,98 184,206 166,229" fill="#673ab7" stroke="#065695" stroke-width="2" xlink:title="Compile Bench - ext4-ramdisk - 2.799x Faster Than btrfs-ssd"/>
  <polygon points="35,98 178,202 160,223" fill="#607d8b" stroke="#065695" stroke-width="2" xlink:title="Compile Bench - ext4-ssd - 2.703x Faster Than btrfs-ssd"/>
  <polygon points="35,98 122,162 111,174" fill="#ff5722" stroke="#065695" stroke-width="2" xlink:title="Compile Bench - ext4-nvme - 2.685x Faster Than btrfs-ssd"/>
  <polygon points="35,98 118,158 107,170" fill="#795548" stroke="#065695" stroke-width="2" xlink:title="Compile Bench - btrfs-nvme - 1.861x Faster Than btrfs-ssd"/>
  <polygon points="35,98 114,155 104,167" fill="#009688" stroke="#065695" stroke-width="2" xlink:title="Compile Bench - btrfs-ramdisk - 1.531x Faster Than btrfs-ssd"/>
  <polygon points="35,98 91,139 84,147" fill="#803E75" stroke="#065695" stroke-width="2" xlink:title="Compile Bench - btrfs-ssd - 1.000x Faster Than btrfs-ssd"/>
  <polygon points="35,98 211,274 181,299" fill="#795548" stroke="#065695" stroke-width="2" xlink:title="IOzone - btrfs-nvme - 1.540x Faster Than ext4-nvme"/>
  <polygon points="35,98 206,269 177,294" fill="#e91e63" stroke="#065695" stroke-width="2" xlink:title="IOzone - xfs-nvme - 1.473x Faster Than ext4-nvme"/>
  <polygon points="35,98 200,263 172,287" fill="#673ab7" stroke="#065695" stroke-width="2" xlink:title="IOzone - ext4-ramdisk - 1.444x Faster Than ext4-nvme"/>
  <polygon points="35,98 177,240 153,261" fill="#FFB300" stroke="#065695" stroke-width="2" xlink:title="IOzone - xfs-ssd - 1.423x Faster Than ext4-nvme"/>
  <polygon points="35,98 176,239 152,259" fill="#01579b" stroke="#065695" stroke-width="2" xlink:title="IOzone - xfs-ramdisk - 1.362x Faster Than ext4-nvme"/>
  <polygon points="35,98 176,239 152,259" fill="#803E75" stroke="#065695" stroke-width="2" xlink:title="IOzone - btrfs-ssd - 1.322x Faster Than ext4-nvme"/>
  <polygon points="35,98 172,235 149,254" fill="#4caf50" stroke="#065695" stroke-width="2" xlink:title="IOzone - f2fs-nvme - 1.316x Faster Than ext4-nvme"/>
  <polygon points="35,98 167,230 145,249" fill="#607d8b" stroke="#065695" stroke-width="2" xlink:title="IOzone - ext4-ssd - 1.315x Faster Than ext4-nvme"/>
  <polygon points="35,98 166,229 144,248" fill="#009688" stroke="#065695" stroke-width="2" xlink:title="IOzone - btrfs-ramdisk - 1.297x Faster Than ext4-nvme"/>
  <polygon points="35,98 126,189 110,202" fill="#9e9e9e" stroke="#065695" stroke-width="2" xlink:title="IOzone - f2fs-ssd - 1.224x Faster Than ext4-nvme"/>
  <polygon points="35,98 110,173 97,183" fill="#f44336" stroke="#065695" stroke-width="2" xlink:title="IOzone - f2fs-ramdisk - 1.184x Faster Than ext4-nvme"/>
  <polygon points="35,98 84,147 76,154" fill="#ff5722" stroke="#065695" stroke-width="2" xlink:title="IOzone - ext4-nvme - 1.000x Faster Than ext4-nvme"/>
  <polygon points="35,98 97,184 83,193" fill="#795548" stroke="#065695" stroke-width="2" xlink:title="IOzone - btrfs-nvme - 2.199x Faster Than ext4-ssd"/>
  <polygon points="35,98 95,180 81,189" fill="#4caf50" stroke="#065695" stroke-width="2" xlink:title="IOzone - f2fs-nvme - 2.144x Faster Than ext4-ssd"/>
  <polygon points="35,98 94,179 80,187" fill="#009688" stroke="#065695" stroke-width="2" xlink:title="IOzone - btrfs-ramdisk - 2.005x Faster Than ext4-ssd"/>
  <polygon points="35,98 93,177 80,185" fill="#e91e63" stroke="#065695" stroke-width="2" xlink:title="IOzone - xfs-nvme - 1.994x Faster Than ext4-ssd"/>
  <polygon points="35,98 90,174 78,182" fill="#ff5722" stroke="#065695" stroke-width="2" xlink:title="IOzone - ext4-nvme - 1.931x Faster Than ext4-ssd"/>
  <polygon points="35,98 89,172 76,179" fill="#f44336" stroke="#065695" stroke-width="2" xlink:title="IOzone - f2fs-ramdisk - 1.896x Faster Than ext4-ssd"/>
  <polygon points="35,98 88,171 76,179" fill="#01579b" stroke="#065695" stroke-width="2" xlink:title="IOzone - xfs-ramdisk - 1.838x Faster Than ext4-ssd"/>
  <polygon points="35,98 88,171 76,179" fill="#673ab7" stroke="#065695" stroke-width="2" xlink:title="IOzone - ext4-ramdisk - 1.680x Faster Than ext4-ssd"/>
  <polygon points="35,98 88,170 76,178" fill="#803E75" stroke="#065695" stroke-width="2" xlink:title="IOzone - btrfs-ssd - 1.071x Faster Than ext4-ssd"/>
  <polygon points="35,98 85,166 73,173" fill="#9e9e9e" stroke="#065695" stroke-width="2" xlink:title="IOzone - f2fs-ssd - 1.045x Faster Than ext4-ssd"/>
  <polygon points="35,98 83,164 72,171" fill="#FFB300" stroke="#065695" stroke-width="2" xlink:title="IOzone - xfs-ssd - 1.015x Faster Than ext4-ssd"/>
  <polygon points="35,98 76,154 66,159" fill="#607d8b" stroke="#065695" stroke-width="2" xlink:title="IOzone - ext4-ssd - 1.000x Faster Than ext4-ssd"/>
  <polygon points="35,98 104,233 82,242" fill="#ff5722" stroke="#065695" stroke-width="2" xlink:title="Unpacking The Linux Kernel - ext4-nvme - 1.179x Faster Than btrfs-ssd"/>
  <polygon points="35,98 102,230 81,239" fill="#673ab7" stroke="#065695" stroke-width="2" xlink:title="Unpacking The Linux Kernel - ext4-ramdisk - 1.176x Faster Than btrfs-ssd"/>
  <polygon points="35,98 98,221 78,230" fill="#607d8b" stroke="#065695" stroke-width="2" xlink:title="Unpacking The Linux Kernel - ext4-ssd - 1.174x Faster Than btrfs-ssd"/>
  <polygon points="35,98 97,221 78,229" fill="#f44336" stroke="#065695" stroke-width="2" xlink:title="Unpacking The Linux Kernel - f2fs-ramdisk - 1.156x Faster Than btrfs-ssd"/>
  <polygon points="35,98 95,217 76,225" fill="#e91e63" stroke="#065695" stroke-width="2" xlink:title="Unpacking The Linux Kernel - xfs-nvme - 1.154x Faster Than btrfs-ssd"/>
  <polygon points="35,98 94,215 75,222" fill="#01579b" stroke="#065695" stroke-width="2" xlink:title="Unpacking The Linux Kernel - xfs-ramdisk - 1.149x Faster Than btrfs-ssd"/>
  <polygon points="35,98 93,211 74,219" fill="#4caf50" stroke="#065695" stroke-width="2" xlink:title="Unpacking The Linux Kernel - f2fs-nvme - 1.145x Faster Than btrfs-ssd"/>
  <polygon points="35,98 88,201 71,208" fill="#9e9e9e" stroke="#065695" stroke-width="2" xlink:title="Unpacking The Linux Kernel - f2fs-ssd - 1.135x Faster Than btrfs-ssd"/>
  <polygon points="35,98 69,164 58,168" fill="#FFB300" stroke="#065695" stroke-width="2" xlink:title="Unpacking The Linux Kernel - xfs-ssd - 1.119x Faster Than btrfs-ssd"/>
  <polygon points="35,98 68,162 57,167" fill="#795548" stroke="#065695" stroke-width="2" xlink:title="Unpacking The Linux Kernel - btrfs-nvme - 1.025x Faster Than btrfs-ssd"/>
  <polygon points="35,98 67,160 57,165" fill="#009688" stroke="#065695" stroke-width="2" xlink:title="Unpacking The Linux Kernel - btrfs-ramdisk - 1.010x Faster Than btrfs-ssd"/>
  <polygon points="35,98 66,159 56,164" fill="#803E75" stroke="#065695" stroke-width="2" xlink:title="Unpacking The Linux Kernel - btrfs-ssd - 1.000x Faster Than btrfs-ssd"/>
  <polygon points="35,98 60,175 48,178" fill="#f44336" stroke="#065695" stroke-width="2" xlink:title="PostMark - f2fs-ramdisk - 1.273x Faster Than xfs-ssd"/>
  <polygon points="35,98 60,175 48,178" fill="#9e9e9e" stroke="#065695" stroke-width="2" xlink:title="PostMark - f2fs-ssd - 1.263x Faster Than xfs-ssd"/>
  <polygon points="35,98 60,175 48,178" fill="#4caf50" stroke="#065695" stroke-width="2" xlink:title="PostMark - f2fs-nvme - 1.254x Faster Than xfs-ssd"/>
  <polygon points="35,98 60,174 47,177" fill="#795548" stroke="#065695" stroke-width="2" xlink:title="PostMark - btrfs-nvme - 1.120x Faster Than xfs-ssd"/>
  <polygon points="35,98 60,174 47,177" fill="#009688" stroke="#065695" stroke-width="2" xlink:title="PostMark - btrfs-ramdisk - 1.106x Faster Than xfs-ssd"/>
  <polygon points="35,98 59,173 47,176" fill="#673ab7" stroke="#065695" stroke-width="2" xlink:title="PostMark - ext4-ramdisk - 1.091x Faster Than xfs-ssd"/>
  <polygon points="35,98 59,173 47,176" fill="#ff5722" stroke="#065695" stroke-width="2" xlink:title="PostMark - ext4-nvme - 1.084x Faster Than xfs-ssd"/>
  <polygon points="35,98 59,172 47,175" fill="#607d8b" stroke="#065695" stroke-width="2" xlink:title="PostMark - ext4-ssd - 1.071x Faster Than xfs-ssd"/>
  <polygon points="35,98 59,171 47,174" fill="#803E75" stroke="#065695" stroke-width="2" xlink:title="PostMark - btrfs-ssd - 1.063x Faster Than xfs-ssd"/>
  <polygon points="35,98 57,165 46,168" fill="#01579b" stroke="#065695" stroke-width="2" xlink:title="PostMark - xfs-ramdisk - 1.031x Faster Than xfs-ssd"/>
  <polygon points="35,98 57,164 46,167" fill="#e91e63" stroke="#065695" stroke-width="2" xlink:title="PostMark - xfs-nvme - 1.012x Faster Than xfs-ssd"/>
  <polygon points="35,98 56,164 46,166" fill="#FFB300" stroke="#065695" stroke-width="2" xlink:title="PostMark - xfs-ssd - 1.000x Faster Than xfs-ssd"/>
  <path fill="#FEFEFE" stroke="#757575" stroke-width="1" d="M35,98 L104,98 A69,69 0 0,1 35,167 Z"/>
  <text x="82.221210463762" y="138.3307238013" font-size="11" fill="#C80000" text-anchor="end" dominant-baseline="middle">Disk</text>
  <text x="586" y="667" font-size="9" fill="#f44336" text-anchor="end" dominant-baseline="middle">2 x 960GB SanDisk SDSSDHII + 1200GB INTEL SSDPE2MW012T4</text>
  <text x="586" y="658" font-size="9" fill="#673ab7" text-anchor="end" dominant-baseline="middle">2 x 960GB SanDisk SDSSDHII + 1200GB INTEL SSDPE2MW012T4</text>
  <text x="586" y="649" font-size="9" fill="#01579b" text-anchor="end" dominant-baseline="middle">2 x 960GB SanDisk SDSSDHII + 1200GB INTEL SSDPE2MW012T4</text>
  <text x="586" y="640" font-size="9" fill="#009688" text-anchor="end" dominant-baseline="middle">2 x 960GB SanDisk SDSSDHII + 1200GB INTEL SSDPE2MW012T4</text>
  <text x="586" y="631" font-size="9" fill="#4caf50" text-anchor="end" dominant-baseline="middle">2 x 960GB SanDisk SDSSDHII + 1200GB INTEL SSDPE2MW012T4</text>
  <text x="586" y="622" font-size="9" fill="#ff5722" text-anchor="end" dominant-baseline="middle">2 x 960GB SanDisk SDSSDHII + 1200GB INTEL SSDPE2MW012T4</text>
  <text x="586" y="613" font-size="9" fill="#e91e63" text-anchor="end" dominant-baseline="middle">2 x 960GB SanDisk SDSSDHII + 1200GB INTEL SSDPE2MW012T4</text>
  <text x="586" y="604" font-size="9" fill="#795548" text-anchor="end" dominant-baseline="middle">2 x 960GB SanDisk SDSSDHII + 1200GB INTEL SSDPE2MW012T4</text>
  <text x="586" y="595" font-size="9" fill="#9e9e9e" text-anchor="end" dominant-baseline="middle">2 x 960GB SanDisk SDSSDHII + 1200GB INTEL SSDPE2MW012T4</text>
  <text x="586" y="586" font-size="9" fill="#607d8b" text-anchor="end" dominant-baseline="middle">2 x 960GB SanDisk SDSSDHII + 1200GB INTEL SSDPE2MW012T4</text>
  <text x="586" y="577" font-size="9" fill="#FFB300" text-anchor="end" dominant-baseline="middle">2 x 960GB SanDisk SDSSDHII + 1200GB INTEL SSDPE2MW012T4</text>
  <text x="586" y="568" font-size="9" fill="#803E75" text-anchor="end" dominant-baseline="middle">2 x 960GB SanDisk SDSSDHII + 1200GB INTEL SSDPE2MW012T4</text>
</svg>
