<?xml version="1.0"?>
<!DOCTYPE svg PUBLIC "-//W3C//DTD SVG 1.1//EN" "http://www.w3.org/Graphics/SVG/1.1/DTD/svg11.dtd">
<!--Phoronix Test Suite v6.8.0m1 [ http://www.phoronix-test-suite.com/ ]-->
<svg xmlns="http://www.w3.org/2000/svg" xmlns:xlink="http://www.w3.org/1999/xlink" version="1.1" font-family="sans-serif, droid-sans, helvetica, verdana, tahoma" viewbox="0 0 1000 527" width="1000" height="527" preserveAspectRatio="xMinYMin meet">
  <rect x="0" y="0" width="1000" height="527" fill="#FEFEFE" stroke="#757575" stroke-width="2"/>
  <g stroke="#757575" stroke-width="1"/>
  <g font-size="9" text-anchor="start"/>
  <rect x="30" y="108" width="960" height="120" fill="#BABABA" stroke="#757575" stroke-width="1"/>
  <a xlink:href="http://www.phoronix-test-suite.com/" xlink:show="new">
    <text x="988" y="120" font-size="10" fill="#065695" text-anchor="end" xlink:show="new">PHORONIX-TEST-SUITE.COM</text>
  </a>
  <g stroke="#757575" stroke-width="1" stroke-dasharray="5,5">
    <line x1="30" y1="209.5" x2="990" y2="209.5"/>
    <line x1="30" y1="189.5" x2="990" y2="189.5"/>
    <line x1="30" y1="169.5" x2="990" y2="169.5"/>
    <line x1="30" y1="149.5" x2="990" y2="149.5"/>
    <line x1="30" y1="129.5" x2="990" y2="129.5"/>
  </g>
  <g stroke="#757575" stroke-width="1">
    <line x1="26" y1="209.5" x2="34" y2="209.5"/>
    <line x1="26" y1="189.5" x2="34" y2="189.5"/>
    <line x1="26" y1="169.5" x2="34" y2="169.5"/>
    <line x1="26" y1="149.5" x2="34" y2="149.5"/>
    <line x1="26" y1="129.5" x2="34" y2="129.5"/>
  </g>
  <g stroke="#949494" stroke-width="1" stroke-dasharray="5,5">
    <line x1="41" y1="209.5" x2="990" y2="209.5"/>
    <line x1="41" y1="189.5" x2="990" y2="189.5"/>
    <line x1="41" y1="169.5" x2="990" y2="169.5"/>
    <line x1="41" y1="149.5" x2="990" y2="149.5"/>
    <line x1="41" y1="129.5" x2="990" y2="129.5"/>
  </g>
  <g font-size="10" fill="#065695" text-anchor="end"/>
  <rect x="30" y="243" width="960" height="120" fill="#BABABA" stroke="#757575" stroke-width="1"/>
  <a xlink:href="http://www.phoronix-test-suite.com/" xlink:show="new">
    <text x="988" y="255" font-size="10" fill="#065695" text-anchor="end" xlink:show="new">PHORONIX-TEST-SUITE.COM</text>
  </a>
  <g stroke="#757575" stroke-width="1" stroke-dasharray="5,5">
    <line x1="30" y1="344.5" x2="990" y2="344.5"/>
    <line x1="30" y1="324.5" x2="990" y2="324.5"/>
    <line x1="30" y1="304.5" x2="990" y2="304.5"/>
    <line x1="30" y1="284.5" x2="990" y2="284.5"/>
    <line x1="30" y1="264.5" x2="990" y2="264.5"/>
  </g>
  <g stroke="#757575" stroke-width="1">
    <line x1="26" y1="344.5" x2="34" y2="344.5"/>
    <line x1="26" y1="324.5" x2="34" y2="324.5"/>
    <line x1="26" y1="304.5" x2="34" y2="304.5"/>
    <line x1="26" y1="284.5" x2="34" y2="284.5"/>
    <line x1="26" y1="264.5" x2="34" y2="264.5"/>
  </g>
  <g stroke="#949494" stroke-width="1" stroke-dasharray="5,5">
    <line x1="41" y1="344.5" x2="990" y2="344.5"/>
    <line x1="41" y1="324.5" x2="990" y2="324.5"/>
    <line x1="41" y1="304.5" x2="990" y2="304.5"/>
    <line x1="41" y1="284.5" x2="990" y2="284.5"/>
    <line x1="41" y1="264.5" x2="990" y2="264.5"/>
  </g>
  <g font-size="10" fill="#065695" text-anchor="end"/>
  <rect x="30" y="378" width="960" height="120" fill="#BABABA" stroke="#757575" stroke-width="1"/>
  <a xlink:href="http://www.phoronix-test-suite.com/" xlink:show="new">
    <text x="988" y="390" font-size="10" fill="#065695" text-anchor="end" xlink:show="new">PHORONIX-TEST-SUITE.COM</text>
  </a>
  <g stroke="#757575" stroke-width="1" stroke-dasharray="5,5">
    <line x1="30" y1="479.5" x2="990" y2="479.5"/>
    <line x1="30" y1="459.5" x2="990" y2="459.5"/>
    <line x1="30" y1="439.5" x2="990" y2="439.5"/>
    <line x1="30" y1="419.5" x2="990" y2="419.5"/>
    <line x1="30" y1="399.5" x2="990" y2="399.5"/>
  </g>
  <g stroke="#757575" stroke-width="1">
    <line x1="26" y1="479.5" x2="34" y2="479.5"/>
    <line x1="26" y1="459.5" x2="34" y2="459.5"/>
    <line x1="26" y1="439.5" x2="34" y2="439.5"/>
    <line x1="26" y1="419.5" x2="34" y2="419.5"/>
    <line x1="26" y1="399.5" x2="34" y2="399.5"/>
  </g>
  <g stroke="#949494" stroke-width="1" stroke-dasharray="5,5">
    <line x1="41" y1="479.5" x2="990" y2="479.5"/>
    <line x1="41" y1="459.5" x2="990" y2="459.5"/>
    <line x1="41" y1="439.5" x2="990" y2="439.5"/>
    <line x1="41" y1="419.5" x2="990" y2="419.5"/>
    <line x1="41" y1="399.5" x2="990" y2="399.5"/>
  </g>
  <g font-size="10" fill="#065695" text-anchor="end"/>
  <text x="110" y="231" font-size="6.5" fill="#231f20" text-anchor="middle" dominant-baseline="text-before-edge">AIO-Stress</text>
  <rect x="46" y="113" width="10" height="115" fill="#f44336" stroke="#949494" stroke-width="1"/>
  <rect x="56" y="141" width="10" height="87" fill="#673ab7" stroke="#949494" stroke-width="1"/>
  <rect x="66" y="116" width="10" height="112" fill="#01579b" stroke="#949494" stroke-width="1"/>
  <rect x="76" y="118" width="10" height="110" fill="#009688" stroke="#949494" stroke-width="1"/>
  <rect x="86" y="114" width="10" height="114" fill="#4caf50" stroke="#949494" stroke-width="1"/>
  <rect x="96" y="135" width="10" height="93" fill="#ff5722" stroke="#949494" stroke-width="1"/>
  <rect x="106" y="121" width="10" height="107" fill="#e91e63" stroke="#949494" stroke-width="1"/>
  <rect x="116" y="115" width="10" height="113" fill="#795548" stroke="#949494" stroke-width="1"/>
  <rect x="126" y="109" width="10" height="119" fill="#9e9e9e" stroke="#949494" stroke-width="1"/>
  <rect x="136" y="137" width="10" height="91" fill="#607d8b" stroke="#949494" stroke-width="1"/>
  <rect x="146" y="117" width="10" height="111" fill="#FFB300" stroke="#949494" stroke-width="1"/>
  <rect x="156" y="115" width="10" height="113" fill="#803E75" stroke="#949494" stroke-width="1"/>
  <text x="270" y="231" font-size="6.5" fill="#231f20" text-anchor="middle" dominant-baseline="text-before-edge">Flexible IO Tester</text>
  <rect x="206" y="109" width="10" height="119" fill="#f44336" stroke="#949494" stroke-width="1"/>
  <rect x="216" y="113" width="10" height="115" fill="#673ab7" stroke="#949494" stroke-width="1"/>
  <rect x="226" y="130" width="10" height="98" fill="#01579b" stroke="#949494" stroke-width="1"/>
  <rect x="236" y="156" width="10" height="72" fill="#009688" stroke="#949494" stroke-width="1"/>
  <rect x="246" y="216" width="10" height="12" fill="#4caf50" stroke="#949494" stroke-width="1"/>
  <rect x="256" y="215" width="10" height="13" fill="#ff5722" stroke="#949494" stroke-width="1"/>
  <rect x="266" y="216" width="10" height="12" fill="#e91e63" stroke="#949494" stroke-width="1"/>
  <rect x="276" y="217" width="10" height="11" fill="#795548" stroke="#949494" stroke-width="1"/>
  <rect x="286" y="219" width="10" height="9" fill="#9e9e9e" stroke="#949494" stroke-width="1"/>
  <rect x="296" y="219" width="10" height="9" fill="#607d8b" stroke="#949494" stroke-width="1"/>
  <rect x="306" y="219" width="10" height="9" fill="#FFB300" stroke="#949494" stroke-width="1"/>
  <rect x="316" y="219" width="10" height="9" fill="#803E75" stroke="#949494" stroke-width="1"/>
  <text x="430" y="231" font-size="6.5" fill="#231f20" text-anchor="middle" dominant-baseline="text-before-edge">Flexible IO Tester</text>
  <rect x="366" y="116" width="10" height="112" fill="#f44336" stroke="#949494" stroke-width="1"/>
  <rect x="376" y="109" width="10" height="119" fill="#673ab7" stroke="#949494" stroke-width="1"/>
  <rect x="386" y="128" width="10" height="100" fill="#01579b" stroke="#949494" stroke-width="1"/>
  <rect x="396" y="206" width="10" height="22" fill="#009688" stroke="#949494" stroke-width="1"/>
  <rect x="406" y="133" width="10" height="95" fill="#4caf50" stroke="#949494" stroke-width="1"/>
  <rect x="416" y="134" width="10" height="94" fill="#ff5722" stroke="#949494" stroke-width="1"/>
  <rect x="426" y="135" width="10" height="93" fill="#e91e63" stroke="#949494" stroke-width="1"/>
  <rect x="436" y="203" width="10" height="25" fill="#795548" stroke="#949494" stroke-width="1"/>
  <rect x="446" y="171" width="10" height="57" fill="#9e9e9e" stroke="#949494" stroke-width="1"/>
  <rect x="456" y="173" width="10" height="55" fill="#607d8b" stroke="#949494" stroke-width="1"/>
  <rect x="466" y="174" width="10" height="54" fill="#FFB300" stroke="#949494" stroke-width="1"/>
  <rect x="476" y="210" width="10" height="18" fill="#803E75" stroke="#949494" stroke-width="1"/>
  <text x="590" y="231" font-size="6.5" fill="#231f20" text-anchor="middle" dominant-baseline="text-before-edge">Flexible IO Tester</text>
  <rect x="526" y="134" width="10" height="94" fill="#f44336" stroke="#949494" stroke-width="1"/>
  <rect x="536" y="109" width="10" height="119" fill="#673ab7" stroke="#949494" stroke-width="1"/>
  <rect x="546" y="115" width="10" height="113" fill="#01579b" stroke="#949494" stroke-width="1"/>
  <rect x="556" y="181" width="10" height="47" fill="#009688" stroke="#949494" stroke-width="1"/>
  <rect x="566" y="178" width="10" height="50" fill="#4caf50" stroke="#949494" stroke-width="1"/>
  <rect x="576" y="180" width="10" height="48" fill="#ff5722" stroke="#949494" stroke-width="1"/>
  <rect x="586" y="185" width="10" height="43" fill="#e91e63" stroke="#949494" stroke-width="1"/>
  <rect x="596" y="188" width="10" height="40" fill="#795548" stroke="#949494" stroke-width="1"/>
  <rect x="606" y="213" width="10" height="15" fill="#9e9e9e" stroke="#949494" stroke-width="1"/>
  <rect x="616" y="205" width="10" height="23" fill="#607d8b" stroke="#949494" stroke-width="1"/>
  <rect x="626" y="204" width="10" height="24" fill="#FFB300" stroke="#949494" stroke-width="1"/>
  <rect x="636" y="207" width="10" height="21" fill="#803E75" stroke="#949494" stroke-width="1"/>
  <text x="750" y="231" font-size="6.5" fill="#231f20" text-anchor="middle" dominant-baseline="text-before-edge">Flexible IO Tester</text>
  <rect x="686" y="121" width="10" height="107" fill="#f44336" stroke="#949494" stroke-width="1"/>
  <rect x="696" y="136" width="10" height="92" fill="#673ab7" stroke="#949494" stroke-width="1"/>
  <rect x="706" y="128" width="10" height="100" fill="#01579b" stroke="#949494" stroke-width="1"/>
  <rect x="716" y="109" width="10" height="119" fill="#009688" stroke="#949494" stroke-width="1"/>
  <rect x="726" y="145" width="10" height="83" fill="#4caf50" stroke="#949494" stroke-width="1"/>
  <rect x="736" y="150" width="10" height="78" fill="#ff5722" stroke="#949494" stroke-width="1"/>
  <rect x="746" y="147" width="10" height="81" fill="#e91e63" stroke="#949494" stroke-width="1"/>
  <rect x="756" y="121" width="10" height="107" fill="#795548" stroke="#949494" stroke-width="1"/>
  <rect x="766" y="198" width="10" height="30" fill="#9e9e9e" stroke="#949494" stroke-width="1"/>
  <rect x="776" y="181" width="10" height="47" fill="#607d8b" stroke="#949494" stroke-width="1"/>
  <rect x="786" y="186" width="10" height="42" fill="#FFB300" stroke="#949494" stroke-width="1"/>
  <rect x="796" y="183" width="10" height="45" fill="#803E75" stroke="#949494" stroke-width="1"/>
  <text x="910" y="231" font-size="6.5" fill="#231f20" text-anchor="middle" dominant-baseline="text-before-edge">FS-Mark</text>
  <rect x="846" y="153" width="10" height="75" fill="#f44336" stroke="#949494" stroke-width="1"/>
  <rect x="856" y="166" width="10" height="62" fill="#673ab7" stroke="#949494" stroke-width="1"/>
  <rect x="866" y="171" width="10" height="57" fill="#01579b" stroke="#949494" stroke-width="1"/>
  <rect x="876" y="166" width="10" height="62" fill="#009688" stroke="#949494" stroke-width="1"/>
  <rect x="886" y="109" width="10" height="119" fill="#4caf50" stroke="#949494" stroke-width="1"/>
  <rect x="896" y="119" width="10" height="109" fill="#ff5722" stroke="#949494" stroke-width="1"/>
  <rect x="906" y="164" width="10" height="64" fill="#e91e63" stroke="#949494" stroke-width="1"/>
  <rect x="916" y="127" width="10" height="101" fill="#795548" stroke="#949494" stroke-width="1"/>
  <rect x="926" y="209" width="10" height="19" fill="#9e9e9e" stroke="#949494" stroke-width="1"/>
  <rect x="936" y="208" width="10" height="20" fill="#607d8b" stroke="#949494" stroke-width="1"/>
  <rect x="946" y="222" width="10" height="6" fill="#FFB300" stroke="#949494" stroke-width="1"/>
  <rect x="956" y="207" width="10" height="21" fill="#803E75" stroke="#949494" stroke-width="1"/>
  <line x1="190" y1="228" x2="950" y2="228" stroke="#757575" stroke-width="10" stroke-dasharray="1,159"/>
  <line x1="30" y1="228" x2="990" y2="228" stroke="#757575" stroke-width="1"/>
  <text x="110" y="366" font-size="6.5" fill="#231f20" text-anchor="middle" dominant-baseline="text-before-edge">FS-Mark</text>
  <rect x="46" y="293" width="10" height="70" fill="#f44336" stroke="#949494" stroke-width="1"/>
  <rect x="56" y="292" width="10" height="71" fill="#673ab7" stroke="#949494" stroke-width="1"/>
  <rect x="66" y="287" width="10" height="76" fill="#01579b" stroke="#949494" stroke-width="1"/>
  <rect x="76" y="339" width="10" height="24" fill="#009688" stroke="#949494" stroke-width="1"/>
  <rect x="86" y="244" width="10" height="119" fill="#4caf50" stroke="#949494" stroke-width="1"/>
  <rect x="96" y="261" width="10" height="102" fill="#ff5722" stroke="#949494" stroke-width="1"/>
  <rect x="106" y="278" width="10" height="85" fill="#e91e63" stroke="#949494" stroke-width="1"/>
  <rect x="116" y="255" width="10" height="108" fill="#795548" stroke="#949494" stroke-width="1"/>
  <rect x="126" y="343" width="10" height="20" fill="#9e9e9e" stroke="#949494" stroke-width="1"/>
  <rect x="136" y="334" width="10" height="29" fill="#607d8b" stroke="#949494" stroke-width="1"/>
  <rect x="146" y="357" width="10" height="6" fill="#FFB300" stroke="#949494" stroke-width="1"/>
  <rect x="156" y="342" width="10" height="21" fill="#803E75" stroke="#949494" stroke-width="1"/>
  <text x="270" y="366" font-size="6.5" fill="#231f20" text-anchor="middle" dominant-baseline="text-before-edge">FS-Mark</text>
  <rect x="206" y="293" width="10" height="70" fill="#f44336" stroke="#949494" stroke-width="1"/>
  <rect x="216" y="303" width="10" height="60" fill="#673ab7" stroke="#949494" stroke-width="1"/>
  <rect x="226" y="292" width="10" height="71" fill="#01579b" stroke="#949494" stroke-width="1"/>
  <rect x="236" y="310" width="10" height="53" fill="#009688" stroke="#949494" stroke-width="1"/>
  <rect x="246" y="252" width="10" height="111" fill="#4caf50" stroke="#949494" stroke-width="1"/>
  <rect x="256" y="244" width="10" height="119" fill="#ff5722" stroke="#949494" stroke-width="1"/>
  <rect x="266" y="292" width="10" height="71" fill="#e91e63" stroke="#949494" stroke-width="1"/>
  <rect x="276" y="258" width="10" height="105" fill="#795548" stroke="#949494" stroke-width="1"/>
  <rect x="286" y="342" width="10" height="21" fill="#9e9e9e" stroke="#949494" stroke-width="1"/>
  <rect x="296" y="340" width="10" height="23" fill="#607d8b" stroke="#949494" stroke-width="1"/>
  <rect x="306" y="355" width="10" height="8" fill="#FFB300" stroke="#949494" stroke-width="1"/>
  <rect x="316" y="343" width="10" height="20" fill="#803E75" stroke="#949494" stroke-width="1"/>
  <text x="430" y="366" font-size="6.5" fill="#231f20" text-anchor="middle" dominant-baseline="text-before-edge">FS-Mark</text>
  <rect x="366" y="246" width="10" height="117" fill="#f44336" stroke="#949494" stroke-width="1"/>
  <rect x="376" y="276" width="10" height="87" fill="#673ab7" stroke="#949494" stroke-width="1"/>
  <rect x="386" y="260" width="10" height="103" fill="#01579b" stroke="#949494" stroke-width="1"/>
  <rect x="396" y="244" width="10" height="119" fill="#009688" stroke="#949494" stroke-width="1"/>
  <rect x="406" y="247" width="10" height="116" fill="#4caf50" stroke="#949494" stroke-width="1"/>
  <rect x="416" y="275" width="10" height="88" fill="#ff5722" stroke="#949494" stroke-width="1"/>
  <rect x="426" y="259" width="10" height="104" fill="#e91e63" stroke="#949494" stroke-width="1"/>
  <rect x="436" y="245" width="10" height="118" fill="#795548" stroke="#949494" stroke-width="1"/>
  <rect x="446" y="251" width="10" height="112" fill="#9e9e9e" stroke="#949494" stroke-width="1"/>
  <rect x="456" y="275" width="10" height="88" fill="#607d8b" stroke="#949494" stroke-width="1"/>
  <rect x="466" y="291" width="10" height="72" fill="#FFB300" stroke="#949494" stroke-width="1"/>
  <rect x="476" y="246" width="10" height="117" fill="#803E75" stroke="#949494" stroke-width="1"/>
  <text x="590" y="366" font-size="6.5" fill="#231f20" text-anchor="middle" dominant-baseline="text-before-edge">Dbench</text>
  <rect x="526" y="247" width="10" height="116" fill="#f44336" stroke="#949494" stroke-width="1"/>
  <rect x="536" y="280" width="10" height="83" fill="#673ab7" stroke="#949494" stroke-width="1"/>
  <rect x="546" y="268" width="10" height="95" fill="#01579b" stroke="#949494" stroke-width="1"/>
  <rect x="556" y="360" width="10" height="3" fill="#009688" stroke="#949494" stroke-width="1"/>
  <rect x="566" y="244" width="10" height="119" fill="#4caf50" stroke="#949494" stroke-width="1"/>
  <rect x="576" y="290" width="10" height="73" fill="#ff5722" stroke="#949494" stroke-width="1"/>
  <rect x="586" y="332" width="10" height="31" fill="#e91e63" stroke="#949494" stroke-width="1"/>
  <rect x="596" y="338" width="10" height="25" fill="#795548" stroke="#949494" stroke-width="1"/>
  <rect x="606" y="348" width="10" height="15" fill="#9e9e9e" stroke="#949494" stroke-width="1"/>
  <rect x="616" y="353" width="10" height="10" fill="#607d8b" stroke="#949494" stroke-width="1"/>
  <rect x="626" y="358" width="10" height="5" fill="#FFB300" stroke="#949494" stroke-width="1"/>
  <rect x="636" y="352" width="10" height="11" fill="#803E75" stroke="#949494" stroke-width="1"/>
  <text x="750" y="366" font-size="6.5" fill="#231f20" text-anchor="middle" dominant-baseline="text-before-edge">IOzone</text>
  <rect x="686" y="272" width="10" height="91" fill="#f44336" stroke="#949494" stroke-width="1"/>
  <rect x="696" y="251" width="10" height="112" fill="#673ab7" stroke="#949494" stroke-width="1"/>
  <rect x="706" y="258" width="10" height="105" fill="#01579b" stroke="#949494" stroke-width="1"/>
  <rect x="716" y="263" width="10" height="100" fill="#009688" stroke="#949494" stroke-width="1"/>
  <rect x="726" y="261" width="10" height="102" fill="#4caf50" stroke="#949494" stroke-width="1"/>
  <rect x="736" y="286" width="10" height="77" fill="#ff5722" stroke="#949494" stroke-width="1"/>
  <rect x="746" y="249" width="10" height="114" fill="#e91e63" stroke="#949494" stroke-width="1"/>
  <rect x="756" y="244" width="10" height="119" fill="#795548" stroke="#949494" stroke-width="1"/>
  <rect x="766" y="269" width="10" height="94" fill="#9e9e9e" stroke="#949494" stroke-width="1"/>
  <rect x="776" y="262" width="10" height="101" fill="#607d8b" stroke="#949494" stroke-width="1"/>
  <rect x="786" y="253" width="10" height="110" fill="#FFB300" stroke="#949494" stroke-width="1"/>
  <rect x="796" y="261" width="10" height="102" fill="#803E75" stroke="#949494" stroke-width="1"/>
  <text x="910" y="366" font-size="6.5" fill="#231f20" text-anchor="middle" dominant-baseline="text-before-edge">IOzone</text>
  <rect x="846" y="261" width="10" height="102" fill="#f44336" stroke="#949494" stroke-width="1"/>
  <rect x="856" y="272" width="10" height="91" fill="#673ab7" stroke="#949494" stroke-width="1"/>
  <rect x="866" y="264" width="10" height="99" fill="#01579b" stroke="#949494" stroke-width="1"/>
  <rect x="876" y="255" width="10" height="108" fill="#009688" stroke="#949494" stroke-width="1"/>
  <rect x="886" y="247" width="10" height="116" fill="#4caf50" stroke="#949494" stroke-width="1"/>
  <rect x="896" y="259" width="10" height="104" fill="#ff5722" stroke="#949494" stroke-width="1"/>
  <rect x="906" y="255" width="10" height="108" fill="#e91e63" stroke="#949494" stroke-width="1"/>
  <rect x="916" y="244" width="10" height="119" fill="#795548" stroke="#949494" stroke-width="1"/>
  <rect x="926" y="307" width="10" height="56" fill="#9e9e9e" stroke="#949494" stroke-width="1"/>
  <rect x="936" y="309" width="10" height="54" fill="#607d8b" stroke="#949494" stroke-width="1"/>
  <rect x="946" y="309" width="10" height="54" fill="#FFB300" stroke="#949494" stroke-width="1"/>
  <rect x="956" y="306" width="10" height="57" fill="#803E75" stroke="#949494" stroke-width="1"/>
  <line x1="190" y1="363" x2="950" y2="363" stroke="#757575" stroke-width="10" stroke-dasharray="1,159"/>
  <line x1="30" y1="363" x2="990" y2="363" stroke="#757575" stroke-width="1"/>
  <text x="110" y="501" font-size="6.5" fill="#231f20" text-anchor="middle" dominant-baseline="text-before-edge">Threaded I/O Tester</text>
  <rect x="46" y="412" width="10" height="86" fill="#f44336" stroke="#949494" stroke-width="1"/>
  <rect x="56" y="409" width="10" height="89" fill="#673ab7" stroke="#949494" stroke-width="1"/>
  <rect x="66" y="404" width="10" height="94" fill="#01579b" stroke="#949494" stroke-width="1"/>
  <rect x="76" y="489" width="10" height="9" fill="#009688" stroke="#949494" stroke-width="1"/>
  <rect x="86" y="401" width="10" height="97" fill="#4caf50" stroke="#949494" stroke-width="1"/>
  <rect x="96" y="395" width="10" height="103" fill="#ff5722" stroke="#949494" stroke-width="1"/>
  <rect x="106" y="379" width="10" height="119" fill="#e91e63" stroke="#949494" stroke-width="1"/>
  <rect x="116" y="487" width="10" height="11" fill="#795548" stroke="#949494" stroke-width="1"/>
  <rect x="126" y="470" width="10" height="28" fill="#9e9e9e" stroke="#949494" stroke-width="1"/>
  <rect x="136" y="473" width="10" height="25" fill="#607d8b" stroke="#949494" stroke-width="1"/>
  <rect x="146" y="471" width="10" height="27" fill="#FFB300" stroke="#949494" stroke-width="1"/>
  <rect x="156" y="497" width="10" height="1" fill="#803E75" stroke="#949494" stroke-width="1"/>
  <text x="270" y="501" font-size="6.5" fill="#231f20" text-anchor="middle" dominant-baseline="text-before-edge">Threaded I/O Tester</text>
  <rect x="206" y="457" width="10" height="41" fill="#f44336" stroke="#949494" stroke-width="1"/>
  <rect x="216" y="456" width="10" height="42" fill="#673ab7" stroke="#949494" stroke-width="1"/>
  <rect x="226" y="470" width="10" height="28" fill="#01579b" stroke="#949494" stroke-width="1"/>
  <rect x="236" y="499" width="10" height="-1" fill="#009688" stroke="#949494" stroke-width="1"/>
  <rect x="246" y="395" width="10" height="103" fill="#4caf50" stroke="#949494" stroke-width="1"/>
  <rect x="256" y="379" width="10" height="119" fill="#ff5722" stroke="#949494" stroke-width="1"/>
  <rect x="266" y="486" width="10" height="12" fill="#e91e63" stroke="#949494" stroke-width="1"/>
  <rect x="276" y="495" width="10" height="3" fill="#795548" stroke="#949494" stroke-width="1"/>
  <rect x="286" y="498" width="10" height="0" fill="#9e9e9e" stroke="#949494" stroke-width="1"/>
  <rect x="296" y="498" width="10" height="0" fill="#607d8b" stroke="#949494" stroke-width="1"/>
  <rect x="306" y="498" width="10" height="0" fill="#FFB300" stroke="#949494" stroke-width="1"/>
  <rect x="316" y="498" width="10" height="0" fill="#803E75" stroke="#949494" stroke-width="1"/>
  <text x="430" y="501" font-size="6.5" fill="#231f20" text-anchor="middle" dominant-baseline="text-before-edge">Compile Bench</text>
  <rect x="366" y="386" width="10" height="112" fill="#f44336" stroke="#949494" stroke-width="1"/>
  <rect x="376" y="406" width="10" height="92" fill="#673ab7" stroke="#949494" stroke-width="1"/>
  <rect x="386" y="403" width="10" height="95" fill="#01579b" stroke="#949494" stroke-width="1"/>
  <rect x="396" y="448" width="10" height="50" fill="#009688" stroke="#949494" stroke-width="1"/>
  <rect x="406" y="379" width="10" height="119" fill="#4caf50" stroke="#949494" stroke-width="1"/>
  <rect x="416" y="409" width="10" height="89" fill="#ff5722" stroke="#949494" stroke-width="1"/>
  <rect x="426" y="403" width="10" height="95" fill="#e91e63" stroke="#949494" stroke-width="1"/>
  <rect x="436" y="437" width="10" height="61" fill="#795548" stroke="#949494" stroke-width="1"/>
  <rect x="446" y="382" width="10" height="116" fill="#9e9e9e" stroke="#949494" stroke-width="1"/>
  <rect x="456" y="409" width="10" height="89" fill="#607d8b" stroke="#949494" stroke-width="1"/>
  <rect x="466" y="402" width="10" height="96" fill="#FFB300" stroke="#949494" stroke-width="1"/>
  <rect x="476" y="466" width="10" height="32" fill="#803E75" stroke="#949494" stroke-width="1"/>
  <text x="590" y="501" font-size="6.5" fill="#231f20" text-anchor="middle" dominant-baseline="text-before-edge">Unpacking The Linux Kernel</text>
  <rect x="526" y="381" width="10" height="117" fill="#f44336" stroke="#949494" stroke-width="1"/>
  <rect x="536" y="379" width="10" height="119" fill="#673ab7" stroke="#949494" stroke-width="1"/>
  <rect x="546" y="382" width="10" height="116" fill="#01579b" stroke="#949494" stroke-width="1"/>
  <rect x="556" y="396" width="10" height="102" fill="#009688" stroke="#949494" stroke-width="1"/>
  <rect x="566" y="382" width="10" height="116" fill="#4caf50" stroke="#949494" stroke-width="1"/>
  <rect x="576" y="379" width="10" height="119" fill="#ff5722" stroke="#949494" stroke-width="1"/>
  <rect x="586" y="382" width="10" height="116" fill="#e91e63" stroke="#949494" stroke-width="1"/>
  <rect x="596" y="395" width="10" height="103" fill="#795548" stroke="#949494" stroke-width="1"/>
  <rect x="606" y="384" width="10" height="114" fill="#9e9e9e" stroke="#949494" stroke-width="1"/>
  <rect x="616" y="380" width="10" height="118" fill="#607d8b" stroke="#949494" stroke-width="1"/>
  <rect x="626" y="385" width="10" height="113" fill="#FFB300" stroke="#949494" stroke-width="1"/>
  <rect x="636" y="397" width="10" height="101" fill="#803E75" stroke="#949494" stroke-width="1"/>
  <text x="750" y="501" font-size="6.5" fill="#231f20" text-anchor="middle" dominant-baseline="text-before-edge">PostMark</text>
  <rect x="686" y="379" width="10" height="119" fill="#f44336" stroke="#949494" stroke-width="1"/>
  <rect x="696" y="396" width="10" height="102" fill="#673ab7" stroke="#949494" stroke-width="1"/>
  <rect x="706" y="402" width="10" height="96" fill="#01579b" stroke="#949494" stroke-width="1"/>
  <rect x="716" y="395" width="10" height="103" fill="#009688" stroke="#949494" stroke-width="1"/>
  <rect x="726" y="381" width="10" height="117" fill="#4caf50" stroke="#949494" stroke-width="1"/>
  <rect x="736" y="397" width="10" height="101" fill="#ff5722" stroke="#949494" stroke-width="1"/>
  <rect x="746" y="404" width="10" height="94" fill="#e91e63" stroke="#949494" stroke-width="1"/>
  <rect x="756" y="393" width="10" height="105" fill="#795548" stroke="#949494" stroke-width="1"/>
  <rect x="766" y="380" width="10" height="118" fill="#9e9e9e" stroke="#949494" stroke-width="1"/>
  <rect x="776" y="398" width="10" height="100" fill="#607d8b" stroke="#949494" stroke-width="1"/>
  <rect x="786" y="405" width="10" height="93" fill="#FFB300" stroke="#949494" stroke-width="1"/>
  <rect x="796" y="399" width="10" height="99" fill="#803E75" stroke="#949494" stroke-width="1"/>
  <text x="495" y="19" font-size="17" fill="#231f20" text-anchor="middle" xlink:show="new">f2fs-ramdisk</text>
  <a xlink:href="http://www.phoronix-test-suite.com/" xlink:show="new">
    <text x="990" y="105" font-size="7" fill="#949494" text-anchor="end" xlink:show="new">Phoronix Test Suite 6.8.0m1</text>
  </a>
</svg>
