<?xml version="1.0"?>
<!DOCTYPE svg PUBLIC "-//W3C//DTD SVG 1.1//EN" "http://www.w3.org/Graphics/SVG/1.1/DTD/svg11.dtd">
<!--Phoronix Test Suite v6.6.1 [ http://www.phoronix-test-suite.com/ ]-->
<svg xmlns="http://www.w3.org/2000/svg" xmlns:xlink="http://www.w3.org/1999/xlink" version="1.1" font-family="sans-serif, droid-sans, helvetica, verdana, tahoma" viewbox="0 0 600 471" width="600" height="471" preserveAspectRatio="xMinYMin meet"><rect x="0" y="0" width="600" height="471" fill="#FEFEFE" stroke="#757575" stroke-width="2"/><g stroke="#757575" stroke-width="1"><line x1="87.5" y1="64" x2="87.5" y2="433"/><line x1="87" y1="432.5" x2="586" y2="432.5"/></g><a xlink:href="http://www.phoronix-test-suite.com/" xlink:show="new"><text x="585" y="59" font-size="7" fill="#065695" text-anchor="end" xlink:show="new">PHORONIX-TEST-SUITE.COM</text></a><polygon points="96.5,56 87.5,60.5 87.5,51.5" fill="#065695" stroke="#949494" stroke-width="1"/><text x="99" y="59" font-size="7" fill="#065695" text-anchor="start">MB/s, More Is Better</text><rect x="0" y="0" width="600" height="48" fill="#231f20"/><a xlink:href="http://openbenchmarking.org/test/pts/compilebench-1.0.1" xlink:show="new"><text x="6" y="19" font-size="17" fill="#FEFEFE" text-anchor="start" xlink:show="new">Compile Bench v0.6</text></a><text x="6" y="36" font-size="11" fill="#FEFEFE" text-anchor="start">Test: Compile</text><path d="m74 22v9m-5-16v16m-5-28v28m-23-2h12.5c2.485281 0 4.5-2.014719 4.5-4.5s-2.014719-4.5-4.5-4.5h-8c-2.485281 0-4.5-2.014719-4.5-4.5s2.014719-4.5 4.5-4.5h12.5m-21 5h-11m11 13h-2c-4.970563 0-9-4.029437-9-9v-20m-24 40v-20c0-4.970563 4.0294373-9 9-9 4.970563 0 9 4.029437 9 9s-4.029437 9-9 9h-9" stroke="#ffffff" stroke-width="4" fill="none" transform="translate(508,4)"/><line x1="87.5" y1="110" x2="87.5" y2="421" stroke="#757575" stroke-width="11" stroke-dasharray="1,45"/><g font-size="10" fill="#231f20"><text x="82" y="85" text-anchor="end">F2FS-RAMDISK</text><text x="82" y="131" text-anchor="end">EXT4-RAMDISK</text><text x="82" y="177" text-anchor="end">F2FS-NVME</text><text x="82" y="223" text-anchor="end">EXT4-NVME</text><text x="82" y="269" text-anchor="end">BTRFS-NVME</text><text x="82" y="315" text-anchor="end">F2FS-SSD</text><text x="82" y="361" text-anchor="end">EXT4-SSD</text><text x="82" y="407" text-anchor="end">BTRFS-SSD</text></g><g font-size="10" fill="#065695" text-anchor="middle"><text x="172.5" y="447">400</text><text x="255.5" y="447">800</text><text x="338.5" y="447">1200</text><text x="421.5" y="447">1600</text><text x="504.5" y="447">2000</text></g><g stroke="#BABABA" stroke-width="1"><line x1="172.5" y1="64" x2="172.5" y2="427" stroke-dasharray="5,5"/><line x1="172.5" y1="428" x2="172.5" y2="437"/><line x1="255.5" y1="64" x2="255.5" y2="427" stroke-dasharray="5,5"/><line x1="255.5" y1="428" x2="255.5" y2="437"/><line x1="338.5" y1="64" x2="338.5" y2="427" stroke-dasharray="5,5"/><line x1="338.5" y1="428" x2="338.5" y2="437"/><line x1="421.5" y1="64" x2="421.5" y2="427" stroke-dasharray="5,5"/><line x1="421.5" y1="428" x2="421.5" y2="437"/><line x1="504.5" y1="64" x2="504.5" y2="427" stroke-dasharray="5,5"/><line x1="504.5" y1="428" x2="504.5" y2="437"/></g><g stroke="#949494" stroke-width="1"><rect x="87.5" y="70.5" height="34" width="372" fill="#2196f3" xlink:title="F2FS-RAMDISK: 1792.50"/><rect x="87.5" y="116.5" height="34" width="285" fill="#2196f3" xlink:title="EXT4-RAMDISK: 1375.51"/><rect x="87.5" y="162.5" height="34" width="363" fill="#2196f3" xlink:title="F2FS-NVME: 1751.80"/><rect x="87.5" y="208.5" height="34" width="291" fill="#2196f3" xlink:title="EXT4-NVME: 1401.17"/><rect x="87.5" y="254.5" height="34" width="187" fill="#2196f3" xlink:title="BTRFS-NVME: 901.80"/><rect x="87.5" y="300.5" height="34" width="350" fill="#2196f3" xlink:title="F2FS-SSD: 1686.91"/><rect x="87.5" y="346.5" height="34" width="290" fill="#2196f3" xlink:title="EXT4-SSD: 1399.98"/><rect x="87.5" y="392.5" height="34" width="180" fill="#2196f3" xlink:title="BTRFS-SSD: 868.85"/></g><g font-size="8" fill="#065695" text-anchor="end"><text y="101" x="82">SE +/- 6.85</text><text y="147" x="82">SE +/- 13.59</text><text y="193" x="82">SE +/- 16.23</text><text y="239" x="82">SE +/- 5.92</text><text y="285" x="82">SE +/- 17.37</text><text y="331" x="82">SE +/- 33.95</text><text y="377" x="82">SE +/- 13.12</text><text y="423" x="82">SE +/- 8.54</text></g><g font-size="10" fill="#FFFFFF"><text x="454" y="93" text-anchor="end">1792.50</text><text x="367" y="139" text-anchor="end">1375.51</text><text x="445" y="185" text-anchor="end">1751.80</text><text x="373" y="231" text-anchor="end">1401.17</text><text x="269" y="277" text-anchor="end">901.80</text><text x="432" y="323" text-anchor="end">1686.91</text><text x="372" y="369" text-anchor="end">1399.98</text><text x="262" y="415" text-anchor="end">868.85</text></g><line x1="430.5" y1="300" x2="430.5" y2="308" stroke="#757575" stroke-width="1"/><line x1="444.5" y1="300" x2="444.5" y2="308" stroke="#757575" stroke-width="1"/><line x1="430.5" y1="300.5" x2="444.5" y2="300.5" stroke="#757575" stroke-width="1"/><rect x="0" y="454" width="600" height="17" fill="#231f20"/><a xlink:href="http://www.phoronix-test-suite.com/" xlink:show="new"><text x="585" y="466" font-size="9" fill="#FEFEFE" text-anchor="end" xlink:show="new">Phoronix Test Suite 6.6.1</text></a></svg>
