<?xml version="1.0"?>
<!DOCTYPE svg PUBLIC "-//W3C//DTD SVG 1.1//EN" "http://www.w3.org/Graphics/SVG/1.1/DTD/svg11.dtd">
<!--Phoronix Test Suite v6.6.1 [ http://www.phoronix-test-suite.com/ ]-->
<svg xmlns="http://www.w3.org/2000/svg" xmlns:xlink="http://www.w3.org/1999/xlink" version="1.1" font-family="sans-serif, droid-sans, helvetica, verdana, tahoma" viewbox="0 0 1078 168" width="1078" height="168" preserveAspectRatio="xMinYMin meet"><rect x="0" y="0" width="1078" height="168" fill="#FEFEFE" stroke="#757575" stroke-width="2"/><rect x="1" y="1" width="1077" height="167" fill="#FEFEFE" stroke="#757575" stroke-width="1"/><path d="m74 22v9m-5-16v16m-5-28v28m-23-2h12.5c2.485281 0 4.5-2.014719 4.5-4.5s-2.014719-4.5-4.5-4.5h-8c-2.485281 0-4.5-2.014719-4.5-4.5s2.014719-4.5 4.5-4.5h12.5m-21 5h-11m11 13h-2c-4.970563 0-9-4.029437-9-9v-20m-24 40v-20c0-4.970563 4.0294373-9 9-9 4.970563 0 9 4.029437 9 9s-4.029437 9-9 9h-9" stroke="#000000" stroke-width="4" fill="none" transform="translate(31,43)"/><line x1="142" y1="96" x2="1078" y2="96" stroke="#BABABA" stroke-width="112" stroke-dasharray="104,104"/><line x1="539" y1="88" x2="539" y2="152" stroke="#949494" stroke-width="1078" stroke-dasharray="16,16"/><line x1="142" y1="96" x2="1078" y2="96" stroke="#757575" stroke-width="112" stroke-dasharray="1,103"/><rect x="1" y="1" width="1076" height="40" fill="#231f20"/><text x="5" y="19" font-size="17" fill="#FEFEFE" text-anchor="start">FS-Mark</text><text x="5" y="33" font-size="11" fill="#FEFEFE" text-anchor="start">Test: 5000 Files, 1MB Size, 4 Threads</text><line x1="1" y1="40" x2="1077" y2="40" stroke="#757575" stroke-width="1"/><g font-size="10" font-weight="bold" text-anchor="end" fill="#065695"><text x="140" y="100" fill="#065695">Results</text><text x="140" y="116" fill="#065695">Difference</text><text x="140" y="132" fill="#065695">Standard Error</text><text x="140" y="148" fill="#065695">Standard Deviation</text></g><g font-size="10" fill="#065695" font-weight="bold" text-anchor="middle" dominant-baseline="text-before-edge"><text x="194" y="64">F2FS-RAMDISK</text><text x="298" y="64">EXT4-RAMDISK</text><text x="402" y="64">BTRFS-RAMDISK</text><text x="506" y="64">F2FS-NVME</text><text x="610" y="64">EXT4-NVME</text><text x="714" y="64">BTRFS-NVME</text><text x="818" y="64">F2FS-SSD</text><text x="922" y="64">EXT4-SSD</text><text x="1026" y="64">BTRFS-SSD</text></g><g/><g text-anchor="middle" font-size="10"><text x="194" y="101" fill="#065695" xlink:title="STD Dev: 17.95%;  STD Error: 80.34">1096.00</text><text x="194" y="117" fill="#065695">5.12x</text><text x="194" y="133" fill="#065695">80.34</text><text x="194" y="149" fill="#065695">17.95%</text><text x="298" y="101" fill="#005a00" xlink:title="STD Dev: 12.63%;  STD Error: 94.75">1838.00</text><text x="298" y="117" fill="#065695">8.58x</text><text x="298" y="133" fill="#065695">94.75</text><text x="298" y="149" fill="#065695">12.63%</text><text x="506" y="101" fill="#065695" xlink:title="STD Dev: 2.95%;  STD Error: 16.38">962.20</text><text x="506" y="117" fill="#065695">4.49x</text><text x="506" y="133" fill="#065695">16.38</text><text x="506" y="149" fill="#065695">2.95%</text><text x="610" y="101" fill="#065695" xlink:title="STD Dev: 2.07%;  STD Error: 10.58">883.83</text><text x="610" y="117" fill="#065695">4.13x</text><text x="610" y="133" fill="#065695">10.58</text><text x="610" y="149" fill="#065695">2.07%</text><text x="714" y="101" fill="#065695" xlink:title="STD Dev: 3.37%;  STD Error: 15.42">915.45</text><text x="714" y="117" fill="#065695">4.27x</text><text x="714" y="133" fill="#065695">15.42</text><text x="714" y="149" fill="#065695">3.37%</text><text x="818" y="101" fill="#065695" xlink:title="STD Dev: 3.46%;  STD Error: 5.17">258.83</text><text x="818" y="117" fill="#065695">1.21x</text><text x="818" y="133" fill="#065695">5.17</text><text x="818" y="149" fill="#065695">3.46%</text><text x="922" y="101" fill="#065695" xlink:title="STD Dev: 1.10%;  STD Error: 1.68">265.27</text><text x="922" y="117" fill="#065695">1.24x</text><text x="922" y="133" fill="#065695">1.68</text><text x="922" y="149" fill="#065695">1.10%</text><text x="1026" y="101" fill="#C80000" xlink:title="STD Dev: 2.69%;  STD Error: 3.33">214.23</text><text x="1026" y="117" fill="#065695">1.00x</text><text x="1026" y="133" fill="#065695">3.33</text><text x="1026" y="149" fill="#065695">2.69%</text></g><line x1="539" y1="88" x2="539" y2="152" stroke="#949494" stroke-width="1078" stroke-dasharray="1,15"/><rect x="0" y="152" width="1078" height="16" fill="#231f20"/><a xlink:href="http://www.phoronix-test-suite.com/" xlink:show="new"><text x="1076" y="165" font-size="10" fill="#FFFFFF" text-anchor="end" xlink:show="new">PHORONIX-TEST-SUITE.COM</text></a></svg>
