<?xml version="1.0"?>
<!DOCTYPE svg PUBLIC "-//W3C//DTD SVG 1.1//EN" "http://www.w3.org/Graphics/SVG/1.1/DTD/svg11.dtd">
<!--Phoronix Test Suite v6.6.1 [ http://www.phoronix-test-suite.com/ ]-->
<svg xmlns="http://www.w3.org/2000/svg" xmlns:xlink="http://www.w3.org/1999/xlink" version="1.1" font-family="sans-serif, droid-sans, helvetica, verdana, tahoma" viewbox="0 0 600 506" width="600" height="506" preserveAspectRatio="xMinYMin meet"><rect x="0" y="0" width="600" height="506" fill="#FEFEFE" stroke="#757575" stroke-width="2"/><g stroke="#757575" stroke-width="1"><line x1="87.5" y1="64" x2="87.5" y2="433"/><line x1="87" y1="432.5" x2="586" y2="432.5"/></g><a xlink:href="http://www.phoronix-test-suite.com/" xlink:show="new"><text x="585" y="59" font-size="7" fill="#065695" text-anchor="end" xlink:show="new">PHORONIX-TEST-SUITE.COM</text></a><polygon points="96.5,56 87.5,60.5 87.5,51.5" fill="#065695" stroke="#949494" stroke-width="1"/><text x="99" y="59" font-size="7" fill="#065695" text-anchor="start">Files/s, More Is Better</text><rect x="0" y="0" width="600" height="48" fill="#231f20"/><a xlink:href="http://openbenchmarking.org/test/pts/fs-mark-1.0.1" xlink:show="new"><text x="6" y="19" font-size="17" fill="#FEFEFE" text-anchor="start" xlink:show="new">FS-Mark v3.3</text></a><text x="6" y="36" font-size="11" fill="#FEFEFE" text-anchor="start">Test: 4000 Files, 32 Sub Dirs, 1MB Size</text><path d="m74 22v9m-5-16v16m-5-28v28m-23-2h12.5c2.485281 0 4.5-2.014719 4.5-4.5s-2.014719-4.5-4.5-4.5h-8c-2.485281 0-4.5-2.014719-4.5-4.5s2.014719-4.5 4.5-4.5h12.5m-21 5h-11m11 13h-2c-4.970563 0-9-4.029437-9-9v-20m-24 40v-20c0-4.970563 4.0294373-9 9-9 4.970563 0 9 4.029437 9 9s-4.029437 9-9 9h-9" stroke="#ffffff" stroke-width="4" fill="none" transform="translate(508,4)"/><line x1="87.5" y1="110" x2="87.5" y2="432" stroke="#757575" stroke-width="11" stroke-dasharray="1,45"/><g font-size="10" fill="#231f20"><text x="82" y="85" text-anchor="end">F2FS-RAMDISK</text><text x="82" y="131" text-anchor="end">EXT4-RAMDISK</text><text x="82" y="177" text-anchor="end">F2FS-NVME</text><text x="82" y="223" text-anchor="end">EXT4-NVME</text><text x="82" y="269" text-anchor="end">BTRFS-NVME</text><text x="82" y="315" text-anchor="end">F2FS-SSD</text><text x="82" y="361" text-anchor="end">EXT4-SSD</text><text x="82" y="407" text-anchor="end">BTRFS-SSD</text></g><g font-size="10" fill="#065695" text-anchor="middle"><text x="172.5" y="447">200</text><text x="255.5" y="447">400</text><text x="338.5" y="447">600</text><text x="421.5" y="447">800</text><text x="504.5" y="447">1000</text></g><g stroke="#BABABA" stroke-width="1"><line x1="172.5" y1="64" x2="172.5" y2="427" stroke-dasharray="5,5"/><line x1="172.5" y1="428" x2="172.5" y2="437"/><line x1="255.5" y1="64" x2="255.5" y2="427" stroke-dasharray="5,5"/><line x1="255.5" y1="428" x2="255.5" y2="437"/><line x1="338.5" y1="64" x2="338.5" y2="427" stroke-dasharray="5,5"/><line x1="338.5" y1="428" x2="338.5" y2="437"/><line x1="421.5" y1="64" x2="421.5" y2="427" stroke-dasharray="5,5"/><line x1="421.5" y1="428" x2="421.5" y2="437"/><line x1="504.5" y1="64" x2="504.5" y2="427" stroke-dasharray="5,5"/><line x1="504.5" y1="428" x2="504.5" y2="437"/></g><g stroke="#949494" stroke-width="1"><rect x="87.5" y="70.5" height="34" width="370" fill="#2196f3" xlink:title="F2FS-RAMDISK: 890.88"/><rect x="87.5" y="116.5" height="34" width="271" fill="#2196f3" xlink:title="EXT4-RAMDISK: 654.10"/><rect x="87.5" y="162.5" height="34" width="382" fill="#2196f3" xlink:title="F2FS-NVME: 921.27"/><rect x="87.5" y="208.5" height="34" width="360" fill="#2196f3" xlink:title="EXT4-NVME: 867.63"/><rect x="87.5" y="254.5" height="34" width="301" fill="#2196f3" xlink:title="BTRFS-NVME: 724.83"/><rect x="87.5" y="300.5" height="34" width="80" fill="#2196f3" xlink:title="F2FS-SSD: 192.00"/><rect x="87.5" y="346.5" height="34" width="68" fill="#2196f3" xlink:title="EXT4-SSD: 164.53"/><rect x="87.5" y="392.5" height="34" width="57" fill="#2196f3" xlink:title="BTRFS-SSD: 138.30"/></g><g font-size="8" fill="#065695" text-anchor="end"><text y="101" x="82">SE +/- 39.38</text><text y="147" x="82">SE +/- 22.67</text><text y="193" x="82">SE +/- 14.17</text><text y="239" x="82">SE +/- 8.12</text><text y="285" x="82">SE +/- 17.15</text><text y="331" x="82">SE +/- 1.35</text><text y="377" x="82">SE +/- 0.98</text><text y="423" x="82">SE +/- 2.13</text></g><g font-size="10" fill="#FFFFFF"><text x="452" y="93" text-anchor="end">890.88</text><text x="353" y="139" text-anchor="end">654.10</text><text x="464" y="185" text-anchor="end">921.27</text><text x="442" y="231" text-anchor="end">867.63</text><text x="383" y="277" text-anchor="end">724.83</text><text x="162" y="323" text-anchor="end">192.00</text><text x="150" y="369" text-anchor="end">164.53</text><text x="139" y="415" text-anchor="end">138.30</text></g><line x1="441.5" y1="70" x2="441.5" y2="78" stroke="#757575" stroke-width="1"/><line x1="473.5" y1="70" x2="473.5" y2="78" stroke="#757575" stroke-width="1"/><line x1="441.5" y1="70.5" x2="473.5" y2="70.5" stroke="#757575" stroke-width="1"/><line x1="349.5" y1="116" x2="349.5" y2="124" stroke="#757575" stroke-width="1"/><line x1="367.5" y1="116" x2="367.5" y2="124" stroke="#757575" stroke-width="1"/><line x1="349.5" y1="116.5" x2="367.5" y2="116.5" stroke="#757575" stroke-width="1"/><line x1="463.5" y1="162" x2="463.5" y2="170" stroke="#757575" stroke-width="1"/><line x1="475.5" y1="162" x2="475.5" y2="170" stroke="#757575" stroke-width="1"/><line x1="463.5" y1="162.5" x2="475.5" y2="162.5" stroke="#757575" stroke-width="1"/><line x1="381.5" y1="254" x2="381.5" y2="262" stroke="#757575" stroke-width="1"/><line x1="395.5" y1="254" x2="395.5" y2="262" stroke="#757575" stroke-width="1"/><line x1="381.5" y1="254.5" x2="395.5" y2="254.5" stroke="#757575" stroke-width="1"/><rect x="0" y="454" width="600" height="52" fill="#231f20"/><a xlink:href="http://www.phoronix-test-suite.com/" xlink:show="new"><text x="585" y="466" font-size="9" fill="#FEFEFE" text-anchor="end" xlink:show="new">Phoronix Test Suite 6.6.1</text></a><text x="5" y="480" font-size="8" fill="#FEFEFE" text-anchor="start" xlink:title="-static" width="595">1. (CC) gcc options: -static</text></svg>
