<?xml version="1.0"?>
<!DOCTYPE svg PUBLIC "-//W3C//DTD SVG 1.1//EN" "http://www.w3.org/Graphics/SVG/1.1/DTD/svg11.dtd">
<!--Phoronix Test Suite v6.6.1 [ http://www.phoronix-test-suite.com/ ]-->
<svg xmlns="http://www.w3.org/2000/svg" xmlns:xlink="http://www.w3.org/1999/xlink" version="1.1" font-family="sans-serif, droid-sans, helvetica, verdana, tahoma" viewbox="0 0 600 698" width="600" height="698" preserveAspectRatio="xMinYMin meet"><rect x="0" y="0" width="600" height="698" fill="#FEFEFE" stroke="#757575" stroke-width="2"/><rect x="0" y="0" width="600" height="48" fill="#231f20"/><image xlink:href="https://openbenchmarking.org/static/images/pts-77x40-white.png" x="10" y="2" width="77" height="40"/><text x="100" y="21" font-size="17" fill="#FEFEFE" text-anchor="start">2016-11-04-1843</text><text x="100" y="33" font-size="9" fill="#FEFEFE" text-anchor="start" href="http://www.phoronix-test-suite.com/">Phoronix Test Suite 6.6.1</text><path fill="#FEFEFE" stroke="#949494" stroke-width="1" stroke-dasharray="10,20" d="M35,98 L557,98 A522,522 0 0,1 35,620 Z"/><text x="557" y="90" font-size="10" fill="#757575" text-anchor="middle">8.7</text><line x1="557" y1="92" x2="557" y2="98" stroke="#757575" stroke-width="1"/><text x="27" y="620" font-size="10" fill="#757575" text-anchor="end" dominant-baseline="middle">8.7</text><line x1="29" y1="620" x2="35" y2="620" stroke="#757575" stroke-width="1"/><path fill="#FEFEFE" stroke="#949494" stroke-width="1" stroke-dasharray="10,20" d="M35,98 L479,98 A444,444 0 0,1 35,542 Z"/><text x="479" y="90" font-size="10" fill="#757575" text-anchor="middle">7.4</text><line x1="479" y1="92" x2="479" y2="98" stroke="#757575" stroke-width="1"/><text x="27" y="542" font-size="10" fill="#757575" text-anchor="end" dominant-baseline="middle">7.4</text><line x1="29" y1="542" x2="35" y2="542" stroke="#757575" stroke-width="1"/><path fill="#FEFEFE" stroke="#949494" stroke-width="1" stroke-dasharray="10,20" d="M35,98 L401,98 A366,366 0 0,1 35,464 Z"/><text x="401" y="90" font-size="10" fill="#757575" text-anchor="middle">6.1</text><line x1="401" y1="92" x2="401" y2="98" stroke="#757575" stroke-width="1"/><text x="27" y="464" font-size="10" fill="#757575" text-anchor="end" dominant-baseline="middle">6.1</text><line x1="29" y1="464" x2="35" y2="464" stroke="#757575" stroke-width="1"/><path fill="#FEFEFE" stroke="#949494" stroke-width="1" stroke-dasharray="10,20" d="M35,98 L329,98 A294,294 0 0,1 35,392 Z"/><text x="329" y="90" font-size="10" fill="#757575" text-anchor="middle">4.9</text><line x1="329" y1="92" x2="329" y2="98" stroke="#757575" stroke-width="1"/><text x="27" y="392" font-size="10" fill="#757575" text-anchor="end" dominant-baseline="middle">4.9</text><line x1="29" y1="392" x2="35" y2="392" stroke="#757575" stroke-width="1"/><path fill="#FEFEFE" stroke="#949494" stroke-width="1" stroke-dasharray="10,20" d="M35,98 L251,98 A216,216 0 0,1 35,314 Z"/><text x="251" y="90" font-size="10" fill="#757575" text-anchor="middle">3.6</text><line x1="251" y1="92" x2="251" y2="98" stroke="#757575" stroke-width="1"/><text x="27" y="314" font-size="10" fill="#757575" text-anchor="end" dominant-baseline="middle">3.6</text><line x1="29" y1="314" x2="35" y2="314" stroke="#757575" stroke-width="1"/><path fill="#FEFEFE" stroke="#949494" stroke-width="1" stroke-dasharray="10,20" d="M35,98 L173,98 A138,138 0 0,1 35,236 Z"/><text x="173" y="90" font-size="10" fill="#757575" text-anchor="middle">2.3</text><line x1="173" y1="92" x2="173" y2="98" stroke="#757575" stroke-width="1"/><text x="27" y="236" font-size="10" fill="#757575" text-anchor="end" dominant-baseline="middle">2.3</text><line x1="29" y1="236" x2="35" y2="236" stroke="#757575" stroke-width="1"/><path fill="#FEFEFE" stroke="#949494" stroke-width="1" stroke-dasharray="10,20" d="M35,98 L95,98 A60,60 0 0,1 35,158 Z"/><text x="95" y="90" font-size="10" fill="#757575" text-anchor="middle">1.0</text><line x1="95" y1="92" x2="95" y2="98" stroke="#757575" stroke-width="1"/><text x="27" y="158" font-size="10" fill="#757575" text-anchor="end" dominant-baseline="middle">1.0</text><line x1="29" y1="158" x2="35" y2="158" stroke="#757575" stroke-width="1"/><line x1="35" y1="98" x2="590" y2="98" stroke="#757575" stroke-width="1"/><line x1="35" y1="98" x2="35" y2="676" stroke="#757575" stroke-width="1"/><line x1="590" y1="676" x2="590" y2="98" stroke="#757575" stroke-width="1"/><line x1="35" y1="676" x2="590" y2="676" stroke="#757575" stroke-width="1"/><polygon points="35,98 116,98 115,114" fill="#673ab7" stroke="#065695" stroke-width="2" xlink:title="Flexible IO Tester - EXT4-RAMDISK - 8.708x Faster Than BTRFS-RAMDISK"/><polygon points="35,98 116,98 115,114" fill="#f44336" stroke="#065695" stroke-width="2" xlink:title="Flexible IO Tester - F2FS-RAMDISK - 7.230x Faster Than BTRFS-RAMDISK"/><polygon points="35,98 116,98 114,114" fill="#009688" stroke="#065695" stroke-width="2" xlink:title="Flexible IO Tester - EXT4-NVME - 6.851x Faster Than BTRFS-RAMDISK"/><polygon points="35,98 116,98 114,114" fill="#795548" stroke="#065695" stroke-width="2" xlink:title="Flexible IO Tester - F2FS-NVME - 6.774x Faster Than BTRFS-RAMDISK"/><polygon points="35,98 115,98 114,114" fill="#ff5722" stroke="#065695" stroke-width="2" xlink:title="Flexible IO Tester - EXT4-SSD - 3.962x Faster Than BTRFS-RAMDISK"/><polygon points="35,98 114,98 113,113" fill="#ffeb3b" stroke="#065695" stroke-width="2" xlink:title="Flexible IO Tester - F2FS-SSD - 3.942x Faster Than BTRFS-RAMDISK"/><polygon points="35,98 96,98 94,110" fill="#e91e63" stroke="#065695" stroke-width="2" xlink:title="Flexible IO Tester - BTRFS-SSD - 1.319x Faster Than BTRFS-RAMDISK"/><polygon points="35,98 96,98 94,110" fill="#4caf50" stroke="#065695" stroke-width="2" xlink:title="Flexible IO Tester - BTRFS-NVME - 1.066x Faster Than BTRFS-RAMDISK"/><polygon points="35,98 95,98 94,110" fill="#01579b" stroke="#065695" stroke-width="2" xlink:title="Flexible IO Tester - BTRFS-RAMDISK - 1.000x Faster Than BTRFS-RAMDISK"/><polygon points="35,98 547,200 518,298" fill="#673ab7" stroke="#065695" stroke-width="2" xlink:title="Flexible IO Tester - EXT4-RAMDISK - 4.006x Faster Than BTRFS-SSD"/><polygon points="35,98 460,183 436,264" fill="#f44336" stroke="#065695" stroke-width="2" xlink:title="Flexible IO Tester - F2FS-RAMDISK - 3.623x Faster Than BTRFS-SSD"/><polygon points="35,98 438,178 415,255" fill="#795548" stroke="#065695" stroke-width="2" xlink:title="Flexible IO Tester - F2FS-NVME - 2.157x Faster Than BTRFS-SSD"/><polygon points="35,98 434,177 411,254" fill="#009688" stroke="#065695" stroke-width="2" xlink:title="Flexible IO Tester - EXT4-NVME - 2.050x Faster Than BTRFS-SSD"/><polygon points="35,98 268,144 255,189" fill="#4caf50" stroke="#065695" stroke-width="2" xlink:title="Flexible IO Tester - BTRFS-NVME - 1.687x Faster Than BTRFS-SSD"/><polygon points="35,98 267,144 254,189" fill="#01579b" stroke="#065695" stroke-width="2" xlink:title="Flexible IO Tester - BTRFS-RAMDISK - 1.555x Faster Than BTRFS-SSD"/><polygon points="35,98 113,113 108,128" fill="#ffeb3b" stroke="#065695" stroke-width="2" xlink:title="Flexible IO Tester - F2FS-SSD - 1.178x Faster Than BTRFS-SSD"/><polygon points="35,98 98,110 94,122" fill="#ff5722" stroke="#065695" stroke-width="2" xlink:title="Flexible IO Tester - EXT4-SSD - 1.122x Faster Than BTRFS-SSD"/><polygon points="35,98 94,110 90,121" fill="#e91e63" stroke="#065695" stroke-width="2" xlink:title="Flexible IO Tester - BTRFS-SSD - 1.000x Faster Than BTRFS-SSD"/><polygon points="35,98 257,190 235,232" fill="#01579b" stroke="#065695" stroke-width="2" xlink:title="Flexible IO Tester - BTRFS-RAMDISK - 3.838x Faster Than BTRFS-SSD"/><polygon points="35,98 236,181 216,219" fill="#4caf50" stroke="#065695" stroke-width="2" xlink:title="Flexible IO Tester - BTRFS-NVME - 2.907x Faster Than BTRFS-SSD"/><polygon points="35,98 155,148 143,170" fill="#673ab7" stroke="#065695" stroke-width="2" xlink:title="Flexible IO Tester - EXT4-RAMDISK - 2.676x Faster Than BTRFS-SSD"/><polygon points="35,98 149,145 137,166" fill="#795548" stroke="#065695" stroke-width="2" xlink:title="Flexible IO Tester - F2FS-NVME - 2.032x Faster Than BTRFS-SSD"/><polygon points="35,98 129,137 119,154" fill="#f44336" stroke="#065695" stroke-width="2" xlink:title="Flexible IO Tester - F2FS-RAMDISK - 1.906x Faster Than BTRFS-SSD"/><polygon points="35,98 121,134 113,150" fill="#009688" stroke="#065695" stroke-width="2" xlink:title="Flexible IO Tester - EXT4-NVME - 1.886x Faster Than BTRFS-SSD"/><polygon points="35,98 100,125 94,137" fill="#ffeb3b" stroke="#065695" stroke-width="2" xlink:title="Flexible IO Tester - F2FS-SSD - 1.042x Faster Than BTRFS-SSD"/><polygon points="35,98 97,124 91,135" fill="#ff5722" stroke="#065695" stroke-width="2" xlink:title="Flexible IO Tester - EXT4-SSD - 1.018x Faster Than BTRFS-SSD"/><polygon points="35,98 90,121 85,131" fill="#e91e63" stroke="#065695" stroke-width="2" xlink:title="Flexible IO Tester - BTRFS-SSD - 1.000x Faster Than BTRFS-SSD"/><polygon points="35,98 226,226 198,261" fill="#f44336" stroke="#065695" stroke-width="2" xlink:title="IOzone - F2FS-RAMDISK - 1.511x Faster Than EXT4-SSD"/><polygon points="35,98 180,195 158,221" fill="#673ab7" stroke="#065695" stroke-width="2" xlink:title="IOzone - EXT4-RAMDISK - 1.470x Faster Than EXT4-SSD"/><polygon points="35,98 169,187 149,212" fill="#01579b" stroke="#065695" stroke-width="2" xlink:title="IOzone - BTRFS-RAMDISK - 1.403x Faster Than EXT4-SSD"/><polygon points="35,98 136,166 121,184" fill="#795548" stroke="#065695" stroke-width="2" xlink:title="IOzone - F2FS-NVME - 1.117x Faster Than EXT4-SSD"/><polygon points="35,98 130,162 116,179" fill="#009688" stroke="#065695" stroke-width="2" xlink:title="IOzone - EXT4-NVME - 1.107x Faster Than EXT4-SSD"/><polygon points="35,98 129,161 115,178" fill="#e91e63" stroke="#065695" stroke-width="2" xlink:title="IOzone - BTRFS-SSD - 1.101x Faster Than EXT4-SSD"/><polygon points="35,98 87,133 79,142" fill="#4caf50" stroke="#065695" stroke-width="2" xlink:title="IOzone - BTRFS-NVME - 1.097x Faster Than EXT4-SSD"/><polygon points="35,98 86,132 78,141" fill="#ffeb3b" stroke="#065695" stroke-width="2" xlink:title="IOzone - F2FS-SSD - 1.094x Faster Than EXT4-SSD"/><polygon points="35,98 85,131 77,140" fill="#ff5722" stroke="#065695" stroke-width="2" xlink:title="IOzone - EXT4-SSD - 1.000x Faster Than EXT4-SSD"/><polygon points="35,98 99,162 85,173" fill="#f44336" stroke="#065695" stroke-width="2" xlink:title="IOzone - F2FS-RAMDISK - 2.723x Faster Than EXT4-SSD"/><polygon points="35,98 97,160 84,171" fill="#01579b" stroke="#065695" stroke-width="2" xlink:title="IOzone - BTRFS-RAMDISK - 2.616x Faster Than EXT4-SSD"/><polygon points="35,98 95,158 82,168" fill="#673ab7" stroke="#065695" stroke-width="2" xlink:title="IOzone - EXT4-RAMDISK - 2.610x Faster Than EXT4-SSD"/><polygon points="35,98 82,145 72,154" fill="#4caf50" stroke="#065695" stroke-width="2" xlink:title="IOzone - BTRFS-NVME - 2.117x Faster Than EXT4-SSD"/><polygon points="35,98 82,145 72,153" fill="#795548" stroke="#065695" stroke-width="2" xlink:title="IOzone - F2FS-NVME - 2.102x Faster Than EXT4-SSD"/><polygon points="35,98 82,145 72,153" fill="#009688" stroke="#065695" stroke-width="2" xlink:title="IOzone - EXT4-NVME - 1.867x Faster Than EXT4-SSD"/><polygon points="35,98 82,145 72,153" fill="#e91e63" stroke="#065695" stroke-width="2" xlink:title="IOzone - BTRFS-SSD - 1.070x Faster Than EXT4-SSD"/><polygon points="35,98 81,144 71,153" fill="#ffeb3b" stroke="#065695" stroke-width="2" xlink:title="IOzone - F2FS-SSD - 1.066x Faster Than EXT4-SSD"/><polygon points="35,98 77,140 68,148" fill="#ff5722" stroke="#065695" stroke-width="2" xlink:title="IOzone - EXT4-SSD - 1.000x Faster Than EXT4-SSD"/><polygon points="35,98 126,234 98,249" fill="#f44336" stroke="#065695" stroke-width="2" xlink:title="Unpacking The Linux Kernel - F2FS-RAMDISK - 1.231x Faster Than BTRFS-RAMDISK"/><polygon points="35,98 122,229 95,243" fill="#673ab7" stroke="#065695" stroke-width="2" xlink:title="Unpacking The Linux Kernel - EXT4-RAMDISK - 1.231x Faster Than BTRFS-RAMDISK"/><polygon points="35,98 122,228 95,243" fill="#ff5722" stroke="#065695" stroke-width="2" xlink:title="Unpacking The Linux Kernel - EXT4-SSD - 1.227x Faster Than BTRFS-RAMDISK"/><polygon points="35,98 106,204 84,215" fill="#009688" stroke="#065695" stroke-width="2" xlink:title="Unpacking The Linux Kernel - EXT4-NVME - 1.216x Faster Than BTRFS-RAMDISK"/><polygon points="35,98 105,203 83,215" fill="#ffeb3b" stroke="#065695" stroke-width="2" xlink:title="Unpacking The Linux Kernel - F2FS-SSD - 1.207x Faster Than BTRFS-RAMDISK"/><polygon points="35,98 97,191 78,201" fill="#795548" stroke="#065695" stroke-width="2" xlink:title="Unpacking The Linux Kernel - F2FS-NVME - 1.175x Faster Than BTRFS-RAMDISK"/><polygon points="35,98 71,151 60,157" fill="#4caf50" stroke="#065695" stroke-width="2" xlink:title="Unpacking The Linux Kernel - BTRFS-NVME - 1.048x Faster Than BTRFS-RAMDISK"/><polygon points="35,98 71,151 59,157" fill="#e91e63" stroke="#065695" stroke-width="2" xlink:title="Unpacking The Linux Kernel - BTRFS-SSD - 1.042x Faster Than BTRFS-RAMDISK"/><polygon points="35,98 68,148 58,153" fill="#01579b" stroke="#065695" stroke-width="2" xlink:title="Unpacking The Linux Kernel - BTRFS-RAMDISK - 1.000x Faster Than BTRFS-RAMDISK"/><polygon points="35,98 63,166 35,172" fill="#ffeb3b" stroke="#065695" stroke-width="2" xlink:title="PostMark - F2FS-SSD - 1.275x Faster Than BTRFS-SSD"/><polygon points="35,98 63,166 35,172" fill="#f44336" stroke="#065695" stroke-width="2" xlink:title="PostMark - F2FS-RAMDISK - 1.265x Faster Than BTRFS-SSD"/><polygon points="35,98 63,166 35,172" fill="#795548" stroke="#065695" stroke-width="2" xlink:title="PostMark - F2FS-NVME - 1.246x Faster Than BTRFS-SSD"/><polygon points="35,98 63,165 35,171" fill="#009688" stroke="#065695" stroke-width="2" xlink:title="PostMark - EXT4-NVME - 1.037x Faster Than BTRFS-SSD"/><polygon points="35,98 63,165 35,170" fill="#673ab7" stroke="#065695" stroke-width="2" xlink:title="PostMark - EXT4-RAMDISK - 1.029x Faster Than BTRFS-SSD"/><polygon points="35,98 62,163 35,169" fill="#4caf50" stroke="#065695" stroke-width="2" xlink:title="PostMark - BTRFS-NVME - 1.006x Faster Than BTRFS-SSD"/><polygon points="35,98 59,156 35,161" fill="#01579b" stroke="#065695" stroke-width="2" xlink:title="PostMark - BTRFS-RAMDISK - 1.006x Faster Than BTRFS-SSD"/><polygon points="35,98 59,156 35,161" fill="#ff5722" stroke="#065695" stroke-width="2" xlink:title="PostMark - EXT4-SSD - 1.006x Faster Than BTRFS-SSD"/><polygon points="35,98 58,153 35,158" fill="#e91e63" stroke="#065695" stroke-width="2" xlink:title="PostMark - BTRFS-SSD - 1.000x Faster Than BTRFS-SSD"/><path fill="#FEFEFE" stroke="#757575" stroke-width="1" d="M35,98 L95,98 A60,60 0 0,1 35,158 Z"/><text x="76.742564481588" y="132.25723734484" font-size="11" fill="#C80000" text-anchor="end" dominant-baseline="middle">Disk</text><text x="586" y="667" font-size="9" fill="#f44336" text-anchor="end" dominant-baseline="middle">2 x 960GB SanDisk SDSSDHII + 1200GB INTEL SSDPE2MW012T4</text><text x="586" y="658" font-size="9" fill="#673ab7" text-anchor="end" dominant-baseline="middle">2 x 960GB SanDisk SDSSDHII + 1200GB INTEL SSDPE2MW012T4</text><text x="586" y="649" font-size="9" fill="#01579b" text-anchor="end" dominant-baseline="middle">2 x 960GB SanDisk SDSSDHII + 1200GB INTEL SSDPE2MW012T4</text><text x="586" y="640" font-size="9" fill="#795548" text-anchor="end" dominant-baseline="middle">2 x 960GB SanDisk SDSSDHII + 1200GB INTEL SSDPE2MW012T4</text><text x="586" y="631" font-size="9" fill="#009688" text-anchor="end" dominant-baseline="middle">2 x 960GB SanDisk SDSSDHII + 1200GB INTEL SSDPE2MW012T4</text><text x="586" y="622" font-size="9" fill="#4caf50" text-anchor="end" dominant-baseline="middle">2 x 960GB SanDisk SDSSDHII + 1200GB INTEL SSDPE2MW012T4</text><text x="586" y="613" font-size="9" fill="#ffeb3b" text-anchor="end" dominant-baseline="middle">2 x 960GB SanDisk SDSSDHII + 1200GB INTEL SSDPE2MW012T4</text><text x="586" y="604" font-size="9" fill="#ff5722" text-anchor="end" dominant-baseline="middle">2 x 960GB SanDisk SDSSDHII + 1200GB INTEL SSDPE2MW012T4</text><text x="586" y="595" font-size="9" fill="#e91e63" text-anchor="end" dominant-baseline="middle">2 x 960GB SanDisk SDSSDHII + 1200GB INTEL SSDPE2MW012T4</text></svg>
